%TF.GenerationSoftware,KiCad,Pcbnew,8.0.7*%
%TF.CreationDate,2025-01-01T13:33:22+01:00*%
%TF.ProjectId,termometer_kombo,7465726d-6f6d-4657-9465-725f6b6f6d62,rev?*%
%TF.SameCoordinates,Original*%
%TF.FileFunction,Legend,Top*%
%TF.FilePolarity,Positive*%
%FSLAX46Y46*%
G04 Gerber Fmt 4.6, Leading zero omitted, Abs format (unit mm)*
G04 Created by KiCad (PCBNEW 8.0.7) date 2025-01-01 13:33:22*
%MOMM*%
%LPD*%
G01*
G04 APERTURE LIST*
%ADD10C,0.500000*%
%ADD11C,0.150000*%
%ADD12C,0.120000*%
G04 APERTURE END LIST*
D10*
X98500000Y-78310338D02*
X96875000Y-78310338D01*
X98500000Y-141068950D02*
X93500000Y-141068950D01*
X98500000Y-127620676D02*
X96875000Y-127620676D01*
X98500000Y-114172402D02*
X96875000Y-114172402D01*
X98500000Y-51413800D02*
X93500000Y-51413800D01*
X98500000Y-42448274D02*
X96875000Y-42448274D01*
X98500000Y-64862064D02*
X96875000Y-64862064D01*
X98500000Y-132103434D02*
X96875000Y-132103434D01*
X98500000Y-82793096D02*
X96875000Y-82793096D01*
X98500000Y-123137918D02*
X96875000Y-123137918D01*
X98500000Y-60379306D02*
X96875000Y-60379306D01*
X98500000Y-105206886D02*
X96875000Y-105206886D01*
X98375000Y-159000000D02*
X96750000Y-159000000D01*
X98500000Y-33482758D02*
X96875000Y-33482758D01*
X98500000Y-69344822D02*
X96875000Y-69344822D01*
X98500000Y-37965516D02*
X96875000Y-37965516D01*
X98500000Y-154517224D02*
X96875000Y-154517224D01*
X98500000Y-29000000D02*
X85750000Y-29000000D01*
X98500000Y-136586192D02*
X96875000Y-136586192D01*
X98500000Y-73827580D02*
X85750000Y-73827580D01*
X98500000Y-100724128D02*
X96875000Y-100724128D01*
X98500000Y-150034466D02*
X96875000Y-150034466D01*
X98500000Y-109689644D02*
X96875000Y-109689644D01*
X98500000Y-46931032D02*
X96875000Y-46931032D01*
X98500000Y-96250000D02*
X93500000Y-96250000D01*
X98500000Y-87275854D02*
X96875000Y-87275854D01*
X98500000Y-55896548D02*
X96875000Y-55896548D01*
X98500000Y-145551708D02*
X96875000Y-145551708D01*
X98500000Y-91758612D02*
X96875000Y-91758612D01*
X98500000Y-118655160D02*
X85750000Y-118655160D01*
G36*
X87124214Y-35005024D02*
G01*
X86876041Y-34995674D01*
X86630892Y-34964905D01*
X86584438Y-34956175D01*
X86346299Y-34900482D01*
X86171667Y-34845045D01*
X85942761Y-34750663D01*
X85933531Y-34746127D01*
X86066643Y-34284508D01*
X86304101Y-34384324D01*
X86448883Y-34434717D01*
X86699237Y-34495600D01*
X86942559Y-34522873D01*
X87137648Y-34528750D01*
X87389046Y-34517182D01*
X87649165Y-34472761D01*
X87831297Y-34410293D01*
X88049220Y-34276090D01*
X88211870Y-34084436D01*
X88219644Y-34070795D01*
X88311235Y-33829911D01*
X88341288Y-33586579D01*
X88341765Y-33549337D01*
X88318532Y-33299744D01*
X88231169Y-33056119D01*
X88145150Y-32933845D01*
X87950571Y-32762941D01*
X87727612Y-32650292D01*
X87631018Y-32618771D01*
X87384295Y-32562958D01*
X87120398Y-32532905D01*
X86934926Y-32527180D01*
X86829902Y-32527180D01*
X86829902Y-32099755D01*
X87026517Y-32099755D01*
X87272592Y-32081437D01*
X87522330Y-32026482D01*
X87754666Y-31924206D01*
X87946092Y-31763921D01*
X88069686Y-31551312D01*
X88115592Y-31310183D01*
X88118283Y-31225366D01*
X88090376Y-30970485D01*
X87991277Y-30749092D01*
X87813492Y-30574865D01*
X87659106Y-30493859D01*
X87414945Y-30428686D01*
X87208478Y-30413258D01*
X86956145Y-30428027D01*
X86713848Y-30482591D01*
X86627180Y-30518283D01*
X86407362Y-30634117D01*
X86270586Y-30721004D01*
X86053210Y-30315561D01*
X86271525Y-30188522D01*
X86503838Y-30077424D01*
X86745524Y-29996309D01*
X86999052Y-29954842D01*
X87229239Y-29944312D01*
X87494427Y-29957063D01*
X87755319Y-30001142D01*
X88001251Y-30085992D01*
X88041346Y-30105512D01*
X88254982Y-30242498D01*
X88435259Y-30429271D01*
X88510293Y-30546371D01*
X88609919Y-30787500D01*
X88656803Y-31034767D01*
X88664166Y-31189951D01*
X88638047Y-31453108D01*
X88559690Y-31685096D01*
X88443126Y-31868946D01*
X88260917Y-32052300D01*
X88044018Y-32192033D01*
X87880146Y-32260956D01*
X88116691Y-32345534D01*
X88340892Y-32468753D01*
X88369853Y-32488101D01*
X88555683Y-32646750D01*
X88709255Y-32847005D01*
X88747208Y-32911863D01*
X88842881Y-33147720D01*
X88887904Y-33400140D01*
X88894975Y-33562770D01*
X88876132Y-33809303D01*
X88811878Y-34062857D01*
X88702023Y-34297941D01*
X88546543Y-34507339D01*
X88343730Y-34683835D01*
X88118283Y-34815736D01*
X87881162Y-34907237D01*
X87642491Y-34963432D01*
X87377564Y-34995966D01*
X87124214Y-35005024D01*
G37*
G36*
X91689910Y-29967324D02*
G01*
X91935932Y-30036361D01*
X92158513Y-30151422D01*
X92357652Y-30312508D01*
X92533349Y-30519619D01*
X92586706Y-30598883D01*
X92706675Y-30817360D01*
X92806310Y-31063684D01*
X92885611Y-31337855D01*
X92934412Y-31577241D01*
X92970199Y-31834450D01*
X92992973Y-32109481D01*
X93002733Y-32402334D01*
X93003140Y-32478332D01*
X92996633Y-32773923D01*
X92977113Y-33051921D01*
X92944579Y-33312326D01*
X92899031Y-33555137D01*
X92823797Y-33833912D01*
X92728228Y-34085197D01*
X92612326Y-34308993D01*
X92586706Y-34350453D01*
X92418822Y-34572905D01*
X92227497Y-34749332D01*
X92012730Y-34879735D01*
X91774522Y-34964113D01*
X91512872Y-35002467D01*
X91420446Y-35005024D01*
X91152263Y-34981743D01*
X90906878Y-34911902D01*
X90684290Y-34795499D01*
X90570481Y-34710711D01*
X90384902Y-34523908D01*
X90241676Y-34322179D01*
X90118906Y-34086866D01*
X90028262Y-33853419D01*
X89954506Y-33595194D01*
X89905705Y-33354882D01*
X89870214Y-33097053D01*
X89848031Y-32821708D01*
X89839159Y-32528845D01*
X89838974Y-32478332D01*
X90399511Y-32478332D01*
X90405388Y-32746465D01*
X90423019Y-33004980D01*
X90452405Y-33253879D01*
X90493545Y-33493161D01*
X90556678Y-33742550D01*
X90650845Y-33985886D01*
X90783631Y-34212508D01*
X90811060Y-34249092D01*
X91002085Y-34423974D01*
X91238104Y-34518141D01*
X91420446Y-34536078D01*
X91669750Y-34502166D01*
X91895637Y-34387821D01*
X92033496Y-34249092D01*
X92170453Y-34030289D01*
X92268913Y-33794060D01*
X92336319Y-33551068D01*
X92348569Y-33493161D01*
X92394025Y-33223293D01*
X92421941Y-32973192D01*
X92438103Y-32713474D01*
X92442602Y-32478332D01*
X92436725Y-32206993D01*
X92419094Y-31946188D01*
X92389709Y-31695915D01*
X92348569Y-31456175D01*
X92285629Y-31206786D01*
X92192129Y-30963450D01*
X92060630Y-30736828D01*
X92033496Y-30700244D01*
X91843673Y-30525362D01*
X91605765Y-30431195D01*
X91420446Y-30413258D01*
X91174881Y-30447170D01*
X90950110Y-30561515D01*
X90811060Y-30700244D01*
X90672712Y-30919047D01*
X90573489Y-31155276D01*
X90505804Y-31398268D01*
X90493545Y-31456175D01*
X90448089Y-31726623D01*
X90420173Y-31978212D01*
X90404011Y-32240334D01*
X90399511Y-32478332D01*
X89838974Y-32478332D01*
X89843506Y-32228519D01*
X89860908Y-31945274D01*
X89891362Y-31680061D01*
X89934868Y-31432879D01*
X90002120Y-31167291D01*
X90024598Y-31095917D01*
X90113990Y-30862052D01*
X90236188Y-30626549D01*
X90379757Y-30424934D01*
X90566817Y-30238625D01*
X90778511Y-30096354D01*
X91012422Y-30000645D01*
X91268552Y-29951497D01*
X91420446Y-29944312D01*
X91689910Y-29967324D01*
G37*
G36*
X91338450Y-142904019D02*
G01*
X91139911Y-142896539D01*
X90943792Y-142871924D01*
X90906629Y-142864940D01*
X90715290Y-142820386D01*
X90573482Y-142776036D01*
X90392172Y-142702411D01*
X90381018Y-142696901D01*
X90481646Y-142332491D01*
X90673741Y-142407845D01*
X90792323Y-142447773D01*
X90993660Y-142496480D01*
X91201549Y-142519400D01*
X91332588Y-142523000D01*
X91544698Y-142512887D01*
X91741875Y-142478401D01*
X91901186Y-142419441D01*
X92066851Y-142305825D01*
X92186774Y-142148197D01*
X92192323Y-142137096D01*
X92257536Y-141947808D01*
X92279189Y-141753048D01*
X92279274Y-141739469D01*
X92259902Y-141532931D01*
X92195196Y-141335848D01*
X92141521Y-141241214D01*
X91995240Y-141088099D01*
X91816556Y-140983476D01*
X91654989Y-140921744D01*
X91461671Y-140872590D01*
X91262264Y-140841101D01*
X91034620Y-140820364D01*
X90817022Y-140811148D01*
X90660432Y-140809392D01*
X90684429Y-140604915D01*
X90705129Y-140410605D01*
X90717096Y-140286713D01*
X90735636Y-140077488D01*
X90751932Y-139877240D01*
X90756175Y-139821674D01*
X90770458Y-139614621D01*
X90782164Y-139409286D01*
X90783531Y-139382037D01*
X90793233Y-139175800D01*
X90800360Y-138967416D01*
X90801116Y-138939469D01*
X92587020Y-138939469D01*
X92587020Y-139302903D01*
X91159665Y-139302903D01*
X91148717Y-139500300D01*
X91145010Y-139566685D01*
X91132569Y-139767803D01*
X91122540Y-139893970D01*
X91105953Y-140090109D01*
X91094207Y-140216371D01*
X91075340Y-140411277D01*
X91069783Y-140462568D01*
X91276810Y-140473131D01*
X91515414Y-140500246D01*
X91731597Y-140542817D01*
X91925360Y-140600843D01*
X92128280Y-140690877D01*
X92298914Y-140803168D01*
X92324214Y-140824047D01*
X92479149Y-140982829D01*
X92596030Y-141163396D01*
X92674857Y-141365748D01*
X92715629Y-141589886D01*
X92721842Y-141727745D01*
X92707340Y-141928215D01*
X92657888Y-142135068D01*
X92573342Y-142327606D01*
X92452316Y-142498808D01*
X92293425Y-142642996D01*
X92116120Y-142750635D01*
X91930184Y-142824780D01*
X91718591Y-142874660D01*
X91508970Y-142898627D01*
X91338450Y-142904019D01*
G37*
G36*
X87436706Y-53320000D02*
G01*
X87433775Y-53264312D01*
X87430844Y-53168569D01*
X87446395Y-52954437D01*
X87493049Y-52752898D01*
X87570806Y-52563953D01*
X87590090Y-52527676D01*
X87697576Y-52351935D01*
X87819755Y-52184972D01*
X87956626Y-52026787D01*
X87985764Y-51996203D01*
X88131775Y-51846605D01*
X88275497Y-51703112D01*
X88416929Y-51565725D01*
X88444940Y-51538981D01*
X88593602Y-51395975D01*
X88739995Y-51247017D01*
X88788834Y-51195087D01*
X88920453Y-51036004D01*
X89025883Y-50868336D01*
X89037962Y-50845331D01*
X89106684Y-50661648D01*
X89133331Y-50458645D01*
X89133705Y-50430118D01*
X89113956Y-50216444D01*
X89046610Y-50029447D01*
X88931472Y-49892784D01*
X88750376Y-49787780D01*
X88552013Y-49738367D01*
X88422470Y-49730607D01*
X88220111Y-49746063D01*
X88021912Y-49800949D01*
X87840583Y-49889519D01*
X87741521Y-49957264D01*
X87592307Y-50084371D01*
X87582274Y-50094040D01*
X87364410Y-49808764D01*
X87510073Y-49678390D01*
X87568597Y-49632909D01*
X87741381Y-49523819D01*
X87929099Y-49439469D01*
X88131245Y-49382034D01*
X88338039Y-49357501D01*
X88422470Y-49355450D01*
X88628596Y-49365307D01*
X88843724Y-49401725D01*
X89031550Y-49464977D01*
X89212779Y-49570124D01*
X89290020Y-49635840D01*
X89417393Y-49788859D01*
X89508374Y-49968499D01*
X89562962Y-50174762D01*
X89580874Y-50377081D01*
X89581158Y-50407648D01*
X89565227Y-50602956D01*
X89511509Y-50804960D01*
X89446336Y-50948890D01*
X89344620Y-51117510D01*
X89223510Y-51280820D01*
X89096580Y-51424675D01*
X88960243Y-51566050D01*
X88819899Y-51706852D01*
X88675547Y-51847082D01*
X88646196Y-51875059D01*
X88501739Y-52018611D01*
X88358894Y-52166677D01*
X88293510Y-52236538D01*
X88162857Y-52387978D01*
X88045956Y-52548904D01*
X88010188Y-52605833D01*
X87928855Y-52784131D01*
X87901744Y-52955589D01*
X89710118Y-52955589D01*
X89710118Y-53320000D01*
X87436706Y-53320000D01*
G37*
G36*
X91496022Y-53404019D02*
G01*
X91297483Y-53396539D01*
X91101364Y-53371924D01*
X91064200Y-53364940D01*
X90872862Y-53320386D01*
X90731053Y-53276036D01*
X90549744Y-53202411D01*
X90538590Y-53196901D01*
X90639218Y-52832491D01*
X90831313Y-52907845D01*
X90949895Y-52947773D01*
X91151232Y-52996480D01*
X91359121Y-53019400D01*
X91490160Y-53023000D01*
X91702270Y-53012887D01*
X91899446Y-52978401D01*
X92058757Y-52919441D01*
X92224423Y-52805825D01*
X92344346Y-52648197D01*
X92349895Y-52637096D01*
X92415108Y-52447808D01*
X92436760Y-52253048D01*
X92436845Y-52239469D01*
X92417474Y-52032931D01*
X92352768Y-51835848D01*
X92299092Y-51741214D01*
X92152812Y-51588099D01*
X91974127Y-51483476D01*
X91812561Y-51421744D01*
X91619242Y-51372590D01*
X91419835Y-51341101D01*
X91192191Y-51320364D01*
X90974594Y-51311148D01*
X90818004Y-51309392D01*
X90842001Y-51104915D01*
X90862700Y-50910605D01*
X90874668Y-50786713D01*
X90893208Y-50577488D01*
X90909503Y-50377240D01*
X90913747Y-50321674D01*
X90928029Y-50114621D01*
X90939736Y-49909286D01*
X90941102Y-49882037D01*
X90950805Y-49675800D01*
X90957932Y-49467416D01*
X90958688Y-49439469D01*
X92744591Y-49439469D01*
X92744591Y-49802903D01*
X91317236Y-49802903D01*
X91306288Y-50000300D01*
X91302581Y-50066685D01*
X91290140Y-50267803D01*
X91280111Y-50393970D01*
X91263525Y-50590109D01*
X91251779Y-50716371D01*
X91232911Y-50911277D01*
X91227355Y-50962568D01*
X91434381Y-50973131D01*
X91672985Y-51000246D01*
X91889169Y-51042817D01*
X92082932Y-51100843D01*
X92285852Y-51190877D01*
X92456486Y-51303168D01*
X92481786Y-51324047D01*
X92636721Y-51482829D01*
X92753602Y-51663396D01*
X92832428Y-51865748D01*
X92873200Y-52089886D01*
X92879413Y-52227745D01*
X92864911Y-52428215D01*
X92815460Y-52635068D01*
X92730914Y-52827606D01*
X92609888Y-52998808D01*
X92450996Y-53142996D01*
X92273691Y-53250635D01*
X92087755Y-53324780D01*
X91876163Y-53374660D01*
X91666542Y-53398627D01*
X91496022Y-53404019D01*
G37*
G36*
X86295882Y-79900000D02*
G01*
X86292219Y-79830390D01*
X86288555Y-79710711D01*
X86307994Y-79443046D01*
X86366312Y-79191123D01*
X86463508Y-78954942D01*
X86487613Y-78909595D01*
X86621970Y-78689919D01*
X86774694Y-78481216D01*
X86945783Y-78283484D01*
X86982205Y-78245254D01*
X87164719Y-78058256D01*
X87344371Y-77878890D01*
X87521161Y-77707157D01*
X87556175Y-77673726D01*
X87742003Y-77494968D01*
X87924994Y-77308771D01*
X87986043Y-77243859D01*
X88150567Y-77045006D01*
X88282354Y-76835420D01*
X88297452Y-76806664D01*
X88383355Y-76577060D01*
X88416664Y-76323306D01*
X88417131Y-76287648D01*
X88392445Y-76020555D01*
X88308263Y-75786809D01*
X88164340Y-75615980D01*
X87937971Y-75484726D01*
X87690016Y-75422959D01*
X87528087Y-75413258D01*
X87275139Y-75432578D01*
X87027390Y-75501186D01*
X86800729Y-75611899D01*
X86676901Y-75696580D01*
X86490383Y-75855464D01*
X86477843Y-75867550D01*
X86205512Y-75510956D01*
X86387591Y-75347988D01*
X86460746Y-75291137D01*
X86676726Y-75154774D01*
X86911374Y-75049337D01*
X87164056Y-74977543D01*
X87422549Y-74946876D01*
X87528087Y-74944312D01*
X87785745Y-74956634D01*
X88054655Y-75002156D01*
X88289438Y-75081222D01*
X88515973Y-75212655D01*
X88612526Y-75294801D01*
X88771741Y-75486073D01*
X88885467Y-75710624D01*
X88953702Y-75968453D01*
X88976092Y-76221352D01*
X88976448Y-76259560D01*
X88956534Y-76503695D01*
X88889386Y-76756201D01*
X88807920Y-76936113D01*
X88680775Y-77146888D01*
X88529388Y-77351025D01*
X88370725Y-77530844D01*
X88200304Y-77707562D01*
X88024874Y-77883565D01*
X87844434Y-78058852D01*
X87807745Y-78093824D01*
X87627174Y-78273263D01*
X87448618Y-78458347D01*
X87366887Y-78545673D01*
X87203571Y-78734973D01*
X87057445Y-78936130D01*
X87012735Y-79007292D01*
X86911069Y-79230163D01*
X86877180Y-79444487D01*
X89137648Y-79444487D01*
X89137648Y-79900000D01*
X86295882Y-79900000D01*
G37*
G36*
X91939910Y-74967324D02*
G01*
X92185932Y-75036361D01*
X92408513Y-75151422D01*
X92607652Y-75312508D01*
X92783349Y-75519619D01*
X92836706Y-75598883D01*
X92956675Y-75817360D01*
X93056310Y-76063684D01*
X93135611Y-76337855D01*
X93184412Y-76577241D01*
X93220199Y-76834450D01*
X93242973Y-77109481D01*
X93252733Y-77402334D01*
X93253140Y-77478332D01*
X93246633Y-77773923D01*
X93227113Y-78051921D01*
X93194579Y-78312326D01*
X93149031Y-78555137D01*
X93073797Y-78833912D01*
X92978228Y-79085197D01*
X92862326Y-79308993D01*
X92836706Y-79350453D01*
X92668822Y-79572905D01*
X92477497Y-79749332D01*
X92262730Y-79879735D01*
X92024522Y-79964113D01*
X91762872Y-80002467D01*
X91670446Y-80005024D01*
X91402263Y-79981743D01*
X91156878Y-79911902D01*
X90934290Y-79795499D01*
X90820481Y-79710711D01*
X90634902Y-79523908D01*
X90491676Y-79322179D01*
X90368906Y-79086866D01*
X90278262Y-78853419D01*
X90204506Y-78595194D01*
X90155705Y-78354882D01*
X90120214Y-78097053D01*
X90098031Y-77821708D01*
X90089159Y-77528845D01*
X90088974Y-77478332D01*
X90649511Y-77478332D01*
X90655388Y-77746465D01*
X90673019Y-78004980D01*
X90702405Y-78253879D01*
X90743545Y-78493161D01*
X90806678Y-78742550D01*
X90900845Y-78985886D01*
X91033631Y-79212508D01*
X91061060Y-79249092D01*
X91252085Y-79423974D01*
X91488104Y-79518141D01*
X91670446Y-79536078D01*
X91919750Y-79502166D01*
X92145637Y-79387821D01*
X92283496Y-79249092D01*
X92420453Y-79030289D01*
X92518913Y-78794060D01*
X92586319Y-78551068D01*
X92598569Y-78493161D01*
X92644025Y-78223293D01*
X92671941Y-77973192D01*
X92688103Y-77713474D01*
X92692602Y-77478332D01*
X92686725Y-77206993D01*
X92669094Y-76946188D01*
X92639709Y-76695915D01*
X92598569Y-76456175D01*
X92535629Y-76206786D01*
X92442129Y-75963450D01*
X92310630Y-75736828D01*
X92283496Y-75700244D01*
X92093673Y-75525362D01*
X91855765Y-75431195D01*
X91670446Y-75413258D01*
X91424881Y-75447170D01*
X91200110Y-75561515D01*
X91061060Y-75700244D01*
X90922712Y-75919047D01*
X90823489Y-76155276D01*
X90755804Y-76398268D01*
X90743545Y-76456175D01*
X90698089Y-76726623D01*
X90670173Y-76978212D01*
X90654011Y-77240334D01*
X90649511Y-77478332D01*
X90088974Y-77478332D01*
X90093506Y-77228519D01*
X90110908Y-76945274D01*
X90141362Y-76680061D01*
X90184868Y-76432879D01*
X90252120Y-76167291D01*
X90274598Y-76095917D01*
X90363990Y-75862052D01*
X90486188Y-75626549D01*
X90629757Y-75424934D01*
X90816817Y-75238625D01*
X91028511Y-75096354D01*
X91262422Y-75000645D01*
X91518552Y-74951497D01*
X91670446Y-74944312D01*
X91939910Y-74967324D01*
G37*
G36*
X88590509Y-98070000D02*
G01*
X88590509Y-94804961D01*
X88435354Y-94937585D01*
X88366782Y-94984724D01*
X88194053Y-95088863D01*
X88047313Y-95166441D01*
X87862543Y-95250002D01*
X87699511Y-95309078D01*
X87576413Y-94984724D01*
X87760356Y-94912974D01*
X87952774Y-94820925D01*
X88132597Y-94715900D01*
X88184089Y-94681863D01*
X88352502Y-94554437D01*
X88501790Y-94419197D01*
X88648913Y-94264482D01*
X88713607Y-94189469D01*
X89010607Y-94189469D01*
X89010607Y-98070000D01*
X88590509Y-98070000D01*
G37*
G36*
X91496022Y-98154019D02*
G01*
X91297483Y-98146539D01*
X91101364Y-98121924D01*
X91064200Y-98114940D01*
X90872862Y-98070386D01*
X90731053Y-98026036D01*
X90549744Y-97952411D01*
X90538590Y-97946901D01*
X90639218Y-97582491D01*
X90831313Y-97657845D01*
X90949895Y-97697773D01*
X91151232Y-97746480D01*
X91359121Y-97769400D01*
X91490160Y-97773000D01*
X91702270Y-97762887D01*
X91899446Y-97728401D01*
X92058757Y-97669441D01*
X92224423Y-97555825D01*
X92344346Y-97398197D01*
X92349895Y-97387096D01*
X92415108Y-97197808D01*
X92436760Y-97003048D01*
X92436845Y-96989469D01*
X92417474Y-96782931D01*
X92352768Y-96585848D01*
X92299092Y-96491214D01*
X92152812Y-96338099D01*
X91974127Y-96233476D01*
X91812561Y-96171744D01*
X91619242Y-96122590D01*
X91419835Y-96091101D01*
X91192191Y-96070364D01*
X90974594Y-96061148D01*
X90818004Y-96059392D01*
X90842001Y-95854915D01*
X90862700Y-95660605D01*
X90874668Y-95536713D01*
X90893208Y-95327488D01*
X90909503Y-95127240D01*
X90913747Y-95071674D01*
X90928029Y-94864621D01*
X90939736Y-94659286D01*
X90941102Y-94632037D01*
X90950805Y-94425800D01*
X90957932Y-94217416D01*
X90958688Y-94189469D01*
X92744591Y-94189469D01*
X92744591Y-94552903D01*
X91317236Y-94552903D01*
X91306288Y-94750300D01*
X91302581Y-94816685D01*
X91290140Y-95017803D01*
X91280111Y-95143970D01*
X91263525Y-95340109D01*
X91251779Y-95466371D01*
X91232911Y-95661277D01*
X91227355Y-95712568D01*
X91434381Y-95723131D01*
X91672985Y-95750246D01*
X91889169Y-95792817D01*
X92082932Y-95850843D01*
X92285852Y-95940877D01*
X92456486Y-96053168D01*
X92481786Y-96074047D01*
X92636721Y-96232829D01*
X92753602Y-96413396D01*
X92832428Y-96615748D01*
X92873200Y-96839886D01*
X92879413Y-96977745D01*
X92864911Y-97178215D01*
X92815460Y-97385068D01*
X92730914Y-97577606D01*
X92609888Y-97748808D01*
X92450996Y-97892996D01*
X92273691Y-98000635D01*
X92087755Y-98074780D01*
X91876163Y-98124660D01*
X91666542Y-98148627D01*
X91496022Y-98154019D01*
G37*
G36*
X87238136Y-124650000D02*
G01*
X87238136Y-120568702D01*
X87044192Y-120734481D01*
X86958478Y-120793405D01*
X86742567Y-120923579D01*
X86559141Y-121020551D01*
X86328179Y-121125003D01*
X86124389Y-121198848D01*
X85970516Y-120793405D01*
X86200445Y-120703717D01*
X86440967Y-120588656D01*
X86665747Y-120457375D01*
X86730111Y-120414829D01*
X86940627Y-120255546D01*
X87127237Y-120086496D01*
X87311142Y-119893103D01*
X87392009Y-119799337D01*
X87763258Y-119799337D01*
X87763258Y-124650000D01*
X87238136Y-124650000D01*
G37*
G36*
X91439910Y-119717324D02*
G01*
X91685932Y-119786361D01*
X91908513Y-119901422D01*
X92107652Y-120062508D01*
X92283349Y-120269619D01*
X92336706Y-120348883D01*
X92456675Y-120567360D01*
X92556310Y-120813684D01*
X92635611Y-121087855D01*
X92684412Y-121327241D01*
X92720199Y-121584450D01*
X92742973Y-121859481D01*
X92752733Y-122152334D01*
X92753140Y-122228332D01*
X92746633Y-122523923D01*
X92727113Y-122801921D01*
X92694579Y-123062326D01*
X92649031Y-123305137D01*
X92573797Y-123583912D01*
X92478228Y-123835197D01*
X92362326Y-124058993D01*
X92336706Y-124100453D01*
X92168822Y-124322905D01*
X91977497Y-124499332D01*
X91762730Y-124629735D01*
X91524522Y-124714113D01*
X91262872Y-124752467D01*
X91170446Y-124755024D01*
X90902263Y-124731743D01*
X90656878Y-124661902D01*
X90434290Y-124545499D01*
X90320481Y-124460711D01*
X90134902Y-124273908D01*
X89991676Y-124072179D01*
X89868906Y-123836866D01*
X89778262Y-123603419D01*
X89704506Y-123345194D01*
X89655705Y-123104882D01*
X89620214Y-122847053D01*
X89598031Y-122571708D01*
X89589159Y-122278845D01*
X89588974Y-122228332D01*
X90149511Y-122228332D01*
X90155388Y-122496465D01*
X90173019Y-122754980D01*
X90202405Y-123003879D01*
X90243545Y-123243161D01*
X90306678Y-123492550D01*
X90400845Y-123735886D01*
X90533631Y-123962508D01*
X90561060Y-123999092D01*
X90752085Y-124173974D01*
X90988104Y-124268141D01*
X91170446Y-124286078D01*
X91419750Y-124252166D01*
X91645637Y-124137821D01*
X91783496Y-123999092D01*
X91920453Y-123780289D01*
X92018913Y-123544060D01*
X92086319Y-123301068D01*
X92098569Y-123243161D01*
X92144025Y-122973293D01*
X92171941Y-122723192D01*
X92188103Y-122463474D01*
X92192602Y-122228332D01*
X92186725Y-121956993D01*
X92169094Y-121696188D01*
X92139709Y-121445915D01*
X92098569Y-121206175D01*
X92035629Y-120956786D01*
X91942129Y-120713450D01*
X91810630Y-120486828D01*
X91783496Y-120450244D01*
X91593673Y-120275362D01*
X91355765Y-120181195D01*
X91170446Y-120163258D01*
X90924881Y-120197170D01*
X90700110Y-120311515D01*
X90561060Y-120450244D01*
X90422712Y-120669047D01*
X90323489Y-120905276D01*
X90255804Y-121148268D01*
X90243545Y-121206175D01*
X90198089Y-121476623D01*
X90170173Y-121728212D01*
X90154011Y-121990334D01*
X90149511Y-122228332D01*
X89588974Y-122228332D01*
X89593506Y-121978519D01*
X89610908Y-121695274D01*
X89641362Y-121430061D01*
X89684868Y-121182879D01*
X89752120Y-120917291D01*
X89774598Y-120845917D01*
X89863990Y-120612052D01*
X89986188Y-120376549D01*
X90129757Y-120174934D01*
X90316817Y-119988625D01*
X90528511Y-119846354D01*
X90762422Y-119750645D01*
X91018552Y-119701497D01*
X91170446Y-119694312D01*
X91439910Y-119717324D01*
G37*
D11*
X109633333Y-92504819D02*
X109300000Y-92028628D01*
X109061905Y-92504819D02*
X109061905Y-91504819D01*
X109061905Y-91504819D02*
X109442857Y-91504819D01*
X109442857Y-91504819D02*
X109538095Y-91552438D01*
X109538095Y-91552438D02*
X109585714Y-91600057D01*
X109585714Y-91600057D02*
X109633333Y-91695295D01*
X109633333Y-91695295D02*
X109633333Y-91838152D01*
X109633333Y-91838152D02*
X109585714Y-91933390D01*
X109585714Y-91933390D02*
X109538095Y-91981009D01*
X109538095Y-91981009D02*
X109442857Y-92028628D01*
X109442857Y-92028628D02*
X109061905Y-92028628D01*
X110538095Y-91504819D02*
X110061905Y-91504819D01*
X110061905Y-91504819D02*
X110014286Y-91981009D01*
X110014286Y-91981009D02*
X110061905Y-91933390D01*
X110061905Y-91933390D02*
X110157143Y-91885771D01*
X110157143Y-91885771D02*
X110395238Y-91885771D01*
X110395238Y-91885771D02*
X110490476Y-91933390D01*
X110490476Y-91933390D02*
X110538095Y-91981009D01*
X110538095Y-91981009D02*
X110585714Y-92076247D01*
X110585714Y-92076247D02*
X110585714Y-92314342D01*
X110585714Y-92314342D02*
X110538095Y-92409580D01*
X110538095Y-92409580D02*
X110490476Y-92457200D01*
X110490476Y-92457200D02*
X110395238Y-92504819D01*
X110395238Y-92504819D02*
X110157143Y-92504819D01*
X110157143Y-92504819D02*
X110061905Y-92457200D01*
X110061905Y-92457200D02*
X110014286Y-92409580D01*
X104015714Y-141593719D02*
X104015714Y-140593719D01*
X104015714Y-140593719D02*
X104253809Y-140593719D01*
X104253809Y-140593719D02*
X104396666Y-140641338D01*
X104396666Y-140641338D02*
X104491904Y-140736576D01*
X104491904Y-140736576D02*
X104539523Y-140831814D01*
X104539523Y-140831814D02*
X104587142Y-141022290D01*
X104587142Y-141022290D02*
X104587142Y-141165147D01*
X104587142Y-141165147D02*
X104539523Y-141355623D01*
X104539523Y-141355623D02*
X104491904Y-141450861D01*
X104491904Y-141450861D02*
X104396666Y-141546100D01*
X104396666Y-141546100D02*
X104253809Y-141593719D01*
X104253809Y-141593719D02*
X104015714Y-141593719D01*
X104968095Y-140688957D02*
X105015714Y-140641338D01*
X105015714Y-140641338D02*
X105110952Y-140593719D01*
X105110952Y-140593719D02*
X105349047Y-140593719D01*
X105349047Y-140593719D02*
X105444285Y-140641338D01*
X105444285Y-140641338D02*
X105491904Y-140688957D01*
X105491904Y-140688957D02*
X105539523Y-140784195D01*
X105539523Y-140784195D02*
X105539523Y-140879433D01*
X105539523Y-140879433D02*
X105491904Y-141022290D01*
X105491904Y-141022290D02*
X104920476Y-141593719D01*
X104920476Y-141593719D02*
X105539523Y-141593719D01*
X106396666Y-140593719D02*
X106206190Y-140593719D01*
X106206190Y-140593719D02*
X106110952Y-140641338D01*
X106110952Y-140641338D02*
X106063333Y-140688957D01*
X106063333Y-140688957D02*
X105968095Y-140831814D01*
X105968095Y-140831814D02*
X105920476Y-141022290D01*
X105920476Y-141022290D02*
X105920476Y-141403242D01*
X105920476Y-141403242D02*
X105968095Y-141498480D01*
X105968095Y-141498480D02*
X106015714Y-141546100D01*
X106015714Y-141546100D02*
X106110952Y-141593719D01*
X106110952Y-141593719D02*
X106301428Y-141593719D01*
X106301428Y-141593719D02*
X106396666Y-141546100D01*
X106396666Y-141546100D02*
X106444285Y-141498480D01*
X106444285Y-141498480D02*
X106491904Y-141403242D01*
X106491904Y-141403242D02*
X106491904Y-141165147D01*
X106491904Y-141165147D02*
X106444285Y-141069909D01*
X106444285Y-141069909D02*
X106396666Y-141022290D01*
X106396666Y-141022290D02*
X106301428Y-140974671D01*
X106301428Y-140974671D02*
X106110952Y-140974671D01*
X106110952Y-140974671D02*
X106015714Y-141022290D01*
X106015714Y-141022290D02*
X105968095Y-141069909D01*
X105968095Y-141069909D02*
X105920476Y-141165147D01*
X104015714Y-132628219D02*
X104015714Y-131628219D01*
X104015714Y-131628219D02*
X104253809Y-131628219D01*
X104253809Y-131628219D02*
X104396666Y-131675838D01*
X104396666Y-131675838D02*
X104491904Y-131771076D01*
X104491904Y-131771076D02*
X104539523Y-131866314D01*
X104539523Y-131866314D02*
X104587142Y-132056790D01*
X104587142Y-132056790D02*
X104587142Y-132199647D01*
X104587142Y-132199647D02*
X104539523Y-132390123D01*
X104539523Y-132390123D02*
X104491904Y-132485361D01*
X104491904Y-132485361D02*
X104396666Y-132580600D01*
X104396666Y-132580600D02*
X104253809Y-132628219D01*
X104253809Y-132628219D02*
X104015714Y-132628219D01*
X104968095Y-131723457D02*
X105015714Y-131675838D01*
X105015714Y-131675838D02*
X105110952Y-131628219D01*
X105110952Y-131628219D02*
X105349047Y-131628219D01*
X105349047Y-131628219D02*
X105444285Y-131675838D01*
X105444285Y-131675838D02*
X105491904Y-131723457D01*
X105491904Y-131723457D02*
X105539523Y-131818695D01*
X105539523Y-131818695D02*
X105539523Y-131913933D01*
X105539523Y-131913933D02*
X105491904Y-132056790D01*
X105491904Y-132056790D02*
X104920476Y-132628219D01*
X104920476Y-132628219D02*
X105539523Y-132628219D01*
X106396666Y-131961552D02*
X106396666Y-132628219D01*
X106158571Y-131580600D02*
X105920476Y-132294885D01*
X105920476Y-132294885D02*
X106539523Y-132294885D01*
X104015714Y-29524819D02*
X104015714Y-28524819D01*
X104015714Y-28524819D02*
X104253809Y-28524819D01*
X104253809Y-28524819D02*
X104396666Y-28572438D01*
X104396666Y-28572438D02*
X104491904Y-28667676D01*
X104491904Y-28667676D02*
X104539523Y-28762914D01*
X104539523Y-28762914D02*
X104587142Y-28953390D01*
X104587142Y-28953390D02*
X104587142Y-29096247D01*
X104587142Y-29096247D02*
X104539523Y-29286723D01*
X104539523Y-29286723D02*
X104491904Y-29381961D01*
X104491904Y-29381961D02*
X104396666Y-29477200D01*
X104396666Y-29477200D02*
X104253809Y-29524819D01*
X104253809Y-29524819D02*
X104015714Y-29524819D01*
X105539523Y-29524819D02*
X104968095Y-29524819D01*
X105253809Y-29524819D02*
X105253809Y-28524819D01*
X105253809Y-28524819D02*
X105158571Y-28667676D01*
X105158571Y-28667676D02*
X105063333Y-28762914D01*
X105063333Y-28762914D02*
X104968095Y-28810533D01*
X104015714Y-110214419D02*
X104015714Y-109214419D01*
X104015714Y-109214419D02*
X104253809Y-109214419D01*
X104253809Y-109214419D02*
X104396666Y-109262038D01*
X104396666Y-109262038D02*
X104491904Y-109357276D01*
X104491904Y-109357276D02*
X104539523Y-109452514D01*
X104539523Y-109452514D02*
X104587142Y-109642990D01*
X104587142Y-109642990D02*
X104587142Y-109785847D01*
X104587142Y-109785847D02*
X104539523Y-109976323D01*
X104539523Y-109976323D02*
X104491904Y-110071561D01*
X104491904Y-110071561D02*
X104396666Y-110166800D01*
X104396666Y-110166800D02*
X104253809Y-110214419D01*
X104253809Y-110214419D02*
X104015714Y-110214419D01*
X105539523Y-110214419D02*
X104968095Y-110214419D01*
X105253809Y-110214419D02*
X105253809Y-109214419D01*
X105253809Y-109214419D02*
X105158571Y-109357276D01*
X105158571Y-109357276D02*
X105063333Y-109452514D01*
X105063333Y-109452514D02*
X104968095Y-109500133D01*
X106015714Y-110214419D02*
X106206190Y-110214419D01*
X106206190Y-110214419D02*
X106301428Y-110166800D01*
X106301428Y-110166800D02*
X106349047Y-110119180D01*
X106349047Y-110119180D02*
X106444285Y-109976323D01*
X106444285Y-109976323D02*
X106491904Y-109785847D01*
X106491904Y-109785847D02*
X106491904Y-109404895D01*
X106491904Y-109404895D02*
X106444285Y-109309657D01*
X106444285Y-109309657D02*
X106396666Y-109262038D01*
X106396666Y-109262038D02*
X106301428Y-109214419D01*
X106301428Y-109214419D02*
X106110952Y-109214419D01*
X106110952Y-109214419D02*
X106015714Y-109262038D01*
X106015714Y-109262038D02*
X105968095Y-109309657D01*
X105968095Y-109309657D02*
X105920476Y-109404895D01*
X105920476Y-109404895D02*
X105920476Y-109642990D01*
X105920476Y-109642990D02*
X105968095Y-109738228D01*
X105968095Y-109738228D02*
X106015714Y-109785847D01*
X106015714Y-109785847D02*
X106110952Y-109833466D01*
X106110952Y-109833466D02*
X106301428Y-109833466D01*
X106301428Y-109833466D02*
X106396666Y-109785847D01*
X106396666Y-109785847D02*
X106444285Y-109738228D01*
X106444285Y-109738228D02*
X106491904Y-109642990D01*
X109633333Y-78604819D02*
X109300000Y-78128628D01*
X109061905Y-78604819D02*
X109061905Y-77604819D01*
X109061905Y-77604819D02*
X109442857Y-77604819D01*
X109442857Y-77604819D02*
X109538095Y-77652438D01*
X109538095Y-77652438D02*
X109585714Y-77700057D01*
X109585714Y-77700057D02*
X109633333Y-77795295D01*
X109633333Y-77795295D02*
X109633333Y-77938152D01*
X109633333Y-77938152D02*
X109585714Y-78033390D01*
X109585714Y-78033390D02*
X109538095Y-78081009D01*
X109538095Y-78081009D02*
X109442857Y-78128628D01*
X109442857Y-78128628D02*
X109061905Y-78128628D01*
X110585714Y-78604819D02*
X110014286Y-78604819D01*
X110300000Y-78604819D02*
X110300000Y-77604819D01*
X110300000Y-77604819D02*
X110204762Y-77747676D01*
X110204762Y-77747676D02*
X110109524Y-77842914D01*
X110109524Y-77842914D02*
X110014286Y-77890533D01*
X104015714Y-56421319D02*
X104015714Y-55421319D01*
X104015714Y-55421319D02*
X104253809Y-55421319D01*
X104253809Y-55421319D02*
X104396666Y-55468938D01*
X104396666Y-55468938D02*
X104491904Y-55564176D01*
X104491904Y-55564176D02*
X104539523Y-55659414D01*
X104539523Y-55659414D02*
X104587142Y-55849890D01*
X104587142Y-55849890D02*
X104587142Y-55992747D01*
X104587142Y-55992747D02*
X104539523Y-56183223D01*
X104539523Y-56183223D02*
X104491904Y-56278461D01*
X104491904Y-56278461D02*
X104396666Y-56373700D01*
X104396666Y-56373700D02*
X104253809Y-56421319D01*
X104253809Y-56421319D02*
X104015714Y-56421319D01*
X104920476Y-55421319D02*
X105587142Y-55421319D01*
X105587142Y-55421319D02*
X105158571Y-56421319D01*
X104015714Y-146076519D02*
X104015714Y-145076519D01*
X104015714Y-145076519D02*
X104253809Y-145076519D01*
X104253809Y-145076519D02*
X104396666Y-145124138D01*
X104396666Y-145124138D02*
X104491904Y-145219376D01*
X104491904Y-145219376D02*
X104539523Y-145314614D01*
X104539523Y-145314614D02*
X104587142Y-145505090D01*
X104587142Y-145505090D02*
X104587142Y-145647947D01*
X104587142Y-145647947D02*
X104539523Y-145838423D01*
X104539523Y-145838423D02*
X104491904Y-145933661D01*
X104491904Y-145933661D02*
X104396666Y-146028900D01*
X104396666Y-146028900D02*
X104253809Y-146076519D01*
X104253809Y-146076519D02*
X104015714Y-146076519D01*
X104968095Y-145171757D02*
X105015714Y-145124138D01*
X105015714Y-145124138D02*
X105110952Y-145076519D01*
X105110952Y-145076519D02*
X105349047Y-145076519D01*
X105349047Y-145076519D02*
X105444285Y-145124138D01*
X105444285Y-145124138D02*
X105491904Y-145171757D01*
X105491904Y-145171757D02*
X105539523Y-145266995D01*
X105539523Y-145266995D02*
X105539523Y-145362233D01*
X105539523Y-145362233D02*
X105491904Y-145505090D01*
X105491904Y-145505090D02*
X104920476Y-146076519D01*
X104920476Y-146076519D02*
X105539523Y-146076519D01*
X105872857Y-145076519D02*
X106539523Y-145076519D01*
X106539523Y-145076519D02*
X106110952Y-146076519D01*
X104015714Y-74352419D02*
X104015714Y-73352419D01*
X104015714Y-73352419D02*
X104253809Y-73352419D01*
X104253809Y-73352419D02*
X104396666Y-73400038D01*
X104396666Y-73400038D02*
X104491904Y-73495276D01*
X104491904Y-73495276D02*
X104539523Y-73590514D01*
X104539523Y-73590514D02*
X104587142Y-73780990D01*
X104587142Y-73780990D02*
X104587142Y-73923847D01*
X104587142Y-73923847D02*
X104539523Y-74114323D01*
X104539523Y-74114323D02*
X104491904Y-74209561D01*
X104491904Y-74209561D02*
X104396666Y-74304800D01*
X104396666Y-74304800D02*
X104253809Y-74352419D01*
X104253809Y-74352419D02*
X104015714Y-74352419D01*
X105539523Y-74352419D02*
X104968095Y-74352419D01*
X105253809Y-74352419D02*
X105253809Y-73352419D01*
X105253809Y-73352419D02*
X105158571Y-73495276D01*
X105158571Y-73495276D02*
X105063333Y-73590514D01*
X105063333Y-73590514D02*
X104968095Y-73638133D01*
X106491904Y-74352419D02*
X105920476Y-74352419D01*
X106206190Y-74352419D02*
X106206190Y-73352419D01*
X106206190Y-73352419D02*
X106110952Y-73495276D01*
X106110952Y-73495276D02*
X106015714Y-73590514D01*
X106015714Y-73590514D02*
X105920476Y-73638133D01*
X104015714Y-34007619D02*
X104015714Y-33007619D01*
X104015714Y-33007619D02*
X104253809Y-33007619D01*
X104253809Y-33007619D02*
X104396666Y-33055238D01*
X104396666Y-33055238D02*
X104491904Y-33150476D01*
X104491904Y-33150476D02*
X104539523Y-33245714D01*
X104539523Y-33245714D02*
X104587142Y-33436190D01*
X104587142Y-33436190D02*
X104587142Y-33579047D01*
X104587142Y-33579047D02*
X104539523Y-33769523D01*
X104539523Y-33769523D02*
X104491904Y-33864761D01*
X104491904Y-33864761D02*
X104396666Y-33960000D01*
X104396666Y-33960000D02*
X104253809Y-34007619D01*
X104253809Y-34007619D02*
X104015714Y-34007619D01*
X104968095Y-33102857D02*
X105015714Y-33055238D01*
X105015714Y-33055238D02*
X105110952Y-33007619D01*
X105110952Y-33007619D02*
X105349047Y-33007619D01*
X105349047Y-33007619D02*
X105444285Y-33055238D01*
X105444285Y-33055238D02*
X105491904Y-33102857D01*
X105491904Y-33102857D02*
X105539523Y-33198095D01*
X105539523Y-33198095D02*
X105539523Y-33293333D01*
X105539523Y-33293333D02*
X105491904Y-33436190D01*
X105491904Y-33436190D02*
X104920476Y-34007619D01*
X104920476Y-34007619D02*
X105539523Y-34007619D01*
X104015714Y-38490319D02*
X104015714Y-37490319D01*
X104015714Y-37490319D02*
X104253809Y-37490319D01*
X104253809Y-37490319D02*
X104396666Y-37537938D01*
X104396666Y-37537938D02*
X104491904Y-37633176D01*
X104491904Y-37633176D02*
X104539523Y-37728414D01*
X104539523Y-37728414D02*
X104587142Y-37918890D01*
X104587142Y-37918890D02*
X104587142Y-38061747D01*
X104587142Y-38061747D02*
X104539523Y-38252223D01*
X104539523Y-38252223D02*
X104491904Y-38347461D01*
X104491904Y-38347461D02*
X104396666Y-38442700D01*
X104396666Y-38442700D02*
X104253809Y-38490319D01*
X104253809Y-38490319D02*
X104015714Y-38490319D01*
X104920476Y-37490319D02*
X105539523Y-37490319D01*
X105539523Y-37490319D02*
X105206190Y-37871271D01*
X105206190Y-37871271D02*
X105349047Y-37871271D01*
X105349047Y-37871271D02*
X105444285Y-37918890D01*
X105444285Y-37918890D02*
X105491904Y-37966509D01*
X105491904Y-37966509D02*
X105539523Y-38061747D01*
X105539523Y-38061747D02*
X105539523Y-38299842D01*
X105539523Y-38299842D02*
X105491904Y-38395080D01*
X105491904Y-38395080D02*
X105444285Y-38442700D01*
X105444285Y-38442700D02*
X105349047Y-38490319D01*
X105349047Y-38490319D02*
X105063333Y-38490319D01*
X105063333Y-38490319D02*
X104968095Y-38442700D01*
X104968095Y-38442700D02*
X104920476Y-38395080D01*
X112458333Y-135597080D02*
X112410714Y-135644700D01*
X112410714Y-135644700D02*
X112267857Y-135692319D01*
X112267857Y-135692319D02*
X112172619Y-135692319D01*
X112172619Y-135692319D02*
X112029762Y-135644700D01*
X112029762Y-135644700D02*
X111934524Y-135549461D01*
X111934524Y-135549461D02*
X111886905Y-135454223D01*
X111886905Y-135454223D02*
X111839286Y-135263747D01*
X111839286Y-135263747D02*
X111839286Y-135120890D01*
X111839286Y-135120890D02*
X111886905Y-134930414D01*
X111886905Y-134930414D02*
X111934524Y-134835176D01*
X111934524Y-134835176D02*
X112029762Y-134739938D01*
X112029762Y-134739938D02*
X112172619Y-134692319D01*
X112172619Y-134692319D02*
X112267857Y-134692319D01*
X112267857Y-134692319D02*
X112410714Y-134739938D01*
X112410714Y-134739938D02*
X112458333Y-134787557D01*
X112791667Y-134692319D02*
X113458333Y-134692319D01*
X113458333Y-134692319D02*
X113029762Y-135692319D01*
X109633333Y-89004819D02*
X109300000Y-88528628D01*
X109061905Y-89004819D02*
X109061905Y-88004819D01*
X109061905Y-88004819D02*
X109442857Y-88004819D01*
X109442857Y-88004819D02*
X109538095Y-88052438D01*
X109538095Y-88052438D02*
X109585714Y-88100057D01*
X109585714Y-88100057D02*
X109633333Y-88195295D01*
X109633333Y-88195295D02*
X109633333Y-88338152D01*
X109633333Y-88338152D02*
X109585714Y-88433390D01*
X109585714Y-88433390D02*
X109538095Y-88481009D01*
X109538095Y-88481009D02*
X109442857Y-88528628D01*
X109442857Y-88528628D02*
X109061905Y-88528628D01*
X110490476Y-88338152D02*
X110490476Y-89004819D01*
X110252381Y-87957200D02*
X110014286Y-88671485D01*
X110014286Y-88671485D02*
X110633333Y-88671485D01*
X112433333Y-137859580D02*
X112385714Y-137907200D01*
X112385714Y-137907200D02*
X112242857Y-137954819D01*
X112242857Y-137954819D02*
X112147619Y-137954819D01*
X112147619Y-137954819D02*
X112004762Y-137907200D01*
X112004762Y-137907200D02*
X111909524Y-137811961D01*
X111909524Y-137811961D02*
X111861905Y-137716723D01*
X111861905Y-137716723D02*
X111814286Y-137526247D01*
X111814286Y-137526247D02*
X111814286Y-137383390D01*
X111814286Y-137383390D02*
X111861905Y-137192914D01*
X111861905Y-137192914D02*
X111909524Y-137097676D01*
X111909524Y-137097676D02*
X112004762Y-137002438D01*
X112004762Y-137002438D02*
X112147619Y-136954819D01*
X112147619Y-136954819D02*
X112242857Y-136954819D01*
X112242857Y-136954819D02*
X112385714Y-137002438D01*
X112385714Y-137002438D02*
X112433333Y-137050057D01*
X112766667Y-136954819D02*
X113385714Y-136954819D01*
X113385714Y-136954819D02*
X113052381Y-137335771D01*
X113052381Y-137335771D02*
X113195238Y-137335771D01*
X113195238Y-137335771D02*
X113290476Y-137383390D01*
X113290476Y-137383390D02*
X113338095Y-137431009D01*
X113338095Y-137431009D02*
X113385714Y-137526247D01*
X113385714Y-137526247D02*
X113385714Y-137764342D01*
X113385714Y-137764342D02*
X113338095Y-137859580D01*
X113338095Y-137859580D02*
X113290476Y-137907200D01*
X113290476Y-137907200D02*
X113195238Y-137954819D01*
X113195238Y-137954819D02*
X112909524Y-137954819D01*
X112909524Y-137954819D02*
X112814286Y-137907200D01*
X112814286Y-137907200D02*
X112766667Y-137859580D01*
X104015714Y-69869619D02*
X104015714Y-68869619D01*
X104015714Y-68869619D02*
X104253809Y-68869619D01*
X104253809Y-68869619D02*
X104396666Y-68917238D01*
X104396666Y-68917238D02*
X104491904Y-69012476D01*
X104491904Y-69012476D02*
X104539523Y-69107714D01*
X104539523Y-69107714D02*
X104587142Y-69298190D01*
X104587142Y-69298190D02*
X104587142Y-69441047D01*
X104587142Y-69441047D02*
X104539523Y-69631523D01*
X104539523Y-69631523D02*
X104491904Y-69726761D01*
X104491904Y-69726761D02*
X104396666Y-69822000D01*
X104396666Y-69822000D02*
X104253809Y-69869619D01*
X104253809Y-69869619D02*
X104015714Y-69869619D01*
X105539523Y-69869619D02*
X104968095Y-69869619D01*
X105253809Y-69869619D02*
X105253809Y-68869619D01*
X105253809Y-68869619D02*
X105158571Y-69012476D01*
X105158571Y-69012476D02*
X105063333Y-69107714D01*
X105063333Y-69107714D02*
X104968095Y-69155333D01*
X106158571Y-68869619D02*
X106253809Y-68869619D01*
X106253809Y-68869619D02*
X106349047Y-68917238D01*
X106349047Y-68917238D02*
X106396666Y-68964857D01*
X106396666Y-68964857D02*
X106444285Y-69060095D01*
X106444285Y-69060095D02*
X106491904Y-69250571D01*
X106491904Y-69250571D02*
X106491904Y-69488666D01*
X106491904Y-69488666D02*
X106444285Y-69679142D01*
X106444285Y-69679142D02*
X106396666Y-69774380D01*
X106396666Y-69774380D02*
X106349047Y-69822000D01*
X106349047Y-69822000D02*
X106253809Y-69869619D01*
X106253809Y-69869619D02*
X106158571Y-69869619D01*
X106158571Y-69869619D02*
X106063333Y-69822000D01*
X106063333Y-69822000D02*
X106015714Y-69774380D01*
X106015714Y-69774380D02*
X105968095Y-69679142D01*
X105968095Y-69679142D02*
X105920476Y-69488666D01*
X105920476Y-69488666D02*
X105920476Y-69250571D01*
X105920476Y-69250571D02*
X105968095Y-69060095D01*
X105968095Y-69060095D02*
X106015714Y-68964857D01*
X106015714Y-68964857D02*
X106063333Y-68917238D01*
X106063333Y-68917238D02*
X106158571Y-68869619D01*
X104015714Y-159524819D02*
X104015714Y-158524819D01*
X104015714Y-158524819D02*
X104253809Y-158524819D01*
X104253809Y-158524819D02*
X104396666Y-158572438D01*
X104396666Y-158572438D02*
X104491904Y-158667676D01*
X104491904Y-158667676D02*
X104539523Y-158762914D01*
X104539523Y-158762914D02*
X104587142Y-158953390D01*
X104587142Y-158953390D02*
X104587142Y-159096247D01*
X104587142Y-159096247D02*
X104539523Y-159286723D01*
X104539523Y-159286723D02*
X104491904Y-159381961D01*
X104491904Y-159381961D02*
X104396666Y-159477200D01*
X104396666Y-159477200D02*
X104253809Y-159524819D01*
X104253809Y-159524819D02*
X104015714Y-159524819D01*
X104920476Y-158524819D02*
X105539523Y-158524819D01*
X105539523Y-158524819D02*
X105206190Y-158905771D01*
X105206190Y-158905771D02*
X105349047Y-158905771D01*
X105349047Y-158905771D02*
X105444285Y-158953390D01*
X105444285Y-158953390D02*
X105491904Y-159001009D01*
X105491904Y-159001009D02*
X105539523Y-159096247D01*
X105539523Y-159096247D02*
X105539523Y-159334342D01*
X105539523Y-159334342D02*
X105491904Y-159429580D01*
X105491904Y-159429580D02*
X105444285Y-159477200D01*
X105444285Y-159477200D02*
X105349047Y-159524819D01*
X105349047Y-159524819D02*
X105063333Y-159524819D01*
X105063333Y-159524819D02*
X104968095Y-159477200D01*
X104968095Y-159477200D02*
X104920476Y-159429580D01*
X106158571Y-158524819D02*
X106253809Y-158524819D01*
X106253809Y-158524819D02*
X106349047Y-158572438D01*
X106349047Y-158572438D02*
X106396666Y-158620057D01*
X106396666Y-158620057D02*
X106444285Y-158715295D01*
X106444285Y-158715295D02*
X106491904Y-158905771D01*
X106491904Y-158905771D02*
X106491904Y-159143866D01*
X106491904Y-159143866D02*
X106444285Y-159334342D01*
X106444285Y-159334342D02*
X106396666Y-159429580D01*
X106396666Y-159429580D02*
X106349047Y-159477200D01*
X106349047Y-159477200D02*
X106253809Y-159524819D01*
X106253809Y-159524819D02*
X106158571Y-159524819D01*
X106158571Y-159524819D02*
X106063333Y-159477200D01*
X106063333Y-159477200D02*
X106015714Y-159429580D01*
X106015714Y-159429580D02*
X105968095Y-159334342D01*
X105968095Y-159334342D02*
X105920476Y-159143866D01*
X105920476Y-159143866D02*
X105920476Y-158905771D01*
X105920476Y-158905771D02*
X105968095Y-158715295D01*
X105968095Y-158715295D02*
X106015714Y-158620057D01*
X106015714Y-158620057D02*
X106063333Y-158572438D01*
X106063333Y-158572438D02*
X106158571Y-158524819D01*
X112408333Y-144647080D02*
X112360714Y-144694700D01*
X112360714Y-144694700D02*
X112217857Y-144742319D01*
X112217857Y-144742319D02*
X112122619Y-144742319D01*
X112122619Y-144742319D02*
X111979762Y-144694700D01*
X111979762Y-144694700D02*
X111884524Y-144599461D01*
X111884524Y-144599461D02*
X111836905Y-144504223D01*
X111836905Y-144504223D02*
X111789286Y-144313747D01*
X111789286Y-144313747D02*
X111789286Y-144170890D01*
X111789286Y-144170890D02*
X111836905Y-143980414D01*
X111836905Y-143980414D02*
X111884524Y-143885176D01*
X111884524Y-143885176D02*
X111979762Y-143789938D01*
X111979762Y-143789938D02*
X112122619Y-143742319D01*
X112122619Y-143742319D02*
X112217857Y-143742319D01*
X112217857Y-143742319D02*
X112360714Y-143789938D01*
X112360714Y-143789938D02*
X112408333Y-143837557D01*
X113265476Y-144075652D02*
X113265476Y-144742319D01*
X113027381Y-143694700D02*
X112789286Y-144408985D01*
X112789286Y-144408985D02*
X113408333Y-144408985D01*
X104015714Y-114697219D02*
X104015714Y-113697219D01*
X104015714Y-113697219D02*
X104253809Y-113697219D01*
X104253809Y-113697219D02*
X104396666Y-113744838D01*
X104396666Y-113744838D02*
X104491904Y-113840076D01*
X104491904Y-113840076D02*
X104539523Y-113935314D01*
X104539523Y-113935314D02*
X104587142Y-114125790D01*
X104587142Y-114125790D02*
X104587142Y-114268647D01*
X104587142Y-114268647D02*
X104539523Y-114459123D01*
X104539523Y-114459123D02*
X104491904Y-114554361D01*
X104491904Y-114554361D02*
X104396666Y-114649600D01*
X104396666Y-114649600D02*
X104253809Y-114697219D01*
X104253809Y-114697219D02*
X104015714Y-114697219D01*
X104968095Y-113792457D02*
X105015714Y-113744838D01*
X105015714Y-113744838D02*
X105110952Y-113697219D01*
X105110952Y-113697219D02*
X105349047Y-113697219D01*
X105349047Y-113697219D02*
X105444285Y-113744838D01*
X105444285Y-113744838D02*
X105491904Y-113792457D01*
X105491904Y-113792457D02*
X105539523Y-113887695D01*
X105539523Y-113887695D02*
X105539523Y-113982933D01*
X105539523Y-113982933D02*
X105491904Y-114125790D01*
X105491904Y-114125790D02*
X104920476Y-114697219D01*
X104920476Y-114697219D02*
X105539523Y-114697219D01*
X106158571Y-113697219D02*
X106253809Y-113697219D01*
X106253809Y-113697219D02*
X106349047Y-113744838D01*
X106349047Y-113744838D02*
X106396666Y-113792457D01*
X106396666Y-113792457D02*
X106444285Y-113887695D01*
X106444285Y-113887695D02*
X106491904Y-114078171D01*
X106491904Y-114078171D02*
X106491904Y-114316266D01*
X106491904Y-114316266D02*
X106444285Y-114506742D01*
X106444285Y-114506742D02*
X106396666Y-114601980D01*
X106396666Y-114601980D02*
X106349047Y-114649600D01*
X106349047Y-114649600D02*
X106253809Y-114697219D01*
X106253809Y-114697219D02*
X106158571Y-114697219D01*
X106158571Y-114697219D02*
X106063333Y-114649600D01*
X106063333Y-114649600D02*
X106015714Y-114601980D01*
X106015714Y-114601980D02*
X105968095Y-114506742D01*
X105968095Y-114506742D02*
X105920476Y-114316266D01*
X105920476Y-114316266D02*
X105920476Y-114078171D01*
X105920476Y-114078171D02*
X105968095Y-113887695D01*
X105968095Y-113887695D02*
X106015714Y-113792457D01*
X106015714Y-113792457D02*
X106063333Y-113744838D01*
X106063333Y-113744838D02*
X106158571Y-113697219D01*
X107666666Y-160931009D02*
X107333333Y-160931009D01*
X107333333Y-161454819D02*
X107333333Y-160454819D01*
X107333333Y-160454819D02*
X107809523Y-160454819D01*
X108714285Y-161454819D02*
X108142857Y-161454819D01*
X108428571Y-161454819D02*
X108428571Y-160454819D01*
X108428571Y-160454819D02*
X108333333Y-160597676D01*
X108333333Y-160597676D02*
X108238095Y-160692914D01*
X108238095Y-160692914D02*
X108142857Y-160740533D01*
X104015714Y-87800719D02*
X104015714Y-86800719D01*
X104015714Y-86800719D02*
X104253809Y-86800719D01*
X104253809Y-86800719D02*
X104396666Y-86848338D01*
X104396666Y-86848338D02*
X104491904Y-86943576D01*
X104491904Y-86943576D02*
X104539523Y-87038814D01*
X104539523Y-87038814D02*
X104587142Y-87229290D01*
X104587142Y-87229290D02*
X104587142Y-87372147D01*
X104587142Y-87372147D02*
X104539523Y-87562623D01*
X104539523Y-87562623D02*
X104491904Y-87657861D01*
X104491904Y-87657861D02*
X104396666Y-87753100D01*
X104396666Y-87753100D02*
X104253809Y-87800719D01*
X104253809Y-87800719D02*
X104015714Y-87800719D01*
X105539523Y-87800719D02*
X104968095Y-87800719D01*
X105253809Y-87800719D02*
X105253809Y-86800719D01*
X105253809Y-86800719D02*
X105158571Y-86943576D01*
X105158571Y-86943576D02*
X105063333Y-87038814D01*
X105063333Y-87038814D02*
X104968095Y-87086433D01*
X106396666Y-87134052D02*
X106396666Y-87800719D01*
X106158571Y-86753100D02*
X105920476Y-87467385D01*
X105920476Y-87467385D02*
X106539523Y-87467385D01*
X104015714Y-96766219D02*
X104015714Y-95766219D01*
X104015714Y-95766219D02*
X104253809Y-95766219D01*
X104253809Y-95766219D02*
X104396666Y-95813838D01*
X104396666Y-95813838D02*
X104491904Y-95909076D01*
X104491904Y-95909076D02*
X104539523Y-96004314D01*
X104539523Y-96004314D02*
X104587142Y-96194790D01*
X104587142Y-96194790D02*
X104587142Y-96337647D01*
X104587142Y-96337647D02*
X104539523Y-96528123D01*
X104539523Y-96528123D02*
X104491904Y-96623361D01*
X104491904Y-96623361D02*
X104396666Y-96718600D01*
X104396666Y-96718600D02*
X104253809Y-96766219D01*
X104253809Y-96766219D02*
X104015714Y-96766219D01*
X105539523Y-96766219D02*
X104968095Y-96766219D01*
X105253809Y-96766219D02*
X105253809Y-95766219D01*
X105253809Y-95766219D02*
X105158571Y-95909076D01*
X105158571Y-95909076D02*
X105063333Y-96004314D01*
X105063333Y-96004314D02*
X104968095Y-96051933D01*
X106396666Y-95766219D02*
X106206190Y-95766219D01*
X106206190Y-95766219D02*
X106110952Y-95813838D01*
X106110952Y-95813838D02*
X106063333Y-95861457D01*
X106063333Y-95861457D02*
X105968095Y-96004314D01*
X105968095Y-96004314D02*
X105920476Y-96194790D01*
X105920476Y-96194790D02*
X105920476Y-96575742D01*
X105920476Y-96575742D02*
X105968095Y-96670980D01*
X105968095Y-96670980D02*
X106015714Y-96718600D01*
X106015714Y-96718600D02*
X106110952Y-96766219D01*
X106110952Y-96766219D02*
X106301428Y-96766219D01*
X106301428Y-96766219D02*
X106396666Y-96718600D01*
X106396666Y-96718600D02*
X106444285Y-96670980D01*
X106444285Y-96670980D02*
X106491904Y-96575742D01*
X106491904Y-96575742D02*
X106491904Y-96337647D01*
X106491904Y-96337647D02*
X106444285Y-96242409D01*
X106444285Y-96242409D02*
X106396666Y-96194790D01*
X106396666Y-96194790D02*
X106301428Y-96147171D01*
X106301428Y-96147171D02*
X106110952Y-96147171D01*
X106110952Y-96147171D02*
X106015714Y-96194790D01*
X106015714Y-96194790D02*
X105968095Y-96242409D01*
X105968095Y-96242409D02*
X105920476Y-96337647D01*
X104015714Y-92283419D02*
X104015714Y-91283419D01*
X104015714Y-91283419D02*
X104253809Y-91283419D01*
X104253809Y-91283419D02*
X104396666Y-91331038D01*
X104396666Y-91331038D02*
X104491904Y-91426276D01*
X104491904Y-91426276D02*
X104539523Y-91521514D01*
X104539523Y-91521514D02*
X104587142Y-91711990D01*
X104587142Y-91711990D02*
X104587142Y-91854847D01*
X104587142Y-91854847D02*
X104539523Y-92045323D01*
X104539523Y-92045323D02*
X104491904Y-92140561D01*
X104491904Y-92140561D02*
X104396666Y-92235800D01*
X104396666Y-92235800D02*
X104253809Y-92283419D01*
X104253809Y-92283419D02*
X104015714Y-92283419D01*
X105539523Y-92283419D02*
X104968095Y-92283419D01*
X105253809Y-92283419D02*
X105253809Y-91283419D01*
X105253809Y-91283419D02*
X105158571Y-91426276D01*
X105158571Y-91426276D02*
X105063333Y-91521514D01*
X105063333Y-91521514D02*
X104968095Y-91569133D01*
X106444285Y-91283419D02*
X105968095Y-91283419D01*
X105968095Y-91283419D02*
X105920476Y-91759609D01*
X105920476Y-91759609D02*
X105968095Y-91711990D01*
X105968095Y-91711990D02*
X106063333Y-91664371D01*
X106063333Y-91664371D02*
X106301428Y-91664371D01*
X106301428Y-91664371D02*
X106396666Y-91711990D01*
X106396666Y-91711990D02*
X106444285Y-91759609D01*
X106444285Y-91759609D02*
X106491904Y-91854847D01*
X106491904Y-91854847D02*
X106491904Y-92092942D01*
X106491904Y-92092942D02*
X106444285Y-92188180D01*
X106444285Y-92188180D02*
X106396666Y-92235800D01*
X106396666Y-92235800D02*
X106301428Y-92283419D01*
X106301428Y-92283419D02*
X106063333Y-92283419D01*
X106063333Y-92283419D02*
X105968095Y-92235800D01*
X105968095Y-92235800D02*
X105920476Y-92188180D01*
X111733333Y-121959580D02*
X111685714Y-122007200D01*
X111685714Y-122007200D02*
X111542857Y-122054819D01*
X111542857Y-122054819D02*
X111447619Y-122054819D01*
X111447619Y-122054819D02*
X111304762Y-122007200D01*
X111304762Y-122007200D02*
X111209524Y-121911961D01*
X111209524Y-121911961D02*
X111161905Y-121816723D01*
X111161905Y-121816723D02*
X111114286Y-121626247D01*
X111114286Y-121626247D02*
X111114286Y-121483390D01*
X111114286Y-121483390D02*
X111161905Y-121292914D01*
X111161905Y-121292914D02*
X111209524Y-121197676D01*
X111209524Y-121197676D02*
X111304762Y-121102438D01*
X111304762Y-121102438D02*
X111447619Y-121054819D01*
X111447619Y-121054819D02*
X111542857Y-121054819D01*
X111542857Y-121054819D02*
X111685714Y-121102438D01*
X111685714Y-121102438D02*
X111733333Y-121150057D01*
X112590476Y-121054819D02*
X112400000Y-121054819D01*
X112400000Y-121054819D02*
X112304762Y-121102438D01*
X112304762Y-121102438D02*
X112257143Y-121150057D01*
X112257143Y-121150057D02*
X112161905Y-121292914D01*
X112161905Y-121292914D02*
X112114286Y-121483390D01*
X112114286Y-121483390D02*
X112114286Y-121864342D01*
X112114286Y-121864342D02*
X112161905Y-121959580D01*
X112161905Y-121959580D02*
X112209524Y-122007200D01*
X112209524Y-122007200D02*
X112304762Y-122054819D01*
X112304762Y-122054819D02*
X112495238Y-122054819D01*
X112495238Y-122054819D02*
X112590476Y-122007200D01*
X112590476Y-122007200D02*
X112638095Y-121959580D01*
X112638095Y-121959580D02*
X112685714Y-121864342D01*
X112685714Y-121864342D02*
X112685714Y-121626247D01*
X112685714Y-121626247D02*
X112638095Y-121531009D01*
X112638095Y-121531009D02*
X112590476Y-121483390D01*
X112590476Y-121483390D02*
X112495238Y-121435771D01*
X112495238Y-121435771D02*
X112304762Y-121435771D01*
X112304762Y-121435771D02*
X112209524Y-121483390D01*
X112209524Y-121483390D02*
X112161905Y-121531009D01*
X112161905Y-121531009D02*
X112114286Y-121626247D01*
X104015714Y-65386919D02*
X104015714Y-64386919D01*
X104015714Y-64386919D02*
X104253809Y-64386919D01*
X104253809Y-64386919D02*
X104396666Y-64434538D01*
X104396666Y-64434538D02*
X104491904Y-64529776D01*
X104491904Y-64529776D02*
X104539523Y-64625014D01*
X104539523Y-64625014D02*
X104587142Y-64815490D01*
X104587142Y-64815490D02*
X104587142Y-64958347D01*
X104587142Y-64958347D02*
X104539523Y-65148823D01*
X104539523Y-65148823D02*
X104491904Y-65244061D01*
X104491904Y-65244061D02*
X104396666Y-65339300D01*
X104396666Y-65339300D02*
X104253809Y-65386919D01*
X104253809Y-65386919D02*
X104015714Y-65386919D01*
X105063333Y-65386919D02*
X105253809Y-65386919D01*
X105253809Y-65386919D02*
X105349047Y-65339300D01*
X105349047Y-65339300D02*
X105396666Y-65291680D01*
X105396666Y-65291680D02*
X105491904Y-65148823D01*
X105491904Y-65148823D02*
X105539523Y-64958347D01*
X105539523Y-64958347D02*
X105539523Y-64577395D01*
X105539523Y-64577395D02*
X105491904Y-64482157D01*
X105491904Y-64482157D02*
X105444285Y-64434538D01*
X105444285Y-64434538D02*
X105349047Y-64386919D01*
X105349047Y-64386919D02*
X105158571Y-64386919D01*
X105158571Y-64386919D02*
X105063333Y-64434538D01*
X105063333Y-64434538D02*
X105015714Y-64482157D01*
X105015714Y-64482157D02*
X104968095Y-64577395D01*
X104968095Y-64577395D02*
X104968095Y-64815490D01*
X104968095Y-64815490D02*
X105015714Y-64910728D01*
X105015714Y-64910728D02*
X105063333Y-64958347D01*
X105063333Y-64958347D02*
X105158571Y-65005966D01*
X105158571Y-65005966D02*
X105349047Y-65005966D01*
X105349047Y-65005966D02*
X105444285Y-64958347D01*
X105444285Y-64958347D02*
X105491904Y-64910728D01*
X105491904Y-64910728D02*
X105539523Y-64815490D01*
X115666666Y-134354819D02*
X115666666Y-135069104D01*
X115666666Y-135069104D02*
X115619047Y-135211961D01*
X115619047Y-135211961D02*
X115523809Y-135307200D01*
X115523809Y-135307200D02*
X115380952Y-135354819D01*
X115380952Y-135354819D02*
X115285714Y-135354819D01*
X116095238Y-134450057D02*
X116142857Y-134402438D01*
X116142857Y-134402438D02*
X116238095Y-134354819D01*
X116238095Y-134354819D02*
X116476190Y-134354819D01*
X116476190Y-134354819D02*
X116571428Y-134402438D01*
X116571428Y-134402438D02*
X116619047Y-134450057D01*
X116619047Y-134450057D02*
X116666666Y-134545295D01*
X116666666Y-134545295D02*
X116666666Y-134640533D01*
X116666666Y-134640533D02*
X116619047Y-134783390D01*
X116619047Y-134783390D02*
X116047619Y-135354819D01*
X116047619Y-135354819D02*
X116666666Y-135354819D01*
X109633333Y-82104819D02*
X109300000Y-81628628D01*
X109061905Y-82104819D02*
X109061905Y-81104819D01*
X109061905Y-81104819D02*
X109442857Y-81104819D01*
X109442857Y-81104819D02*
X109538095Y-81152438D01*
X109538095Y-81152438D02*
X109585714Y-81200057D01*
X109585714Y-81200057D02*
X109633333Y-81295295D01*
X109633333Y-81295295D02*
X109633333Y-81438152D01*
X109633333Y-81438152D02*
X109585714Y-81533390D01*
X109585714Y-81533390D02*
X109538095Y-81581009D01*
X109538095Y-81581009D02*
X109442857Y-81628628D01*
X109442857Y-81628628D02*
X109061905Y-81628628D01*
X110014286Y-81200057D02*
X110061905Y-81152438D01*
X110061905Y-81152438D02*
X110157143Y-81104819D01*
X110157143Y-81104819D02*
X110395238Y-81104819D01*
X110395238Y-81104819D02*
X110490476Y-81152438D01*
X110490476Y-81152438D02*
X110538095Y-81200057D01*
X110538095Y-81200057D02*
X110585714Y-81295295D01*
X110585714Y-81295295D02*
X110585714Y-81390533D01*
X110585714Y-81390533D02*
X110538095Y-81533390D01*
X110538095Y-81533390D02*
X109966667Y-82104819D01*
X109966667Y-82104819D02*
X110585714Y-82104819D01*
X104015714Y-47455819D02*
X104015714Y-46455819D01*
X104015714Y-46455819D02*
X104253809Y-46455819D01*
X104253809Y-46455819D02*
X104396666Y-46503438D01*
X104396666Y-46503438D02*
X104491904Y-46598676D01*
X104491904Y-46598676D02*
X104539523Y-46693914D01*
X104539523Y-46693914D02*
X104587142Y-46884390D01*
X104587142Y-46884390D02*
X104587142Y-47027247D01*
X104587142Y-47027247D02*
X104539523Y-47217723D01*
X104539523Y-47217723D02*
X104491904Y-47312961D01*
X104491904Y-47312961D02*
X104396666Y-47408200D01*
X104396666Y-47408200D02*
X104253809Y-47455819D01*
X104253809Y-47455819D02*
X104015714Y-47455819D01*
X105491904Y-46455819D02*
X105015714Y-46455819D01*
X105015714Y-46455819D02*
X104968095Y-46932009D01*
X104968095Y-46932009D02*
X105015714Y-46884390D01*
X105015714Y-46884390D02*
X105110952Y-46836771D01*
X105110952Y-46836771D02*
X105349047Y-46836771D01*
X105349047Y-46836771D02*
X105444285Y-46884390D01*
X105444285Y-46884390D02*
X105491904Y-46932009D01*
X105491904Y-46932009D02*
X105539523Y-47027247D01*
X105539523Y-47027247D02*
X105539523Y-47265342D01*
X105539523Y-47265342D02*
X105491904Y-47360580D01*
X105491904Y-47360580D02*
X105444285Y-47408200D01*
X105444285Y-47408200D02*
X105349047Y-47455819D01*
X105349047Y-47455819D02*
X105110952Y-47455819D01*
X105110952Y-47455819D02*
X105015714Y-47408200D01*
X105015714Y-47408200D02*
X104968095Y-47360580D01*
X104015714Y-42973119D02*
X104015714Y-41973119D01*
X104015714Y-41973119D02*
X104253809Y-41973119D01*
X104253809Y-41973119D02*
X104396666Y-42020738D01*
X104396666Y-42020738D02*
X104491904Y-42115976D01*
X104491904Y-42115976D02*
X104539523Y-42211214D01*
X104539523Y-42211214D02*
X104587142Y-42401690D01*
X104587142Y-42401690D02*
X104587142Y-42544547D01*
X104587142Y-42544547D02*
X104539523Y-42735023D01*
X104539523Y-42735023D02*
X104491904Y-42830261D01*
X104491904Y-42830261D02*
X104396666Y-42925500D01*
X104396666Y-42925500D02*
X104253809Y-42973119D01*
X104253809Y-42973119D02*
X104015714Y-42973119D01*
X105444285Y-42306452D02*
X105444285Y-42973119D01*
X105206190Y-41925500D02*
X104968095Y-42639785D01*
X104968095Y-42639785D02*
X105587142Y-42639785D01*
X108933333Y-118604819D02*
X108600000Y-118128628D01*
X108361905Y-118604819D02*
X108361905Y-117604819D01*
X108361905Y-117604819D02*
X108742857Y-117604819D01*
X108742857Y-117604819D02*
X108838095Y-117652438D01*
X108838095Y-117652438D02*
X108885714Y-117700057D01*
X108885714Y-117700057D02*
X108933333Y-117795295D01*
X108933333Y-117795295D02*
X108933333Y-117938152D01*
X108933333Y-117938152D02*
X108885714Y-118033390D01*
X108885714Y-118033390D02*
X108838095Y-118081009D01*
X108838095Y-118081009D02*
X108742857Y-118128628D01*
X108742857Y-118128628D02*
X108361905Y-118128628D01*
X109266667Y-117604819D02*
X109933333Y-117604819D01*
X109933333Y-117604819D02*
X109504762Y-118604819D01*
X111038095Y-129404819D02*
X111038095Y-130214342D01*
X111038095Y-130214342D02*
X111085714Y-130309580D01*
X111085714Y-130309580D02*
X111133333Y-130357200D01*
X111133333Y-130357200D02*
X111228571Y-130404819D01*
X111228571Y-130404819D02*
X111419047Y-130404819D01*
X111419047Y-130404819D02*
X111514285Y-130357200D01*
X111514285Y-130357200D02*
X111561904Y-130309580D01*
X111561904Y-130309580D02*
X111609523Y-130214342D01*
X111609523Y-130214342D02*
X111609523Y-129404819D01*
X112609523Y-130404819D02*
X112038095Y-130404819D01*
X112323809Y-130404819D02*
X112323809Y-129404819D01*
X112323809Y-129404819D02*
X112228571Y-129547676D01*
X112228571Y-129547676D02*
X112133333Y-129642914D01*
X112133333Y-129642914D02*
X112038095Y-129690533D01*
X107533333Y-122054819D02*
X107200000Y-121578628D01*
X106961905Y-122054819D02*
X106961905Y-121054819D01*
X106961905Y-121054819D02*
X107342857Y-121054819D01*
X107342857Y-121054819D02*
X107438095Y-121102438D01*
X107438095Y-121102438D02*
X107485714Y-121150057D01*
X107485714Y-121150057D02*
X107533333Y-121245295D01*
X107533333Y-121245295D02*
X107533333Y-121388152D01*
X107533333Y-121388152D02*
X107485714Y-121483390D01*
X107485714Y-121483390D02*
X107438095Y-121531009D01*
X107438095Y-121531009D02*
X107342857Y-121578628D01*
X107342857Y-121578628D02*
X106961905Y-121578628D01*
X108009524Y-122054819D02*
X108200000Y-122054819D01*
X108200000Y-122054819D02*
X108295238Y-122007200D01*
X108295238Y-122007200D02*
X108342857Y-121959580D01*
X108342857Y-121959580D02*
X108438095Y-121816723D01*
X108438095Y-121816723D02*
X108485714Y-121626247D01*
X108485714Y-121626247D02*
X108485714Y-121245295D01*
X108485714Y-121245295D02*
X108438095Y-121150057D01*
X108438095Y-121150057D02*
X108390476Y-121102438D01*
X108390476Y-121102438D02*
X108295238Y-121054819D01*
X108295238Y-121054819D02*
X108104762Y-121054819D01*
X108104762Y-121054819D02*
X108009524Y-121102438D01*
X108009524Y-121102438D02*
X107961905Y-121150057D01*
X107961905Y-121150057D02*
X107914286Y-121245295D01*
X107914286Y-121245295D02*
X107914286Y-121483390D01*
X107914286Y-121483390D02*
X107961905Y-121578628D01*
X107961905Y-121578628D02*
X108009524Y-121626247D01*
X108009524Y-121626247D02*
X108104762Y-121673866D01*
X108104762Y-121673866D02*
X108295238Y-121673866D01*
X108295238Y-121673866D02*
X108390476Y-121626247D01*
X108390476Y-121626247D02*
X108438095Y-121578628D01*
X108438095Y-121578628D02*
X108485714Y-121483390D01*
X113257142Y-78654819D02*
X112923809Y-78178628D01*
X112685714Y-78654819D02*
X112685714Y-77654819D01*
X112685714Y-77654819D02*
X113066666Y-77654819D01*
X113066666Y-77654819D02*
X113161904Y-77702438D01*
X113161904Y-77702438D02*
X113209523Y-77750057D01*
X113209523Y-77750057D02*
X113257142Y-77845295D01*
X113257142Y-77845295D02*
X113257142Y-77988152D01*
X113257142Y-77988152D02*
X113209523Y-78083390D01*
X113209523Y-78083390D02*
X113161904Y-78131009D01*
X113161904Y-78131009D02*
X113066666Y-78178628D01*
X113066666Y-78178628D02*
X112685714Y-78178628D01*
X114209523Y-78654819D02*
X113638095Y-78654819D01*
X113923809Y-78654819D02*
X113923809Y-77654819D01*
X113923809Y-77654819D02*
X113828571Y-77797676D01*
X113828571Y-77797676D02*
X113733333Y-77892914D01*
X113733333Y-77892914D02*
X113638095Y-77940533D01*
X114828571Y-77654819D02*
X114923809Y-77654819D01*
X114923809Y-77654819D02*
X115019047Y-77702438D01*
X115019047Y-77702438D02*
X115066666Y-77750057D01*
X115066666Y-77750057D02*
X115114285Y-77845295D01*
X115114285Y-77845295D02*
X115161904Y-78035771D01*
X115161904Y-78035771D02*
X115161904Y-78273866D01*
X115161904Y-78273866D02*
X115114285Y-78464342D01*
X115114285Y-78464342D02*
X115066666Y-78559580D01*
X115066666Y-78559580D02*
X115019047Y-78607200D01*
X115019047Y-78607200D02*
X114923809Y-78654819D01*
X114923809Y-78654819D02*
X114828571Y-78654819D01*
X114828571Y-78654819D02*
X114733333Y-78607200D01*
X114733333Y-78607200D02*
X114685714Y-78559580D01*
X114685714Y-78559580D02*
X114638095Y-78464342D01*
X114638095Y-78464342D02*
X114590476Y-78273866D01*
X114590476Y-78273866D02*
X114590476Y-78035771D01*
X114590476Y-78035771D02*
X114638095Y-77845295D01*
X114638095Y-77845295D02*
X114685714Y-77750057D01*
X114685714Y-77750057D02*
X114733333Y-77702438D01*
X114733333Y-77702438D02*
X114828571Y-77654819D01*
X104015714Y-83317919D02*
X104015714Y-82317919D01*
X104015714Y-82317919D02*
X104253809Y-82317919D01*
X104253809Y-82317919D02*
X104396666Y-82365538D01*
X104396666Y-82365538D02*
X104491904Y-82460776D01*
X104491904Y-82460776D02*
X104539523Y-82556014D01*
X104539523Y-82556014D02*
X104587142Y-82746490D01*
X104587142Y-82746490D02*
X104587142Y-82889347D01*
X104587142Y-82889347D02*
X104539523Y-83079823D01*
X104539523Y-83079823D02*
X104491904Y-83175061D01*
X104491904Y-83175061D02*
X104396666Y-83270300D01*
X104396666Y-83270300D02*
X104253809Y-83317919D01*
X104253809Y-83317919D02*
X104015714Y-83317919D01*
X105539523Y-83317919D02*
X104968095Y-83317919D01*
X105253809Y-83317919D02*
X105253809Y-82317919D01*
X105253809Y-82317919D02*
X105158571Y-82460776D01*
X105158571Y-82460776D02*
X105063333Y-82556014D01*
X105063333Y-82556014D02*
X104968095Y-82603633D01*
X105872857Y-82317919D02*
X106491904Y-82317919D01*
X106491904Y-82317919D02*
X106158571Y-82698871D01*
X106158571Y-82698871D02*
X106301428Y-82698871D01*
X106301428Y-82698871D02*
X106396666Y-82746490D01*
X106396666Y-82746490D02*
X106444285Y-82794109D01*
X106444285Y-82794109D02*
X106491904Y-82889347D01*
X106491904Y-82889347D02*
X106491904Y-83127442D01*
X106491904Y-83127442D02*
X106444285Y-83222680D01*
X106444285Y-83222680D02*
X106396666Y-83270300D01*
X106396666Y-83270300D02*
X106301428Y-83317919D01*
X106301428Y-83317919D02*
X106015714Y-83317919D01*
X106015714Y-83317919D02*
X105920476Y-83270300D01*
X105920476Y-83270300D02*
X105872857Y-83222680D01*
X111838095Y-140279819D02*
X111838095Y-141089342D01*
X111838095Y-141089342D02*
X111885714Y-141184580D01*
X111885714Y-141184580D02*
X111933333Y-141232200D01*
X111933333Y-141232200D02*
X112028571Y-141279819D01*
X112028571Y-141279819D02*
X112219047Y-141279819D01*
X112219047Y-141279819D02*
X112314285Y-141232200D01*
X112314285Y-141232200D02*
X112361904Y-141184580D01*
X112361904Y-141184580D02*
X112409523Y-141089342D01*
X112409523Y-141089342D02*
X112409523Y-140279819D01*
X112838095Y-140375057D02*
X112885714Y-140327438D01*
X112885714Y-140327438D02*
X112980952Y-140279819D01*
X112980952Y-140279819D02*
X113219047Y-140279819D01*
X113219047Y-140279819D02*
X113314285Y-140327438D01*
X113314285Y-140327438D02*
X113361904Y-140375057D01*
X113361904Y-140375057D02*
X113409523Y-140470295D01*
X113409523Y-140470295D02*
X113409523Y-140565533D01*
X113409523Y-140565533D02*
X113361904Y-140708390D01*
X113361904Y-140708390D02*
X112790476Y-141279819D01*
X112790476Y-141279819D02*
X113409523Y-141279819D01*
X104015714Y-51938619D02*
X104015714Y-50938619D01*
X104015714Y-50938619D02*
X104253809Y-50938619D01*
X104253809Y-50938619D02*
X104396666Y-50986238D01*
X104396666Y-50986238D02*
X104491904Y-51081476D01*
X104491904Y-51081476D02*
X104539523Y-51176714D01*
X104539523Y-51176714D02*
X104587142Y-51367190D01*
X104587142Y-51367190D02*
X104587142Y-51510047D01*
X104587142Y-51510047D02*
X104539523Y-51700523D01*
X104539523Y-51700523D02*
X104491904Y-51795761D01*
X104491904Y-51795761D02*
X104396666Y-51891000D01*
X104396666Y-51891000D02*
X104253809Y-51938619D01*
X104253809Y-51938619D02*
X104015714Y-51938619D01*
X105444285Y-50938619D02*
X105253809Y-50938619D01*
X105253809Y-50938619D02*
X105158571Y-50986238D01*
X105158571Y-50986238D02*
X105110952Y-51033857D01*
X105110952Y-51033857D02*
X105015714Y-51176714D01*
X105015714Y-51176714D02*
X104968095Y-51367190D01*
X104968095Y-51367190D02*
X104968095Y-51748142D01*
X104968095Y-51748142D02*
X105015714Y-51843380D01*
X105015714Y-51843380D02*
X105063333Y-51891000D01*
X105063333Y-51891000D02*
X105158571Y-51938619D01*
X105158571Y-51938619D02*
X105349047Y-51938619D01*
X105349047Y-51938619D02*
X105444285Y-51891000D01*
X105444285Y-51891000D02*
X105491904Y-51843380D01*
X105491904Y-51843380D02*
X105539523Y-51748142D01*
X105539523Y-51748142D02*
X105539523Y-51510047D01*
X105539523Y-51510047D02*
X105491904Y-51414809D01*
X105491904Y-51414809D02*
X105444285Y-51367190D01*
X105444285Y-51367190D02*
X105349047Y-51319571D01*
X105349047Y-51319571D02*
X105158571Y-51319571D01*
X105158571Y-51319571D02*
X105063333Y-51367190D01*
X105063333Y-51367190D02*
X105015714Y-51414809D01*
X105015714Y-51414809D02*
X104968095Y-51510047D01*
X104015714Y-128145519D02*
X104015714Y-127145519D01*
X104015714Y-127145519D02*
X104253809Y-127145519D01*
X104253809Y-127145519D02*
X104396666Y-127193138D01*
X104396666Y-127193138D02*
X104491904Y-127288376D01*
X104491904Y-127288376D02*
X104539523Y-127383614D01*
X104539523Y-127383614D02*
X104587142Y-127574090D01*
X104587142Y-127574090D02*
X104587142Y-127716947D01*
X104587142Y-127716947D02*
X104539523Y-127907423D01*
X104539523Y-127907423D02*
X104491904Y-128002661D01*
X104491904Y-128002661D02*
X104396666Y-128097900D01*
X104396666Y-128097900D02*
X104253809Y-128145519D01*
X104253809Y-128145519D02*
X104015714Y-128145519D01*
X104968095Y-127240757D02*
X105015714Y-127193138D01*
X105015714Y-127193138D02*
X105110952Y-127145519D01*
X105110952Y-127145519D02*
X105349047Y-127145519D01*
X105349047Y-127145519D02*
X105444285Y-127193138D01*
X105444285Y-127193138D02*
X105491904Y-127240757D01*
X105491904Y-127240757D02*
X105539523Y-127335995D01*
X105539523Y-127335995D02*
X105539523Y-127431233D01*
X105539523Y-127431233D02*
X105491904Y-127574090D01*
X105491904Y-127574090D02*
X104920476Y-128145519D01*
X104920476Y-128145519D02*
X105539523Y-128145519D01*
X105872857Y-127145519D02*
X106491904Y-127145519D01*
X106491904Y-127145519D02*
X106158571Y-127526471D01*
X106158571Y-127526471D02*
X106301428Y-127526471D01*
X106301428Y-127526471D02*
X106396666Y-127574090D01*
X106396666Y-127574090D02*
X106444285Y-127621709D01*
X106444285Y-127621709D02*
X106491904Y-127716947D01*
X106491904Y-127716947D02*
X106491904Y-127955042D01*
X106491904Y-127955042D02*
X106444285Y-128050280D01*
X106444285Y-128050280D02*
X106396666Y-128097900D01*
X106396666Y-128097900D02*
X106301428Y-128145519D01*
X106301428Y-128145519D02*
X106015714Y-128145519D01*
X106015714Y-128145519D02*
X105920476Y-128097900D01*
X105920476Y-128097900D02*
X105872857Y-128050280D01*
X108933333Y-115009580D02*
X108885714Y-115057200D01*
X108885714Y-115057200D02*
X108742857Y-115104819D01*
X108742857Y-115104819D02*
X108647619Y-115104819D01*
X108647619Y-115104819D02*
X108504762Y-115057200D01*
X108504762Y-115057200D02*
X108409524Y-114961961D01*
X108409524Y-114961961D02*
X108361905Y-114866723D01*
X108361905Y-114866723D02*
X108314286Y-114676247D01*
X108314286Y-114676247D02*
X108314286Y-114533390D01*
X108314286Y-114533390D02*
X108361905Y-114342914D01*
X108361905Y-114342914D02*
X108409524Y-114247676D01*
X108409524Y-114247676D02*
X108504762Y-114152438D01*
X108504762Y-114152438D02*
X108647619Y-114104819D01*
X108647619Y-114104819D02*
X108742857Y-114104819D01*
X108742857Y-114104819D02*
X108885714Y-114152438D01*
X108885714Y-114152438D02*
X108933333Y-114200057D01*
X109885714Y-115104819D02*
X109314286Y-115104819D01*
X109600000Y-115104819D02*
X109600000Y-114104819D01*
X109600000Y-114104819D02*
X109504762Y-114247676D01*
X109504762Y-114247676D02*
X109409524Y-114342914D01*
X109409524Y-114342914D02*
X109314286Y-114390533D01*
X114423809Y-113828628D02*
X114423809Y-114304819D01*
X114090476Y-113304819D02*
X114423809Y-113828628D01*
X114423809Y-113828628D02*
X114757142Y-113304819D01*
X115614285Y-114304819D02*
X115042857Y-114304819D01*
X115328571Y-114304819D02*
X115328571Y-113304819D01*
X115328571Y-113304819D02*
X115233333Y-113447676D01*
X115233333Y-113447676D02*
X115138095Y-113542914D01*
X115138095Y-113542914D02*
X115042857Y-113590533D01*
X114033333Y-105404819D02*
X113700000Y-104928628D01*
X113461905Y-105404819D02*
X113461905Y-104404819D01*
X113461905Y-104404819D02*
X113842857Y-104404819D01*
X113842857Y-104404819D02*
X113938095Y-104452438D01*
X113938095Y-104452438D02*
X113985714Y-104500057D01*
X113985714Y-104500057D02*
X114033333Y-104595295D01*
X114033333Y-104595295D02*
X114033333Y-104738152D01*
X114033333Y-104738152D02*
X113985714Y-104833390D01*
X113985714Y-104833390D02*
X113938095Y-104881009D01*
X113938095Y-104881009D02*
X113842857Y-104928628D01*
X113842857Y-104928628D02*
X113461905Y-104928628D01*
X114604762Y-104833390D02*
X114509524Y-104785771D01*
X114509524Y-104785771D02*
X114461905Y-104738152D01*
X114461905Y-104738152D02*
X114414286Y-104642914D01*
X114414286Y-104642914D02*
X114414286Y-104595295D01*
X114414286Y-104595295D02*
X114461905Y-104500057D01*
X114461905Y-104500057D02*
X114509524Y-104452438D01*
X114509524Y-104452438D02*
X114604762Y-104404819D01*
X114604762Y-104404819D02*
X114795238Y-104404819D01*
X114795238Y-104404819D02*
X114890476Y-104452438D01*
X114890476Y-104452438D02*
X114938095Y-104500057D01*
X114938095Y-104500057D02*
X114985714Y-104595295D01*
X114985714Y-104595295D02*
X114985714Y-104642914D01*
X114985714Y-104642914D02*
X114938095Y-104738152D01*
X114938095Y-104738152D02*
X114890476Y-104785771D01*
X114890476Y-104785771D02*
X114795238Y-104833390D01*
X114795238Y-104833390D02*
X114604762Y-104833390D01*
X114604762Y-104833390D02*
X114509524Y-104881009D01*
X114509524Y-104881009D02*
X114461905Y-104928628D01*
X114461905Y-104928628D02*
X114414286Y-105023866D01*
X114414286Y-105023866D02*
X114414286Y-105214342D01*
X114414286Y-105214342D02*
X114461905Y-105309580D01*
X114461905Y-105309580D02*
X114509524Y-105357200D01*
X114509524Y-105357200D02*
X114604762Y-105404819D01*
X114604762Y-105404819D02*
X114795238Y-105404819D01*
X114795238Y-105404819D02*
X114890476Y-105357200D01*
X114890476Y-105357200D02*
X114938095Y-105309580D01*
X114938095Y-105309580D02*
X114985714Y-105214342D01*
X114985714Y-105214342D02*
X114985714Y-105023866D01*
X114985714Y-105023866D02*
X114938095Y-104928628D01*
X114938095Y-104928628D02*
X114890476Y-104881009D01*
X114890476Y-104881009D02*
X114795238Y-104833390D01*
X104015714Y-105731719D02*
X104015714Y-104731719D01*
X104015714Y-104731719D02*
X104253809Y-104731719D01*
X104253809Y-104731719D02*
X104396666Y-104779338D01*
X104396666Y-104779338D02*
X104491904Y-104874576D01*
X104491904Y-104874576D02*
X104539523Y-104969814D01*
X104539523Y-104969814D02*
X104587142Y-105160290D01*
X104587142Y-105160290D02*
X104587142Y-105303147D01*
X104587142Y-105303147D02*
X104539523Y-105493623D01*
X104539523Y-105493623D02*
X104491904Y-105588861D01*
X104491904Y-105588861D02*
X104396666Y-105684100D01*
X104396666Y-105684100D02*
X104253809Y-105731719D01*
X104253809Y-105731719D02*
X104015714Y-105731719D01*
X105539523Y-105731719D02*
X104968095Y-105731719D01*
X105253809Y-105731719D02*
X105253809Y-104731719D01*
X105253809Y-104731719D02*
X105158571Y-104874576D01*
X105158571Y-104874576D02*
X105063333Y-104969814D01*
X105063333Y-104969814D02*
X104968095Y-105017433D01*
X106110952Y-105160290D02*
X106015714Y-105112671D01*
X106015714Y-105112671D02*
X105968095Y-105065052D01*
X105968095Y-105065052D02*
X105920476Y-104969814D01*
X105920476Y-104969814D02*
X105920476Y-104922195D01*
X105920476Y-104922195D02*
X105968095Y-104826957D01*
X105968095Y-104826957D02*
X106015714Y-104779338D01*
X106015714Y-104779338D02*
X106110952Y-104731719D01*
X106110952Y-104731719D02*
X106301428Y-104731719D01*
X106301428Y-104731719D02*
X106396666Y-104779338D01*
X106396666Y-104779338D02*
X106444285Y-104826957D01*
X106444285Y-104826957D02*
X106491904Y-104922195D01*
X106491904Y-104922195D02*
X106491904Y-104969814D01*
X106491904Y-104969814D02*
X106444285Y-105065052D01*
X106444285Y-105065052D02*
X106396666Y-105112671D01*
X106396666Y-105112671D02*
X106301428Y-105160290D01*
X106301428Y-105160290D02*
X106110952Y-105160290D01*
X106110952Y-105160290D02*
X106015714Y-105207909D01*
X106015714Y-105207909D02*
X105968095Y-105255528D01*
X105968095Y-105255528D02*
X105920476Y-105350766D01*
X105920476Y-105350766D02*
X105920476Y-105541242D01*
X105920476Y-105541242D02*
X105968095Y-105636480D01*
X105968095Y-105636480D02*
X106015714Y-105684100D01*
X106015714Y-105684100D02*
X106110952Y-105731719D01*
X106110952Y-105731719D02*
X106301428Y-105731719D01*
X106301428Y-105731719D02*
X106396666Y-105684100D01*
X106396666Y-105684100D02*
X106444285Y-105636480D01*
X106444285Y-105636480D02*
X106491904Y-105541242D01*
X106491904Y-105541242D02*
X106491904Y-105350766D01*
X106491904Y-105350766D02*
X106444285Y-105255528D01*
X106444285Y-105255528D02*
X106396666Y-105207909D01*
X106396666Y-105207909D02*
X106301428Y-105160290D01*
X104015714Y-155042019D02*
X104015714Y-154042019D01*
X104015714Y-154042019D02*
X104253809Y-154042019D01*
X104253809Y-154042019D02*
X104396666Y-154089638D01*
X104396666Y-154089638D02*
X104491904Y-154184876D01*
X104491904Y-154184876D02*
X104539523Y-154280114D01*
X104539523Y-154280114D02*
X104587142Y-154470590D01*
X104587142Y-154470590D02*
X104587142Y-154613447D01*
X104587142Y-154613447D02*
X104539523Y-154803923D01*
X104539523Y-154803923D02*
X104491904Y-154899161D01*
X104491904Y-154899161D02*
X104396666Y-154994400D01*
X104396666Y-154994400D02*
X104253809Y-155042019D01*
X104253809Y-155042019D02*
X104015714Y-155042019D01*
X104968095Y-154137257D02*
X105015714Y-154089638D01*
X105015714Y-154089638D02*
X105110952Y-154042019D01*
X105110952Y-154042019D02*
X105349047Y-154042019D01*
X105349047Y-154042019D02*
X105444285Y-154089638D01*
X105444285Y-154089638D02*
X105491904Y-154137257D01*
X105491904Y-154137257D02*
X105539523Y-154232495D01*
X105539523Y-154232495D02*
X105539523Y-154327733D01*
X105539523Y-154327733D02*
X105491904Y-154470590D01*
X105491904Y-154470590D02*
X104920476Y-155042019D01*
X104920476Y-155042019D02*
X105539523Y-155042019D01*
X106015714Y-155042019D02*
X106206190Y-155042019D01*
X106206190Y-155042019D02*
X106301428Y-154994400D01*
X106301428Y-154994400D02*
X106349047Y-154946780D01*
X106349047Y-154946780D02*
X106444285Y-154803923D01*
X106444285Y-154803923D02*
X106491904Y-154613447D01*
X106491904Y-154613447D02*
X106491904Y-154232495D01*
X106491904Y-154232495D02*
X106444285Y-154137257D01*
X106444285Y-154137257D02*
X106396666Y-154089638D01*
X106396666Y-154089638D02*
X106301428Y-154042019D01*
X106301428Y-154042019D02*
X106110952Y-154042019D01*
X106110952Y-154042019D02*
X106015714Y-154089638D01*
X106015714Y-154089638D02*
X105968095Y-154137257D01*
X105968095Y-154137257D02*
X105920476Y-154232495D01*
X105920476Y-154232495D02*
X105920476Y-154470590D01*
X105920476Y-154470590D02*
X105968095Y-154565828D01*
X105968095Y-154565828D02*
X106015714Y-154613447D01*
X106015714Y-154613447D02*
X106110952Y-154661066D01*
X106110952Y-154661066D02*
X106301428Y-154661066D01*
X106301428Y-154661066D02*
X106396666Y-154613447D01*
X106396666Y-154613447D02*
X106444285Y-154565828D01*
X106444285Y-154565828D02*
X106491904Y-154470590D01*
X104015714Y-123662719D02*
X104015714Y-122662719D01*
X104015714Y-122662719D02*
X104253809Y-122662719D01*
X104253809Y-122662719D02*
X104396666Y-122710338D01*
X104396666Y-122710338D02*
X104491904Y-122805576D01*
X104491904Y-122805576D02*
X104539523Y-122900814D01*
X104539523Y-122900814D02*
X104587142Y-123091290D01*
X104587142Y-123091290D02*
X104587142Y-123234147D01*
X104587142Y-123234147D02*
X104539523Y-123424623D01*
X104539523Y-123424623D02*
X104491904Y-123519861D01*
X104491904Y-123519861D02*
X104396666Y-123615100D01*
X104396666Y-123615100D02*
X104253809Y-123662719D01*
X104253809Y-123662719D02*
X104015714Y-123662719D01*
X104968095Y-122757957D02*
X105015714Y-122710338D01*
X105015714Y-122710338D02*
X105110952Y-122662719D01*
X105110952Y-122662719D02*
X105349047Y-122662719D01*
X105349047Y-122662719D02*
X105444285Y-122710338D01*
X105444285Y-122710338D02*
X105491904Y-122757957D01*
X105491904Y-122757957D02*
X105539523Y-122853195D01*
X105539523Y-122853195D02*
X105539523Y-122948433D01*
X105539523Y-122948433D02*
X105491904Y-123091290D01*
X105491904Y-123091290D02*
X104920476Y-123662719D01*
X104920476Y-123662719D02*
X105539523Y-123662719D01*
X105920476Y-122757957D02*
X105968095Y-122710338D01*
X105968095Y-122710338D02*
X106063333Y-122662719D01*
X106063333Y-122662719D02*
X106301428Y-122662719D01*
X106301428Y-122662719D02*
X106396666Y-122710338D01*
X106396666Y-122710338D02*
X106444285Y-122757957D01*
X106444285Y-122757957D02*
X106491904Y-122853195D01*
X106491904Y-122853195D02*
X106491904Y-122948433D01*
X106491904Y-122948433D02*
X106444285Y-123091290D01*
X106444285Y-123091290D02*
X105872857Y-123662719D01*
X105872857Y-123662719D02*
X106491904Y-123662719D01*
X104015714Y-119180019D02*
X104015714Y-118180019D01*
X104015714Y-118180019D02*
X104253809Y-118180019D01*
X104253809Y-118180019D02*
X104396666Y-118227638D01*
X104396666Y-118227638D02*
X104491904Y-118322876D01*
X104491904Y-118322876D02*
X104539523Y-118418114D01*
X104539523Y-118418114D02*
X104587142Y-118608590D01*
X104587142Y-118608590D02*
X104587142Y-118751447D01*
X104587142Y-118751447D02*
X104539523Y-118941923D01*
X104539523Y-118941923D02*
X104491904Y-119037161D01*
X104491904Y-119037161D02*
X104396666Y-119132400D01*
X104396666Y-119132400D02*
X104253809Y-119180019D01*
X104253809Y-119180019D02*
X104015714Y-119180019D01*
X104968095Y-118275257D02*
X105015714Y-118227638D01*
X105015714Y-118227638D02*
X105110952Y-118180019D01*
X105110952Y-118180019D02*
X105349047Y-118180019D01*
X105349047Y-118180019D02*
X105444285Y-118227638D01*
X105444285Y-118227638D02*
X105491904Y-118275257D01*
X105491904Y-118275257D02*
X105539523Y-118370495D01*
X105539523Y-118370495D02*
X105539523Y-118465733D01*
X105539523Y-118465733D02*
X105491904Y-118608590D01*
X105491904Y-118608590D02*
X104920476Y-119180019D01*
X104920476Y-119180019D02*
X105539523Y-119180019D01*
X106491904Y-119180019D02*
X105920476Y-119180019D01*
X106206190Y-119180019D02*
X106206190Y-118180019D01*
X106206190Y-118180019D02*
X106110952Y-118322876D01*
X106110952Y-118322876D02*
X106015714Y-118418114D01*
X106015714Y-118418114D02*
X105920476Y-118465733D01*
X110616667Y-100857200D02*
X110759524Y-100904819D01*
X110759524Y-100904819D02*
X110997619Y-100904819D01*
X110997619Y-100904819D02*
X111092857Y-100857200D01*
X111092857Y-100857200D02*
X111140476Y-100809580D01*
X111140476Y-100809580D02*
X111188095Y-100714342D01*
X111188095Y-100714342D02*
X111188095Y-100619104D01*
X111188095Y-100619104D02*
X111140476Y-100523866D01*
X111140476Y-100523866D02*
X111092857Y-100476247D01*
X111092857Y-100476247D02*
X110997619Y-100428628D01*
X110997619Y-100428628D02*
X110807143Y-100381009D01*
X110807143Y-100381009D02*
X110711905Y-100333390D01*
X110711905Y-100333390D02*
X110664286Y-100285771D01*
X110664286Y-100285771D02*
X110616667Y-100190533D01*
X110616667Y-100190533D02*
X110616667Y-100095295D01*
X110616667Y-100095295D02*
X110664286Y-100000057D01*
X110664286Y-100000057D02*
X110711905Y-99952438D01*
X110711905Y-99952438D02*
X110807143Y-99904819D01*
X110807143Y-99904819D02*
X111045238Y-99904819D01*
X111045238Y-99904819D02*
X111188095Y-99952438D01*
X111521429Y-99904819D02*
X111759524Y-100904819D01*
X111759524Y-100904819D02*
X111950000Y-100190533D01*
X111950000Y-100190533D02*
X112140476Y-100904819D01*
X112140476Y-100904819D02*
X112378572Y-99904819D01*
X113283333Y-100904819D02*
X112711905Y-100904819D01*
X112997619Y-100904819D02*
X112997619Y-99904819D01*
X112997619Y-99904819D02*
X112902381Y-100047676D01*
X112902381Y-100047676D02*
X112807143Y-100142914D01*
X112807143Y-100142914D02*
X112711905Y-100190533D01*
X111238095Y-67154819D02*
X111238095Y-67964342D01*
X111238095Y-67964342D02*
X111285714Y-68059580D01*
X111285714Y-68059580D02*
X111333333Y-68107200D01*
X111333333Y-68107200D02*
X111428571Y-68154819D01*
X111428571Y-68154819D02*
X111619047Y-68154819D01*
X111619047Y-68154819D02*
X111714285Y-68107200D01*
X111714285Y-68107200D02*
X111761904Y-68059580D01*
X111761904Y-68059580D02*
X111809523Y-67964342D01*
X111809523Y-67964342D02*
X111809523Y-67154819D01*
X112190476Y-67154819D02*
X112809523Y-67154819D01*
X112809523Y-67154819D02*
X112476190Y-67535771D01*
X112476190Y-67535771D02*
X112619047Y-67535771D01*
X112619047Y-67535771D02*
X112714285Y-67583390D01*
X112714285Y-67583390D02*
X112761904Y-67631009D01*
X112761904Y-67631009D02*
X112809523Y-67726247D01*
X112809523Y-67726247D02*
X112809523Y-67964342D01*
X112809523Y-67964342D02*
X112761904Y-68059580D01*
X112761904Y-68059580D02*
X112714285Y-68107200D01*
X112714285Y-68107200D02*
X112619047Y-68154819D01*
X112619047Y-68154819D02*
X112333333Y-68154819D01*
X112333333Y-68154819D02*
X112238095Y-68107200D01*
X112238095Y-68107200D02*
X112190476Y-68059580D01*
X104015714Y-150559319D02*
X104015714Y-149559319D01*
X104015714Y-149559319D02*
X104253809Y-149559319D01*
X104253809Y-149559319D02*
X104396666Y-149606938D01*
X104396666Y-149606938D02*
X104491904Y-149702176D01*
X104491904Y-149702176D02*
X104539523Y-149797414D01*
X104539523Y-149797414D02*
X104587142Y-149987890D01*
X104587142Y-149987890D02*
X104587142Y-150130747D01*
X104587142Y-150130747D02*
X104539523Y-150321223D01*
X104539523Y-150321223D02*
X104491904Y-150416461D01*
X104491904Y-150416461D02*
X104396666Y-150511700D01*
X104396666Y-150511700D02*
X104253809Y-150559319D01*
X104253809Y-150559319D02*
X104015714Y-150559319D01*
X104968095Y-149654557D02*
X105015714Y-149606938D01*
X105015714Y-149606938D02*
X105110952Y-149559319D01*
X105110952Y-149559319D02*
X105349047Y-149559319D01*
X105349047Y-149559319D02*
X105444285Y-149606938D01*
X105444285Y-149606938D02*
X105491904Y-149654557D01*
X105491904Y-149654557D02*
X105539523Y-149749795D01*
X105539523Y-149749795D02*
X105539523Y-149845033D01*
X105539523Y-149845033D02*
X105491904Y-149987890D01*
X105491904Y-149987890D02*
X104920476Y-150559319D01*
X104920476Y-150559319D02*
X105539523Y-150559319D01*
X106110952Y-149987890D02*
X106015714Y-149940271D01*
X106015714Y-149940271D02*
X105968095Y-149892652D01*
X105968095Y-149892652D02*
X105920476Y-149797414D01*
X105920476Y-149797414D02*
X105920476Y-149749795D01*
X105920476Y-149749795D02*
X105968095Y-149654557D01*
X105968095Y-149654557D02*
X106015714Y-149606938D01*
X106015714Y-149606938D02*
X106110952Y-149559319D01*
X106110952Y-149559319D02*
X106301428Y-149559319D01*
X106301428Y-149559319D02*
X106396666Y-149606938D01*
X106396666Y-149606938D02*
X106444285Y-149654557D01*
X106444285Y-149654557D02*
X106491904Y-149749795D01*
X106491904Y-149749795D02*
X106491904Y-149797414D01*
X106491904Y-149797414D02*
X106444285Y-149892652D01*
X106444285Y-149892652D02*
X106396666Y-149940271D01*
X106396666Y-149940271D02*
X106301428Y-149987890D01*
X106301428Y-149987890D02*
X106110952Y-149987890D01*
X106110952Y-149987890D02*
X106015714Y-150035509D01*
X106015714Y-150035509D02*
X105968095Y-150083128D01*
X105968095Y-150083128D02*
X105920476Y-150178366D01*
X105920476Y-150178366D02*
X105920476Y-150368842D01*
X105920476Y-150368842D02*
X105968095Y-150464080D01*
X105968095Y-150464080D02*
X106015714Y-150511700D01*
X106015714Y-150511700D02*
X106110952Y-150559319D01*
X106110952Y-150559319D02*
X106301428Y-150559319D01*
X106301428Y-150559319D02*
X106396666Y-150511700D01*
X106396666Y-150511700D02*
X106444285Y-150464080D01*
X106444285Y-150464080D02*
X106491904Y-150368842D01*
X106491904Y-150368842D02*
X106491904Y-150178366D01*
X106491904Y-150178366D02*
X106444285Y-150083128D01*
X106444285Y-150083128D02*
X106396666Y-150035509D01*
X106396666Y-150035509D02*
X106301428Y-149987890D01*
X113316666Y-154759819D02*
X113316666Y-155474104D01*
X113316666Y-155474104D02*
X113269047Y-155616961D01*
X113269047Y-155616961D02*
X113173809Y-155712200D01*
X113173809Y-155712200D02*
X113030952Y-155759819D01*
X113030952Y-155759819D02*
X112935714Y-155759819D01*
X114316666Y-155759819D02*
X113745238Y-155759819D01*
X114030952Y-155759819D02*
X114030952Y-154759819D01*
X114030952Y-154759819D02*
X113935714Y-154902676D01*
X113935714Y-154902676D02*
X113840476Y-154997914D01*
X113840476Y-154997914D02*
X113745238Y-155045533D01*
X104015714Y-60904119D02*
X104015714Y-59904119D01*
X104015714Y-59904119D02*
X104253809Y-59904119D01*
X104253809Y-59904119D02*
X104396666Y-59951738D01*
X104396666Y-59951738D02*
X104491904Y-60046976D01*
X104491904Y-60046976D02*
X104539523Y-60142214D01*
X104539523Y-60142214D02*
X104587142Y-60332690D01*
X104587142Y-60332690D02*
X104587142Y-60475547D01*
X104587142Y-60475547D02*
X104539523Y-60666023D01*
X104539523Y-60666023D02*
X104491904Y-60761261D01*
X104491904Y-60761261D02*
X104396666Y-60856500D01*
X104396666Y-60856500D02*
X104253809Y-60904119D01*
X104253809Y-60904119D02*
X104015714Y-60904119D01*
X105158571Y-60332690D02*
X105063333Y-60285071D01*
X105063333Y-60285071D02*
X105015714Y-60237452D01*
X105015714Y-60237452D02*
X104968095Y-60142214D01*
X104968095Y-60142214D02*
X104968095Y-60094595D01*
X104968095Y-60094595D02*
X105015714Y-59999357D01*
X105015714Y-59999357D02*
X105063333Y-59951738D01*
X105063333Y-59951738D02*
X105158571Y-59904119D01*
X105158571Y-59904119D02*
X105349047Y-59904119D01*
X105349047Y-59904119D02*
X105444285Y-59951738D01*
X105444285Y-59951738D02*
X105491904Y-59999357D01*
X105491904Y-59999357D02*
X105539523Y-60094595D01*
X105539523Y-60094595D02*
X105539523Y-60142214D01*
X105539523Y-60142214D02*
X105491904Y-60237452D01*
X105491904Y-60237452D02*
X105444285Y-60285071D01*
X105444285Y-60285071D02*
X105349047Y-60332690D01*
X105349047Y-60332690D02*
X105158571Y-60332690D01*
X105158571Y-60332690D02*
X105063333Y-60380309D01*
X105063333Y-60380309D02*
X105015714Y-60427928D01*
X105015714Y-60427928D02*
X104968095Y-60523166D01*
X104968095Y-60523166D02*
X104968095Y-60713642D01*
X104968095Y-60713642D02*
X105015714Y-60808880D01*
X105015714Y-60808880D02*
X105063333Y-60856500D01*
X105063333Y-60856500D02*
X105158571Y-60904119D01*
X105158571Y-60904119D02*
X105349047Y-60904119D01*
X105349047Y-60904119D02*
X105444285Y-60856500D01*
X105444285Y-60856500D02*
X105491904Y-60808880D01*
X105491904Y-60808880D02*
X105539523Y-60713642D01*
X105539523Y-60713642D02*
X105539523Y-60523166D01*
X105539523Y-60523166D02*
X105491904Y-60427928D01*
X105491904Y-60427928D02*
X105444285Y-60380309D01*
X105444285Y-60380309D02*
X105349047Y-60332690D01*
X104015714Y-101248919D02*
X104015714Y-100248919D01*
X104015714Y-100248919D02*
X104253809Y-100248919D01*
X104253809Y-100248919D02*
X104396666Y-100296538D01*
X104396666Y-100296538D02*
X104491904Y-100391776D01*
X104491904Y-100391776D02*
X104539523Y-100487014D01*
X104539523Y-100487014D02*
X104587142Y-100677490D01*
X104587142Y-100677490D02*
X104587142Y-100820347D01*
X104587142Y-100820347D02*
X104539523Y-101010823D01*
X104539523Y-101010823D02*
X104491904Y-101106061D01*
X104491904Y-101106061D02*
X104396666Y-101201300D01*
X104396666Y-101201300D02*
X104253809Y-101248919D01*
X104253809Y-101248919D02*
X104015714Y-101248919D01*
X105539523Y-101248919D02*
X104968095Y-101248919D01*
X105253809Y-101248919D02*
X105253809Y-100248919D01*
X105253809Y-100248919D02*
X105158571Y-100391776D01*
X105158571Y-100391776D02*
X105063333Y-100487014D01*
X105063333Y-100487014D02*
X104968095Y-100534633D01*
X105872857Y-100248919D02*
X106539523Y-100248919D01*
X106539523Y-100248919D02*
X106110952Y-101248919D01*
X104015714Y-78835119D02*
X104015714Y-77835119D01*
X104015714Y-77835119D02*
X104253809Y-77835119D01*
X104253809Y-77835119D02*
X104396666Y-77882738D01*
X104396666Y-77882738D02*
X104491904Y-77977976D01*
X104491904Y-77977976D02*
X104539523Y-78073214D01*
X104539523Y-78073214D02*
X104587142Y-78263690D01*
X104587142Y-78263690D02*
X104587142Y-78406547D01*
X104587142Y-78406547D02*
X104539523Y-78597023D01*
X104539523Y-78597023D02*
X104491904Y-78692261D01*
X104491904Y-78692261D02*
X104396666Y-78787500D01*
X104396666Y-78787500D02*
X104253809Y-78835119D01*
X104253809Y-78835119D02*
X104015714Y-78835119D01*
X105539523Y-78835119D02*
X104968095Y-78835119D01*
X105253809Y-78835119D02*
X105253809Y-77835119D01*
X105253809Y-77835119D02*
X105158571Y-77977976D01*
X105158571Y-77977976D02*
X105063333Y-78073214D01*
X105063333Y-78073214D02*
X104968095Y-78120833D01*
X105920476Y-77930357D02*
X105968095Y-77882738D01*
X105968095Y-77882738D02*
X106063333Y-77835119D01*
X106063333Y-77835119D02*
X106301428Y-77835119D01*
X106301428Y-77835119D02*
X106396666Y-77882738D01*
X106396666Y-77882738D02*
X106444285Y-77930357D01*
X106444285Y-77930357D02*
X106491904Y-78025595D01*
X106491904Y-78025595D02*
X106491904Y-78120833D01*
X106491904Y-78120833D02*
X106444285Y-78263690D01*
X106444285Y-78263690D02*
X105872857Y-78835119D01*
X105872857Y-78835119D02*
X106491904Y-78835119D01*
X114257142Y-122054819D02*
X113923809Y-121578628D01*
X113685714Y-122054819D02*
X113685714Y-121054819D01*
X113685714Y-121054819D02*
X114066666Y-121054819D01*
X114066666Y-121054819D02*
X114161904Y-121102438D01*
X114161904Y-121102438D02*
X114209523Y-121150057D01*
X114209523Y-121150057D02*
X114257142Y-121245295D01*
X114257142Y-121245295D02*
X114257142Y-121388152D01*
X114257142Y-121388152D02*
X114209523Y-121483390D01*
X114209523Y-121483390D02*
X114161904Y-121531009D01*
X114161904Y-121531009D02*
X114066666Y-121578628D01*
X114066666Y-121578628D02*
X113685714Y-121578628D01*
X115209523Y-122054819D02*
X114638095Y-122054819D01*
X114923809Y-122054819D02*
X114923809Y-121054819D01*
X114923809Y-121054819D02*
X114828571Y-121197676D01*
X114828571Y-121197676D02*
X114733333Y-121292914D01*
X114733333Y-121292914D02*
X114638095Y-121340533D01*
X116161904Y-122054819D02*
X115590476Y-122054819D01*
X115876190Y-122054819D02*
X115876190Y-121054819D01*
X115876190Y-121054819D02*
X115780952Y-121197676D01*
X115780952Y-121197676D02*
X115685714Y-121292914D01*
X115685714Y-121292914D02*
X115590476Y-121340533D01*
X109633333Y-96004819D02*
X109300000Y-95528628D01*
X109061905Y-96004819D02*
X109061905Y-95004819D01*
X109061905Y-95004819D02*
X109442857Y-95004819D01*
X109442857Y-95004819D02*
X109538095Y-95052438D01*
X109538095Y-95052438D02*
X109585714Y-95100057D01*
X109585714Y-95100057D02*
X109633333Y-95195295D01*
X109633333Y-95195295D02*
X109633333Y-95338152D01*
X109633333Y-95338152D02*
X109585714Y-95433390D01*
X109585714Y-95433390D02*
X109538095Y-95481009D01*
X109538095Y-95481009D02*
X109442857Y-95528628D01*
X109442857Y-95528628D02*
X109061905Y-95528628D01*
X110490476Y-95004819D02*
X110300000Y-95004819D01*
X110300000Y-95004819D02*
X110204762Y-95052438D01*
X110204762Y-95052438D02*
X110157143Y-95100057D01*
X110157143Y-95100057D02*
X110061905Y-95242914D01*
X110061905Y-95242914D02*
X110014286Y-95433390D01*
X110014286Y-95433390D02*
X110014286Y-95814342D01*
X110014286Y-95814342D02*
X110061905Y-95909580D01*
X110061905Y-95909580D02*
X110109524Y-95957200D01*
X110109524Y-95957200D02*
X110204762Y-96004819D01*
X110204762Y-96004819D02*
X110395238Y-96004819D01*
X110395238Y-96004819D02*
X110490476Y-95957200D01*
X110490476Y-95957200D02*
X110538095Y-95909580D01*
X110538095Y-95909580D02*
X110585714Y-95814342D01*
X110585714Y-95814342D02*
X110585714Y-95576247D01*
X110585714Y-95576247D02*
X110538095Y-95481009D01*
X110538095Y-95481009D02*
X110490476Y-95433390D01*
X110490476Y-95433390D02*
X110395238Y-95385771D01*
X110395238Y-95385771D02*
X110204762Y-95385771D01*
X110204762Y-95385771D02*
X110109524Y-95433390D01*
X110109524Y-95433390D02*
X110061905Y-95481009D01*
X110061905Y-95481009D02*
X110014286Y-95576247D01*
X109633333Y-121959580D02*
X109585714Y-122007200D01*
X109585714Y-122007200D02*
X109442857Y-122054819D01*
X109442857Y-122054819D02*
X109347619Y-122054819D01*
X109347619Y-122054819D02*
X109204762Y-122007200D01*
X109204762Y-122007200D02*
X109109524Y-121911961D01*
X109109524Y-121911961D02*
X109061905Y-121816723D01*
X109061905Y-121816723D02*
X109014286Y-121626247D01*
X109014286Y-121626247D02*
X109014286Y-121483390D01*
X109014286Y-121483390D02*
X109061905Y-121292914D01*
X109061905Y-121292914D02*
X109109524Y-121197676D01*
X109109524Y-121197676D02*
X109204762Y-121102438D01*
X109204762Y-121102438D02*
X109347619Y-121054819D01*
X109347619Y-121054819D02*
X109442857Y-121054819D01*
X109442857Y-121054819D02*
X109585714Y-121102438D01*
X109585714Y-121102438D02*
X109633333Y-121150057D01*
X110538095Y-121054819D02*
X110061905Y-121054819D01*
X110061905Y-121054819D02*
X110014286Y-121531009D01*
X110014286Y-121531009D02*
X110061905Y-121483390D01*
X110061905Y-121483390D02*
X110157143Y-121435771D01*
X110157143Y-121435771D02*
X110395238Y-121435771D01*
X110395238Y-121435771D02*
X110490476Y-121483390D01*
X110490476Y-121483390D02*
X110538095Y-121531009D01*
X110538095Y-121531009D02*
X110585714Y-121626247D01*
X110585714Y-121626247D02*
X110585714Y-121864342D01*
X110585714Y-121864342D02*
X110538095Y-121959580D01*
X110538095Y-121959580D02*
X110490476Y-122007200D01*
X110490476Y-122007200D02*
X110395238Y-122054819D01*
X110395238Y-122054819D02*
X110157143Y-122054819D01*
X110157143Y-122054819D02*
X110061905Y-122007200D01*
X110061905Y-122007200D02*
X110014286Y-121959580D01*
X109633333Y-85604819D02*
X109300000Y-85128628D01*
X109061905Y-85604819D02*
X109061905Y-84604819D01*
X109061905Y-84604819D02*
X109442857Y-84604819D01*
X109442857Y-84604819D02*
X109538095Y-84652438D01*
X109538095Y-84652438D02*
X109585714Y-84700057D01*
X109585714Y-84700057D02*
X109633333Y-84795295D01*
X109633333Y-84795295D02*
X109633333Y-84938152D01*
X109633333Y-84938152D02*
X109585714Y-85033390D01*
X109585714Y-85033390D02*
X109538095Y-85081009D01*
X109538095Y-85081009D02*
X109442857Y-85128628D01*
X109442857Y-85128628D02*
X109061905Y-85128628D01*
X109966667Y-84604819D02*
X110585714Y-84604819D01*
X110585714Y-84604819D02*
X110252381Y-84985771D01*
X110252381Y-84985771D02*
X110395238Y-84985771D01*
X110395238Y-84985771D02*
X110490476Y-85033390D01*
X110490476Y-85033390D02*
X110538095Y-85081009D01*
X110538095Y-85081009D02*
X110585714Y-85176247D01*
X110585714Y-85176247D02*
X110585714Y-85414342D01*
X110585714Y-85414342D02*
X110538095Y-85509580D01*
X110538095Y-85509580D02*
X110490476Y-85557200D01*
X110490476Y-85557200D02*
X110395238Y-85604819D01*
X110395238Y-85604819D02*
X110109524Y-85604819D01*
X110109524Y-85604819D02*
X110014286Y-85557200D01*
X110014286Y-85557200D02*
X109966667Y-85509580D01*
X108933333Y-111509580D02*
X108885714Y-111557200D01*
X108885714Y-111557200D02*
X108742857Y-111604819D01*
X108742857Y-111604819D02*
X108647619Y-111604819D01*
X108647619Y-111604819D02*
X108504762Y-111557200D01*
X108504762Y-111557200D02*
X108409524Y-111461961D01*
X108409524Y-111461961D02*
X108361905Y-111366723D01*
X108361905Y-111366723D02*
X108314286Y-111176247D01*
X108314286Y-111176247D02*
X108314286Y-111033390D01*
X108314286Y-111033390D02*
X108361905Y-110842914D01*
X108361905Y-110842914D02*
X108409524Y-110747676D01*
X108409524Y-110747676D02*
X108504762Y-110652438D01*
X108504762Y-110652438D02*
X108647619Y-110604819D01*
X108647619Y-110604819D02*
X108742857Y-110604819D01*
X108742857Y-110604819D02*
X108885714Y-110652438D01*
X108885714Y-110652438D02*
X108933333Y-110700057D01*
X109314286Y-110700057D02*
X109361905Y-110652438D01*
X109361905Y-110652438D02*
X109457143Y-110604819D01*
X109457143Y-110604819D02*
X109695238Y-110604819D01*
X109695238Y-110604819D02*
X109790476Y-110652438D01*
X109790476Y-110652438D02*
X109838095Y-110700057D01*
X109838095Y-110700057D02*
X109885714Y-110795295D01*
X109885714Y-110795295D02*
X109885714Y-110890533D01*
X109885714Y-110890533D02*
X109838095Y-111033390D01*
X109838095Y-111033390D02*
X109266667Y-111604819D01*
X109266667Y-111604819D02*
X109885714Y-111604819D01*
X104015714Y-137111019D02*
X104015714Y-136111019D01*
X104015714Y-136111019D02*
X104253809Y-136111019D01*
X104253809Y-136111019D02*
X104396666Y-136158638D01*
X104396666Y-136158638D02*
X104491904Y-136253876D01*
X104491904Y-136253876D02*
X104539523Y-136349114D01*
X104539523Y-136349114D02*
X104587142Y-136539590D01*
X104587142Y-136539590D02*
X104587142Y-136682447D01*
X104587142Y-136682447D02*
X104539523Y-136872923D01*
X104539523Y-136872923D02*
X104491904Y-136968161D01*
X104491904Y-136968161D02*
X104396666Y-137063400D01*
X104396666Y-137063400D02*
X104253809Y-137111019D01*
X104253809Y-137111019D02*
X104015714Y-137111019D01*
X104968095Y-136206257D02*
X105015714Y-136158638D01*
X105015714Y-136158638D02*
X105110952Y-136111019D01*
X105110952Y-136111019D02*
X105349047Y-136111019D01*
X105349047Y-136111019D02*
X105444285Y-136158638D01*
X105444285Y-136158638D02*
X105491904Y-136206257D01*
X105491904Y-136206257D02*
X105539523Y-136301495D01*
X105539523Y-136301495D02*
X105539523Y-136396733D01*
X105539523Y-136396733D02*
X105491904Y-136539590D01*
X105491904Y-136539590D02*
X104920476Y-137111019D01*
X104920476Y-137111019D02*
X105539523Y-137111019D01*
X106444285Y-136111019D02*
X105968095Y-136111019D01*
X105968095Y-136111019D02*
X105920476Y-136587209D01*
X105920476Y-136587209D02*
X105968095Y-136539590D01*
X105968095Y-136539590D02*
X106063333Y-136491971D01*
X106063333Y-136491971D02*
X106301428Y-136491971D01*
X106301428Y-136491971D02*
X106396666Y-136539590D01*
X106396666Y-136539590D02*
X106444285Y-136587209D01*
X106444285Y-136587209D02*
X106491904Y-136682447D01*
X106491904Y-136682447D02*
X106491904Y-136920542D01*
X106491904Y-136920542D02*
X106444285Y-137015780D01*
X106444285Y-137015780D02*
X106396666Y-137063400D01*
X106396666Y-137063400D02*
X106301428Y-137111019D01*
X106301428Y-137111019D02*
X106063333Y-137111019D01*
X106063333Y-137111019D02*
X105968095Y-137063400D01*
X105968095Y-137063400D02*
X105920476Y-137015780D01*
D12*
%TO.C,R5*%
X110027064Y-89665000D02*
X109572936Y-89665000D01*
X110027064Y-91135000D02*
X109572936Y-91135000D01*
%TO.C,D26*%
X99940000Y-139832900D02*
X99940000Y-139988900D01*
X99940000Y-142148900D02*
X99940000Y-142304900D01*
X99940000Y-139833384D02*
G75*
G02*
X103171397Y-139988839I1560000J-1235516D01*
G01*
X100459039Y-139988900D02*
G75*
G02*
X102540910Y-139988851I1040961J-1080000D01*
G01*
X102540910Y-142148949D02*
G75*
G02*
X100459039Y-142148900I-1040910J1080049D01*
G01*
X103171397Y-142148961D02*
G75*
G02*
X99940000Y-142304416I-1671397J1080061D01*
G01*
%TO.C,D24*%
X99940000Y-130867400D02*
X99940000Y-131023400D01*
X99940000Y-133183400D02*
X99940000Y-133339400D01*
X99940000Y-130867884D02*
G75*
G02*
X103171397Y-131023339I1560000J-1235516D01*
G01*
X100459039Y-131023400D02*
G75*
G02*
X102540910Y-131023351I1040961J-1080000D01*
G01*
X102540910Y-133183449D02*
G75*
G02*
X100459039Y-133183400I-1040910J1080049D01*
G01*
X103171397Y-133183461D02*
G75*
G02*
X99940000Y-133338916I-1671397J1080061D01*
G01*
%TO.C,D1*%
X99940000Y-27764000D02*
X99940000Y-27920000D01*
X99940000Y-30080000D02*
X99940000Y-30236000D01*
X99940000Y-27764484D02*
G75*
G02*
X103171397Y-27919939I1560000J-1235516D01*
G01*
X100459039Y-27920000D02*
G75*
G02*
X102540910Y-27919951I1040961J-1080000D01*
G01*
X102540910Y-30080049D02*
G75*
G02*
X100459039Y-30080000I-1040910J1080049D01*
G01*
X103171397Y-30080061D02*
G75*
G02*
X99940000Y-30235516I-1671397J1080061D01*
G01*
%TO.C,D19*%
X99940000Y-108453600D02*
X99940000Y-108609600D01*
X99940000Y-110769600D02*
X99940000Y-110925600D01*
X99940000Y-108454084D02*
G75*
G02*
X103171397Y-108609539I1560000J-1235516D01*
G01*
X100459039Y-108609600D02*
G75*
G02*
X102540910Y-108609551I1040961J-1080000D01*
G01*
X102540910Y-110769649D02*
G75*
G02*
X100459039Y-110769600I-1040910J1080049D01*
G01*
X103171397Y-110769661D02*
G75*
G02*
X99940000Y-110925116I-1671397J1080061D01*
G01*
%TO.C,R1*%
X110027064Y-75765000D02*
X109572936Y-75765000D01*
X110027064Y-77235000D02*
X109572936Y-77235000D01*
%TO.C,D7*%
X99940000Y-54660500D02*
X99940000Y-54816500D01*
X99940000Y-56976500D02*
X99940000Y-57132500D01*
X99940000Y-54660984D02*
G75*
G02*
X103171397Y-54816439I1560000J-1235516D01*
G01*
X100459039Y-54816500D02*
G75*
G02*
X102540910Y-54816451I1040961J-1080000D01*
G01*
X102540910Y-56976549D02*
G75*
G02*
X100459039Y-56976500I-1040910J1080049D01*
G01*
X103171397Y-56976561D02*
G75*
G02*
X99940000Y-57132016I-1671397J1080061D01*
G01*
%TO.C,D27*%
X99940000Y-144315700D02*
X99940000Y-144471700D01*
X99940000Y-146631700D02*
X99940000Y-146787700D01*
X99940000Y-144316184D02*
G75*
G02*
X103171397Y-144471639I1560000J-1235516D01*
G01*
X100459039Y-144471700D02*
G75*
G02*
X102540910Y-144471651I1040961J-1080000D01*
G01*
X102540910Y-146631749D02*
G75*
G02*
X100459039Y-146631700I-1040910J1080049D01*
G01*
X103171397Y-146631761D02*
G75*
G02*
X99940000Y-146787216I-1671397J1080061D01*
G01*
%TO.C,D11*%
X99940000Y-72591600D02*
X99940000Y-72747600D01*
X99940000Y-74907600D02*
X99940000Y-75063600D01*
X99940000Y-72592084D02*
G75*
G02*
X103171397Y-72747539I1560000J-1235516D01*
G01*
X100459039Y-72747600D02*
G75*
G02*
X102540910Y-72747551I1040961J-1080000D01*
G01*
X102540910Y-74907649D02*
G75*
G02*
X100459039Y-74907600I-1040910J1080049D01*
G01*
X103171397Y-74907661D02*
G75*
G02*
X99940000Y-75063116I-1671397J1080061D01*
G01*
%TO.C,D2*%
X99940000Y-32246800D02*
X99940000Y-32402800D01*
X99940000Y-34562800D02*
X99940000Y-34718800D01*
X99940000Y-32247284D02*
G75*
G02*
X103171397Y-32402739I1560000J-1235516D01*
G01*
X100459039Y-32402800D02*
G75*
G02*
X102540910Y-32402751I1040961J-1080000D01*
G01*
X102540910Y-34562849D02*
G75*
G02*
X100459039Y-34562800I-1040910J1080049D01*
G01*
X103171397Y-34562861D02*
G75*
G02*
X99940000Y-34718316I-1671397J1080061D01*
G01*
%TO.C,D3*%
X99940000Y-36729500D02*
X99940000Y-36885500D01*
X99940000Y-39045500D02*
X99940000Y-39201500D01*
X99940000Y-36729984D02*
G75*
G02*
X103171397Y-36885439I1560000J-1235516D01*
G01*
X100459039Y-36885500D02*
G75*
G02*
X102540910Y-36885451I1040961J-1080000D01*
G01*
X102540910Y-39045549D02*
G75*
G02*
X100459039Y-39045500I-1040910J1080049D01*
G01*
X103171397Y-39045561D02*
G75*
G02*
X99940000Y-39201016I-1671397J1080061D01*
G01*
%TO.C,C7*%
X110186252Y-134402500D02*
X109663748Y-134402500D01*
X110186252Y-135872500D02*
X109663748Y-135872500D01*
%TO.C,R4*%
X110027064Y-86165000D02*
X109572936Y-86165000D01*
X110027064Y-87635000D02*
X109572936Y-87635000D01*
%TO.C,C3*%
X110161252Y-136765000D02*
X109638748Y-136765000D01*
X110161252Y-138235000D02*
X109638748Y-138235000D01*
%TO.C,D10*%
X99940000Y-68108800D02*
X99940000Y-68264800D01*
X99940000Y-70424800D02*
X99940000Y-70580800D01*
X99940000Y-68109284D02*
G75*
G02*
X103171397Y-68264739I1560000J-1235516D01*
G01*
X100459039Y-68264800D02*
G75*
G02*
X102540910Y-68264751I1040961J-1080000D01*
G01*
X102540910Y-70424849D02*
G75*
G02*
X100459039Y-70424800I-1040910J1080049D01*
G01*
X103171397Y-70424861D02*
G75*
G02*
X99940000Y-70580316I-1671397J1080061D01*
G01*
%TO.C,D30*%
X99940000Y-157764000D02*
X99940000Y-157920000D01*
X99940000Y-160080000D02*
X99940000Y-160236000D01*
X99940000Y-157764484D02*
G75*
G02*
X103171397Y-157919939I1560000J-1235516D01*
G01*
X100459039Y-157920000D02*
G75*
G02*
X102540910Y-157919951I1040961J-1080000D01*
G01*
X102540910Y-160080049D02*
G75*
G02*
X100459039Y-160080000I-1040910J1080049D01*
G01*
X103171397Y-160080061D02*
G75*
G02*
X99940000Y-160235516I-1671397J1080061D01*
G01*
%TO.C,C4*%
X110161252Y-143552500D02*
X109638748Y-143552500D01*
X110161252Y-145022500D02*
X109638748Y-145022500D01*
%TO.C,D20*%
X99940000Y-112936400D02*
X99940000Y-113092400D01*
X99940000Y-115252400D02*
X99940000Y-115408400D01*
X99940000Y-112936884D02*
G75*
G02*
X103171397Y-113092339I1560000J-1235516D01*
G01*
X100459039Y-113092400D02*
G75*
G02*
X102540910Y-113092351I1040961J-1080000D01*
G01*
X102540910Y-115252449D02*
G75*
G02*
X100459039Y-115252400I-1040910J1080049D01*
G01*
X103171397Y-115252461D02*
G75*
G02*
X99940000Y-115407916I-1671397J1080061D01*
G01*
%TO.C,F1*%
X106990000Y-158602064D02*
X106990000Y-157397936D01*
X108810000Y-158602064D02*
X108810000Y-157397936D01*
%TO.C,D14*%
X99940000Y-86039900D02*
X99940000Y-86195900D01*
X99940000Y-88355900D02*
X99940000Y-88511900D01*
X99940000Y-86040384D02*
G75*
G02*
X103171397Y-86195839I1560000J-1235516D01*
G01*
X100459039Y-86195900D02*
G75*
G02*
X102540910Y-86195851I1040961J-1080000D01*
G01*
X102540910Y-88355949D02*
G75*
G02*
X100459039Y-88355900I-1040910J1080049D01*
G01*
X103171397Y-88355961D02*
G75*
G02*
X99940000Y-88511416I-1671397J1080061D01*
G01*
%TO.C,D16*%
X99940000Y-95005400D02*
X99940000Y-95161400D01*
X99940000Y-97321400D02*
X99940000Y-97477400D01*
X99940000Y-95005884D02*
G75*
G02*
X103171397Y-95161339I1560000J-1235516D01*
G01*
X100459039Y-95161400D02*
G75*
G02*
X102540910Y-95161351I1040961J-1080000D01*
G01*
X102540910Y-97321449D02*
G75*
G02*
X100459039Y-97321400I-1040910J1080049D01*
G01*
X103171397Y-97321461D02*
G75*
G02*
X99940000Y-97476916I-1671397J1080061D01*
G01*
%TO.C,D15*%
X99940000Y-90522600D02*
X99940000Y-90678600D01*
X99940000Y-92838600D02*
X99940000Y-92994600D01*
X99940000Y-90523084D02*
G75*
G02*
X103171397Y-90678539I1560000J-1235516D01*
G01*
X100459039Y-90678600D02*
G75*
G02*
X102540910Y-90678551I1040961J-1080000D01*
G01*
X102540910Y-92838649D02*
G75*
G02*
X100459039Y-92838600I-1040910J1080049D01*
G01*
X103171397Y-92838661D02*
G75*
G02*
X99940000Y-92994116I-1671397J1080061D01*
G01*
%TO.C,C6*%
X111165000Y-124261252D02*
X111165000Y-123738748D01*
X112635000Y-124261252D02*
X112635000Y-123738748D01*
%TO.C,D9*%
X99940000Y-63626100D02*
X99940000Y-63782100D01*
X99940000Y-65942100D02*
X99940000Y-66098100D01*
X99940000Y-63626584D02*
G75*
G02*
X103171397Y-63782039I1560000J-1235516D01*
G01*
X100459039Y-63782100D02*
G75*
G02*
X102540910Y-63782051I1040961J-1080000D01*
G01*
X102540910Y-65942149D02*
G75*
G02*
X100459039Y-65942100I-1040910J1080049D01*
G01*
X103171397Y-65942161D02*
G75*
G02*
X99940000Y-66097616I-1671397J1080061D01*
G01*
%TO.C,J2*%
X114670000Y-136100000D02*
X114670000Y-146350000D01*
X114670000Y-136100000D02*
X117330000Y-136100000D01*
X114670000Y-146350000D02*
X117330000Y-146350000D01*
X117330000Y-136100000D02*
X117330000Y-146350000D01*
%TO.C,R2*%
X110027064Y-79265000D02*
X109572936Y-79265000D01*
X110027064Y-80735000D02*
X109572936Y-80735000D01*
%TO.C,D5*%
X99940000Y-45695000D02*
X99940000Y-45851000D01*
X99940000Y-48011000D02*
X99940000Y-48167000D01*
X99940000Y-45695484D02*
G75*
G02*
X103171397Y-45850939I1560000J-1235516D01*
G01*
X100459039Y-45851000D02*
G75*
G02*
X102540910Y-45850951I1040961J-1080000D01*
G01*
X102540910Y-48011049D02*
G75*
G02*
X100459039Y-48011000I-1040910J1080049D01*
G01*
X103171397Y-48011061D02*
G75*
G02*
X99940000Y-48166516I-1671397J1080061D01*
G01*
%TO.C,D4*%
X99940000Y-41212300D02*
X99940000Y-41368300D01*
X99940000Y-43528300D02*
X99940000Y-43684300D01*
X99940000Y-41212784D02*
G75*
G02*
X103171397Y-41368239I1560000J-1235516D01*
G01*
X100459039Y-41368300D02*
G75*
G02*
X102540910Y-41368251I1040961J-1080000D01*
G01*
X102540910Y-43528349D02*
G75*
G02*
X100459039Y-43528300I-1040910J1080049D01*
G01*
X103171397Y-43528361D02*
G75*
G02*
X99940000Y-43683816I-1671397J1080061D01*
G01*
%TO.C,R7*%
X110365000Y-117922936D02*
X110365000Y-118377064D01*
X111835000Y-117922936D02*
X111835000Y-118377064D01*
%TO.C,U1*%
X108415000Y-129950000D02*
X108415000Y-127750000D01*
X108415000Y-129950000D02*
X108415000Y-132150000D01*
X115185000Y-129950000D02*
X115185000Y-127750000D01*
X115185000Y-129950000D02*
X115185000Y-132150000D01*
X114725000Y-126090000D02*
X114485000Y-125760000D01*
X114965000Y-125760000D01*
X114725000Y-126090000D01*
G36*
X114725000Y-126090000D02*
G01*
X114485000Y-125760000D01*
X114965000Y-125760000D01*
X114725000Y-126090000D01*
G37*
%TO.C,R9*%
X106965000Y-123772936D02*
X106965000Y-124227064D01*
X108435000Y-123772936D02*
X108435000Y-124227064D01*
%TO.C,R10*%
X114127064Y-75765000D02*
X113672936Y-75765000D01*
X114127064Y-77235000D02*
X113672936Y-77235000D01*
%TO.C,D13*%
X99940000Y-81557100D02*
X99940000Y-81713100D01*
X99940000Y-83873100D02*
X99940000Y-84029100D01*
X99940000Y-81557584D02*
G75*
G02*
X103171397Y-81713039I1560000J-1235516D01*
G01*
X100459039Y-81713100D02*
G75*
G02*
X102540910Y-81713051I1040961J-1080000D01*
G01*
X102540910Y-83873149D02*
G75*
G02*
X100459039Y-83873100I-1040910J1080049D01*
G01*
X103171397Y-83873161D02*
G75*
G02*
X99940000Y-84028616I-1671397J1080061D01*
G01*
%TO.C,U2*%
X108340000Y-140925000D02*
X108340000Y-140125000D01*
X108340000Y-140925000D02*
X108340000Y-141725000D01*
X111460000Y-140925000D02*
X111460000Y-140125000D01*
X111460000Y-140925000D02*
X111460000Y-141725000D01*
X108390000Y-142225000D02*
X108060000Y-142465000D01*
X108060000Y-141985000D01*
X108390000Y-142225000D01*
G36*
X108390000Y-142225000D02*
G01*
X108060000Y-142465000D01*
X108060000Y-141985000D01*
X108390000Y-142225000D01*
G37*
%TO.C,D6*%
X99940000Y-50177800D02*
X99940000Y-50333800D01*
X99940000Y-52493800D02*
X99940000Y-52649800D01*
X99940000Y-50178284D02*
G75*
G02*
X103171397Y-50333739I1560000J-1235516D01*
G01*
X100459039Y-50333800D02*
G75*
G02*
X102540910Y-50333751I1040961J-1080000D01*
G01*
X102540910Y-52493849D02*
G75*
G02*
X100459039Y-52493800I-1040910J1080049D01*
G01*
X103171397Y-52493861D02*
G75*
G02*
X99940000Y-52649316I-1671397J1080061D01*
G01*
%TO.C,D23*%
X99940000Y-126384700D02*
X99940000Y-126540700D01*
X99940000Y-128700700D02*
X99940000Y-128856700D01*
X99940000Y-126385184D02*
G75*
G02*
X103171397Y-126540639I1560000J-1235516D01*
G01*
X100459039Y-126540700D02*
G75*
G02*
X102540910Y-126540651I1040961J-1080000D01*
G01*
X102540910Y-128700749D02*
G75*
G02*
X100459039Y-128700700I-1040910J1080049D01*
G01*
X103171397Y-128700761D02*
G75*
G02*
X99940000Y-128856216I-1671397J1080061D01*
G01*
%TO.C,C1*%
X110365000Y-114911252D02*
X110365000Y-114388748D01*
X111835000Y-114911252D02*
X111835000Y-114388748D01*
%TO.C,Y1*%
X112375000Y-110725000D02*
X112375000Y-116975000D01*
X117425000Y-110725000D02*
X117425000Y-116975000D01*
X112375000Y-110725000D02*
G75*
G02*
X117425000Y-110725000I2525000J0D01*
G01*
X117425000Y-116975000D02*
G75*
G02*
X112375000Y-116975000I-2525000J0D01*
G01*
%TO.C,R8*%
X113972936Y-105865000D02*
X114427064Y-105865000D01*
X113972936Y-107335000D02*
X114427064Y-107335000D01*
%TO.C,D18*%
X99940000Y-103970900D02*
X99940000Y-104126900D01*
X99940000Y-106286900D02*
X99940000Y-106442900D01*
X99940000Y-103971384D02*
G75*
G02*
X103171397Y-104126839I1560000J-1235516D01*
G01*
X100459039Y-104126900D02*
G75*
G02*
X102540910Y-104126851I1040961J-1080000D01*
G01*
X102540910Y-106286949D02*
G75*
G02*
X100459039Y-106286900I-1040910J1080049D01*
G01*
X103171397Y-106286961D02*
G75*
G02*
X99940000Y-106442416I-1671397J1080061D01*
G01*
%TO.C,D29*%
X99940000Y-153281200D02*
X99940000Y-153437200D01*
X99940000Y-155597200D02*
X99940000Y-155753200D01*
X99940000Y-153281684D02*
G75*
G02*
X103171397Y-153437139I1560000J-1235516D01*
G01*
X100459039Y-153437200D02*
G75*
G02*
X102540910Y-153437151I1040961J-1080000D01*
G01*
X102540910Y-155597249D02*
G75*
G02*
X100459039Y-155597200I-1040910J1080049D01*
G01*
X103171397Y-155597261D02*
G75*
G02*
X99940000Y-155752716I-1671397J1080061D01*
G01*
%TO.C,D22*%
X99940000Y-121901900D02*
X99940000Y-122057900D01*
X99940000Y-124217900D02*
X99940000Y-124373900D01*
X99940000Y-121902384D02*
G75*
G02*
X103171397Y-122057839I1560000J-1235516D01*
G01*
X100459039Y-122057900D02*
G75*
G02*
X102540910Y-122057851I1040961J-1080000D01*
G01*
X102540910Y-124217949D02*
G75*
G02*
X100459039Y-124217900I-1040910J1080049D01*
G01*
X103171397Y-124217961D02*
G75*
G02*
X99940000Y-124373416I-1671397J1080061D01*
G01*
%TO.C,D21*%
X99940000Y-117419200D02*
X99940000Y-117575200D01*
X99940000Y-119735200D02*
X99940000Y-119891200D01*
X99940000Y-117419684D02*
G75*
G02*
X103171397Y-117575139I1560000J-1235516D01*
G01*
X100459039Y-117575200D02*
G75*
G02*
X102540910Y-117575151I1040961J-1080000D01*
G01*
X102540910Y-119735249D02*
G75*
G02*
X100459039Y-119735200I-1040910J1080049D01*
G01*
X103171397Y-119735261D02*
G75*
G02*
X99940000Y-119890716I-1671397J1080061D01*
G01*
%TO.C,SW1*%
X108450000Y-99700000D02*
X108450000Y-101200000D01*
X109700000Y-103700000D02*
X114200000Y-103700000D01*
X114200000Y-97200000D02*
X109700000Y-97200000D01*
X115450000Y-101200000D02*
X115450000Y-99700000D01*
%TO.C,U3*%
X110200000Y-71050000D02*
X113800000Y-71050000D01*
X110161522Y-71038478D02*
G75*
G02*
X112000000Y-66599999I1838478J1838478D01*
G01*
X112000000Y-66600000D02*
G75*
G02*
X113838478Y-71038478I0J-2600000D01*
G01*
%TO.C,D28*%
X99940000Y-148798500D02*
X99940000Y-148954500D01*
X99940000Y-151114500D02*
X99940000Y-151270500D01*
X99940000Y-148798984D02*
G75*
G02*
X103171397Y-148954439I1560000J-1235516D01*
G01*
X100459039Y-148954500D02*
G75*
G02*
X102540910Y-148954451I1040961J-1080000D01*
G01*
X102540910Y-151114549D02*
G75*
G02*
X100459039Y-151114500I-1040910J1080049D01*
G01*
X103171397Y-151114561D02*
G75*
G02*
X99940000Y-151270016I-1671397J1080061D01*
G01*
D11*
%TO.C,J1*%
X110825000Y-156380000D02*
X110825000Y-157105000D01*
X110825000Y-157105000D02*
X111250000Y-157105000D01*
X111250000Y-153505000D02*
X111250000Y-152780000D01*
X111250000Y-157105000D02*
X111250000Y-157830000D01*
X113000000Y-159455000D02*
X114400000Y-159455000D01*
X114400000Y-151155000D02*
X113000000Y-151155000D01*
X116800000Y-159455000D02*
X116950000Y-159455000D01*
X116950000Y-151155000D02*
X116800000Y-151155000D01*
X116950000Y-151455000D02*
X116950000Y-151155000D01*
X116950000Y-159155000D02*
X117400000Y-159155000D01*
X116950000Y-159455000D02*
X116950000Y-159155000D01*
X117400000Y-151455000D02*
X116950000Y-151455000D01*
D12*
%TO.C,D8*%
X99940000Y-59143300D02*
X99940000Y-59299300D01*
X99940000Y-61459300D02*
X99940000Y-61615300D01*
X99940000Y-59143784D02*
G75*
G02*
X103171397Y-59299239I1560000J-1235516D01*
G01*
X100459039Y-59299300D02*
G75*
G02*
X102540910Y-59299251I1040961J-1080000D01*
G01*
X102540910Y-61459349D02*
G75*
G02*
X100459039Y-61459300I-1040910J1080049D01*
G01*
X103171397Y-61459361D02*
G75*
G02*
X99940000Y-61614816I-1671397J1080061D01*
G01*
%TO.C,D17*%
X99940000Y-99488100D02*
X99940000Y-99644100D01*
X99940000Y-101804100D02*
X99940000Y-101960100D01*
X99940000Y-99488584D02*
G75*
G02*
X103171397Y-99644039I1560000J-1235516D01*
G01*
X100459039Y-99644100D02*
G75*
G02*
X102540910Y-99644051I1040961J-1080000D01*
G01*
X102540910Y-101804149D02*
G75*
G02*
X100459039Y-101804100I-1040910J1080049D01*
G01*
X103171397Y-101804161D02*
G75*
G02*
X99940000Y-101959616I-1671397J1080061D01*
G01*
%TO.C,D12*%
X99940000Y-77074300D02*
X99940000Y-77230300D01*
X99940000Y-79390300D02*
X99940000Y-79546300D01*
X99940000Y-77074784D02*
G75*
G02*
X103171397Y-77230239I1560000J-1235516D01*
G01*
X100459039Y-77230300D02*
G75*
G02*
X102540910Y-77230251I1040961J-1080000D01*
G01*
X102540910Y-79390349D02*
G75*
G02*
X100459039Y-79390300I-1040910J1080049D01*
G01*
X103171397Y-79390361D02*
G75*
G02*
X99940000Y-79545816I-1671397J1080061D01*
G01*
%TO.C,R11*%
X114165000Y-123772936D02*
X114165000Y-124227064D01*
X115635000Y-123772936D02*
X115635000Y-124227064D01*
%TO.C,R6*%
X110027064Y-93165000D02*
X109572936Y-93165000D01*
X110027064Y-94635000D02*
X109572936Y-94635000D01*
%TO.C,C5*%
X109065000Y-124261252D02*
X109065000Y-123738748D01*
X110535000Y-124261252D02*
X110535000Y-123738748D01*
%TO.C,R3*%
X110027064Y-82765000D02*
X109572936Y-82765000D01*
X110027064Y-84235000D02*
X109572936Y-84235000D01*
%TO.C,C2*%
X110365000Y-111411252D02*
X110365000Y-110888748D01*
X111835000Y-111411252D02*
X111835000Y-110888748D01*
%TO.C,D25*%
X99940000Y-135350200D02*
X99940000Y-135506200D01*
X99940000Y-137666200D02*
X99940000Y-137822200D01*
X99940000Y-135350684D02*
G75*
G02*
X103171397Y-135506139I1560000J-1235516D01*
G01*
X100459039Y-135506200D02*
G75*
G02*
X102540910Y-135506151I1040961J-1080000D01*
G01*
X102540910Y-137666249D02*
G75*
G02*
X100459039Y-137666200I-1040910J1080049D01*
G01*
X103171397Y-137666261D02*
G75*
G02*
X99940000Y-137821716I-1671397J1080061D01*
G01*
%TD*%
M02*
