%TF.GenerationSoftware,KiCad,Pcbnew,8.0.7*%
%TF.CreationDate,2025-01-01T13:33:24+01:00*%
%TF.ProjectId,termometer_kombo,7465726d-6f6d-4657-9465-725f6b6f6d62,rev?*%
%TF.SameCoordinates,Original*%
%TF.FileFunction,Drillmap*%
%TF.FilePolarity,Positive*%
%FSLAX45Y45*%
G04 Gerber Fmt 4.5, Leading zero omitted, Abs format (unit mm)*
G04 Created by KiCad (PCBNEW 8.0.7) date 2025-01-01 13:33:24*
%MOMM*%
%LPD*%
G01*
G04 APERTURE LIST*
%ADD10C,0.050000*%
%ADD11C,0.200000*%
%ADD12C,0.100000*%
%ADD13C,0.110000*%
%ADD14C,0.120000*%
%ADD15C,0.140000*%
G04 APERTURE END LIST*
D10*
X8670000Y-16400000D02*
X8500000Y-16230000D01*
X8500000Y-2770000D02*
X8500000Y-16230000D01*
X11800000Y-16230000D02*
X11630000Y-16400000D01*
X11630000Y-2600000D02*
X8670000Y-2600000D01*
X11800000Y-2770000D02*
X11630000Y-2600000D01*
X11800000Y-16230000D02*
X11800000Y-2770000D01*
X8670000Y-16400000D02*
X11630000Y-16400000D01*
X8500000Y-2770000D02*
X8670000Y-2600000D01*
D11*
D12*
X10745000Y-7635000D02*
X10775000Y-7665000D01*
X10775000Y-7635000D02*
X10745000Y-7665000D01*
X10872500Y-13145000D02*
X10902500Y-13175000D01*
X10902500Y-13145000D02*
X10872500Y-13175000D01*
X10872575Y-12873024D02*
X10902575Y-12903024D01*
X10902575Y-12873024D02*
X10872575Y-12903024D01*
X10925000Y-8885000D02*
X10955000Y-8915000D01*
X10955000Y-8885000D02*
X10925000Y-8915000D01*
X10930000Y-9235000D02*
X10960000Y-9265000D01*
X10960000Y-9235000D02*
X10930000Y-9265000D01*
X10937500Y-12805000D02*
X10967500Y-12835000D01*
X10967500Y-12805000D02*
X10937500Y-12835000D01*
X10938633Y-13083955D02*
X10968633Y-13113955D01*
X10968633Y-13083955D02*
X10938633Y-13113955D01*
X10970000Y-8535000D02*
X11000000Y-8565000D01*
X11000000Y-8535000D02*
X10970000Y-8565000D01*
X10975000Y-13615000D02*
X11005000Y-13645000D01*
X11005000Y-13615000D02*
X10975000Y-13645000D01*
X10978125Y-14321875D02*
X11008125Y-14351875D01*
X11008125Y-14321875D02*
X10978125Y-14351875D01*
X11002500Y-12873024D02*
X11032500Y-12903024D01*
X11032500Y-12873024D02*
X11002500Y-12903024D01*
X11010000Y-8195000D02*
X11040000Y-8225000D01*
X11040000Y-8195000D02*
X11010000Y-8225000D01*
X11050000Y-7845000D02*
X11080000Y-7875000D01*
X11080000Y-7845000D02*
X11050000Y-7875000D01*
X11055000Y-7495000D02*
X11085000Y-7525000D01*
X11085000Y-7495000D02*
X11055000Y-7525000D01*
X11067500Y-12805000D02*
X11097500Y-12835000D01*
X11097500Y-12805000D02*
X11067500Y-12835000D01*
X11132500Y-13135000D02*
X11162500Y-13165000D01*
X11162500Y-13135000D02*
X11132500Y-13165000D01*
X11133057Y-12873024D02*
X11163057Y-12903024D01*
X11163057Y-12873024D02*
X11133057Y-12903024D01*
X11212500Y-12375000D02*
X11242500Y-12405000D01*
X11242500Y-12375000D02*
X11212500Y-12405000D01*
X11239038Y-11580962D02*
X11269038Y-11610962D01*
X11269038Y-11580962D02*
X11239038Y-11610962D01*
X11245000Y-11235000D02*
X11275000Y-11265000D01*
X11275000Y-11235000D02*
X11245000Y-11265000D01*
X11315000Y-13075000D02*
X11345000Y-13105000D01*
X11345000Y-13075000D02*
X11315000Y-13105000D01*
X11457500Y-12805000D02*
X11487500Y-12835000D01*
X11487500Y-12805000D02*
X11457500Y-12835000D01*
X11605000Y-12293750D02*
X11635000Y-12323750D01*
X11635000Y-12293750D02*
X11605000Y-12323750D01*
X11110500Y-6920000D02*
G75*
G02*
X11035500Y-6920000I-37500J0D01*
G01*
X11035500Y-6920000D02*
G75*
G02*
X11110500Y-6920000I37500J0D01*
G01*
X11237500Y-6920000D02*
G75*
G02*
X11162500Y-6920000I-37500J0D01*
G01*
X11162500Y-6920000D02*
G75*
G02*
X11237500Y-6920000I37500J0D01*
G01*
X11364500Y-6920000D02*
G75*
G02*
X11289500Y-6920000I-37500J0D01*
G01*
X11289500Y-6920000D02*
G75*
G02*
X11364500Y-6920000I37500J0D01*
G01*
X11490000Y-11100000D02*
X11490000Y-11180000D01*
X11450000Y-11140000D02*
X11530000Y-11140000D01*
X11490000Y-11590000D02*
X11490000Y-11670000D01*
X11450000Y-11630000D02*
X11530000Y-11630000D01*
X10054820Y-2931820D02*
X10054820Y-2868180D01*
X9991180Y-2868180D01*
X9991180Y-2931820D01*
X10054820Y-2931820D01*
X10054820Y-3380100D02*
X10054820Y-3316460D01*
X9991180Y-3316460D01*
X9991180Y-3380100D01*
X10054820Y-3380100D01*
X10054820Y-3828370D02*
X10054820Y-3764730D01*
X9991180Y-3764730D01*
X9991180Y-3828370D01*
X10054820Y-3828370D01*
X10054820Y-4276650D02*
X10054820Y-4213010D01*
X9991180Y-4213010D01*
X9991180Y-4276650D01*
X10054820Y-4276650D01*
X10054820Y-4724920D02*
X10054820Y-4661280D01*
X9991180Y-4661280D01*
X9991180Y-4724920D01*
X10054820Y-4724920D01*
X10054820Y-5173200D02*
X10054820Y-5109560D01*
X9991180Y-5109560D01*
X9991180Y-5173200D01*
X10054820Y-5173200D01*
X10054820Y-5621470D02*
X10054820Y-5557830D01*
X9991180Y-5557830D01*
X9991180Y-5621470D01*
X10054820Y-5621470D01*
X10054820Y-6069750D02*
X10054820Y-6006110D01*
X9991180Y-6006110D01*
X9991180Y-6069750D01*
X10054820Y-6069750D01*
X10054820Y-6518030D02*
X10054820Y-6454390D01*
X9991180Y-6454390D01*
X9991180Y-6518030D01*
X10054820Y-6518030D01*
X10054820Y-6966300D02*
X10054820Y-6902660D01*
X9991180Y-6902660D01*
X9991180Y-6966300D01*
X10054820Y-6966300D01*
X10054820Y-7414580D02*
X10054820Y-7350940D01*
X9991180Y-7350940D01*
X9991180Y-7414580D01*
X10054820Y-7414580D01*
X10054820Y-7862850D02*
X10054820Y-7799210D01*
X9991180Y-7799210D01*
X9991180Y-7862850D01*
X10054820Y-7862850D01*
X10054820Y-8311130D02*
X10054820Y-8247490D01*
X9991180Y-8247490D01*
X9991180Y-8311130D01*
X10054820Y-8311130D01*
X10054820Y-8759410D02*
X10054820Y-8695770D01*
X9991180Y-8695770D01*
X9991180Y-8759410D01*
X10054820Y-8759410D01*
X10054820Y-9207680D02*
X10054820Y-9144040D01*
X9991180Y-9144040D01*
X9991180Y-9207680D01*
X10054820Y-9207680D01*
X10054820Y-9655960D02*
X10054820Y-9592320D01*
X9991180Y-9592320D01*
X9991180Y-9655960D01*
X10054820Y-9655960D01*
X10054820Y-10104230D02*
X10054820Y-10040590D01*
X9991180Y-10040590D01*
X9991180Y-10104230D01*
X10054820Y-10104230D01*
X10054820Y-10552510D02*
X10054820Y-10488870D01*
X9991180Y-10488870D01*
X9991180Y-10552510D01*
X10054820Y-10552510D01*
X10054820Y-11000780D02*
X10054820Y-10937140D01*
X9991180Y-10937140D01*
X9991180Y-11000780D01*
X10054820Y-11000780D01*
X10054820Y-11449060D02*
X10054820Y-11385420D01*
X9991180Y-11385420D01*
X9991180Y-11449060D01*
X10054820Y-11449060D01*
X10054820Y-11897340D02*
X10054820Y-11833700D01*
X9991180Y-11833700D01*
X9991180Y-11897340D01*
X10054820Y-11897340D01*
X10054820Y-12345610D02*
X10054820Y-12281970D01*
X9991180Y-12281970D01*
X9991180Y-12345610D01*
X10054820Y-12345610D01*
X10054820Y-12793890D02*
X10054820Y-12730250D01*
X9991180Y-12730250D01*
X9991180Y-12793890D01*
X10054820Y-12793890D01*
X10054820Y-13242160D02*
X10054820Y-13178520D01*
X9991180Y-13178520D01*
X9991180Y-13242160D01*
X10054820Y-13242160D01*
X10054820Y-13690440D02*
X10054820Y-13626800D01*
X9991180Y-13626800D01*
X9991180Y-13690440D01*
X10054820Y-13690440D01*
X10054820Y-14138710D02*
X10054820Y-14075070D01*
X9991180Y-14075070D01*
X9991180Y-14138710D01*
X10054820Y-14138710D01*
X10054820Y-14586990D02*
X10054820Y-14523350D01*
X9991180Y-14523350D01*
X9991180Y-14586990D01*
X10054820Y-14586990D01*
X10054820Y-15035270D02*
X10054820Y-14971630D01*
X9991180Y-14971630D01*
X9991180Y-15035270D01*
X10054820Y-15035270D01*
X10054820Y-15483540D02*
X10054820Y-15419900D01*
X9991180Y-15419900D01*
X9991180Y-15483540D01*
X10054820Y-15483540D01*
X10054820Y-15931820D02*
X10054820Y-15868180D01*
X9991180Y-15868180D01*
X9991180Y-15931820D01*
X10054820Y-15931820D01*
X10308820Y-2931820D02*
X10308820Y-2868180D01*
X10245180Y-2868180D01*
X10245180Y-2931820D01*
X10308820Y-2931820D01*
X10308820Y-3380100D02*
X10308820Y-3316460D01*
X10245180Y-3316460D01*
X10245180Y-3380100D01*
X10308820Y-3380100D01*
X10308820Y-3828370D02*
X10308820Y-3764730D01*
X10245180Y-3764730D01*
X10245180Y-3828370D01*
X10308820Y-3828370D01*
X10308820Y-4276650D02*
X10308820Y-4213010D01*
X10245180Y-4213010D01*
X10245180Y-4276650D01*
X10308820Y-4276650D01*
X10308820Y-4724920D02*
X10308820Y-4661280D01*
X10245180Y-4661280D01*
X10245180Y-4724920D01*
X10308820Y-4724920D01*
X10308820Y-5173200D02*
X10308820Y-5109560D01*
X10245180Y-5109560D01*
X10245180Y-5173200D01*
X10308820Y-5173200D01*
X10308820Y-5621470D02*
X10308820Y-5557830D01*
X10245180Y-5557830D01*
X10245180Y-5621470D01*
X10308820Y-5621470D01*
X10308820Y-6069750D02*
X10308820Y-6006110D01*
X10245180Y-6006110D01*
X10245180Y-6069750D01*
X10308820Y-6069750D01*
X10308820Y-6518030D02*
X10308820Y-6454390D01*
X10245180Y-6454390D01*
X10245180Y-6518030D01*
X10308820Y-6518030D01*
X10308820Y-6966300D02*
X10308820Y-6902660D01*
X10245180Y-6902660D01*
X10245180Y-6966300D01*
X10308820Y-6966300D01*
X10308820Y-7414580D02*
X10308820Y-7350940D01*
X10245180Y-7350940D01*
X10245180Y-7414580D01*
X10308820Y-7414580D01*
X10308820Y-7862850D02*
X10308820Y-7799210D01*
X10245180Y-7799210D01*
X10245180Y-7862850D01*
X10308820Y-7862850D01*
X10308820Y-8311130D02*
X10308820Y-8247490D01*
X10245180Y-8247490D01*
X10245180Y-8311130D01*
X10308820Y-8311130D01*
X10308820Y-8759410D02*
X10308820Y-8695770D01*
X10245180Y-8695770D01*
X10245180Y-8759410D01*
X10308820Y-8759410D01*
X10308820Y-9207680D02*
X10308820Y-9144040D01*
X10245180Y-9144040D01*
X10245180Y-9207680D01*
X10308820Y-9207680D01*
X10308820Y-9655960D02*
X10308820Y-9592320D01*
X10245180Y-9592320D01*
X10245180Y-9655960D01*
X10308820Y-9655960D01*
X10308820Y-10104230D02*
X10308820Y-10040590D01*
X10245180Y-10040590D01*
X10245180Y-10104230D01*
X10308820Y-10104230D01*
X10308820Y-10552510D02*
X10308820Y-10488870D01*
X10245180Y-10488870D01*
X10245180Y-10552510D01*
X10308820Y-10552510D01*
X10308820Y-11000780D02*
X10308820Y-10937140D01*
X10245180Y-10937140D01*
X10245180Y-11000780D01*
X10308820Y-11000780D01*
X10308820Y-11449060D02*
X10308820Y-11385420D01*
X10245180Y-11385420D01*
X10245180Y-11449060D01*
X10308820Y-11449060D01*
X10308820Y-11897340D02*
X10308820Y-11833700D01*
X10245180Y-11833700D01*
X10245180Y-11897340D01*
X10308820Y-11897340D01*
X10308820Y-12345610D02*
X10308820Y-12281970D01*
X10245180Y-12281970D01*
X10245180Y-12345610D01*
X10308820Y-12345610D01*
X10308820Y-12793890D02*
X10308820Y-12730250D01*
X10245180Y-12730250D01*
X10245180Y-12793890D01*
X10308820Y-12793890D01*
X10308820Y-13242160D02*
X10308820Y-13178520D01*
X10245180Y-13178520D01*
X10245180Y-13242160D01*
X10308820Y-13242160D01*
X10308820Y-13690440D02*
X10308820Y-13626800D01*
X10245180Y-13626800D01*
X10245180Y-13690440D01*
X10308820Y-13690440D01*
X10308820Y-14138710D02*
X10308820Y-14075070D01*
X10245180Y-14075070D01*
X10245180Y-14138710D01*
X10308820Y-14138710D01*
X10308820Y-14586990D02*
X10308820Y-14523350D01*
X10245180Y-14523350D01*
X10245180Y-14586990D01*
X10308820Y-14586990D01*
X10308820Y-15035270D02*
X10308820Y-14971630D01*
X10245180Y-14971630D01*
X10245180Y-15035270D01*
X10308820Y-15035270D01*
X10308820Y-15483540D02*
X10308820Y-15419900D01*
X10245180Y-15419900D01*
X10245180Y-15483540D01*
X10308820Y-15483540D01*
X10308820Y-15931820D02*
X10308820Y-15868180D01*
X10245180Y-15868180D01*
X10245180Y-15931820D01*
X10308820Y-15931820D01*
X11600000Y-13790000D02*
X11650000Y-13740000D01*
X11600000Y-13690000D01*
X11550000Y-13740000D01*
X11600000Y-13790000D01*
X11600000Y-14044000D02*
X11650000Y-13994000D01*
X11600000Y-13944000D01*
X11550000Y-13994000D01*
X11600000Y-14044000D01*
X11600000Y-14298000D02*
X11650000Y-14248000D01*
X11600000Y-14198000D01*
X11550000Y-14248000D01*
X11600000Y-14298000D01*
X11600000Y-14552000D02*
X11650000Y-14502000D01*
X11600000Y-14452000D01*
X11550000Y-14502000D01*
X11600000Y-14552000D01*
D13*
X10815000Y-9765000D02*
X10925000Y-9875000D01*
X10925000Y-9765000D02*
X10815000Y-9875000D01*
X10925000Y-9820000D02*
G75*
G02*
X10815000Y-9820000I-55000J0D01*
G01*
X10815000Y-9820000D02*
G75*
G02*
X10925000Y-9820000I55000J0D01*
G01*
X10815000Y-10215000D02*
X10925000Y-10325000D01*
X10925000Y-10215000D02*
X10815000Y-10325000D01*
X10925000Y-10270000D02*
G75*
G02*
X10815000Y-10270000I-55000J0D01*
G01*
X10815000Y-10270000D02*
G75*
G02*
X10925000Y-10270000I55000J0D01*
G01*
X11465000Y-9765000D02*
X11575000Y-9875000D01*
X11575000Y-9765000D02*
X11465000Y-9875000D01*
X11575000Y-9820000D02*
G75*
G02*
X11465000Y-9820000I-55000J0D01*
G01*
X11465000Y-9820000D02*
G75*
G02*
X11575000Y-9820000I55000J0D01*
G01*
X11465000Y-10215000D02*
X11575000Y-10325000D01*
X11575000Y-10215000D02*
X11465000Y-10325000D01*
X11575000Y-10270000D02*
G75*
G02*
X11465000Y-10270000I-55000J0D01*
G01*
X11465000Y-10270000D02*
G75*
G02*
X11575000Y-10270000I55000J0D01*
G01*
D14*
X11500000Y-15083000D02*
X11620000Y-15203000D01*
X11620000Y-15083000D02*
X11500000Y-15203000D01*
X11560000Y-15083000D02*
X11560000Y-15203000D01*
X11500000Y-15143000D02*
X11620000Y-15143000D01*
X11500000Y-15858000D02*
X11620000Y-15978000D01*
X11620000Y-15858000D02*
X11500000Y-15978000D01*
X11560000Y-15858000D02*
X11560000Y-15978000D01*
X11500000Y-15918000D02*
X11620000Y-15918000D01*
D15*
X11110000Y-15088000D02*
X11250000Y-15228000D01*
X11250000Y-15088000D02*
X11110000Y-15228000D01*
X11229498Y-15207498D02*
X11229498Y-15108502D01*
X11130502Y-15108502D01*
X11130502Y-15207498D01*
X11229498Y-15207498D01*
X11110000Y-15833000D02*
X11250000Y-15973000D01*
X11250000Y-15833000D02*
X11110000Y-15973000D01*
X11229498Y-15952498D02*
X11229498Y-15853502D01*
X11130502Y-15853502D01*
X11130502Y-15952498D01*
X11229498Y-15952498D01*
D11*
X8758277Y-16713984D02*
X8758277Y-16513984D01*
X8758277Y-16513984D02*
X8805896Y-16513984D01*
X8805896Y-16513984D02*
X8834467Y-16523508D01*
X8834467Y-16523508D02*
X8853515Y-16542555D01*
X8853515Y-16542555D02*
X8863039Y-16561603D01*
X8863039Y-16561603D02*
X8872563Y-16599698D01*
X8872563Y-16599698D02*
X8872563Y-16628269D01*
X8872563Y-16628269D02*
X8863039Y-16666365D01*
X8863039Y-16666365D02*
X8853515Y-16685412D01*
X8853515Y-16685412D02*
X8834467Y-16704460D01*
X8834467Y-16704460D02*
X8805896Y-16713984D01*
X8805896Y-16713984D02*
X8758277Y-16713984D01*
X8958277Y-16713984D02*
X8958277Y-16580650D01*
X8958277Y-16618746D02*
X8967801Y-16599698D01*
X8967801Y-16599698D02*
X8977324Y-16590174D01*
X8977324Y-16590174D02*
X8996372Y-16580650D01*
X8996372Y-16580650D02*
X9015420Y-16580650D01*
X9082086Y-16713984D02*
X9082086Y-16580650D01*
X9082086Y-16513984D02*
X9072563Y-16523508D01*
X9072563Y-16523508D02*
X9082086Y-16533031D01*
X9082086Y-16533031D02*
X9091610Y-16523508D01*
X9091610Y-16523508D02*
X9082086Y-16513984D01*
X9082086Y-16513984D02*
X9082086Y-16533031D01*
X9205896Y-16713984D02*
X9186848Y-16704460D01*
X9186848Y-16704460D02*
X9177324Y-16685412D01*
X9177324Y-16685412D02*
X9177324Y-16513984D01*
X9310658Y-16713984D02*
X9291610Y-16704460D01*
X9291610Y-16704460D02*
X9282086Y-16685412D01*
X9282086Y-16685412D02*
X9282086Y-16513984D01*
X9539229Y-16713984D02*
X9539229Y-16513984D01*
X9539229Y-16513984D02*
X9605896Y-16656841D01*
X9605896Y-16656841D02*
X9672563Y-16513984D01*
X9672563Y-16513984D02*
X9672563Y-16713984D01*
X9853515Y-16713984D02*
X9853515Y-16609222D01*
X9853515Y-16609222D02*
X9843991Y-16590174D01*
X9843991Y-16590174D02*
X9824944Y-16580650D01*
X9824944Y-16580650D02*
X9786848Y-16580650D01*
X9786848Y-16580650D02*
X9767801Y-16590174D01*
X9853515Y-16704460D02*
X9834467Y-16713984D01*
X9834467Y-16713984D02*
X9786848Y-16713984D01*
X9786848Y-16713984D02*
X9767801Y-16704460D01*
X9767801Y-16704460D02*
X9758277Y-16685412D01*
X9758277Y-16685412D02*
X9758277Y-16666365D01*
X9758277Y-16666365D02*
X9767801Y-16647317D01*
X9767801Y-16647317D02*
X9786848Y-16637793D01*
X9786848Y-16637793D02*
X9834467Y-16637793D01*
X9834467Y-16637793D02*
X9853515Y-16628269D01*
X9948753Y-16580650D02*
X9948753Y-16780650D01*
X9948753Y-16590174D02*
X9967801Y-16580650D01*
X9967801Y-16580650D02*
X10005896Y-16580650D01*
X10005896Y-16580650D02*
X10024944Y-16590174D01*
X10024944Y-16590174D02*
X10034467Y-16599698D01*
X10034467Y-16599698D02*
X10043991Y-16618746D01*
X10043991Y-16618746D02*
X10043991Y-16675888D01*
X10043991Y-16675888D02*
X10034467Y-16694936D01*
X10034467Y-16694936D02*
X10024944Y-16704460D01*
X10024944Y-16704460D02*
X10005896Y-16713984D01*
X10005896Y-16713984D02*
X9967801Y-16713984D01*
X9967801Y-16713984D02*
X9948753Y-16704460D01*
X10129705Y-16694936D02*
X10139229Y-16704460D01*
X10139229Y-16704460D02*
X10129705Y-16713984D01*
X10129705Y-16713984D02*
X10120182Y-16704460D01*
X10120182Y-16704460D02*
X10129705Y-16694936D01*
X10129705Y-16694936D02*
X10129705Y-16713984D01*
X10129705Y-16590174D02*
X10139229Y-16599698D01*
X10139229Y-16599698D02*
X10129705Y-16609222D01*
X10129705Y-16609222D02*
X10120182Y-16599698D01*
X10120182Y-16599698D02*
X10129705Y-16590174D01*
X10129705Y-16590174D02*
X10129705Y-16609222D01*
D12*
X8467500Y-17027500D02*
X8497500Y-17057500D01*
X8497500Y-17027500D02*
X8467500Y-17057500D01*
D11*
X8796372Y-16933984D02*
X8815420Y-16933984D01*
X8815420Y-16933984D02*
X8834467Y-16943508D01*
X8834467Y-16943508D02*
X8843991Y-16953031D01*
X8843991Y-16953031D02*
X8853515Y-16972079D01*
X8853515Y-16972079D02*
X8863039Y-17010174D01*
X8863039Y-17010174D02*
X8863039Y-17057793D01*
X8863039Y-17057793D02*
X8853515Y-17095889D01*
X8853515Y-17095889D02*
X8843991Y-17114936D01*
X8843991Y-17114936D02*
X8834467Y-17124460D01*
X8834467Y-17124460D02*
X8815420Y-17133984D01*
X8815420Y-17133984D02*
X8796372Y-17133984D01*
X8796372Y-17133984D02*
X8777324Y-17124460D01*
X8777324Y-17124460D02*
X8767801Y-17114936D01*
X8767801Y-17114936D02*
X8758277Y-17095889D01*
X8758277Y-17095889D02*
X8748753Y-17057793D01*
X8748753Y-17057793D02*
X8748753Y-17010174D01*
X8748753Y-17010174D02*
X8758277Y-16972079D01*
X8758277Y-16972079D02*
X8767801Y-16953031D01*
X8767801Y-16953031D02*
X8777324Y-16943508D01*
X8777324Y-16943508D02*
X8796372Y-16933984D01*
X8948753Y-17114936D02*
X8958277Y-17124460D01*
X8958277Y-17124460D02*
X8948753Y-17133984D01*
X8948753Y-17133984D02*
X8939229Y-17124460D01*
X8939229Y-17124460D02*
X8948753Y-17114936D01*
X8948753Y-17114936D02*
X8948753Y-17133984D01*
X9024944Y-16933984D02*
X9148753Y-16933984D01*
X9148753Y-16933984D02*
X9082086Y-17010174D01*
X9082086Y-17010174D02*
X9110658Y-17010174D01*
X9110658Y-17010174D02*
X9129705Y-17019698D01*
X9129705Y-17019698D02*
X9139229Y-17029222D01*
X9139229Y-17029222D02*
X9148753Y-17048270D01*
X9148753Y-17048270D02*
X9148753Y-17095889D01*
X9148753Y-17095889D02*
X9139229Y-17114936D01*
X9139229Y-17114936D02*
X9129705Y-17124460D01*
X9129705Y-17124460D02*
X9110658Y-17133984D01*
X9110658Y-17133984D02*
X9053515Y-17133984D01*
X9053515Y-17133984D02*
X9034467Y-17124460D01*
X9034467Y-17124460D02*
X9024944Y-17114936D01*
X9272563Y-16933984D02*
X9291610Y-16933984D01*
X9291610Y-16933984D02*
X9310658Y-16943508D01*
X9310658Y-16943508D02*
X9320182Y-16953031D01*
X9320182Y-16953031D02*
X9329705Y-16972079D01*
X9329705Y-16972079D02*
X9339229Y-17010174D01*
X9339229Y-17010174D02*
X9339229Y-17057793D01*
X9339229Y-17057793D02*
X9329705Y-17095889D01*
X9329705Y-17095889D02*
X9320182Y-17114936D01*
X9320182Y-17114936D02*
X9310658Y-17124460D01*
X9310658Y-17124460D02*
X9291610Y-17133984D01*
X9291610Y-17133984D02*
X9272563Y-17133984D01*
X9272563Y-17133984D02*
X9253515Y-17124460D01*
X9253515Y-17124460D02*
X9243991Y-17114936D01*
X9243991Y-17114936D02*
X9234467Y-17095889D01*
X9234467Y-17095889D02*
X9224944Y-17057793D01*
X9224944Y-17057793D02*
X9224944Y-17010174D01*
X9224944Y-17010174D02*
X9234467Y-16972079D01*
X9234467Y-16972079D02*
X9243991Y-16953031D01*
X9243991Y-16953031D02*
X9253515Y-16943508D01*
X9253515Y-16943508D02*
X9272563Y-16933984D01*
X9463039Y-16933984D02*
X9482086Y-16933984D01*
X9482086Y-16933984D02*
X9501134Y-16943508D01*
X9501134Y-16943508D02*
X9510658Y-16953031D01*
X9510658Y-16953031D02*
X9520182Y-16972079D01*
X9520182Y-16972079D02*
X9529705Y-17010174D01*
X9529705Y-17010174D02*
X9529705Y-17057793D01*
X9529705Y-17057793D02*
X9520182Y-17095889D01*
X9520182Y-17095889D02*
X9510658Y-17114936D01*
X9510658Y-17114936D02*
X9501134Y-17124460D01*
X9501134Y-17124460D02*
X9482086Y-17133984D01*
X9482086Y-17133984D02*
X9463039Y-17133984D01*
X9463039Y-17133984D02*
X9443991Y-17124460D01*
X9443991Y-17124460D02*
X9434467Y-17114936D01*
X9434467Y-17114936D02*
X9424944Y-17095889D01*
X9424944Y-17095889D02*
X9415420Y-17057793D01*
X9415420Y-17057793D02*
X9415420Y-17010174D01*
X9415420Y-17010174D02*
X9424944Y-16972079D01*
X9424944Y-16972079D02*
X9434467Y-16953031D01*
X9434467Y-16953031D02*
X9443991Y-16943508D01*
X9443991Y-16943508D02*
X9463039Y-16933984D01*
X9615420Y-17133984D02*
X9615420Y-17000650D01*
X9615420Y-17019698D02*
X9624944Y-17010174D01*
X9624944Y-17010174D02*
X9643991Y-17000650D01*
X9643991Y-17000650D02*
X9672563Y-17000650D01*
X9672563Y-17000650D02*
X9691610Y-17010174D01*
X9691610Y-17010174D02*
X9701134Y-17029222D01*
X9701134Y-17029222D02*
X9701134Y-17133984D01*
X9701134Y-17029222D02*
X9710658Y-17010174D01*
X9710658Y-17010174D02*
X9729705Y-17000650D01*
X9729705Y-17000650D02*
X9758277Y-17000650D01*
X9758277Y-17000650D02*
X9777325Y-17010174D01*
X9777325Y-17010174D02*
X9786848Y-17029222D01*
X9786848Y-17029222D02*
X9786848Y-17133984D01*
X9882086Y-17133984D02*
X9882086Y-17000650D01*
X9882086Y-17019698D02*
X9891610Y-17010174D01*
X9891610Y-17010174D02*
X9910658Y-17000650D01*
X9910658Y-17000650D02*
X9939229Y-17000650D01*
X9939229Y-17000650D02*
X9958277Y-17010174D01*
X9958277Y-17010174D02*
X9967801Y-17029222D01*
X9967801Y-17029222D02*
X9967801Y-17133984D01*
X9967801Y-17029222D02*
X9977325Y-17010174D01*
X9977325Y-17010174D02*
X9996372Y-17000650D01*
X9996372Y-17000650D02*
X10024944Y-17000650D01*
X10024944Y-17000650D02*
X10043991Y-17010174D01*
X10043991Y-17010174D02*
X10053515Y-17029222D01*
X10053515Y-17029222D02*
X10053515Y-17133984D01*
X10443991Y-16924460D02*
X10272563Y-17181603D01*
X10701134Y-16933984D02*
X10720182Y-16933984D01*
X10720182Y-16933984D02*
X10739229Y-16943508D01*
X10739229Y-16943508D02*
X10748753Y-16953031D01*
X10748753Y-16953031D02*
X10758277Y-16972079D01*
X10758277Y-16972079D02*
X10767801Y-17010174D01*
X10767801Y-17010174D02*
X10767801Y-17057793D01*
X10767801Y-17057793D02*
X10758277Y-17095889D01*
X10758277Y-17095889D02*
X10748753Y-17114936D01*
X10748753Y-17114936D02*
X10739229Y-17124460D01*
X10739229Y-17124460D02*
X10720182Y-17133984D01*
X10720182Y-17133984D02*
X10701134Y-17133984D01*
X10701134Y-17133984D02*
X10682087Y-17124460D01*
X10682087Y-17124460D02*
X10672563Y-17114936D01*
X10672563Y-17114936D02*
X10663039Y-17095889D01*
X10663039Y-17095889D02*
X10653515Y-17057793D01*
X10653515Y-17057793D02*
X10653515Y-17010174D01*
X10653515Y-17010174D02*
X10663039Y-16972079D01*
X10663039Y-16972079D02*
X10672563Y-16953031D01*
X10672563Y-16953031D02*
X10682087Y-16943508D01*
X10682087Y-16943508D02*
X10701134Y-16933984D01*
X10853515Y-17114936D02*
X10863039Y-17124460D01*
X10863039Y-17124460D02*
X10853515Y-17133984D01*
X10853515Y-17133984D02*
X10843991Y-17124460D01*
X10843991Y-17124460D02*
X10853515Y-17114936D01*
X10853515Y-17114936D02*
X10853515Y-17133984D01*
X10986848Y-16933984D02*
X11005896Y-16933984D01*
X11005896Y-16933984D02*
X11024944Y-16943508D01*
X11024944Y-16943508D02*
X11034468Y-16953031D01*
X11034468Y-16953031D02*
X11043991Y-16972079D01*
X11043991Y-16972079D02*
X11053515Y-17010174D01*
X11053515Y-17010174D02*
X11053515Y-17057793D01*
X11053515Y-17057793D02*
X11043991Y-17095889D01*
X11043991Y-17095889D02*
X11034468Y-17114936D01*
X11034468Y-17114936D02*
X11024944Y-17124460D01*
X11024944Y-17124460D02*
X11005896Y-17133984D01*
X11005896Y-17133984D02*
X10986848Y-17133984D01*
X10986848Y-17133984D02*
X10967801Y-17124460D01*
X10967801Y-17124460D02*
X10958277Y-17114936D01*
X10958277Y-17114936D02*
X10948753Y-17095889D01*
X10948753Y-17095889D02*
X10939229Y-17057793D01*
X10939229Y-17057793D02*
X10939229Y-17010174D01*
X10939229Y-17010174D02*
X10948753Y-16972079D01*
X10948753Y-16972079D02*
X10958277Y-16953031D01*
X10958277Y-16953031D02*
X10967801Y-16943508D01*
X10967801Y-16943508D02*
X10986848Y-16933984D01*
X11243991Y-17133984D02*
X11129706Y-17133984D01*
X11186848Y-17133984D02*
X11186848Y-16933984D01*
X11186848Y-16933984D02*
X11167801Y-16962555D01*
X11167801Y-16962555D02*
X11148753Y-16981603D01*
X11148753Y-16981603D02*
X11129706Y-16991127D01*
X11434467Y-17133984D02*
X11320182Y-17133984D01*
X11377325Y-17133984D02*
X11377325Y-16933984D01*
X11377325Y-16933984D02*
X11358277Y-16962555D01*
X11358277Y-16962555D02*
X11339229Y-16981603D01*
X11339229Y-16981603D02*
X11320182Y-16991127D01*
X11548753Y-17019698D02*
X11529706Y-17010174D01*
X11529706Y-17010174D02*
X11520182Y-17000650D01*
X11520182Y-17000650D02*
X11510658Y-16981603D01*
X11510658Y-16981603D02*
X11510658Y-16972079D01*
X11510658Y-16972079D02*
X11520182Y-16953031D01*
X11520182Y-16953031D02*
X11529706Y-16943508D01*
X11529706Y-16943508D02*
X11548753Y-16933984D01*
X11548753Y-16933984D02*
X11586848Y-16933984D01*
X11586848Y-16933984D02*
X11605896Y-16943508D01*
X11605896Y-16943508D02*
X11615420Y-16953031D01*
X11615420Y-16953031D02*
X11624944Y-16972079D01*
X11624944Y-16972079D02*
X11624944Y-16981603D01*
X11624944Y-16981603D02*
X11615420Y-17000650D01*
X11615420Y-17000650D02*
X11605896Y-17010174D01*
X11605896Y-17010174D02*
X11586848Y-17019698D01*
X11586848Y-17019698D02*
X11548753Y-17019698D01*
X11548753Y-17019698D02*
X11529706Y-17029222D01*
X11529706Y-17029222D02*
X11520182Y-17038746D01*
X11520182Y-17038746D02*
X11510658Y-17057793D01*
X11510658Y-17057793D02*
X11510658Y-17095889D01*
X11510658Y-17095889D02*
X11520182Y-17114936D01*
X11520182Y-17114936D02*
X11529706Y-17124460D01*
X11529706Y-17124460D02*
X11548753Y-17133984D01*
X11548753Y-17133984D02*
X11586848Y-17133984D01*
X11586848Y-17133984D02*
X11605896Y-17124460D01*
X11605896Y-17124460D02*
X11615420Y-17114936D01*
X11615420Y-17114936D02*
X11624944Y-17095889D01*
X11624944Y-17095889D02*
X11624944Y-17057793D01*
X11624944Y-17057793D02*
X11615420Y-17038746D01*
X11615420Y-17038746D02*
X11605896Y-17029222D01*
X11605896Y-17029222D02*
X11586848Y-17019698D01*
X11701134Y-16933984D02*
X11701134Y-16972079D01*
X11777325Y-16933984D02*
X11777325Y-16972079D01*
X12072563Y-17210174D02*
X12063039Y-17200650D01*
X12063039Y-17200650D02*
X12043991Y-17172079D01*
X12043991Y-17172079D02*
X12034468Y-17153031D01*
X12034468Y-17153031D02*
X12024944Y-17124460D01*
X12024944Y-17124460D02*
X12015420Y-17076841D01*
X12015420Y-17076841D02*
X12015420Y-17038746D01*
X12015420Y-17038746D02*
X12024944Y-16991127D01*
X12024944Y-16991127D02*
X12034468Y-16962555D01*
X12034468Y-16962555D02*
X12043991Y-16943508D01*
X12043991Y-16943508D02*
X12063039Y-16914936D01*
X12063039Y-16914936D02*
X12072563Y-16905412D01*
X12139229Y-16953031D02*
X12148753Y-16943508D01*
X12148753Y-16943508D02*
X12167801Y-16933984D01*
X12167801Y-16933984D02*
X12215420Y-16933984D01*
X12215420Y-16933984D02*
X12234468Y-16943508D01*
X12234468Y-16943508D02*
X12243991Y-16953031D01*
X12243991Y-16953031D02*
X12253515Y-16972079D01*
X12253515Y-16972079D02*
X12253515Y-16991127D01*
X12253515Y-16991127D02*
X12243991Y-17019698D01*
X12243991Y-17019698D02*
X12129706Y-17133984D01*
X12129706Y-17133984D02*
X12253515Y-17133984D01*
X12320182Y-16933984D02*
X12443991Y-16933984D01*
X12443991Y-16933984D02*
X12377325Y-17010174D01*
X12377325Y-17010174D02*
X12405896Y-17010174D01*
X12405896Y-17010174D02*
X12424944Y-17019698D01*
X12424944Y-17019698D02*
X12434468Y-17029222D01*
X12434468Y-17029222D02*
X12443991Y-17048270D01*
X12443991Y-17048270D02*
X12443991Y-17095889D01*
X12443991Y-17095889D02*
X12434468Y-17114936D01*
X12434468Y-17114936D02*
X12424944Y-17124460D01*
X12424944Y-17124460D02*
X12405896Y-17133984D01*
X12405896Y-17133984D02*
X12348753Y-17133984D01*
X12348753Y-17133984D02*
X12329706Y-17124460D01*
X12329706Y-17124460D02*
X12320182Y-17114936D01*
X12682087Y-17133984D02*
X12682087Y-16933984D01*
X12767801Y-17133984D02*
X12767801Y-17029222D01*
X12767801Y-17029222D02*
X12758277Y-17010174D01*
X12758277Y-17010174D02*
X12739230Y-17000650D01*
X12739230Y-17000650D02*
X12710658Y-17000650D01*
X12710658Y-17000650D02*
X12691610Y-17010174D01*
X12691610Y-17010174D02*
X12682087Y-17019698D01*
X12891610Y-17133984D02*
X12872563Y-17124460D01*
X12872563Y-17124460D02*
X12863039Y-17114936D01*
X12863039Y-17114936D02*
X12853515Y-17095889D01*
X12853515Y-17095889D02*
X12853515Y-17038746D01*
X12853515Y-17038746D02*
X12863039Y-17019698D01*
X12863039Y-17019698D02*
X12872563Y-17010174D01*
X12872563Y-17010174D02*
X12891610Y-17000650D01*
X12891610Y-17000650D02*
X12920182Y-17000650D01*
X12920182Y-17000650D02*
X12939230Y-17010174D01*
X12939230Y-17010174D02*
X12948753Y-17019698D01*
X12948753Y-17019698D02*
X12958277Y-17038746D01*
X12958277Y-17038746D02*
X12958277Y-17095889D01*
X12958277Y-17095889D02*
X12948753Y-17114936D01*
X12948753Y-17114936D02*
X12939230Y-17124460D01*
X12939230Y-17124460D02*
X12920182Y-17133984D01*
X12920182Y-17133984D02*
X12891610Y-17133984D01*
X13072563Y-17133984D02*
X13053515Y-17124460D01*
X13053515Y-17124460D02*
X13043991Y-17105412D01*
X13043991Y-17105412D02*
X13043991Y-16933984D01*
X13224944Y-17124460D02*
X13205896Y-17133984D01*
X13205896Y-17133984D02*
X13167801Y-17133984D01*
X13167801Y-17133984D02*
X13148753Y-17124460D01*
X13148753Y-17124460D02*
X13139230Y-17105412D01*
X13139230Y-17105412D02*
X13139230Y-17029222D01*
X13139230Y-17029222D02*
X13148753Y-17010174D01*
X13148753Y-17010174D02*
X13167801Y-17000650D01*
X13167801Y-17000650D02*
X13205896Y-17000650D01*
X13205896Y-17000650D02*
X13224944Y-17010174D01*
X13224944Y-17010174D02*
X13234468Y-17029222D01*
X13234468Y-17029222D02*
X13234468Y-17048270D01*
X13234468Y-17048270D02*
X13139230Y-17067317D01*
X13310658Y-17124460D02*
X13329706Y-17133984D01*
X13329706Y-17133984D02*
X13367801Y-17133984D01*
X13367801Y-17133984D02*
X13386849Y-17124460D01*
X13386849Y-17124460D02*
X13396372Y-17105412D01*
X13396372Y-17105412D02*
X13396372Y-17095889D01*
X13396372Y-17095889D02*
X13386849Y-17076841D01*
X13386849Y-17076841D02*
X13367801Y-17067317D01*
X13367801Y-17067317D02*
X13339230Y-17067317D01*
X13339230Y-17067317D02*
X13320182Y-17057793D01*
X13320182Y-17057793D02*
X13310658Y-17038746D01*
X13310658Y-17038746D02*
X13310658Y-17029222D01*
X13310658Y-17029222D02*
X13320182Y-17010174D01*
X13320182Y-17010174D02*
X13339230Y-17000650D01*
X13339230Y-17000650D02*
X13367801Y-17000650D01*
X13367801Y-17000650D02*
X13386849Y-17010174D01*
X13463039Y-17210174D02*
X13472563Y-17200650D01*
X13472563Y-17200650D02*
X13491611Y-17172079D01*
X13491611Y-17172079D02*
X13501134Y-17153031D01*
X13501134Y-17153031D02*
X13510658Y-17124460D01*
X13510658Y-17124460D02*
X13520182Y-17076841D01*
X13520182Y-17076841D02*
X13520182Y-17038746D01*
X13520182Y-17038746D02*
X13510658Y-16991127D01*
X13510658Y-16991127D02*
X13501134Y-16962555D01*
X13501134Y-16962555D02*
X13491611Y-16943508D01*
X13491611Y-16943508D02*
X13472563Y-16914936D01*
X13472563Y-16914936D02*
X13463039Y-16905412D01*
D12*
X8497500Y-17306500D02*
G75*
G02*
X8422500Y-17306500I-37500J0D01*
G01*
X8422500Y-17306500D02*
G75*
G02*
X8497500Y-17306500I37500J0D01*
G01*
D11*
X8796372Y-17197984D02*
X8815420Y-17197984D01*
X8815420Y-17197984D02*
X8834467Y-17207508D01*
X8834467Y-17207508D02*
X8843991Y-17217031D01*
X8843991Y-17217031D02*
X8853515Y-17236079D01*
X8853515Y-17236079D02*
X8863039Y-17274174D01*
X8863039Y-17274174D02*
X8863039Y-17321793D01*
X8863039Y-17321793D02*
X8853515Y-17359889D01*
X8853515Y-17359889D02*
X8843991Y-17378936D01*
X8843991Y-17378936D02*
X8834467Y-17388460D01*
X8834467Y-17388460D02*
X8815420Y-17397984D01*
X8815420Y-17397984D02*
X8796372Y-17397984D01*
X8796372Y-17397984D02*
X8777324Y-17388460D01*
X8777324Y-17388460D02*
X8767801Y-17378936D01*
X8767801Y-17378936D02*
X8758277Y-17359889D01*
X8758277Y-17359889D02*
X8748753Y-17321793D01*
X8748753Y-17321793D02*
X8748753Y-17274174D01*
X8748753Y-17274174D02*
X8758277Y-17236079D01*
X8758277Y-17236079D02*
X8767801Y-17217031D01*
X8767801Y-17217031D02*
X8777324Y-17207508D01*
X8777324Y-17207508D02*
X8796372Y-17197984D01*
X8948753Y-17378936D02*
X8958277Y-17388460D01*
X8958277Y-17388460D02*
X8948753Y-17397984D01*
X8948753Y-17397984D02*
X8939229Y-17388460D01*
X8939229Y-17388460D02*
X8948753Y-17378936D01*
X8948753Y-17378936D02*
X8948753Y-17397984D01*
X9024944Y-17197984D02*
X9158277Y-17197984D01*
X9158277Y-17197984D02*
X9072563Y-17397984D01*
X9329705Y-17197984D02*
X9234467Y-17197984D01*
X9234467Y-17197984D02*
X9224944Y-17293222D01*
X9224944Y-17293222D02*
X9234467Y-17283698D01*
X9234467Y-17283698D02*
X9253515Y-17274174D01*
X9253515Y-17274174D02*
X9301134Y-17274174D01*
X9301134Y-17274174D02*
X9320182Y-17283698D01*
X9320182Y-17283698D02*
X9329705Y-17293222D01*
X9329705Y-17293222D02*
X9339229Y-17312270D01*
X9339229Y-17312270D02*
X9339229Y-17359889D01*
X9339229Y-17359889D02*
X9329705Y-17378936D01*
X9329705Y-17378936D02*
X9320182Y-17388460D01*
X9320182Y-17388460D02*
X9301134Y-17397984D01*
X9301134Y-17397984D02*
X9253515Y-17397984D01*
X9253515Y-17397984D02*
X9234467Y-17388460D01*
X9234467Y-17388460D02*
X9224944Y-17378936D01*
X9463039Y-17197984D02*
X9482086Y-17197984D01*
X9482086Y-17197984D02*
X9501134Y-17207508D01*
X9501134Y-17207508D02*
X9510658Y-17217031D01*
X9510658Y-17217031D02*
X9520182Y-17236079D01*
X9520182Y-17236079D02*
X9529705Y-17274174D01*
X9529705Y-17274174D02*
X9529705Y-17321793D01*
X9529705Y-17321793D02*
X9520182Y-17359889D01*
X9520182Y-17359889D02*
X9510658Y-17378936D01*
X9510658Y-17378936D02*
X9501134Y-17388460D01*
X9501134Y-17388460D02*
X9482086Y-17397984D01*
X9482086Y-17397984D02*
X9463039Y-17397984D01*
X9463039Y-17397984D02*
X9443991Y-17388460D01*
X9443991Y-17388460D02*
X9434467Y-17378936D01*
X9434467Y-17378936D02*
X9424944Y-17359889D01*
X9424944Y-17359889D02*
X9415420Y-17321793D01*
X9415420Y-17321793D02*
X9415420Y-17274174D01*
X9415420Y-17274174D02*
X9424944Y-17236079D01*
X9424944Y-17236079D02*
X9434467Y-17217031D01*
X9434467Y-17217031D02*
X9443991Y-17207508D01*
X9443991Y-17207508D02*
X9463039Y-17197984D01*
X9615420Y-17397984D02*
X9615420Y-17264650D01*
X9615420Y-17283698D02*
X9624944Y-17274174D01*
X9624944Y-17274174D02*
X9643991Y-17264650D01*
X9643991Y-17264650D02*
X9672563Y-17264650D01*
X9672563Y-17264650D02*
X9691610Y-17274174D01*
X9691610Y-17274174D02*
X9701134Y-17293222D01*
X9701134Y-17293222D02*
X9701134Y-17397984D01*
X9701134Y-17293222D02*
X9710658Y-17274174D01*
X9710658Y-17274174D02*
X9729705Y-17264650D01*
X9729705Y-17264650D02*
X9758277Y-17264650D01*
X9758277Y-17264650D02*
X9777325Y-17274174D01*
X9777325Y-17274174D02*
X9786848Y-17293222D01*
X9786848Y-17293222D02*
X9786848Y-17397984D01*
X9882086Y-17397984D02*
X9882086Y-17264650D01*
X9882086Y-17283698D02*
X9891610Y-17274174D01*
X9891610Y-17274174D02*
X9910658Y-17264650D01*
X9910658Y-17264650D02*
X9939229Y-17264650D01*
X9939229Y-17264650D02*
X9958277Y-17274174D01*
X9958277Y-17274174D02*
X9967801Y-17293222D01*
X9967801Y-17293222D02*
X9967801Y-17397984D01*
X9967801Y-17293222D02*
X9977325Y-17274174D01*
X9977325Y-17274174D02*
X9996372Y-17264650D01*
X9996372Y-17264650D02*
X10024944Y-17264650D01*
X10024944Y-17264650D02*
X10043991Y-17274174D01*
X10043991Y-17274174D02*
X10053515Y-17293222D01*
X10053515Y-17293222D02*
X10053515Y-17397984D01*
X10443991Y-17188460D02*
X10272563Y-17445603D01*
X10701134Y-17197984D02*
X10720182Y-17197984D01*
X10720182Y-17197984D02*
X10739229Y-17207508D01*
X10739229Y-17207508D02*
X10748753Y-17217031D01*
X10748753Y-17217031D02*
X10758277Y-17236079D01*
X10758277Y-17236079D02*
X10767801Y-17274174D01*
X10767801Y-17274174D02*
X10767801Y-17321793D01*
X10767801Y-17321793D02*
X10758277Y-17359889D01*
X10758277Y-17359889D02*
X10748753Y-17378936D01*
X10748753Y-17378936D02*
X10739229Y-17388460D01*
X10739229Y-17388460D02*
X10720182Y-17397984D01*
X10720182Y-17397984D02*
X10701134Y-17397984D01*
X10701134Y-17397984D02*
X10682087Y-17388460D01*
X10682087Y-17388460D02*
X10672563Y-17378936D01*
X10672563Y-17378936D02*
X10663039Y-17359889D01*
X10663039Y-17359889D02*
X10653515Y-17321793D01*
X10653515Y-17321793D02*
X10653515Y-17274174D01*
X10653515Y-17274174D02*
X10663039Y-17236079D01*
X10663039Y-17236079D02*
X10672563Y-17217031D01*
X10672563Y-17217031D02*
X10682087Y-17207508D01*
X10682087Y-17207508D02*
X10701134Y-17197984D01*
X10853515Y-17378936D02*
X10863039Y-17388460D01*
X10863039Y-17388460D02*
X10853515Y-17397984D01*
X10853515Y-17397984D02*
X10843991Y-17388460D01*
X10843991Y-17388460D02*
X10853515Y-17378936D01*
X10853515Y-17378936D02*
X10853515Y-17397984D01*
X10986848Y-17197984D02*
X11005896Y-17197984D01*
X11005896Y-17197984D02*
X11024944Y-17207508D01*
X11024944Y-17207508D02*
X11034468Y-17217031D01*
X11034468Y-17217031D02*
X11043991Y-17236079D01*
X11043991Y-17236079D02*
X11053515Y-17274174D01*
X11053515Y-17274174D02*
X11053515Y-17321793D01*
X11053515Y-17321793D02*
X11043991Y-17359889D01*
X11043991Y-17359889D02*
X11034468Y-17378936D01*
X11034468Y-17378936D02*
X11024944Y-17388460D01*
X11024944Y-17388460D02*
X11005896Y-17397984D01*
X11005896Y-17397984D02*
X10986848Y-17397984D01*
X10986848Y-17397984D02*
X10967801Y-17388460D01*
X10967801Y-17388460D02*
X10958277Y-17378936D01*
X10958277Y-17378936D02*
X10948753Y-17359889D01*
X10948753Y-17359889D02*
X10939229Y-17321793D01*
X10939229Y-17321793D02*
X10939229Y-17274174D01*
X10939229Y-17274174D02*
X10948753Y-17236079D01*
X10948753Y-17236079D02*
X10958277Y-17217031D01*
X10958277Y-17217031D02*
X10967801Y-17207508D01*
X10967801Y-17207508D02*
X10986848Y-17197984D01*
X11129706Y-17217031D02*
X11139229Y-17207508D01*
X11139229Y-17207508D02*
X11158277Y-17197984D01*
X11158277Y-17197984D02*
X11205896Y-17197984D01*
X11205896Y-17197984D02*
X11224944Y-17207508D01*
X11224944Y-17207508D02*
X11234467Y-17217031D01*
X11234467Y-17217031D02*
X11243991Y-17236079D01*
X11243991Y-17236079D02*
X11243991Y-17255127D01*
X11243991Y-17255127D02*
X11234467Y-17283698D01*
X11234467Y-17283698D02*
X11120182Y-17397984D01*
X11120182Y-17397984D02*
X11243991Y-17397984D01*
X11339229Y-17397984D02*
X11377325Y-17397984D01*
X11377325Y-17397984D02*
X11396372Y-17388460D01*
X11396372Y-17388460D02*
X11405896Y-17378936D01*
X11405896Y-17378936D02*
X11424944Y-17350365D01*
X11424944Y-17350365D02*
X11434467Y-17312270D01*
X11434467Y-17312270D02*
X11434467Y-17236079D01*
X11434467Y-17236079D02*
X11424944Y-17217031D01*
X11424944Y-17217031D02*
X11415420Y-17207508D01*
X11415420Y-17207508D02*
X11396372Y-17197984D01*
X11396372Y-17197984D02*
X11358277Y-17197984D01*
X11358277Y-17197984D02*
X11339229Y-17207508D01*
X11339229Y-17207508D02*
X11329706Y-17217031D01*
X11329706Y-17217031D02*
X11320182Y-17236079D01*
X11320182Y-17236079D02*
X11320182Y-17283698D01*
X11320182Y-17283698D02*
X11329706Y-17302746D01*
X11329706Y-17302746D02*
X11339229Y-17312270D01*
X11339229Y-17312270D02*
X11358277Y-17321793D01*
X11358277Y-17321793D02*
X11396372Y-17321793D01*
X11396372Y-17321793D02*
X11415420Y-17312270D01*
X11415420Y-17312270D02*
X11424944Y-17302746D01*
X11424944Y-17302746D02*
X11434467Y-17283698D01*
X11615420Y-17197984D02*
X11520182Y-17197984D01*
X11520182Y-17197984D02*
X11510658Y-17293222D01*
X11510658Y-17293222D02*
X11520182Y-17283698D01*
X11520182Y-17283698D02*
X11539229Y-17274174D01*
X11539229Y-17274174D02*
X11586848Y-17274174D01*
X11586848Y-17274174D02*
X11605896Y-17283698D01*
X11605896Y-17283698D02*
X11615420Y-17293222D01*
X11615420Y-17293222D02*
X11624944Y-17312270D01*
X11624944Y-17312270D02*
X11624944Y-17359889D01*
X11624944Y-17359889D02*
X11615420Y-17378936D01*
X11615420Y-17378936D02*
X11605896Y-17388460D01*
X11605896Y-17388460D02*
X11586848Y-17397984D01*
X11586848Y-17397984D02*
X11539229Y-17397984D01*
X11539229Y-17397984D02*
X11520182Y-17388460D01*
X11520182Y-17388460D02*
X11510658Y-17378936D01*
X11701134Y-17197984D02*
X11701134Y-17236079D01*
X11777325Y-17197984D02*
X11777325Y-17236079D01*
X12072563Y-17474174D02*
X12063039Y-17464650D01*
X12063039Y-17464650D02*
X12043991Y-17436079D01*
X12043991Y-17436079D02*
X12034468Y-17417031D01*
X12034468Y-17417031D02*
X12024944Y-17388460D01*
X12024944Y-17388460D02*
X12015420Y-17340841D01*
X12015420Y-17340841D02*
X12015420Y-17302746D01*
X12015420Y-17302746D02*
X12024944Y-17255127D01*
X12024944Y-17255127D02*
X12034468Y-17226555D01*
X12034468Y-17226555D02*
X12043991Y-17207508D01*
X12043991Y-17207508D02*
X12063039Y-17178936D01*
X12063039Y-17178936D02*
X12072563Y-17169412D01*
X12129706Y-17197984D02*
X12253515Y-17197984D01*
X12253515Y-17197984D02*
X12186848Y-17274174D01*
X12186848Y-17274174D02*
X12215420Y-17274174D01*
X12215420Y-17274174D02*
X12234468Y-17283698D01*
X12234468Y-17283698D02*
X12243991Y-17293222D01*
X12243991Y-17293222D02*
X12253515Y-17312270D01*
X12253515Y-17312270D02*
X12253515Y-17359889D01*
X12253515Y-17359889D02*
X12243991Y-17378936D01*
X12243991Y-17378936D02*
X12234468Y-17388460D01*
X12234468Y-17388460D02*
X12215420Y-17397984D01*
X12215420Y-17397984D02*
X12158277Y-17397984D01*
X12158277Y-17397984D02*
X12139229Y-17388460D01*
X12139229Y-17388460D02*
X12129706Y-17378936D01*
X12491610Y-17397984D02*
X12491610Y-17197984D01*
X12577325Y-17397984D02*
X12577325Y-17293222D01*
X12577325Y-17293222D02*
X12567801Y-17274174D01*
X12567801Y-17274174D02*
X12548753Y-17264650D01*
X12548753Y-17264650D02*
X12520182Y-17264650D01*
X12520182Y-17264650D02*
X12501134Y-17274174D01*
X12501134Y-17274174D02*
X12491610Y-17283698D01*
X12701134Y-17397984D02*
X12682087Y-17388460D01*
X12682087Y-17388460D02*
X12672563Y-17378936D01*
X12672563Y-17378936D02*
X12663039Y-17359889D01*
X12663039Y-17359889D02*
X12663039Y-17302746D01*
X12663039Y-17302746D02*
X12672563Y-17283698D01*
X12672563Y-17283698D02*
X12682087Y-17274174D01*
X12682087Y-17274174D02*
X12701134Y-17264650D01*
X12701134Y-17264650D02*
X12729706Y-17264650D01*
X12729706Y-17264650D02*
X12748753Y-17274174D01*
X12748753Y-17274174D02*
X12758277Y-17283698D01*
X12758277Y-17283698D02*
X12767801Y-17302746D01*
X12767801Y-17302746D02*
X12767801Y-17359889D01*
X12767801Y-17359889D02*
X12758277Y-17378936D01*
X12758277Y-17378936D02*
X12748753Y-17388460D01*
X12748753Y-17388460D02*
X12729706Y-17397984D01*
X12729706Y-17397984D02*
X12701134Y-17397984D01*
X12882087Y-17397984D02*
X12863039Y-17388460D01*
X12863039Y-17388460D02*
X12853515Y-17369412D01*
X12853515Y-17369412D02*
X12853515Y-17197984D01*
X13034468Y-17388460D02*
X13015420Y-17397984D01*
X13015420Y-17397984D02*
X12977325Y-17397984D01*
X12977325Y-17397984D02*
X12958277Y-17388460D01*
X12958277Y-17388460D02*
X12948753Y-17369412D01*
X12948753Y-17369412D02*
X12948753Y-17293222D01*
X12948753Y-17293222D02*
X12958277Y-17274174D01*
X12958277Y-17274174D02*
X12977325Y-17264650D01*
X12977325Y-17264650D02*
X13015420Y-17264650D01*
X13015420Y-17264650D02*
X13034468Y-17274174D01*
X13034468Y-17274174D02*
X13043991Y-17293222D01*
X13043991Y-17293222D02*
X13043991Y-17312270D01*
X13043991Y-17312270D02*
X12948753Y-17331317D01*
X13120182Y-17388460D02*
X13139230Y-17397984D01*
X13139230Y-17397984D02*
X13177325Y-17397984D01*
X13177325Y-17397984D02*
X13196372Y-17388460D01*
X13196372Y-17388460D02*
X13205896Y-17369412D01*
X13205896Y-17369412D02*
X13205896Y-17359889D01*
X13205896Y-17359889D02*
X13196372Y-17340841D01*
X13196372Y-17340841D02*
X13177325Y-17331317D01*
X13177325Y-17331317D02*
X13148753Y-17331317D01*
X13148753Y-17331317D02*
X13129706Y-17321793D01*
X13129706Y-17321793D02*
X13120182Y-17302746D01*
X13120182Y-17302746D02*
X13120182Y-17293222D01*
X13120182Y-17293222D02*
X13129706Y-17274174D01*
X13129706Y-17274174D02*
X13148753Y-17264650D01*
X13148753Y-17264650D02*
X13177325Y-17264650D01*
X13177325Y-17264650D02*
X13196372Y-17274174D01*
X13272563Y-17474174D02*
X13282087Y-17464650D01*
X13282087Y-17464650D02*
X13301134Y-17436079D01*
X13301134Y-17436079D02*
X13310658Y-17417031D01*
X13310658Y-17417031D02*
X13320182Y-17388460D01*
X13320182Y-17388460D02*
X13329706Y-17340841D01*
X13329706Y-17340841D02*
X13329706Y-17302746D01*
X13329706Y-17302746D02*
X13320182Y-17255127D01*
X13320182Y-17255127D02*
X13310658Y-17226555D01*
X13310658Y-17226555D02*
X13301134Y-17207508D01*
X13301134Y-17207508D02*
X13282087Y-17178936D01*
X13282087Y-17178936D02*
X13272563Y-17169412D01*
D12*
X8457500Y-17530500D02*
X8457500Y-17610500D01*
X8417500Y-17570500D02*
X8497500Y-17570500D01*
D11*
X8796372Y-17461984D02*
X8815420Y-17461984D01*
X8815420Y-17461984D02*
X8834467Y-17471508D01*
X8834467Y-17471508D02*
X8843991Y-17481031D01*
X8843991Y-17481031D02*
X8853515Y-17500079D01*
X8853515Y-17500079D02*
X8863039Y-17538174D01*
X8863039Y-17538174D02*
X8863039Y-17585793D01*
X8863039Y-17585793D02*
X8853515Y-17623889D01*
X8853515Y-17623889D02*
X8843991Y-17642936D01*
X8843991Y-17642936D02*
X8834467Y-17652460D01*
X8834467Y-17652460D02*
X8815420Y-17661984D01*
X8815420Y-17661984D02*
X8796372Y-17661984D01*
X8796372Y-17661984D02*
X8777324Y-17652460D01*
X8777324Y-17652460D02*
X8767801Y-17642936D01*
X8767801Y-17642936D02*
X8758277Y-17623889D01*
X8758277Y-17623889D02*
X8748753Y-17585793D01*
X8748753Y-17585793D02*
X8748753Y-17538174D01*
X8748753Y-17538174D02*
X8758277Y-17500079D01*
X8758277Y-17500079D02*
X8767801Y-17481031D01*
X8767801Y-17481031D02*
X8777324Y-17471508D01*
X8777324Y-17471508D02*
X8796372Y-17461984D01*
X8948753Y-17642936D02*
X8958277Y-17652460D01*
X8958277Y-17652460D02*
X8948753Y-17661984D01*
X8948753Y-17661984D02*
X8939229Y-17652460D01*
X8939229Y-17652460D02*
X8948753Y-17642936D01*
X8948753Y-17642936D02*
X8948753Y-17661984D01*
X9072563Y-17547698D02*
X9053515Y-17538174D01*
X9053515Y-17538174D02*
X9043991Y-17528650D01*
X9043991Y-17528650D02*
X9034467Y-17509603D01*
X9034467Y-17509603D02*
X9034467Y-17500079D01*
X9034467Y-17500079D02*
X9043991Y-17481031D01*
X9043991Y-17481031D02*
X9053515Y-17471508D01*
X9053515Y-17471508D02*
X9072563Y-17461984D01*
X9072563Y-17461984D02*
X9110658Y-17461984D01*
X9110658Y-17461984D02*
X9129705Y-17471508D01*
X9129705Y-17471508D02*
X9139229Y-17481031D01*
X9139229Y-17481031D02*
X9148753Y-17500079D01*
X9148753Y-17500079D02*
X9148753Y-17509603D01*
X9148753Y-17509603D02*
X9139229Y-17528650D01*
X9139229Y-17528650D02*
X9129705Y-17538174D01*
X9129705Y-17538174D02*
X9110658Y-17547698D01*
X9110658Y-17547698D02*
X9072563Y-17547698D01*
X9072563Y-17547698D02*
X9053515Y-17557222D01*
X9053515Y-17557222D02*
X9043991Y-17566746D01*
X9043991Y-17566746D02*
X9034467Y-17585793D01*
X9034467Y-17585793D02*
X9034467Y-17623889D01*
X9034467Y-17623889D02*
X9043991Y-17642936D01*
X9043991Y-17642936D02*
X9053515Y-17652460D01*
X9053515Y-17652460D02*
X9072563Y-17661984D01*
X9072563Y-17661984D02*
X9110658Y-17661984D01*
X9110658Y-17661984D02*
X9129705Y-17652460D01*
X9129705Y-17652460D02*
X9139229Y-17642936D01*
X9139229Y-17642936D02*
X9148753Y-17623889D01*
X9148753Y-17623889D02*
X9148753Y-17585793D01*
X9148753Y-17585793D02*
X9139229Y-17566746D01*
X9139229Y-17566746D02*
X9129705Y-17557222D01*
X9129705Y-17557222D02*
X9110658Y-17547698D01*
X9272563Y-17461984D02*
X9291610Y-17461984D01*
X9291610Y-17461984D02*
X9310658Y-17471508D01*
X9310658Y-17471508D02*
X9320182Y-17481031D01*
X9320182Y-17481031D02*
X9329705Y-17500079D01*
X9329705Y-17500079D02*
X9339229Y-17538174D01*
X9339229Y-17538174D02*
X9339229Y-17585793D01*
X9339229Y-17585793D02*
X9329705Y-17623889D01*
X9329705Y-17623889D02*
X9320182Y-17642936D01*
X9320182Y-17642936D02*
X9310658Y-17652460D01*
X9310658Y-17652460D02*
X9291610Y-17661984D01*
X9291610Y-17661984D02*
X9272563Y-17661984D01*
X9272563Y-17661984D02*
X9253515Y-17652460D01*
X9253515Y-17652460D02*
X9243991Y-17642936D01*
X9243991Y-17642936D02*
X9234467Y-17623889D01*
X9234467Y-17623889D02*
X9224944Y-17585793D01*
X9224944Y-17585793D02*
X9224944Y-17538174D01*
X9224944Y-17538174D02*
X9234467Y-17500079D01*
X9234467Y-17500079D02*
X9243991Y-17481031D01*
X9243991Y-17481031D02*
X9253515Y-17471508D01*
X9253515Y-17471508D02*
X9272563Y-17461984D01*
X9463039Y-17461984D02*
X9482086Y-17461984D01*
X9482086Y-17461984D02*
X9501134Y-17471508D01*
X9501134Y-17471508D02*
X9510658Y-17481031D01*
X9510658Y-17481031D02*
X9520182Y-17500079D01*
X9520182Y-17500079D02*
X9529705Y-17538174D01*
X9529705Y-17538174D02*
X9529705Y-17585793D01*
X9529705Y-17585793D02*
X9520182Y-17623889D01*
X9520182Y-17623889D02*
X9510658Y-17642936D01*
X9510658Y-17642936D02*
X9501134Y-17652460D01*
X9501134Y-17652460D02*
X9482086Y-17661984D01*
X9482086Y-17661984D02*
X9463039Y-17661984D01*
X9463039Y-17661984D02*
X9443991Y-17652460D01*
X9443991Y-17652460D02*
X9434467Y-17642936D01*
X9434467Y-17642936D02*
X9424944Y-17623889D01*
X9424944Y-17623889D02*
X9415420Y-17585793D01*
X9415420Y-17585793D02*
X9415420Y-17538174D01*
X9415420Y-17538174D02*
X9424944Y-17500079D01*
X9424944Y-17500079D02*
X9434467Y-17481031D01*
X9434467Y-17481031D02*
X9443991Y-17471508D01*
X9443991Y-17471508D02*
X9463039Y-17461984D01*
X9615420Y-17661984D02*
X9615420Y-17528650D01*
X9615420Y-17547698D02*
X9624944Y-17538174D01*
X9624944Y-17538174D02*
X9643991Y-17528650D01*
X9643991Y-17528650D02*
X9672563Y-17528650D01*
X9672563Y-17528650D02*
X9691610Y-17538174D01*
X9691610Y-17538174D02*
X9701134Y-17557222D01*
X9701134Y-17557222D02*
X9701134Y-17661984D01*
X9701134Y-17557222D02*
X9710658Y-17538174D01*
X9710658Y-17538174D02*
X9729705Y-17528650D01*
X9729705Y-17528650D02*
X9758277Y-17528650D01*
X9758277Y-17528650D02*
X9777325Y-17538174D01*
X9777325Y-17538174D02*
X9786848Y-17557222D01*
X9786848Y-17557222D02*
X9786848Y-17661984D01*
X9882086Y-17661984D02*
X9882086Y-17528650D01*
X9882086Y-17547698D02*
X9891610Y-17538174D01*
X9891610Y-17538174D02*
X9910658Y-17528650D01*
X9910658Y-17528650D02*
X9939229Y-17528650D01*
X9939229Y-17528650D02*
X9958277Y-17538174D01*
X9958277Y-17538174D02*
X9967801Y-17557222D01*
X9967801Y-17557222D02*
X9967801Y-17661984D01*
X9967801Y-17557222D02*
X9977325Y-17538174D01*
X9977325Y-17538174D02*
X9996372Y-17528650D01*
X9996372Y-17528650D02*
X10024944Y-17528650D01*
X10024944Y-17528650D02*
X10043991Y-17538174D01*
X10043991Y-17538174D02*
X10053515Y-17557222D01*
X10053515Y-17557222D02*
X10053515Y-17661984D01*
X10443991Y-17452460D02*
X10272563Y-17709603D01*
X10701134Y-17461984D02*
X10720182Y-17461984D01*
X10720182Y-17461984D02*
X10739229Y-17471508D01*
X10739229Y-17471508D02*
X10748753Y-17481031D01*
X10748753Y-17481031D02*
X10758277Y-17500079D01*
X10758277Y-17500079D02*
X10767801Y-17538174D01*
X10767801Y-17538174D02*
X10767801Y-17585793D01*
X10767801Y-17585793D02*
X10758277Y-17623889D01*
X10758277Y-17623889D02*
X10748753Y-17642936D01*
X10748753Y-17642936D02*
X10739229Y-17652460D01*
X10739229Y-17652460D02*
X10720182Y-17661984D01*
X10720182Y-17661984D02*
X10701134Y-17661984D01*
X10701134Y-17661984D02*
X10682087Y-17652460D01*
X10682087Y-17652460D02*
X10672563Y-17642936D01*
X10672563Y-17642936D02*
X10663039Y-17623889D01*
X10663039Y-17623889D02*
X10653515Y-17585793D01*
X10653515Y-17585793D02*
X10653515Y-17538174D01*
X10653515Y-17538174D02*
X10663039Y-17500079D01*
X10663039Y-17500079D02*
X10672563Y-17481031D01*
X10672563Y-17481031D02*
X10682087Y-17471508D01*
X10682087Y-17471508D02*
X10701134Y-17461984D01*
X10853515Y-17642936D02*
X10863039Y-17652460D01*
X10863039Y-17652460D02*
X10853515Y-17661984D01*
X10853515Y-17661984D02*
X10843991Y-17652460D01*
X10843991Y-17652460D02*
X10853515Y-17642936D01*
X10853515Y-17642936D02*
X10853515Y-17661984D01*
X10986848Y-17461984D02*
X11005896Y-17461984D01*
X11005896Y-17461984D02*
X11024944Y-17471508D01*
X11024944Y-17471508D02*
X11034468Y-17481031D01*
X11034468Y-17481031D02*
X11043991Y-17500079D01*
X11043991Y-17500079D02*
X11053515Y-17538174D01*
X11053515Y-17538174D02*
X11053515Y-17585793D01*
X11053515Y-17585793D02*
X11043991Y-17623889D01*
X11043991Y-17623889D02*
X11034468Y-17642936D01*
X11034468Y-17642936D02*
X11024944Y-17652460D01*
X11024944Y-17652460D02*
X11005896Y-17661984D01*
X11005896Y-17661984D02*
X10986848Y-17661984D01*
X10986848Y-17661984D02*
X10967801Y-17652460D01*
X10967801Y-17652460D02*
X10958277Y-17642936D01*
X10958277Y-17642936D02*
X10948753Y-17623889D01*
X10948753Y-17623889D02*
X10939229Y-17585793D01*
X10939229Y-17585793D02*
X10939229Y-17538174D01*
X10939229Y-17538174D02*
X10948753Y-17500079D01*
X10948753Y-17500079D02*
X10958277Y-17481031D01*
X10958277Y-17481031D02*
X10967801Y-17471508D01*
X10967801Y-17471508D02*
X10986848Y-17461984D01*
X11120182Y-17461984D02*
X11243991Y-17461984D01*
X11243991Y-17461984D02*
X11177325Y-17538174D01*
X11177325Y-17538174D02*
X11205896Y-17538174D01*
X11205896Y-17538174D02*
X11224944Y-17547698D01*
X11224944Y-17547698D02*
X11234467Y-17557222D01*
X11234467Y-17557222D02*
X11243991Y-17576270D01*
X11243991Y-17576270D02*
X11243991Y-17623889D01*
X11243991Y-17623889D02*
X11234467Y-17642936D01*
X11234467Y-17642936D02*
X11224944Y-17652460D01*
X11224944Y-17652460D02*
X11205896Y-17661984D01*
X11205896Y-17661984D02*
X11148753Y-17661984D01*
X11148753Y-17661984D02*
X11129706Y-17652460D01*
X11129706Y-17652460D02*
X11120182Y-17642936D01*
X11434467Y-17661984D02*
X11320182Y-17661984D01*
X11377325Y-17661984D02*
X11377325Y-17461984D01*
X11377325Y-17461984D02*
X11358277Y-17490555D01*
X11358277Y-17490555D02*
X11339229Y-17509603D01*
X11339229Y-17509603D02*
X11320182Y-17519127D01*
X11615420Y-17461984D02*
X11520182Y-17461984D01*
X11520182Y-17461984D02*
X11510658Y-17557222D01*
X11510658Y-17557222D02*
X11520182Y-17547698D01*
X11520182Y-17547698D02*
X11539229Y-17538174D01*
X11539229Y-17538174D02*
X11586848Y-17538174D01*
X11586848Y-17538174D02*
X11605896Y-17547698D01*
X11605896Y-17547698D02*
X11615420Y-17557222D01*
X11615420Y-17557222D02*
X11624944Y-17576270D01*
X11624944Y-17576270D02*
X11624944Y-17623889D01*
X11624944Y-17623889D02*
X11615420Y-17642936D01*
X11615420Y-17642936D02*
X11605896Y-17652460D01*
X11605896Y-17652460D02*
X11586848Y-17661984D01*
X11586848Y-17661984D02*
X11539229Y-17661984D01*
X11539229Y-17661984D02*
X11520182Y-17652460D01*
X11520182Y-17652460D02*
X11510658Y-17642936D01*
X11701134Y-17461984D02*
X11701134Y-17500079D01*
X11777325Y-17461984D02*
X11777325Y-17500079D01*
X12072563Y-17738174D02*
X12063039Y-17728650D01*
X12063039Y-17728650D02*
X12043991Y-17700079D01*
X12043991Y-17700079D02*
X12034468Y-17681031D01*
X12034468Y-17681031D02*
X12024944Y-17652460D01*
X12024944Y-17652460D02*
X12015420Y-17604841D01*
X12015420Y-17604841D02*
X12015420Y-17566746D01*
X12015420Y-17566746D02*
X12024944Y-17519127D01*
X12024944Y-17519127D02*
X12034468Y-17490555D01*
X12034468Y-17490555D02*
X12043991Y-17471508D01*
X12043991Y-17471508D02*
X12063039Y-17442936D01*
X12063039Y-17442936D02*
X12072563Y-17433412D01*
X12139229Y-17481031D02*
X12148753Y-17471508D01*
X12148753Y-17471508D02*
X12167801Y-17461984D01*
X12167801Y-17461984D02*
X12215420Y-17461984D01*
X12215420Y-17461984D02*
X12234468Y-17471508D01*
X12234468Y-17471508D02*
X12243991Y-17481031D01*
X12243991Y-17481031D02*
X12253515Y-17500079D01*
X12253515Y-17500079D02*
X12253515Y-17519127D01*
X12253515Y-17519127D02*
X12243991Y-17547698D01*
X12243991Y-17547698D02*
X12129706Y-17661984D01*
X12129706Y-17661984D02*
X12253515Y-17661984D01*
X12491610Y-17661984D02*
X12491610Y-17461984D01*
X12577325Y-17661984D02*
X12577325Y-17557222D01*
X12577325Y-17557222D02*
X12567801Y-17538174D01*
X12567801Y-17538174D02*
X12548753Y-17528650D01*
X12548753Y-17528650D02*
X12520182Y-17528650D01*
X12520182Y-17528650D02*
X12501134Y-17538174D01*
X12501134Y-17538174D02*
X12491610Y-17547698D01*
X12701134Y-17661984D02*
X12682087Y-17652460D01*
X12682087Y-17652460D02*
X12672563Y-17642936D01*
X12672563Y-17642936D02*
X12663039Y-17623889D01*
X12663039Y-17623889D02*
X12663039Y-17566746D01*
X12663039Y-17566746D02*
X12672563Y-17547698D01*
X12672563Y-17547698D02*
X12682087Y-17538174D01*
X12682087Y-17538174D02*
X12701134Y-17528650D01*
X12701134Y-17528650D02*
X12729706Y-17528650D01*
X12729706Y-17528650D02*
X12748753Y-17538174D01*
X12748753Y-17538174D02*
X12758277Y-17547698D01*
X12758277Y-17547698D02*
X12767801Y-17566746D01*
X12767801Y-17566746D02*
X12767801Y-17623889D01*
X12767801Y-17623889D02*
X12758277Y-17642936D01*
X12758277Y-17642936D02*
X12748753Y-17652460D01*
X12748753Y-17652460D02*
X12729706Y-17661984D01*
X12729706Y-17661984D02*
X12701134Y-17661984D01*
X12882087Y-17661984D02*
X12863039Y-17652460D01*
X12863039Y-17652460D02*
X12853515Y-17633412D01*
X12853515Y-17633412D02*
X12853515Y-17461984D01*
X13034468Y-17652460D02*
X13015420Y-17661984D01*
X13015420Y-17661984D02*
X12977325Y-17661984D01*
X12977325Y-17661984D02*
X12958277Y-17652460D01*
X12958277Y-17652460D02*
X12948753Y-17633412D01*
X12948753Y-17633412D02*
X12948753Y-17557222D01*
X12948753Y-17557222D02*
X12958277Y-17538174D01*
X12958277Y-17538174D02*
X12977325Y-17528650D01*
X12977325Y-17528650D02*
X13015420Y-17528650D01*
X13015420Y-17528650D02*
X13034468Y-17538174D01*
X13034468Y-17538174D02*
X13043991Y-17557222D01*
X13043991Y-17557222D02*
X13043991Y-17576270D01*
X13043991Y-17576270D02*
X12948753Y-17595317D01*
X13120182Y-17652460D02*
X13139230Y-17661984D01*
X13139230Y-17661984D02*
X13177325Y-17661984D01*
X13177325Y-17661984D02*
X13196372Y-17652460D01*
X13196372Y-17652460D02*
X13205896Y-17633412D01*
X13205896Y-17633412D02*
X13205896Y-17623889D01*
X13205896Y-17623889D02*
X13196372Y-17604841D01*
X13196372Y-17604841D02*
X13177325Y-17595317D01*
X13177325Y-17595317D02*
X13148753Y-17595317D01*
X13148753Y-17595317D02*
X13129706Y-17585793D01*
X13129706Y-17585793D02*
X13120182Y-17566746D01*
X13120182Y-17566746D02*
X13120182Y-17557222D01*
X13120182Y-17557222D02*
X13129706Y-17538174D01*
X13129706Y-17538174D02*
X13148753Y-17528650D01*
X13148753Y-17528650D02*
X13177325Y-17528650D01*
X13177325Y-17528650D02*
X13196372Y-17538174D01*
X13272563Y-17738174D02*
X13282087Y-17728650D01*
X13282087Y-17728650D02*
X13301134Y-17700079D01*
X13301134Y-17700079D02*
X13310658Y-17681031D01*
X13310658Y-17681031D02*
X13320182Y-17652460D01*
X13320182Y-17652460D02*
X13329706Y-17604841D01*
X13329706Y-17604841D02*
X13329706Y-17566746D01*
X13329706Y-17566746D02*
X13320182Y-17519127D01*
X13320182Y-17519127D02*
X13310658Y-17490555D01*
X13310658Y-17490555D02*
X13301134Y-17471508D01*
X13301134Y-17471508D02*
X13282087Y-17442936D01*
X13282087Y-17442936D02*
X13272563Y-17433412D01*
D12*
X8484320Y-17866320D02*
X8484320Y-17802680D01*
X8420680Y-17802680D01*
X8420680Y-17866320D01*
X8484320Y-17866320D01*
D11*
X8796372Y-17725984D02*
X8815420Y-17725984D01*
X8815420Y-17725984D02*
X8834467Y-17735508D01*
X8834467Y-17735508D02*
X8843991Y-17745031D01*
X8843991Y-17745031D02*
X8853515Y-17764079D01*
X8853515Y-17764079D02*
X8863039Y-17802174D01*
X8863039Y-17802174D02*
X8863039Y-17849793D01*
X8863039Y-17849793D02*
X8853515Y-17887889D01*
X8853515Y-17887889D02*
X8843991Y-17906936D01*
X8843991Y-17906936D02*
X8834467Y-17916460D01*
X8834467Y-17916460D02*
X8815420Y-17925984D01*
X8815420Y-17925984D02*
X8796372Y-17925984D01*
X8796372Y-17925984D02*
X8777324Y-17916460D01*
X8777324Y-17916460D02*
X8767801Y-17906936D01*
X8767801Y-17906936D02*
X8758277Y-17887889D01*
X8758277Y-17887889D02*
X8748753Y-17849793D01*
X8748753Y-17849793D02*
X8748753Y-17802174D01*
X8748753Y-17802174D02*
X8758277Y-17764079D01*
X8758277Y-17764079D02*
X8767801Y-17745031D01*
X8767801Y-17745031D02*
X8777324Y-17735508D01*
X8777324Y-17735508D02*
X8796372Y-17725984D01*
X8948753Y-17906936D02*
X8958277Y-17916460D01*
X8958277Y-17916460D02*
X8948753Y-17925984D01*
X8948753Y-17925984D02*
X8939229Y-17916460D01*
X8939229Y-17916460D02*
X8948753Y-17906936D01*
X8948753Y-17906936D02*
X8948753Y-17925984D01*
X9053515Y-17925984D02*
X9091610Y-17925984D01*
X9091610Y-17925984D02*
X9110658Y-17916460D01*
X9110658Y-17916460D02*
X9120182Y-17906936D01*
X9120182Y-17906936D02*
X9139229Y-17878365D01*
X9139229Y-17878365D02*
X9148753Y-17840270D01*
X9148753Y-17840270D02*
X9148753Y-17764079D01*
X9148753Y-17764079D02*
X9139229Y-17745031D01*
X9139229Y-17745031D02*
X9129705Y-17735508D01*
X9129705Y-17735508D02*
X9110658Y-17725984D01*
X9110658Y-17725984D02*
X9072563Y-17725984D01*
X9072563Y-17725984D02*
X9053515Y-17735508D01*
X9053515Y-17735508D02*
X9043991Y-17745031D01*
X9043991Y-17745031D02*
X9034467Y-17764079D01*
X9034467Y-17764079D02*
X9034467Y-17811698D01*
X9034467Y-17811698D02*
X9043991Y-17830746D01*
X9043991Y-17830746D02*
X9053515Y-17840270D01*
X9053515Y-17840270D02*
X9072563Y-17849793D01*
X9072563Y-17849793D02*
X9110658Y-17849793D01*
X9110658Y-17849793D02*
X9129705Y-17840270D01*
X9129705Y-17840270D02*
X9139229Y-17830746D01*
X9139229Y-17830746D02*
X9148753Y-17811698D01*
X9272563Y-17725984D02*
X9291610Y-17725984D01*
X9291610Y-17725984D02*
X9310658Y-17735508D01*
X9310658Y-17735508D02*
X9320182Y-17745031D01*
X9320182Y-17745031D02*
X9329705Y-17764079D01*
X9329705Y-17764079D02*
X9339229Y-17802174D01*
X9339229Y-17802174D02*
X9339229Y-17849793D01*
X9339229Y-17849793D02*
X9329705Y-17887889D01*
X9329705Y-17887889D02*
X9320182Y-17906936D01*
X9320182Y-17906936D02*
X9310658Y-17916460D01*
X9310658Y-17916460D02*
X9291610Y-17925984D01*
X9291610Y-17925984D02*
X9272563Y-17925984D01*
X9272563Y-17925984D02*
X9253515Y-17916460D01*
X9253515Y-17916460D02*
X9243991Y-17906936D01*
X9243991Y-17906936D02*
X9234467Y-17887889D01*
X9234467Y-17887889D02*
X9224944Y-17849793D01*
X9224944Y-17849793D02*
X9224944Y-17802174D01*
X9224944Y-17802174D02*
X9234467Y-17764079D01*
X9234467Y-17764079D02*
X9243991Y-17745031D01*
X9243991Y-17745031D02*
X9253515Y-17735508D01*
X9253515Y-17735508D02*
X9272563Y-17725984D01*
X9463039Y-17725984D02*
X9482086Y-17725984D01*
X9482086Y-17725984D02*
X9501134Y-17735508D01*
X9501134Y-17735508D02*
X9510658Y-17745031D01*
X9510658Y-17745031D02*
X9520182Y-17764079D01*
X9520182Y-17764079D02*
X9529705Y-17802174D01*
X9529705Y-17802174D02*
X9529705Y-17849793D01*
X9529705Y-17849793D02*
X9520182Y-17887889D01*
X9520182Y-17887889D02*
X9510658Y-17906936D01*
X9510658Y-17906936D02*
X9501134Y-17916460D01*
X9501134Y-17916460D02*
X9482086Y-17925984D01*
X9482086Y-17925984D02*
X9463039Y-17925984D01*
X9463039Y-17925984D02*
X9443991Y-17916460D01*
X9443991Y-17916460D02*
X9434467Y-17906936D01*
X9434467Y-17906936D02*
X9424944Y-17887889D01*
X9424944Y-17887889D02*
X9415420Y-17849793D01*
X9415420Y-17849793D02*
X9415420Y-17802174D01*
X9415420Y-17802174D02*
X9424944Y-17764079D01*
X9424944Y-17764079D02*
X9434467Y-17745031D01*
X9434467Y-17745031D02*
X9443991Y-17735508D01*
X9443991Y-17735508D02*
X9463039Y-17725984D01*
X9615420Y-17925984D02*
X9615420Y-17792650D01*
X9615420Y-17811698D02*
X9624944Y-17802174D01*
X9624944Y-17802174D02*
X9643991Y-17792650D01*
X9643991Y-17792650D02*
X9672563Y-17792650D01*
X9672563Y-17792650D02*
X9691610Y-17802174D01*
X9691610Y-17802174D02*
X9701134Y-17821222D01*
X9701134Y-17821222D02*
X9701134Y-17925984D01*
X9701134Y-17821222D02*
X9710658Y-17802174D01*
X9710658Y-17802174D02*
X9729705Y-17792650D01*
X9729705Y-17792650D02*
X9758277Y-17792650D01*
X9758277Y-17792650D02*
X9777325Y-17802174D01*
X9777325Y-17802174D02*
X9786848Y-17821222D01*
X9786848Y-17821222D02*
X9786848Y-17925984D01*
X9882086Y-17925984D02*
X9882086Y-17792650D01*
X9882086Y-17811698D02*
X9891610Y-17802174D01*
X9891610Y-17802174D02*
X9910658Y-17792650D01*
X9910658Y-17792650D02*
X9939229Y-17792650D01*
X9939229Y-17792650D02*
X9958277Y-17802174D01*
X9958277Y-17802174D02*
X9967801Y-17821222D01*
X9967801Y-17821222D02*
X9967801Y-17925984D01*
X9967801Y-17821222D02*
X9977325Y-17802174D01*
X9977325Y-17802174D02*
X9996372Y-17792650D01*
X9996372Y-17792650D02*
X10024944Y-17792650D01*
X10024944Y-17792650D02*
X10043991Y-17802174D01*
X10043991Y-17802174D02*
X10053515Y-17821222D01*
X10053515Y-17821222D02*
X10053515Y-17925984D01*
X10443991Y-17716460D02*
X10272563Y-17973603D01*
X10701134Y-17725984D02*
X10720182Y-17725984D01*
X10720182Y-17725984D02*
X10739229Y-17735508D01*
X10739229Y-17735508D02*
X10748753Y-17745031D01*
X10748753Y-17745031D02*
X10758277Y-17764079D01*
X10758277Y-17764079D02*
X10767801Y-17802174D01*
X10767801Y-17802174D02*
X10767801Y-17849793D01*
X10767801Y-17849793D02*
X10758277Y-17887889D01*
X10758277Y-17887889D02*
X10748753Y-17906936D01*
X10748753Y-17906936D02*
X10739229Y-17916460D01*
X10739229Y-17916460D02*
X10720182Y-17925984D01*
X10720182Y-17925984D02*
X10701134Y-17925984D01*
X10701134Y-17925984D02*
X10682087Y-17916460D01*
X10682087Y-17916460D02*
X10672563Y-17906936D01*
X10672563Y-17906936D02*
X10663039Y-17887889D01*
X10663039Y-17887889D02*
X10653515Y-17849793D01*
X10653515Y-17849793D02*
X10653515Y-17802174D01*
X10653515Y-17802174D02*
X10663039Y-17764079D01*
X10663039Y-17764079D02*
X10672563Y-17745031D01*
X10672563Y-17745031D02*
X10682087Y-17735508D01*
X10682087Y-17735508D02*
X10701134Y-17725984D01*
X10853515Y-17906936D02*
X10863039Y-17916460D01*
X10863039Y-17916460D02*
X10853515Y-17925984D01*
X10853515Y-17925984D02*
X10843991Y-17916460D01*
X10843991Y-17916460D02*
X10853515Y-17906936D01*
X10853515Y-17906936D02*
X10853515Y-17925984D01*
X10986848Y-17725984D02*
X11005896Y-17725984D01*
X11005896Y-17725984D02*
X11024944Y-17735508D01*
X11024944Y-17735508D02*
X11034468Y-17745031D01*
X11034468Y-17745031D02*
X11043991Y-17764079D01*
X11043991Y-17764079D02*
X11053515Y-17802174D01*
X11053515Y-17802174D02*
X11053515Y-17849793D01*
X11053515Y-17849793D02*
X11043991Y-17887889D01*
X11043991Y-17887889D02*
X11034468Y-17906936D01*
X11034468Y-17906936D02*
X11024944Y-17916460D01*
X11024944Y-17916460D02*
X11005896Y-17925984D01*
X11005896Y-17925984D02*
X10986848Y-17925984D01*
X10986848Y-17925984D02*
X10967801Y-17916460D01*
X10967801Y-17916460D02*
X10958277Y-17906936D01*
X10958277Y-17906936D02*
X10948753Y-17887889D01*
X10948753Y-17887889D02*
X10939229Y-17849793D01*
X10939229Y-17849793D02*
X10939229Y-17802174D01*
X10939229Y-17802174D02*
X10948753Y-17764079D01*
X10948753Y-17764079D02*
X10958277Y-17745031D01*
X10958277Y-17745031D02*
X10967801Y-17735508D01*
X10967801Y-17735508D02*
X10986848Y-17725984D01*
X11120182Y-17725984D02*
X11243991Y-17725984D01*
X11243991Y-17725984D02*
X11177325Y-17802174D01*
X11177325Y-17802174D02*
X11205896Y-17802174D01*
X11205896Y-17802174D02*
X11224944Y-17811698D01*
X11224944Y-17811698D02*
X11234467Y-17821222D01*
X11234467Y-17821222D02*
X11243991Y-17840270D01*
X11243991Y-17840270D02*
X11243991Y-17887889D01*
X11243991Y-17887889D02*
X11234467Y-17906936D01*
X11234467Y-17906936D02*
X11224944Y-17916460D01*
X11224944Y-17916460D02*
X11205896Y-17925984D01*
X11205896Y-17925984D02*
X11148753Y-17925984D01*
X11148753Y-17925984D02*
X11129706Y-17916460D01*
X11129706Y-17916460D02*
X11120182Y-17906936D01*
X11424944Y-17725984D02*
X11329706Y-17725984D01*
X11329706Y-17725984D02*
X11320182Y-17821222D01*
X11320182Y-17821222D02*
X11329706Y-17811698D01*
X11329706Y-17811698D02*
X11348753Y-17802174D01*
X11348753Y-17802174D02*
X11396372Y-17802174D01*
X11396372Y-17802174D02*
X11415420Y-17811698D01*
X11415420Y-17811698D02*
X11424944Y-17821222D01*
X11424944Y-17821222D02*
X11434467Y-17840270D01*
X11434467Y-17840270D02*
X11434467Y-17887889D01*
X11434467Y-17887889D02*
X11424944Y-17906936D01*
X11424944Y-17906936D02*
X11415420Y-17916460D01*
X11415420Y-17916460D02*
X11396372Y-17925984D01*
X11396372Y-17925984D02*
X11348753Y-17925984D01*
X11348753Y-17925984D02*
X11329706Y-17916460D01*
X11329706Y-17916460D02*
X11320182Y-17906936D01*
X11605896Y-17792650D02*
X11605896Y-17925984D01*
X11558277Y-17716460D02*
X11510658Y-17859317D01*
X11510658Y-17859317D02*
X11634467Y-17859317D01*
X11701134Y-17725984D02*
X11701134Y-17764079D01*
X11777325Y-17725984D02*
X11777325Y-17764079D01*
X12072563Y-18002174D02*
X12063039Y-17992650D01*
X12063039Y-17992650D02*
X12043991Y-17964079D01*
X12043991Y-17964079D02*
X12034468Y-17945031D01*
X12034468Y-17945031D02*
X12024944Y-17916460D01*
X12024944Y-17916460D02*
X12015420Y-17868841D01*
X12015420Y-17868841D02*
X12015420Y-17830746D01*
X12015420Y-17830746D02*
X12024944Y-17783127D01*
X12024944Y-17783127D02*
X12034468Y-17754555D01*
X12034468Y-17754555D02*
X12043991Y-17735508D01*
X12043991Y-17735508D02*
X12063039Y-17706936D01*
X12063039Y-17706936D02*
X12072563Y-17697412D01*
X12234468Y-17725984D02*
X12196372Y-17725984D01*
X12196372Y-17725984D02*
X12177325Y-17735508D01*
X12177325Y-17735508D02*
X12167801Y-17745031D01*
X12167801Y-17745031D02*
X12148753Y-17773603D01*
X12148753Y-17773603D02*
X12139229Y-17811698D01*
X12139229Y-17811698D02*
X12139229Y-17887889D01*
X12139229Y-17887889D02*
X12148753Y-17906936D01*
X12148753Y-17906936D02*
X12158277Y-17916460D01*
X12158277Y-17916460D02*
X12177325Y-17925984D01*
X12177325Y-17925984D02*
X12215420Y-17925984D01*
X12215420Y-17925984D02*
X12234468Y-17916460D01*
X12234468Y-17916460D02*
X12243991Y-17906936D01*
X12243991Y-17906936D02*
X12253515Y-17887889D01*
X12253515Y-17887889D02*
X12253515Y-17840270D01*
X12253515Y-17840270D02*
X12243991Y-17821222D01*
X12243991Y-17821222D02*
X12234468Y-17811698D01*
X12234468Y-17811698D02*
X12215420Y-17802174D01*
X12215420Y-17802174D02*
X12177325Y-17802174D01*
X12177325Y-17802174D02*
X12158277Y-17811698D01*
X12158277Y-17811698D02*
X12148753Y-17821222D01*
X12148753Y-17821222D02*
X12139229Y-17840270D01*
X12377325Y-17725984D02*
X12396372Y-17725984D01*
X12396372Y-17725984D02*
X12415420Y-17735508D01*
X12415420Y-17735508D02*
X12424944Y-17745031D01*
X12424944Y-17745031D02*
X12434468Y-17764079D01*
X12434468Y-17764079D02*
X12443991Y-17802174D01*
X12443991Y-17802174D02*
X12443991Y-17849793D01*
X12443991Y-17849793D02*
X12434468Y-17887889D01*
X12434468Y-17887889D02*
X12424944Y-17906936D01*
X12424944Y-17906936D02*
X12415420Y-17916460D01*
X12415420Y-17916460D02*
X12396372Y-17925984D01*
X12396372Y-17925984D02*
X12377325Y-17925984D01*
X12377325Y-17925984D02*
X12358277Y-17916460D01*
X12358277Y-17916460D02*
X12348753Y-17906936D01*
X12348753Y-17906936D02*
X12339229Y-17887889D01*
X12339229Y-17887889D02*
X12329706Y-17849793D01*
X12329706Y-17849793D02*
X12329706Y-17802174D01*
X12329706Y-17802174D02*
X12339229Y-17764079D01*
X12339229Y-17764079D02*
X12348753Y-17745031D01*
X12348753Y-17745031D02*
X12358277Y-17735508D01*
X12358277Y-17735508D02*
X12377325Y-17725984D01*
X12682087Y-17925984D02*
X12682087Y-17725984D01*
X12767801Y-17925984D02*
X12767801Y-17821222D01*
X12767801Y-17821222D02*
X12758277Y-17802174D01*
X12758277Y-17802174D02*
X12739230Y-17792650D01*
X12739230Y-17792650D02*
X12710658Y-17792650D01*
X12710658Y-17792650D02*
X12691610Y-17802174D01*
X12691610Y-17802174D02*
X12682087Y-17811698D01*
X12891610Y-17925984D02*
X12872563Y-17916460D01*
X12872563Y-17916460D02*
X12863039Y-17906936D01*
X12863039Y-17906936D02*
X12853515Y-17887889D01*
X12853515Y-17887889D02*
X12853515Y-17830746D01*
X12853515Y-17830746D02*
X12863039Y-17811698D01*
X12863039Y-17811698D02*
X12872563Y-17802174D01*
X12872563Y-17802174D02*
X12891610Y-17792650D01*
X12891610Y-17792650D02*
X12920182Y-17792650D01*
X12920182Y-17792650D02*
X12939230Y-17802174D01*
X12939230Y-17802174D02*
X12948753Y-17811698D01*
X12948753Y-17811698D02*
X12958277Y-17830746D01*
X12958277Y-17830746D02*
X12958277Y-17887889D01*
X12958277Y-17887889D02*
X12948753Y-17906936D01*
X12948753Y-17906936D02*
X12939230Y-17916460D01*
X12939230Y-17916460D02*
X12920182Y-17925984D01*
X12920182Y-17925984D02*
X12891610Y-17925984D01*
X13072563Y-17925984D02*
X13053515Y-17916460D01*
X13053515Y-17916460D02*
X13043991Y-17897412D01*
X13043991Y-17897412D02*
X13043991Y-17725984D01*
X13224944Y-17916460D02*
X13205896Y-17925984D01*
X13205896Y-17925984D02*
X13167801Y-17925984D01*
X13167801Y-17925984D02*
X13148753Y-17916460D01*
X13148753Y-17916460D02*
X13139230Y-17897412D01*
X13139230Y-17897412D02*
X13139230Y-17821222D01*
X13139230Y-17821222D02*
X13148753Y-17802174D01*
X13148753Y-17802174D02*
X13167801Y-17792650D01*
X13167801Y-17792650D02*
X13205896Y-17792650D01*
X13205896Y-17792650D02*
X13224944Y-17802174D01*
X13224944Y-17802174D02*
X13234468Y-17821222D01*
X13234468Y-17821222D02*
X13234468Y-17840270D01*
X13234468Y-17840270D02*
X13139230Y-17859317D01*
X13310658Y-17916460D02*
X13329706Y-17925984D01*
X13329706Y-17925984D02*
X13367801Y-17925984D01*
X13367801Y-17925984D02*
X13386849Y-17916460D01*
X13386849Y-17916460D02*
X13396372Y-17897412D01*
X13396372Y-17897412D02*
X13396372Y-17887889D01*
X13396372Y-17887889D02*
X13386849Y-17868841D01*
X13386849Y-17868841D02*
X13367801Y-17859317D01*
X13367801Y-17859317D02*
X13339230Y-17859317D01*
X13339230Y-17859317D02*
X13320182Y-17849793D01*
X13320182Y-17849793D02*
X13310658Y-17830746D01*
X13310658Y-17830746D02*
X13310658Y-17821222D01*
X13310658Y-17821222D02*
X13320182Y-17802174D01*
X13320182Y-17802174D02*
X13339230Y-17792650D01*
X13339230Y-17792650D02*
X13367801Y-17792650D01*
X13367801Y-17792650D02*
X13386849Y-17802174D01*
X13463039Y-18002174D02*
X13472563Y-17992650D01*
X13472563Y-17992650D02*
X13491611Y-17964079D01*
X13491611Y-17964079D02*
X13501134Y-17945031D01*
X13501134Y-17945031D02*
X13510658Y-17916460D01*
X13510658Y-17916460D02*
X13520182Y-17868841D01*
X13520182Y-17868841D02*
X13520182Y-17830746D01*
X13520182Y-17830746D02*
X13510658Y-17783127D01*
X13510658Y-17783127D02*
X13501134Y-17754555D01*
X13501134Y-17754555D02*
X13491611Y-17735508D01*
X13491611Y-17735508D02*
X13472563Y-17706936D01*
X13472563Y-17706936D02*
X13463039Y-17697412D01*
D12*
X8447500Y-18148500D02*
X8497500Y-18098500D01*
X8447500Y-18048500D01*
X8397500Y-18098500D01*
X8447500Y-18148500D01*
D11*
X8863039Y-18189984D02*
X8748753Y-18189984D01*
X8805896Y-18189984D02*
X8805896Y-17989984D01*
X8805896Y-17989984D02*
X8786848Y-18018555D01*
X8786848Y-18018555D02*
X8767801Y-18037603D01*
X8767801Y-18037603D02*
X8748753Y-18047127D01*
X8948753Y-18170936D02*
X8958277Y-18180460D01*
X8958277Y-18180460D02*
X8948753Y-18189984D01*
X8948753Y-18189984D02*
X8939229Y-18180460D01*
X8939229Y-18180460D02*
X8948753Y-18170936D01*
X8948753Y-18170936D02*
X8948753Y-18189984D01*
X9082086Y-17989984D02*
X9101134Y-17989984D01*
X9101134Y-17989984D02*
X9120182Y-17999508D01*
X9120182Y-17999508D02*
X9129705Y-18009031D01*
X9129705Y-18009031D02*
X9139229Y-18028079D01*
X9139229Y-18028079D02*
X9148753Y-18066174D01*
X9148753Y-18066174D02*
X9148753Y-18113793D01*
X9148753Y-18113793D02*
X9139229Y-18151889D01*
X9139229Y-18151889D02*
X9129705Y-18170936D01*
X9129705Y-18170936D02*
X9120182Y-18180460D01*
X9120182Y-18180460D02*
X9101134Y-18189984D01*
X9101134Y-18189984D02*
X9082086Y-18189984D01*
X9082086Y-18189984D02*
X9063039Y-18180460D01*
X9063039Y-18180460D02*
X9053515Y-18170936D01*
X9053515Y-18170936D02*
X9043991Y-18151889D01*
X9043991Y-18151889D02*
X9034467Y-18113793D01*
X9034467Y-18113793D02*
X9034467Y-18066174D01*
X9034467Y-18066174D02*
X9043991Y-18028079D01*
X9043991Y-18028079D02*
X9053515Y-18009031D01*
X9053515Y-18009031D02*
X9063039Y-17999508D01*
X9063039Y-17999508D02*
X9082086Y-17989984D01*
X9272563Y-17989984D02*
X9291610Y-17989984D01*
X9291610Y-17989984D02*
X9310658Y-17999508D01*
X9310658Y-17999508D02*
X9320182Y-18009031D01*
X9320182Y-18009031D02*
X9329705Y-18028079D01*
X9329705Y-18028079D02*
X9339229Y-18066174D01*
X9339229Y-18066174D02*
X9339229Y-18113793D01*
X9339229Y-18113793D02*
X9329705Y-18151889D01*
X9329705Y-18151889D02*
X9320182Y-18170936D01*
X9320182Y-18170936D02*
X9310658Y-18180460D01*
X9310658Y-18180460D02*
X9291610Y-18189984D01*
X9291610Y-18189984D02*
X9272563Y-18189984D01*
X9272563Y-18189984D02*
X9253515Y-18180460D01*
X9253515Y-18180460D02*
X9243991Y-18170936D01*
X9243991Y-18170936D02*
X9234467Y-18151889D01*
X9234467Y-18151889D02*
X9224944Y-18113793D01*
X9224944Y-18113793D02*
X9224944Y-18066174D01*
X9224944Y-18066174D02*
X9234467Y-18028079D01*
X9234467Y-18028079D02*
X9243991Y-18009031D01*
X9243991Y-18009031D02*
X9253515Y-17999508D01*
X9253515Y-17999508D02*
X9272563Y-17989984D01*
X9463039Y-17989984D02*
X9482086Y-17989984D01*
X9482086Y-17989984D02*
X9501134Y-17999508D01*
X9501134Y-17999508D02*
X9510658Y-18009031D01*
X9510658Y-18009031D02*
X9520182Y-18028079D01*
X9520182Y-18028079D02*
X9529705Y-18066174D01*
X9529705Y-18066174D02*
X9529705Y-18113793D01*
X9529705Y-18113793D02*
X9520182Y-18151889D01*
X9520182Y-18151889D02*
X9510658Y-18170936D01*
X9510658Y-18170936D02*
X9501134Y-18180460D01*
X9501134Y-18180460D02*
X9482086Y-18189984D01*
X9482086Y-18189984D02*
X9463039Y-18189984D01*
X9463039Y-18189984D02*
X9443991Y-18180460D01*
X9443991Y-18180460D02*
X9434467Y-18170936D01*
X9434467Y-18170936D02*
X9424944Y-18151889D01*
X9424944Y-18151889D02*
X9415420Y-18113793D01*
X9415420Y-18113793D02*
X9415420Y-18066174D01*
X9415420Y-18066174D02*
X9424944Y-18028079D01*
X9424944Y-18028079D02*
X9434467Y-18009031D01*
X9434467Y-18009031D02*
X9443991Y-17999508D01*
X9443991Y-17999508D02*
X9463039Y-17989984D01*
X9615420Y-18189984D02*
X9615420Y-18056650D01*
X9615420Y-18075698D02*
X9624944Y-18066174D01*
X9624944Y-18066174D02*
X9643991Y-18056650D01*
X9643991Y-18056650D02*
X9672563Y-18056650D01*
X9672563Y-18056650D02*
X9691610Y-18066174D01*
X9691610Y-18066174D02*
X9701134Y-18085222D01*
X9701134Y-18085222D02*
X9701134Y-18189984D01*
X9701134Y-18085222D02*
X9710658Y-18066174D01*
X9710658Y-18066174D02*
X9729705Y-18056650D01*
X9729705Y-18056650D02*
X9758277Y-18056650D01*
X9758277Y-18056650D02*
X9777325Y-18066174D01*
X9777325Y-18066174D02*
X9786848Y-18085222D01*
X9786848Y-18085222D02*
X9786848Y-18189984D01*
X9882086Y-18189984D02*
X9882086Y-18056650D01*
X9882086Y-18075698D02*
X9891610Y-18066174D01*
X9891610Y-18066174D02*
X9910658Y-18056650D01*
X9910658Y-18056650D02*
X9939229Y-18056650D01*
X9939229Y-18056650D02*
X9958277Y-18066174D01*
X9958277Y-18066174D02*
X9967801Y-18085222D01*
X9967801Y-18085222D02*
X9967801Y-18189984D01*
X9967801Y-18085222D02*
X9977325Y-18066174D01*
X9977325Y-18066174D02*
X9996372Y-18056650D01*
X9996372Y-18056650D02*
X10024944Y-18056650D01*
X10024944Y-18056650D02*
X10043991Y-18066174D01*
X10043991Y-18066174D02*
X10053515Y-18085222D01*
X10053515Y-18085222D02*
X10053515Y-18189984D01*
X10443991Y-17980460D02*
X10272563Y-18237603D01*
X10701134Y-17989984D02*
X10720182Y-17989984D01*
X10720182Y-17989984D02*
X10739229Y-17999508D01*
X10739229Y-17999508D02*
X10748753Y-18009031D01*
X10748753Y-18009031D02*
X10758277Y-18028079D01*
X10758277Y-18028079D02*
X10767801Y-18066174D01*
X10767801Y-18066174D02*
X10767801Y-18113793D01*
X10767801Y-18113793D02*
X10758277Y-18151889D01*
X10758277Y-18151889D02*
X10748753Y-18170936D01*
X10748753Y-18170936D02*
X10739229Y-18180460D01*
X10739229Y-18180460D02*
X10720182Y-18189984D01*
X10720182Y-18189984D02*
X10701134Y-18189984D01*
X10701134Y-18189984D02*
X10682087Y-18180460D01*
X10682087Y-18180460D02*
X10672563Y-18170936D01*
X10672563Y-18170936D02*
X10663039Y-18151889D01*
X10663039Y-18151889D02*
X10653515Y-18113793D01*
X10653515Y-18113793D02*
X10653515Y-18066174D01*
X10653515Y-18066174D02*
X10663039Y-18028079D01*
X10663039Y-18028079D02*
X10672563Y-18009031D01*
X10672563Y-18009031D02*
X10682087Y-17999508D01*
X10682087Y-17999508D02*
X10701134Y-17989984D01*
X10853515Y-18170936D02*
X10863039Y-18180460D01*
X10863039Y-18180460D02*
X10853515Y-18189984D01*
X10853515Y-18189984D02*
X10843991Y-18180460D01*
X10843991Y-18180460D02*
X10853515Y-18170936D01*
X10853515Y-18170936D02*
X10853515Y-18189984D01*
X10986848Y-17989984D02*
X11005896Y-17989984D01*
X11005896Y-17989984D02*
X11024944Y-17999508D01*
X11024944Y-17999508D02*
X11034468Y-18009031D01*
X11034468Y-18009031D02*
X11043991Y-18028079D01*
X11043991Y-18028079D02*
X11053515Y-18066174D01*
X11053515Y-18066174D02*
X11053515Y-18113793D01*
X11053515Y-18113793D02*
X11043991Y-18151889D01*
X11043991Y-18151889D02*
X11034468Y-18170936D01*
X11034468Y-18170936D02*
X11024944Y-18180460D01*
X11024944Y-18180460D02*
X11005896Y-18189984D01*
X11005896Y-18189984D02*
X10986848Y-18189984D01*
X10986848Y-18189984D02*
X10967801Y-18180460D01*
X10967801Y-18180460D02*
X10958277Y-18170936D01*
X10958277Y-18170936D02*
X10948753Y-18151889D01*
X10948753Y-18151889D02*
X10939229Y-18113793D01*
X10939229Y-18113793D02*
X10939229Y-18066174D01*
X10939229Y-18066174D02*
X10948753Y-18028079D01*
X10948753Y-18028079D02*
X10958277Y-18009031D01*
X10958277Y-18009031D02*
X10967801Y-17999508D01*
X10967801Y-17999508D02*
X10986848Y-17989984D01*
X11120182Y-17989984D02*
X11243991Y-17989984D01*
X11243991Y-17989984D02*
X11177325Y-18066174D01*
X11177325Y-18066174D02*
X11205896Y-18066174D01*
X11205896Y-18066174D02*
X11224944Y-18075698D01*
X11224944Y-18075698D02*
X11234467Y-18085222D01*
X11234467Y-18085222D02*
X11243991Y-18104270D01*
X11243991Y-18104270D02*
X11243991Y-18151889D01*
X11243991Y-18151889D02*
X11234467Y-18170936D01*
X11234467Y-18170936D02*
X11224944Y-18180460D01*
X11224944Y-18180460D02*
X11205896Y-18189984D01*
X11205896Y-18189984D02*
X11148753Y-18189984D01*
X11148753Y-18189984D02*
X11129706Y-18180460D01*
X11129706Y-18180460D02*
X11120182Y-18170936D01*
X11339229Y-18189984D02*
X11377325Y-18189984D01*
X11377325Y-18189984D02*
X11396372Y-18180460D01*
X11396372Y-18180460D02*
X11405896Y-18170936D01*
X11405896Y-18170936D02*
X11424944Y-18142365D01*
X11424944Y-18142365D02*
X11434467Y-18104270D01*
X11434467Y-18104270D02*
X11434467Y-18028079D01*
X11434467Y-18028079D02*
X11424944Y-18009031D01*
X11424944Y-18009031D02*
X11415420Y-17999508D01*
X11415420Y-17999508D02*
X11396372Y-17989984D01*
X11396372Y-17989984D02*
X11358277Y-17989984D01*
X11358277Y-17989984D02*
X11339229Y-17999508D01*
X11339229Y-17999508D02*
X11329706Y-18009031D01*
X11329706Y-18009031D02*
X11320182Y-18028079D01*
X11320182Y-18028079D02*
X11320182Y-18075698D01*
X11320182Y-18075698D02*
X11329706Y-18094746D01*
X11329706Y-18094746D02*
X11339229Y-18104270D01*
X11339229Y-18104270D02*
X11358277Y-18113793D01*
X11358277Y-18113793D02*
X11396372Y-18113793D01*
X11396372Y-18113793D02*
X11415420Y-18104270D01*
X11415420Y-18104270D02*
X11424944Y-18094746D01*
X11424944Y-18094746D02*
X11434467Y-18075698D01*
X11605896Y-18056650D02*
X11605896Y-18189984D01*
X11558277Y-17980460D02*
X11510658Y-18123317D01*
X11510658Y-18123317D02*
X11634467Y-18123317D01*
X11701134Y-17989984D02*
X11701134Y-18028079D01*
X11777325Y-17989984D02*
X11777325Y-18028079D01*
X12072563Y-18266174D02*
X12063039Y-18256650D01*
X12063039Y-18256650D02*
X12043991Y-18228079D01*
X12043991Y-18228079D02*
X12034468Y-18209031D01*
X12034468Y-18209031D02*
X12024944Y-18180460D01*
X12024944Y-18180460D02*
X12015420Y-18132841D01*
X12015420Y-18132841D02*
X12015420Y-18094746D01*
X12015420Y-18094746D02*
X12024944Y-18047127D01*
X12024944Y-18047127D02*
X12034468Y-18018555D01*
X12034468Y-18018555D02*
X12043991Y-17999508D01*
X12043991Y-17999508D02*
X12063039Y-17970936D01*
X12063039Y-17970936D02*
X12072563Y-17961412D01*
X12234468Y-18056650D02*
X12234468Y-18189984D01*
X12186848Y-17980460D02*
X12139229Y-18123317D01*
X12139229Y-18123317D02*
X12263039Y-18123317D01*
X12491610Y-18189984D02*
X12491610Y-17989984D01*
X12577325Y-18189984D02*
X12577325Y-18085222D01*
X12577325Y-18085222D02*
X12567801Y-18066174D01*
X12567801Y-18066174D02*
X12548753Y-18056650D01*
X12548753Y-18056650D02*
X12520182Y-18056650D01*
X12520182Y-18056650D02*
X12501134Y-18066174D01*
X12501134Y-18066174D02*
X12491610Y-18075698D01*
X12701134Y-18189984D02*
X12682087Y-18180460D01*
X12682087Y-18180460D02*
X12672563Y-18170936D01*
X12672563Y-18170936D02*
X12663039Y-18151889D01*
X12663039Y-18151889D02*
X12663039Y-18094746D01*
X12663039Y-18094746D02*
X12672563Y-18075698D01*
X12672563Y-18075698D02*
X12682087Y-18066174D01*
X12682087Y-18066174D02*
X12701134Y-18056650D01*
X12701134Y-18056650D02*
X12729706Y-18056650D01*
X12729706Y-18056650D02*
X12748753Y-18066174D01*
X12748753Y-18066174D02*
X12758277Y-18075698D01*
X12758277Y-18075698D02*
X12767801Y-18094746D01*
X12767801Y-18094746D02*
X12767801Y-18151889D01*
X12767801Y-18151889D02*
X12758277Y-18170936D01*
X12758277Y-18170936D02*
X12748753Y-18180460D01*
X12748753Y-18180460D02*
X12729706Y-18189984D01*
X12729706Y-18189984D02*
X12701134Y-18189984D01*
X12882087Y-18189984D02*
X12863039Y-18180460D01*
X12863039Y-18180460D02*
X12853515Y-18161412D01*
X12853515Y-18161412D02*
X12853515Y-17989984D01*
X13034468Y-18180460D02*
X13015420Y-18189984D01*
X13015420Y-18189984D02*
X12977325Y-18189984D01*
X12977325Y-18189984D02*
X12958277Y-18180460D01*
X12958277Y-18180460D02*
X12948753Y-18161412D01*
X12948753Y-18161412D02*
X12948753Y-18085222D01*
X12948753Y-18085222D02*
X12958277Y-18066174D01*
X12958277Y-18066174D02*
X12977325Y-18056650D01*
X12977325Y-18056650D02*
X13015420Y-18056650D01*
X13015420Y-18056650D02*
X13034468Y-18066174D01*
X13034468Y-18066174D02*
X13043991Y-18085222D01*
X13043991Y-18085222D02*
X13043991Y-18104270D01*
X13043991Y-18104270D02*
X12948753Y-18123317D01*
X13120182Y-18180460D02*
X13139230Y-18189984D01*
X13139230Y-18189984D02*
X13177325Y-18189984D01*
X13177325Y-18189984D02*
X13196372Y-18180460D01*
X13196372Y-18180460D02*
X13205896Y-18161412D01*
X13205896Y-18161412D02*
X13205896Y-18151889D01*
X13205896Y-18151889D02*
X13196372Y-18132841D01*
X13196372Y-18132841D02*
X13177325Y-18123317D01*
X13177325Y-18123317D02*
X13148753Y-18123317D01*
X13148753Y-18123317D02*
X13129706Y-18113793D01*
X13129706Y-18113793D02*
X13120182Y-18094746D01*
X13120182Y-18094746D02*
X13120182Y-18085222D01*
X13120182Y-18085222D02*
X13129706Y-18066174D01*
X13129706Y-18066174D02*
X13148753Y-18056650D01*
X13148753Y-18056650D02*
X13177325Y-18056650D01*
X13177325Y-18056650D02*
X13196372Y-18066174D01*
X13272563Y-18266174D02*
X13282087Y-18256650D01*
X13282087Y-18256650D02*
X13301134Y-18228079D01*
X13301134Y-18228079D02*
X13310658Y-18209031D01*
X13310658Y-18209031D02*
X13320182Y-18180460D01*
X13320182Y-18180460D02*
X13329706Y-18132841D01*
X13329706Y-18132841D02*
X13329706Y-18094746D01*
X13329706Y-18094746D02*
X13320182Y-18047127D01*
X13320182Y-18047127D02*
X13310658Y-18018555D01*
X13310658Y-18018555D02*
X13301134Y-17999508D01*
X13301134Y-17999508D02*
X13282087Y-17970936D01*
X13282087Y-17970936D02*
X13272563Y-17961412D01*
D13*
X8387500Y-18307500D02*
X8497500Y-18417500D01*
X8497500Y-18307500D02*
X8387500Y-18417500D01*
X8497500Y-18362500D02*
G75*
G02*
X8387500Y-18362500I-55000J0D01*
G01*
X8387500Y-18362500D02*
G75*
G02*
X8497500Y-18362500I55000J0D01*
G01*
D11*
X8863039Y-18453984D02*
X8748753Y-18453984D01*
X8805896Y-18453984D02*
X8805896Y-18253984D01*
X8805896Y-18253984D02*
X8786848Y-18282555D01*
X8786848Y-18282555D02*
X8767801Y-18301603D01*
X8767801Y-18301603D02*
X8748753Y-18311127D01*
X8948753Y-18434936D02*
X8958277Y-18444460D01*
X8958277Y-18444460D02*
X8948753Y-18453984D01*
X8948753Y-18453984D02*
X8939229Y-18444460D01*
X8939229Y-18444460D02*
X8948753Y-18434936D01*
X8948753Y-18434936D02*
X8948753Y-18453984D01*
X9148753Y-18453984D02*
X9034467Y-18453984D01*
X9091610Y-18453984D02*
X9091610Y-18253984D01*
X9091610Y-18253984D02*
X9072563Y-18282555D01*
X9072563Y-18282555D02*
X9053515Y-18301603D01*
X9053515Y-18301603D02*
X9034467Y-18311127D01*
X9272563Y-18253984D02*
X9291610Y-18253984D01*
X9291610Y-18253984D02*
X9310658Y-18263508D01*
X9310658Y-18263508D02*
X9320182Y-18273031D01*
X9320182Y-18273031D02*
X9329705Y-18292079D01*
X9329705Y-18292079D02*
X9339229Y-18330174D01*
X9339229Y-18330174D02*
X9339229Y-18377793D01*
X9339229Y-18377793D02*
X9329705Y-18415889D01*
X9329705Y-18415889D02*
X9320182Y-18434936D01*
X9320182Y-18434936D02*
X9310658Y-18444460D01*
X9310658Y-18444460D02*
X9291610Y-18453984D01*
X9291610Y-18453984D02*
X9272563Y-18453984D01*
X9272563Y-18453984D02*
X9253515Y-18444460D01*
X9253515Y-18444460D02*
X9243991Y-18434936D01*
X9243991Y-18434936D02*
X9234467Y-18415889D01*
X9234467Y-18415889D02*
X9224944Y-18377793D01*
X9224944Y-18377793D02*
X9224944Y-18330174D01*
X9224944Y-18330174D02*
X9234467Y-18292079D01*
X9234467Y-18292079D02*
X9243991Y-18273031D01*
X9243991Y-18273031D02*
X9253515Y-18263508D01*
X9253515Y-18263508D02*
X9272563Y-18253984D01*
X9463039Y-18253984D02*
X9482086Y-18253984D01*
X9482086Y-18253984D02*
X9501134Y-18263508D01*
X9501134Y-18263508D02*
X9510658Y-18273031D01*
X9510658Y-18273031D02*
X9520182Y-18292079D01*
X9520182Y-18292079D02*
X9529705Y-18330174D01*
X9529705Y-18330174D02*
X9529705Y-18377793D01*
X9529705Y-18377793D02*
X9520182Y-18415889D01*
X9520182Y-18415889D02*
X9510658Y-18434936D01*
X9510658Y-18434936D02*
X9501134Y-18444460D01*
X9501134Y-18444460D02*
X9482086Y-18453984D01*
X9482086Y-18453984D02*
X9463039Y-18453984D01*
X9463039Y-18453984D02*
X9443991Y-18444460D01*
X9443991Y-18444460D02*
X9434467Y-18434936D01*
X9434467Y-18434936D02*
X9424944Y-18415889D01*
X9424944Y-18415889D02*
X9415420Y-18377793D01*
X9415420Y-18377793D02*
X9415420Y-18330174D01*
X9415420Y-18330174D02*
X9424944Y-18292079D01*
X9424944Y-18292079D02*
X9434467Y-18273031D01*
X9434467Y-18273031D02*
X9443991Y-18263508D01*
X9443991Y-18263508D02*
X9463039Y-18253984D01*
X9615420Y-18453984D02*
X9615420Y-18320650D01*
X9615420Y-18339698D02*
X9624944Y-18330174D01*
X9624944Y-18330174D02*
X9643991Y-18320650D01*
X9643991Y-18320650D02*
X9672563Y-18320650D01*
X9672563Y-18320650D02*
X9691610Y-18330174D01*
X9691610Y-18330174D02*
X9701134Y-18349222D01*
X9701134Y-18349222D02*
X9701134Y-18453984D01*
X9701134Y-18349222D02*
X9710658Y-18330174D01*
X9710658Y-18330174D02*
X9729705Y-18320650D01*
X9729705Y-18320650D02*
X9758277Y-18320650D01*
X9758277Y-18320650D02*
X9777325Y-18330174D01*
X9777325Y-18330174D02*
X9786848Y-18349222D01*
X9786848Y-18349222D02*
X9786848Y-18453984D01*
X9882086Y-18453984D02*
X9882086Y-18320650D01*
X9882086Y-18339698D02*
X9891610Y-18330174D01*
X9891610Y-18330174D02*
X9910658Y-18320650D01*
X9910658Y-18320650D02*
X9939229Y-18320650D01*
X9939229Y-18320650D02*
X9958277Y-18330174D01*
X9958277Y-18330174D02*
X9967801Y-18349222D01*
X9967801Y-18349222D02*
X9967801Y-18453984D01*
X9967801Y-18349222D02*
X9977325Y-18330174D01*
X9977325Y-18330174D02*
X9996372Y-18320650D01*
X9996372Y-18320650D02*
X10024944Y-18320650D01*
X10024944Y-18320650D02*
X10043991Y-18330174D01*
X10043991Y-18330174D02*
X10053515Y-18349222D01*
X10053515Y-18349222D02*
X10053515Y-18453984D01*
X10443991Y-18244460D02*
X10272563Y-18501603D01*
X10701134Y-18253984D02*
X10720182Y-18253984D01*
X10720182Y-18253984D02*
X10739229Y-18263508D01*
X10739229Y-18263508D02*
X10748753Y-18273031D01*
X10748753Y-18273031D02*
X10758277Y-18292079D01*
X10758277Y-18292079D02*
X10767801Y-18330174D01*
X10767801Y-18330174D02*
X10767801Y-18377793D01*
X10767801Y-18377793D02*
X10758277Y-18415889D01*
X10758277Y-18415889D02*
X10748753Y-18434936D01*
X10748753Y-18434936D02*
X10739229Y-18444460D01*
X10739229Y-18444460D02*
X10720182Y-18453984D01*
X10720182Y-18453984D02*
X10701134Y-18453984D01*
X10701134Y-18453984D02*
X10682087Y-18444460D01*
X10682087Y-18444460D02*
X10672563Y-18434936D01*
X10672563Y-18434936D02*
X10663039Y-18415889D01*
X10663039Y-18415889D02*
X10653515Y-18377793D01*
X10653515Y-18377793D02*
X10653515Y-18330174D01*
X10653515Y-18330174D02*
X10663039Y-18292079D01*
X10663039Y-18292079D02*
X10672563Y-18273031D01*
X10672563Y-18273031D02*
X10682087Y-18263508D01*
X10682087Y-18263508D02*
X10701134Y-18253984D01*
X10853515Y-18434936D02*
X10863039Y-18444460D01*
X10863039Y-18444460D02*
X10853515Y-18453984D01*
X10853515Y-18453984D02*
X10843991Y-18444460D01*
X10843991Y-18444460D02*
X10853515Y-18434936D01*
X10853515Y-18434936D02*
X10853515Y-18453984D01*
X10986848Y-18253984D02*
X11005896Y-18253984D01*
X11005896Y-18253984D02*
X11024944Y-18263508D01*
X11024944Y-18263508D02*
X11034468Y-18273031D01*
X11034468Y-18273031D02*
X11043991Y-18292079D01*
X11043991Y-18292079D02*
X11053515Y-18330174D01*
X11053515Y-18330174D02*
X11053515Y-18377793D01*
X11053515Y-18377793D02*
X11043991Y-18415889D01*
X11043991Y-18415889D02*
X11034468Y-18434936D01*
X11034468Y-18434936D02*
X11024944Y-18444460D01*
X11024944Y-18444460D02*
X11005896Y-18453984D01*
X11005896Y-18453984D02*
X10986848Y-18453984D01*
X10986848Y-18453984D02*
X10967801Y-18444460D01*
X10967801Y-18444460D02*
X10958277Y-18434936D01*
X10958277Y-18434936D02*
X10948753Y-18415889D01*
X10948753Y-18415889D02*
X10939229Y-18377793D01*
X10939229Y-18377793D02*
X10939229Y-18330174D01*
X10939229Y-18330174D02*
X10948753Y-18292079D01*
X10948753Y-18292079D02*
X10958277Y-18273031D01*
X10958277Y-18273031D02*
X10967801Y-18263508D01*
X10967801Y-18263508D02*
X10986848Y-18253984D01*
X11224944Y-18320650D02*
X11224944Y-18453984D01*
X11177325Y-18244460D02*
X11129706Y-18387317D01*
X11129706Y-18387317D02*
X11253515Y-18387317D01*
X11310658Y-18253984D02*
X11434467Y-18253984D01*
X11434467Y-18253984D02*
X11367801Y-18330174D01*
X11367801Y-18330174D02*
X11396372Y-18330174D01*
X11396372Y-18330174D02*
X11415420Y-18339698D01*
X11415420Y-18339698D02*
X11424944Y-18349222D01*
X11424944Y-18349222D02*
X11434467Y-18368270D01*
X11434467Y-18368270D02*
X11434467Y-18415889D01*
X11434467Y-18415889D02*
X11424944Y-18434936D01*
X11424944Y-18434936D02*
X11415420Y-18444460D01*
X11415420Y-18444460D02*
X11396372Y-18453984D01*
X11396372Y-18453984D02*
X11339229Y-18453984D01*
X11339229Y-18453984D02*
X11320182Y-18444460D01*
X11320182Y-18444460D02*
X11310658Y-18434936D01*
X11501134Y-18253984D02*
X11624944Y-18253984D01*
X11624944Y-18253984D02*
X11558277Y-18330174D01*
X11558277Y-18330174D02*
X11586848Y-18330174D01*
X11586848Y-18330174D02*
X11605896Y-18339698D01*
X11605896Y-18339698D02*
X11615420Y-18349222D01*
X11615420Y-18349222D02*
X11624944Y-18368270D01*
X11624944Y-18368270D02*
X11624944Y-18415889D01*
X11624944Y-18415889D02*
X11615420Y-18434936D01*
X11615420Y-18434936D02*
X11605896Y-18444460D01*
X11605896Y-18444460D02*
X11586848Y-18453984D01*
X11586848Y-18453984D02*
X11529706Y-18453984D01*
X11529706Y-18453984D02*
X11510658Y-18444460D01*
X11510658Y-18444460D02*
X11501134Y-18434936D01*
X11701134Y-18253984D02*
X11701134Y-18292079D01*
X11777325Y-18253984D02*
X11777325Y-18292079D01*
X12072563Y-18530174D02*
X12063039Y-18520650D01*
X12063039Y-18520650D02*
X12043991Y-18492079D01*
X12043991Y-18492079D02*
X12034468Y-18473031D01*
X12034468Y-18473031D02*
X12024944Y-18444460D01*
X12024944Y-18444460D02*
X12015420Y-18396841D01*
X12015420Y-18396841D02*
X12015420Y-18358746D01*
X12015420Y-18358746D02*
X12024944Y-18311127D01*
X12024944Y-18311127D02*
X12034468Y-18282555D01*
X12034468Y-18282555D02*
X12043991Y-18263508D01*
X12043991Y-18263508D02*
X12063039Y-18234936D01*
X12063039Y-18234936D02*
X12072563Y-18225412D01*
X12234468Y-18320650D02*
X12234468Y-18453984D01*
X12186848Y-18244460D02*
X12139229Y-18387317D01*
X12139229Y-18387317D02*
X12263039Y-18387317D01*
X12491610Y-18453984D02*
X12491610Y-18253984D01*
X12577325Y-18453984D02*
X12577325Y-18349222D01*
X12577325Y-18349222D02*
X12567801Y-18330174D01*
X12567801Y-18330174D02*
X12548753Y-18320650D01*
X12548753Y-18320650D02*
X12520182Y-18320650D01*
X12520182Y-18320650D02*
X12501134Y-18330174D01*
X12501134Y-18330174D02*
X12491610Y-18339698D01*
X12701134Y-18453984D02*
X12682087Y-18444460D01*
X12682087Y-18444460D02*
X12672563Y-18434936D01*
X12672563Y-18434936D02*
X12663039Y-18415889D01*
X12663039Y-18415889D02*
X12663039Y-18358746D01*
X12663039Y-18358746D02*
X12672563Y-18339698D01*
X12672563Y-18339698D02*
X12682087Y-18330174D01*
X12682087Y-18330174D02*
X12701134Y-18320650D01*
X12701134Y-18320650D02*
X12729706Y-18320650D01*
X12729706Y-18320650D02*
X12748753Y-18330174D01*
X12748753Y-18330174D02*
X12758277Y-18339698D01*
X12758277Y-18339698D02*
X12767801Y-18358746D01*
X12767801Y-18358746D02*
X12767801Y-18415889D01*
X12767801Y-18415889D02*
X12758277Y-18434936D01*
X12758277Y-18434936D02*
X12748753Y-18444460D01*
X12748753Y-18444460D02*
X12729706Y-18453984D01*
X12729706Y-18453984D02*
X12701134Y-18453984D01*
X12882087Y-18453984D02*
X12863039Y-18444460D01*
X12863039Y-18444460D02*
X12853515Y-18425412D01*
X12853515Y-18425412D02*
X12853515Y-18253984D01*
X13034468Y-18444460D02*
X13015420Y-18453984D01*
X13015420Y-18453984D02*
X12977325Y-18453984D01*
X12977325Y-18453984D02*
X12958277Y-18444460D01*
X12958277Y-18444460D02*
X12948753Y-18425412D01*
X12948753Y-18425412D02*
X12948753Y-18349222D01*
X12948753Y-18349222D02*
X12958277Y-18330174D01*
X12958277Y-18330174D02*
X12977325Y-18320650D01*
X12977325Y-18320650D02*
X13015420Y-18320650D01*
X13015420Y-18320650D02*
X13034468Y-18330174D01*
X13034468Y-18330174D02*
X13043991Y-18349222D01*
X13043991Y-18349222D02*
X13043991Y-18368270D01*
X13043991Y-18368270D02*
X12948753Y-18387317D01*
X13120182Y-18444460D02*
X13139230Y-18453984D01*
X13139230Y-18453984D02*
X13177325Y-18453984D01*
X13177325Y-18453984D02*
X13196372Y-18444460D01*
X13196372Y-18444460D02*
X13205896Y-18425412D01*
X13205896Y-18425412D02*
X13205896Y-18415889D01*
X13205896Y-18415889D02*
X13196372Y-18396841D01*
X13196372Y-18396841D02*
X13177325Y-18387317D01*
X13177325Y-18387317D02*
X13148753Y-18387317D01*
X13148753Y-18387317D02*
X13129706Y-18377793D01*
X13129706Y-18377793D02*
X13120182Y-18358746D01*
X13120182Y-18358746D02*
X13120182Y-18349222D01*
X13120182Y-18349222D02*
X13129706Y-18330174D01*
X13129706Y-18330174D02*
X13148753Y-18320650D01*
X13148753Y-18320650D02*
X13177325Y-18320650D01*
X13177325Y-18320650D02*
X13196372Y-18330174D01*
X13272563Y-18530174D02*
X13282087Y-18520650D01*
X13282087Y-18520650D02*
X13301134Y-18492079D01*
X13301134Y-18492079D02*
X13310658Y-18473031D01*
X13310658Y-18473031D02*
X13320182Y-18444460D01*
X13320182Y-18444460D02*
X13329706Y-18396841D01*
X13329706Y-18396841D02*
X13329706Y-18358746D01*
X13329706Y-18358746D02*
X13320182Y-18311127D01*
X13320182Y-18311127D02*
X13310658Y-18282555D01*
X13310658Y-18282555D02*
X13301134Y-18263508D01*
X13301134Y-18263508D02*
X13282087Y-18234936D01*
X13282087Y-18234936D02*
X13272563Y-18225412D01*
D14*
X8377500Y-18566500D02*
X8497500Y-18686500D01*
X8497500Y-18566500D02*
X8377500Y-18686500D01*
X8437500Y-18566500D02*
X8437500Y-18686500D01*
X8377500Y-18626500D02*
X8497500Y-18626500D01*
D11*
X8863039Y-18717984D02*
X8748753Y-18717984D01*
X8805896Y-18717984D02*
X8805896Y-18517984D01*
X8805896Y-18517984D02*
X8786848Y-18546555D01*
X8786848Y-18546555D02*
X8767801Y-18565603D01*
X8767801Y-18565603D02*
X8748753Y-18575127D01*
X8948753Y-18698936D02*
X8958277Y-18708460D01*
X8958277Y-18708460D02*
X8948753Y-18717984D01*
X8948753Y-18717984D02*
X8939229Y-18708460D01*
X8939229Y-18708460D02*
X8948753Y-18698936D01*
X8948753Y-18698936D02*
X8948753Y-18717984D01*
X9034467Y-18537031D02*
X9043991Y-18527508D01*
X9043991Y-18527508D02*
X9063039Y-18517984D01*
X9063039Y-18517984D02*
X9110658Y-18517984D01*
X9110658Y-18517984D02*
X9129705Y-18527508D01*
X9129705Y-18527508D02*
X9139229Y-18537031D01*
X9139229Y-18537031D02*
X9148753Y-18556079D01*
X9148753Y-18556079D02*
X9148753Y-18575127D01*
X9148753Y-18575127D02*
X9139229Y-18603698D01*
X9139229Y-18603698D02*
X9024944Y-18717984D01*
X9024944Y-18717984D02*
X9148753Y-18717984D01*
X9272563Y-18517984D02*
X9291610Y-18517984D01*
X9291610Y-18517984D02*
X9310658Y-18527508D01*
X9310658Y-18527508D02*
X9320182Y-18537031D01*
X9320182Y-18537031D02*
X9329705Y-18556079D01*
X9329705Y-18556079D02*
X9339229Y-18594174D01*
X9339229Y-18594174D02*
X9339229Y-18641793D01*
X9339229Y-18641793D02*
X9329705Y-18679889D01*
X9329705Y-18679889D02*
X9320182Y-18698936D01*
X9320182Y-18698936D02*
X9310658Y-18708460D01*
X9310658Y-18708460D02*
X9291610Y-18717984D01*
X9291610Y-18717984D02*
X9272563Y-18717984D01*
X9272563Y-18717984D02*
X9253515Y-18708460D01*
X9253515Y-18708460D02*
X9243991Y-18698936D01*
X9243991Y-18698936D02*
X9234467Y-18679889D01*
X9234467Y-18679889D02*
X9224944Y-18641793D01*
X9224944Y-18641793D02*
X9224944Y-18594174D01*
X9224944Y-18594174D02*
X9234467Y-18556079D01*
X9234467Y-18556079D02*
X9243991Y-18537031D01*
X9243991Y-18537031D02*
X9253515Y-18527508D01*
X9253515Y-18527508D02*
X9272563Y-18517984D01*
X9463039Y-18517984D02*
X9482086Y-18517984D01*
X9482086Y-18517984D02*
X9501134Y-18527508D01*
X9501134Y-18527508D02*
X9510658Y-18537031D01*
X9510658Y-18537031D02*
X9520182Y-18556079D01*
X9520182Y-18556079D02*
X9529705Y-18594174D01*
X9529705Y-18594174D02*
X9529705Y-18641793D01*
X9529705Y-18641793D02*
X9520182Y-18679889D01*
X9520182Y-18679889D02*
X9510658Y-18698936D01*
X9510658Y-18698936D02*
X9501134Y-18708460D01*
X9501134Y-18708460D02*
X9482086Y-18717984D01*
X9482086Y-18717984D02*
X9463039Y-18717984D01*
X9463039Y-18717984D02*
X9443991Y-18708460D01*
X9443991Y-18708460D02*
X9434467Y-18698936D01*
X9434467Y-18698936D02*
X9424944Y-18679889D01*
X9424944Y-18679889D02*
X9415420Y-18641793D01*
X9415420Y-18641793D02*
X9415420Y-18594174D01*
X9415420Y-18594174D02*
X9424944Y-18556079D01*
X9424944Y-18556079D02*
X9434467Y-18537031D01*
X9434467Y-18537031D02*
X9443991Y-18527508D01*
X9443991Y-18527508D02*
X9463039Y-18517984D01*
X9615420Y-18717984D02*
X9615420Y-18584650D01*
X9615420Y-18603698D02*
X9624944Y-18594174D01*
X9624944Y-18594174D02*
X9643991Y-18584650D01*
X9643991Y-18584650D02*
X9672563Y-18584650D01*
X9672563Y-18584650D02*
X9691610Y-18594174D01*
X9691610Y-18594174D02*
X9701134Y-18613222D01*
X9701134Y-18613222D02*
X9701134Y-18717984D01*
X9701134Y-18613222D02*
X9710658Y-18594174D01*
X9710658Y-18594174D02*
X9729705Y-18584650D01*
X9729705Y-18584650D02*
X9758277Y-18584650D01*
X9758277Y-18584650D02*
X9777325Y-18594174D01*
X9777325Y-18594174D02*
X9786848Y-18613222D01*
X9786848Y-18613222D02*
X9786848Y-18717984D01*
X9882086Y-18717984D02*
X9882086Y-18584650D01*
X9882086Y-18603698D02*
X9891610Y-18594174D01*
X9891610Y-18594174D02*
X9910658Y-18584650D01*
X9910658Y-18584650D02*
X9939229Y-18584650D01*
X9939229Y-18584650D02*
X9958277Y-18594174D01*
X9958277Y-18594174D02*
X9967801Y-18613222D01*
X9967801Y-18613222D02*
X9967801Y-18717984D01*
X9967801Y-18613222D02*
X9977325Y-18594174D01*
X9977325Y-18594174D02*
X9996372Y-18584650D01*
X9996372Y-18584650D02*
X10024944Y-18584650D01*
X10024944Y-18584650D02*
X10043991Y-18594174D01*
X10043991Y-18594174D02*
X10053515Y-18613222D01*
X10053515Y-18613222D02*
X10053515Y-18717984D01*
X10443991Y-18508460D02*
X10272563Y-18765603D01*
X10701134Y-18517984D02*
X10720182Y-18517984D01*
X10720182Y-18517984D02*
X10739229Y-18527508D01*
X10739229Y-18527508D02*
X10748753Y-18537031D01*
X10748753Y-18537031D02*
X10758277Y-18556079D01*
X10758277Y-18556079D02*
X10767801Y-18594174D01*
X10767801Y-18594174D02*
X10767801Y-18641793D01*
X10767801Y-18641793D02*
X10758277Y-18679889D01*
X10758277Y-18679889D02*
X10748753Y-18698936D01*
X10748753Y-18698936D02*
X10739229Y-18708460D01*
X10739229Y-18708460D02*
X10720182Y-18717984D01*
X10720182Y-18717984D02*
X10701134Y-18717984D01*
X10701134Y-18717984D02*
X10682087Y-18708460D01*
X10682087Y-18708460D02*
X10672563Y-18698936D01*
X10672563Y-18698936D02*
X10663039Y-18679889D01*
X10663039Y-18679889D02*
X10653515Y-18641793D01*
X10653515Y-18641793D02*
X10653515Y-18594174D01*
X10653515Y-18594174D02*
X10663039Y-18556079D01*
X10663039Y-18556079D02*
X10672563Y-18537031D01*
X10672563Y-18537031D02*
X10682087Y-18527508D01*
X10682087Y-18527508D02*
X10701134Y-18517984D01*
X10853515Y-18698936D02*
X10863039Y-18708460D01*
X10863039Y-18708460D02*
X10853515Y-18717984D01*
X10853515Y-18717984D02*
X10843991Y-18708460D01*
X10843991Y-18708460D02*
X10853515Y-18698936D01*
X10853515Y-18698936D02*
X10853515Y-18717984D01*
X10986848Y-18517984D02*
X11005896Y-18517984D01*
X11005896Y-18517984D02*
X11024944Y-18527508D01*
X11024944Y-18527508D02*
X11034468Y-18537031D01*
X11034468Y-18537031D02*
X11043991Y-18556079D01*
X11043991Y-18556079D02*
X11053515Y-18594174D01*
X11053515Y-18594174D02*
X11053515Y-18641793D01*
X11053515Y-18641793D02*
X11043991Y-18679889D01*
X11043991Y-18679889D02*
X11034468Y-18698936D01*
X11034468Y-18698936D02*
X11024944Y-18708460D01*
X11024944Y-18708460D02*
X11005896Y-18717984D01*
X11005896Y-18717984D02*
X10986848Y-18717984D01*
X10986848Y-18717984D02*
X10967801Y-18708460D01*
X10967801Y-18708460D02*
X10958277Y-18698936D01*
X10958277Y-18698936D02*
X10948753Y-18679889D01*
X10948753Y-18679889D02*
X10939229Y-18641793D01*
X10939229Y-18641793D02*
X10939229Y-18594174D01*
X10939229Y-18594174D02*
X10948753Y-18556079D01*
X10948753Y-18556079D02*
X10958277Y-18537031D01*
X10958277Y-18537031D02*
X10967801Y-18527508D01*
X10967801Y-18527508D02*
X10986848Y-18517984D01*
X11224944Y-18584650D02*
X11224944Y-18717984D01*
X11177325Y-18508460D02*
X11129706Y-18651317D01*
X11129706Y-18651317D02*
X11253515Y-18651317D01*
X11310658Y-18517984D02*
X11443991Y-18517984D01*
X11443991Y-18517984D02*
X11358277Y-18717984D01*
X11510658Y-18537031D02*
X11520182Y-18527508D01*
X11520182Y-18527508D02*
X11539229Y-18517984D01*
X11539229Y-18517984D02*
X11586848Y-18517984D01*
X11586848Y-18517984D02*
X11605896Y-18527508D01*
X11605896Y-18527508D02*
X11615420Y-18537031D01*
X11615420Y-18537031D02*
X11624944Y-18556079D01*
X11624944Y-18556079D02*
X11624944Y-18575127D01*
X11624944Y-18575127D02*
X11615420Y-18603698D01*
X11615420Y-18603698D02*
X11501134Y-18717984D01*
X11501134Y-18717984D02*
X11624944Y-18717984D01*
X11701134Y-18517984D02*
X11701134Y-18556079D01*
X11777325Y-18517984D02*
X11777325Y-18556079D01*
X12072563Y-18794174D02*
X12063039Y-18784650D01*
X12063039Y-18784650D02*
X12043991Y-18756079D01*
X12043991Y-18756079D02*
X12034468Y-18737031D01*
X12034468Y-18737031D02*
X12024944Y-18708460D01*
X12024944Y-18708460D02*
X12015420Y-18660841D01*
X12015420Y-18660841D02*
X12015420Y-18622746D01*
X12015420Y-18622746D02*
X12024944Y-18575127D01*
X12024944Y-18575127D02*
X12034468Y-18546555D01*
X12034468Y-18546555D02*
X12043991Y-18527508D01*
X12043991Y-18527508D02*
X12063039Y-18498936D01*
X12063039Y-18498936D02*
X12072563Y-18489412D01*
X12139229Y-18537031D02*
X12148753Y-18527508D01*
X12148753Y-18527508D02*
X12167801Y-18517984D01*
X12167801Y-18517984D02*
X12215420Y-18517984D01*
X12215420Y-18517984D02*
X12234468Y-18527508D01*
X12234468Y-18527508D02*
X12243991Y-18537031D01*
X12243991Y-18537031D02*
X12253515Y-18556079D01*
X12253515Y-18556079D02*
X12253515Y-18575127D01*
X12253515Y-18575127D02*
X12243991Y-18603698D01*
X12243991Y-18603698D02*
X12129706Y-18717984D01*
X12129706Y-18717984D02*
X12253515Y-18717984D01*
X12491610Y-18717984D02*
X12491610Y-18517984D01*
X12577325Y-18717984D02*
X12577325Y-18613222D01*
X12577325Y-18613222D02*
X12567801Y-18594174D01*
X12567801Y-18594174D02*
X12548753Y-18584650D01*
X12548753Y-18584650D02*
X12520182Y-18584650D01*
X12520182Y-18584650D02*
X12501134Y-18594174D01*
X12501134Y-18594174D02*
X12491610Y-18603698D01*
X12701134Y-18717984D02*
X12682087Y-18708460D01*
X12682087Y-18708460D02*
X12672563Y-18698936D01*
X12672563Y-18698936D02*
X12663039Y-18679889D01*
X12663039Y-18679889D02*
X12663039Y-18622746D01*
X12663039Y-18622746D02*
X12672563Y-18603698D01*
X12672563Y-18603698D02*
X12682087Y-18594174D01*
X12682087Y-18594174D02*
X12701134Y-18584650D01*
X12701134Y-18584650D02*
X12729706Y-18584650D01*
X12729706Y-18584650D02*
X12748753Y-18594174D01*
X12748753Y-18594174D02*
X12758277Y-18603698D01*
X12758277Y-18603698D02*
X12767801Y-18622746D01*
X12767801Y-18622746D02*
X12767801Y-18679889D01*
X12767801Y-18679889D02*
X12758277Y-18698936D01*
X12758277Y-18698936D02*
X12748753Y-18708460D01*
X12748753Y-18708460D02*
X12729706Y-18717984D01*
X12729706Y-18717984D02*
X12701134Y-18717984D01*
X12882087Y-18717984D02*
X12863039Y-18708460D01*
X12863039Y-18708460D02*
X12853515Y-18689412D01*
X12853515Y-18689412D02*
X12853515Y-18517984D01*
X13034468Y-18708460D02*
X13015420Y-18717984D01*
X13015420Y-18717984D02*
X12977325Y-18717984D01*
X12977325Y-18717984D02*
X12958277Y-18708460D01*
X12958277Y-18708460D02*
X12948753Y-18689412D01*
X12948753Y-18689412D02*
X12948753Y-18613222D01*
X12948753Y-18613222D02*
X12958277Y-18594174D01*
X12958277Y-18594174D02*
X12977325Y-18584650D01*
X12977325Y-18584650D02*
X13015420Y-18584650D01*
X13015420Y-18584650D02*
X13034468Y-18594174D01*
X13034468Y-18594174D02*
X13043991Y-18613222D01*
X13043991Y-18613222D02*
X13043991Y-18632270D01*
X13043991Y-18632270D02*
X12948753Y-18651317D01*
X13120182Y-18708460D02*
X13139230Y-18717984D01*
X13139230Y-18717984D02*
X13177325Y-18717984D01*
X13177325Y-18717984D02*
X13196372Y-18708460D01*
X13196372Y-18708460D02*
X13205896Y-18689412D01*
X13205896Y-18689412D02*
X13205896Y-18679889D01*
X13205896Y-18679889D02*
X13196372Y-18660841D01*
X13196372Y-18660841D02*
X13177325Y-18651317D01*
X13177325Y-18651317D02*
X13148753Y-18651317D01*
X13148753Y-18651317D02*
X13129706Y-18641793D01*
X13129706Y-18641793D02*
X13120182Y-18622746D01*
X13120182Y-18622746D02*
X13120182Y-18613222D01*
X13120182Y-18613222D02*
X13129706Y-18594174D01*
X13129706Y-18594174D02*
X13148753Y-18584650D01*
X13148753Y-18584650D02*
X13177325Y-18584650D01*
X13177325Y-18584650D02*
X13196372Y-18594174D01*
X13272563Y-18794174D02*
X13282087Y-18784650D01*
X13282087Y-18784650D02*
X13301134Y-18756079D01*
X13301134Y-18756079D02*
X13310658Y-18737031D01*
X13310658Y-18737031D02*
X13320182Y-18708460D01*
X13320182Y-18708460D02*
X13329706Y-18660841D01*
X13329706Y-18660841D02*
X13329706Y-18622746D01*
X13329706Y-18622746D02*
X13320182Y-18575127D01*
X13320182Y-18575127D02*
X13310658Y-18546555D01*
X13310658Y-18546555D02*
X13301134Y-18527508D01*
X13301134Y-18527508D02*
X13282087Y-18498936D01*
X13282087Y-18498936D02*
X13272563Y-18489412D01*
D15*
X8357500Y-18820500D02*
X8497500Y-18960500D01*
X8497500Y-18820500D02*
X8357500Y-18960500D01*
X8476998Y-18939998D02*
X8476998Y-18841002D01*
X8378002Y-18841002D01*
X8378002Y-18939998D01*
X8476998Y-18939998D01*
D11*
X8863039Y-18981984D02*
X8748753Y-18981984D01*
X8805896Y-18981984D02*
X8805896Y-18781984D01*
X8805896Y-18781984D02*
X8786848Y-18810555D01*
X8786848Y-18810555D02*
X8767801Y-18829603D01*
X8767801Y-18829603D02*
X8748753Y-18839127D01*
X8948753Y-18962936D02*
X8958277Y-18972460D01*
X8958277Y-18972460D02*
X8948753Y-18981984D01*
X8948753Y-18981984D02*
X8939229Y-18972460D01*
X8939229Y-18972460D02*
X8948753Y-18962936D01*
X8948753Y-18962936D02*
X8948753Y-18981984D01*
X9129705Y-18848650D02*
X9129705Y-18981984D01*
X9082086Y-18772460D02*
X9034467Y-18915317D01*
X9034467Y-18915317D02*
X9158277Y-18915317D01*
X9272563Y-18781984D02*
X9291610Y-18781984D01*
X9291610Y-18781984D02*
X9310658Y-18791508D01*
X9310658Y-18791508D02*
X9320182Y-18801031D01*
X9320182Y-18801031D02*
X9329705Y-18820079D01*
X9329705Y-18820079D02*
X9339229Y-18858174D01*
X9339229Y-18858174D02*
X9339229Y-18905793D01*
X9339229Y-18905793D02*
X9329705Y-18943889D01*
X9329705Y-18943889D02*
X9320182Y-18962936D01*
X9320182Y-18962936D02*
X9310658Y-18972460D01*
X9310658Y-18972460D02*
X9291610Y-18981984D01*
X9291610Y-18981984D02*
X9272563Y-18981984D01*
X9272563Y-18981984D02*
X9253515Y-18972460D01*
X9253515Y-18972460D02*
X9243991Y-18962936D01*
X9243991Y-18962936D02*
X9234467Y-18943889D01*
X9234467Y-18943889D02*
X9224944Y-18905793D01*
X9224944Y-18905793D02*
X9224944Y-18858174D01*
X9224944Y-18858174D02*
X9234467Y-18820079D01*
X9234467Y-18820079D02*
X9243991Y-18801031D01*
X9243991Y-18801031D02*
X9253515Y-18791508D01*
X9253515Y-18791508D02*
X9272563Y-18781984D01*
X9463039Y-18781984D02*
X9482086Y-18781984D01*
X9482086Y-18781984D02*
X9501134Y-18791508D01*
X9501134Y-18791508D02*
X9510658Y-18801031D01*
X9510658Y-18801031D02*
X9520182Y-18820079D01*
X9520182Y-18820079D02*
X9529705Y-18858174D01*
X9529705Y-18858174D02*
X9529705Y-18905793D01*
X9529705Y-18905793D02*
X9520182Y-18943889D01*
X9520182Y-18943889D02*
X9510658Y-18962936D01*
X9510658Y-18962936D02*
X9501134Y-18972460D01*
X9501134Y-18972460D02*
X9482086Y-18981984D01*
X9482086Y-18981984D02*
X9463039Y-18981984D01*
X9463039Y-18981984D02*
X9443991Y-18972460D01*
X9443991Y-18972460D02*
X9434467Y-18962936D01*
X9434467Y-18962936D02*
X9424944Y-18943889D01*
X9424944Y-18943889D02*
X9415420Y-18905793D01*
X9415420Y-18905793D02*
X9415420Y-18858174D01*
X9415420Y-18858174D02*
X9424944Y-18820079D01*
X9424944Y-18820079D02*
X9434467Y-18801031D01*
X9434467Y-18801031D02*
X9443991Y-18791508D01*
X9443991Y-18791508D02*
X9463039Y-18781984D01*
X9615420Y-18981984D02*
X9615420Y-18848650D01*
X9615420Y-18867698D02*
X9624944Y-18858174D01*
X9624944Y-18858174D02*
X9643991Y-18848650D01*
X9643991Y-18848650D02*
X9672563Y-18848650D01*
X9672563Y-18848650D02*
X9691610Y-18858174D01*
X9691610Y-18858174D02*
X9701134Y-18877222D01*
X9701134Y-18877222D02*
X9701134Y-18981984D01*
X9701134Y-18877222D02*
X9710658Y-18858174D01*
X9710658Y-18858174D02*
X9729705Y-18848650D01*
X9729705Y-18848650D02*
X9758277Y-18848650D01*
X9758277Y-18848650D02*
X9777325Y-18858174D01*
X9777325Y-18858174D02*
X9786848Y-18877222D01*
X9786848Y-18877222D02*
X9786848Y-18981984D01*
X9882086Y-18981984D02*
X9882086Y-18848650D01*
X9882086Y-18867698D02*
X9891610Y-18858174D01*
X9891610Y-18858174D02*
X9910658Y-18848650D01*
X9910658Y-18848650D02*
X9939229Y-18848650D01*
X9939229Y-18848650D02*
X9958277Y-18858174D01*
X9958277Y-18858174D02*
X9967801Y-18877222D01*
X9967801Y-18877222D02*
X9967801Y-18981984D01*
X9967801Y-18877222D02*
X9977325Y-18858174D01*
X9977325Y-18858174D02*
X9996372Y-18848650D01*
X9996372Y-18848650D02*
X10024944Y-18848650D01*
X10024944Y-18848650D02*
X10043991Y-18858174D01*
X10043991Y-18858174D02*
X10053515Y-18877222D01*
X10053515Y-18877222D02*
X10053515Y-18981984D01*
X10443991Y-18772460D02*
X10272563Y-19029603D01*
X10701134Y-18781984D02*
X10720182Y-18781984D01*
X10720182Y-18781984D02*
X10739229Y-18791508D01*
X10739229Y-18791508D02*
X10748753Y-18801031D01*
X10748753Y-18801031D02*
X10758277Y-18820079D01*
X10758277Y-18820079D02*
X10767801Y-18858174D01*
X10767801Y-18858174D02*
X10767801Y-18905793D01*
X10767801Y-18905793D02*
X10758277Y-18943889D01*
X10758277Y-18943889D02*
X10748753Y-18962936D01*
X10748753Y-18962936D02*
X10739229Y-18972460D01*
X10739229Y-18972460D02*
X10720182Y-18981984D01*
X10720182Y-18981984D02*
X10701134Y-18981984D01*
X10701134Y-18981984D02*
X10682087Y-18972460D01*
X10682087Y-18972460D02*
X10672563Y-18962936D01*
X10672563Y-18962936D02*
X10663039Y-18943889D01*
X10663039Y-18943889D02*
X10653515Y-18905793D01*
X10653515Y-18905793D02*
X10653515Y-18858174D01*
X10653515Y-18858174D02*
X10663039Y-18820079D01*
X10663039Y-18820079D02*
X10672563Y-18801031D01*
X10672563Y-18801031D02*
X10682087Y-18791508D01*
X10682087Y-18791508D02*
X10701134Y-18781984D01*
X10853515Y-18962936D02*
X10863039Y-18972460D01*
X10863039Y-18972460D02*
X10853515Y-18981984D01*
X10853515Y-18981984D02*
X10843991Y-18972460D01*
X10843991Y-18972460D02*
X10853515Y-18962936D01*
X10853515Y-18962936D02*
X10853515Y-18981984D01*
X10986848Y-18781984D02*
X11005896Y-18781984D01*
X11005896Y-18781984D02*
X11024944Y-18791508D01*
X11024944Y-18791508D02*
X11034468Y-18801031D01*
X11034468Y-18801031D02*
X11043991Y-18820079D01*
X11043991Y-18820079D02*
X11053515Y-18858174D01*
X11053515Y-18858174D02*
X11053515Y-18905793D01*
X11053515Y-18905793D02*
X11043991Y-18943889D01*
X11043991Y-18943889D02*
X11034468Y-18962936D01*
X11034468Y-18962936D02*
X11024944Y-18972460D01*
X11024944Y-18972460D02*
X11005896Y-18981984D01*
X11005896Y-18981984D02*
X10986848Y-18981984D01*
X10986848Y-18981984D02*
X10967801Y-18972460D01*
X10967801Y-18972460D02*
X10958277Y-18962936D01*
X10958277Y-18962936D02*
X10948753Y-18943889D01*
X10948753Y-18943889D02*
X10939229Y-18905793D01*
X10939229Y-18905793D02*
X10939229Y-18858174D01*
X10939229Y-18858174D02*
X10948753Y-18820079D01*
X10948753Y-18820079D02*
X10958277Y-18801031D01*
X10958277Y-18801031D02*
X10967801Y-18791508D01*
X10967801Y-18791508D02*
X10986848Y-18781984D01*
X11234467Y-18781984D02*
X11139229Y-18781984D01*
X11139229Y-18781984D02*
X11129706Y-18877222D01*
X11129706Y-18877222D02*
X11139229Y-18867698D01*
X11139229Y-18867698D02*
X11158277Y-18858174D01*
X11158277Y-18858174D02*
X11205896Y-18858174D01*
X11205896Y-18858174D02*
X11224944Y-18867698D01*
X11224944Y-18867698D02*
X11234467Y-18877222D01*
X11234467Y-18877222D02*
X11243991Y-18896270D01*
X11243991Y-18896270D02*
X11243991Y-18943889D01*
X11243991Y-18943889D02*
X11234467Y-18962936D01*
X11234467Y-18962936D02*
X11224944Y-18972460D01*
X11224944Y-18972460D02*
X11205896Y-18981984D01*
X11205896Y-18981984D02*
X11158277Y-18981984D01*
X11158277Y-18981984D02*
X11139229Y-18972460D01*
X11139229Y-18972460D02*
X11129706Y-18962936D01*
X11424944Y-18781984D02*
X11329706Y-18781984D01*
X11329706Y-18781984D02*
X11320182Y-18877222D01*
X11320182Y-18877222D02*
X11329706Y-18867698D01*
X11329706Y-18867698D02*
X11348753Y-18858174D01*
X11348753Y-18858174D02*
X11396372Y-18858174D01*
X11396372Y-18858174D02*
X11415420Y-18867698D01*
X11415420Y-18867698D02*
X11424944Y-18877222D01*
X11424944Y-18877222D02*
X11434467Y-18896270D01*
X11434467Y-18896270D02*
X11434467Y-18943889D01*
X11434467Y-18943889D02*
X11424944Y-18962936D01*
X11424944Y-18962936D02*
X11415420Y-18972460D01*
X11415420Y-18972460D02*
X11396372Y-18981984D01*
X11396372Y-18981984D02*
X11348753Y-18981984D01*
X11348753Y-18981984D02*
X11329706Y-18972460D01*
X11329706Y-18972460D02*
X11320182Y-18962936D01*
X11624944Y-18981984D02*
X11510658Y-18981984D01*
X11567801Y-18981984D02*
X11567801Y-18781984D01*
X11567801Y-18781984D02*
X11548753Y-18810555D01*
X11548753Y-18810555D02*
X11529706Y-18829603D01*
X11529706Y-18829603D02*
X11510658Y-18839127D01*
X11701134Y-18781984D02*
X11701134Y-18820079D01*
X11777325Y-18781984D02*
X11777325Y-18820079D01*
X12072563Y-19058174D02*
X12063039Y-19048650D01*
X12063039Y-19048650D02*
X12043991Y-19020079D01*
X12043991Y-19020079D02*
X12034468Y-19001031D01*
X12034468Y-19001031D02*
X12024944Y-18972460D01*
X12024944Y-18972460D02*
X12015420Y-18924841D01*
X12015420Y-18924841D02*
X12015420Y-18886746D01*
X12015420Y-18886746D02*
X12024944Y-18839127D01*
X12024944Y-18839127D02*
X12034468Y-18810555D01*
X12034468Y-18810555D02*
X12043991Y-18791508D01*
X12043991Y-18791508D02*
X12063039Y-18762936D01*
X12063039Y-18762936D02*
X12072563Y-18753412D01*
X12139229Y-18801031D02*
X12148753Y-18791508D01*
X12148753Y-18791508D02*
X12167801Y-18781984D01*
X12167801Y-18781984D02*
X12215420Y-18781984D01*
X12215420Y-18781984D02*
X12234468Y-18791508D01*
X12234468Y-18791508D02*
X12243991Y-18801031D01*
X12243991Y-18801031D02*
X12253515Y-18820079D01*
X12253515Y-18820079D02*
X12253515Y-18839127D01*
X12253515Y-18839127D02*
X12243991Y-18867698D01*
X12243991Y-18867698D02*
X12129706Y-18981984D01*
X12129706Y-18981984D02*
X12253515Y-18981984D01*
X12491610Y-18981984D02*
X12491610Y-18781984D01*
X12577325Y-18981984D02*
X12577325Y-18877222D01*
X12577325Y-18877222D02*
X12567801Y-18858174D01*
X12567801Y-18858174D02*
X12548753Y-18848650D01*
X12548753Y-18848650D02*
X12520182Y-18848650D01*
X12520182Y-18848650D02*
X12501134Y-18858174D01*
X12501134Y-18858174D02*
X12491610Y-18867698D01*
X12701134Y-18981984D02*
X12682087Y-18972460D01*
X12682087Y-18972460D02*
X12672563Y-18962936D01*
X12672563Y-18962936D02*
X12663039Y-18943889D01*
X12663039Y-18943889D02*
X12663039Y-18886746D01*
X12663039Y-18886746D02*
X12672563Y-18867698D01*
X12672563Y-18867698D02*
X12682087Y-18858174D01*
X12682087Y-18858174D02*
X12701134Y-18848650D01*
X12701134Y-18848650D02*
X12729706Y-18848650D01*
X12729706Y-18848650D02*
X12748753Y-18858174D01*
X12748753Y-18858174D02*
X12758277Y-18867698D01*
X12758277Y-18867698D02*
X12767801Y-18886746D01*
X12767801Y-18886746D02*
X12767801Y-18943889D01*
X12767801Y-18943889D02*
X12758277Y-18962936D01*
X12758277Y-18962936D02*
X12748753Y-18972460D01*
X12748753Y-18972460D02*
X12729706Y-18981984D01*
X12729706Y-18981984D02*
X12701134Y-18981984D01*
X12882087Y-18981984D02*
X12863039Y-18972460D01*
X12863039Y-18972460D02*
X12853515Y-18953412D01*
X12853515Y-18953412D02*
X12853515Y-18781984D01*
X13034468Y-18972460D02*
X13015420Y-18981984D01*
X13015420Y-18981984D02*
X12977325Y-18981984D01*
X12977325Y-18981984D02*
X12958277Y-18972460D01*
X12958277Y-18972460D02*
X12948753Y-18953412D01*
X12948753Y-18953412D02*
X12948753Y-18877222D01*
X12948753Y-18877222D02*
X12958277Y-18858174D01*
X12958277Y-18858174D02*
X12977325Y-18848650D01*
X12977325Y-18848650D02*
X13015420Y-18848650D01*
X13015420Y-18848650D02*
X13034468Y-18858174D01*
X13034468Y-18858174D02*
X13043991Y-18877222D01*
X13043991Y-18877222D02*
X13043991Y-18896270D01*
X13043991Y-18896270D02*
X12948753Y-18915317D01*
X13120182Y-18972460D02*
X13139230Y-18981984D01*
X13139230Y-18981984D02*
X13177325Y-18981984D01*
X13177325Y-18981984D02*
X13196372Y-18972460D01*
X13196372Y-18972460D02*
X13205896Y-18953412D01*
X13205896Y-18953412D02*
X13205896Y-18943889D01*
X13205896Y-18943889D02*
X13196372Y-18924841D01*
X13196372Y-18924841D02*
X13177325Y-18915317D01*
X13177325Y-18915317D02*
X13148753Y-18915317D01*
X13148753Y-18915317D02*
X13129706Y-18905793D01*
X13129706Y-18905793D02*
X13120182Y-18886746D01*
X13120182Y-18886746D02*
X13120182Y-18877222D01*
X13120182Y-18877222D02*
X13129706Y-18858174D01*
X13129706Y-18858174D02*
X13148753Y-18848650D01*
X13148753Y-18848650D02*
X13177325Y-18848650D01*
X13177325Y-18848650D02*
X13196372Y-18858174D01*
X13272563Y-19058174D02*
X13282087Y-19048650D01*
X13282087Y-19048650D02*
X13301134Y-19020079D01*
X13301134Y-19020079D02*
X13310658Y-19001031D01*
X13310658Y-19001031D02*
X13320182Y-18972460D01*
X13320182Y-18972460D02*
X13329706Y-18924841D01*
X13329706Y-18924841D02*
X13329706Y-18886746D01*
X13329706Y-18886746D02*
X13320182Y-18839127D01*
X13320182Y-18839127D02*
X13310658Y-18810555D01*
X13310658Y-18810555D02*
X13301134Y-18791508D01*
X13301134Y-18791508D02*
X13282087Y-18762936D01*
X13282087Y-18762936D02*
X13272563Y-18753412D01*
M02*
