%TF.GenerationSoftware,KiCad,Pcbnew,8.0.7*%
%TF.CreationDate,2025-01-01T13:33:22+01:00*%
%TF.ProjectId,termometer_kombo,7465726d-6f6d-4657-9465-725f6b6f6d62,rev?*%
%TF.SameCoordinates,Original*%
%TF.FileFunction,Paste,Top*%
%TF.FilePolarity,Positive*%
%FSLAX46Y46*%
G04 Gerber Fmt 4.6, Leading zero omitted, Abs format (unit mm)*
G04 Created by KiCad (PCBNEW 8.0.7) date 2025-01-01 13:33:22*
%MOMM*%
%LPD*%
G01*
G04 APERTURE LIST*
G04 Aperture macros list*
%AMRoundRect*
0 Rectangle with rounded corners*
0 $1 Rounding radius*
0 $2 $3 $4 $5 $6 $7 $8 $9 X,Y pos of 4 corners*
0 Add a 4 corners polygon primitive as box body*
4,1,4,$2,$3,$4,$5,$6,$7,$8,$9,$2,$3,0*
0 Add four circle primitives for the rounded corners*
1,1,$1+$1,$2,$3*
1,1,$1+$1,$4,$5*
1,1,$1+$1,$6,$7*
1,1,$1+$1,$8,$9*
0 Add four rect primitives between the rounded corners*
20,1,$1+$1,$2,$3,$4,$5,0*
20,1,$1+$1,$4,$5,$6,$7,0*
20,1,$1+$1,$6,$7,$8,$9,0*
20,1,$1+$1,$8,$9,$2,$3,0*%
G04 Aperture macros list end*
%ADD10RoundRect,0.250000X0.262500X0.450000X-0.262500X0.450000X-0.262500X-0.450000X0.262500X-0.450000X0*%
%ADD11RoundRect,0.250000X0.250000X0.475000X-0.250000X0.475000X-0.250000X-0.475000X0.250000X-0.475000X0*%
%ADD12RoundRect,0.250000X0.625000X-0.375000X0.625000X0.375000X-0.625000X0.375000X-0.625000X-0.375000X0*%
%ADD13RoundRect,0.250000X0.475000X-0.250000X0.475000X0.250000X-0.475000X0.250000X-0.475000X-0.250000X0*%
%ADD14RoundRect,0.250000X-0.450000X0.262500X-0.450000X-0.262500X0.450000X-0.262500X0.450000X0.262500X0*%
%ADD15RoundRect,0.100000X-0.100000X0.637500X-0.100000X-0.637500X0.100000X-0.637500X0.100000X0.637500X0*%
%ADD16RoundRect,0.150000X0.150000X-0.512500X0.150000X0.512500X-0.150000X0.512500X-0.150000X-0.512500X0*%
%ADD17RoundRect,0.250000X-0.262500X-0.450000X0.262500X-0.450000X0.262500X0.450000X-0.262500X0.450000X0*%
%ADD18R,1.300000X0.450000*%
G04 APERTURE END LIST*
D10*
%TO.C,R5*%
X110712500Y-90400000D03*
X108887500Y-90400000D03*
%TD*%
%TO.C,R1*%
X110712500Y-76500000D03*
X108887500Y-76500000D03*
%TD*%
D11*
%TO.C,C7*%
X110875000Y-135137500D03*
X108975000Y-135137500D03*
%TD*%
D10*
%TO.C,R4*%
X110712500Y-86900000D03*
X108887500Y-86900000D03*
%TD*%
D11*
%TO.C,C3*%
X110850000Y-137500000D03*
X108950000Y-137500000D03*
%TD*%
%TO.C,C4*%
X110850000Y-144287500D03*
X108950000Y-144287500D03*
%TD*%
D12*
%TO.C,F1*%
X107900000Y-159400000D03*
X107900000Y-156600000D03*
%TD*%
D13*
%TO.C,C6*%
X111900000Y-124950000D03*
X111900000Y-123050000D03*
%TD*%
D10*
%TO.C,R2*%
X110712500Y-80000000D03*
X108887500Y-80000000D03*
%TD*%
D14*
%TO.C,R7*%
X111100000Y-117237500D03*
X111100000Y-119062500D03*
%TD*%
D15*
%TO.C,U1*%
X114725000Y-127087500D03*
X114075000Y-127087500D03*
X113425000Y-127087500D03*
X112775000Y-127087500D03*
X112125000Y-127087500D03*
X111475000Y-127087500D03*
X110825000Y-127087500D03*
X110175000Y-127087500D03*
X109525000Y-127087500D03*
X108875000Y-127087500D03*
X108875000Y-132812500D03*
X109525000Y-132812500D03*
X110175000Y-132812500D03*
X110825000Y-132812500D03*
X111475000Y-132812500D03*
X112125000Y-132812500D03*
X112775000Y-132812500D03*
X113425000Y-132812500D03*
X114075000Y-132812500D03*
X114725000Y-132812500D03*
%TD*%
D14*
%TO.C,R9*%
X107700000Y-123087500D03*
X107700000Y-124912500D03*
%TD*%
D10*
%TO.C,R10*%
X114812500Y-76500000D03*
X112987500Y-76500000D03*
%TD*%
D16*
%TO.C,U2*%
X108950000Y-142062500D03*
X109900000Y-142062500D03*
X110850000Y-142062500D03*
X110850000Y-139787500D03*
X108950000Y-139787500D03*
%TD*%
D13*
%TO.C,C1*%
X111100000Y-115600000D03*
X111100000Y-113700000D03*
%TD*%
D17*
%TO.C,R8*%
X113287500Y-106600000D03*
X115112500Y-106600000D03*
%TD*%
D18*
%TO.C,J1*%
X111750000Y-156605000D03*
X111750000Y-155955000D03*
X111750000Y-155305000D03*
X111750000Y-154655000D03*
X111750000Y-154005000D03*
%TD*%
D14*
%TO.C,R11*%
X114900000Y-123087500D03*
X114900000Y-124912500D03*
%TD*%
D10*
%TO.C,R6*%
X110712500Y-93900000D03*
X108887500Y-93900000D03*
%TD*%
D13*
%TO.C,C5*%
X109800000Y-124950000D03*
X109800000Y-123050000D03*
%TD*%
D10*
%TO.C,R3*%
X110712500Y-83500000D03*
X108887500Y-83500000D03*
%TD*%
D13*
%TO.C,C2*%
X111100000Y-112100000D03*
X111100000Y-110200000D03*
%TD*%
M02*
