%TF.GenerationSoftware,KiCad,Pcbnew,8.0.7*%
%TF.CreationDate,2025-01-01T13:33:22+01:00*%
%TF.ProjectId,termometer_kombo,7465726d-6f6d-4657-9465-725f6b6f6d62,rev?*%
%TF.SameCoordinates,Original*%
%TF.FileFunction,Soldermask,Bot*%
%TF.FilePolarity,Negative*%
%FSLAX46Y46*%
G04 Gerber Fmt 4.6, Leading zero omitted, Abs format (unit mm)*
G04 Created by KiCad (PCBNEW 8.0.7) date 2025-01-01 13:33:22*
%MOMM*%
%LPD*%
G01*
G04 APERTURE LIST*
%ADD10R,1.800000X1.800000*%
%ADD11C,1.800000*%
%ADD12C,4.000000*%
%ADD13C,1.700000*%
%ADD14O,1.700000X1.700000*%
%ADD15C,1.500000*%
%ADD16C,2.000000*%
%ADD17R,1.050000X1.500000*%
%ADD18O,1.050000X1.500000*%
%ADD19C,0.800000*%
G04 APERTURE END LIST*
D10*
%TO.C,D26*%
X100230000Y-141068900D03*
D11*
X102770000Y-141068900D03*
%TD*%
D10*
%TO.C,D24*%
X100230000Y-132103400D03*
D11*
X102770000Y-132103400D03*
%TD*%
D10*
%TO.C,D1*%
X100230000Y-29000000D03*
D11*
X102770000Y-29000000D03*
%TD*%
D10*
%TO.C,D19*%
X100230000Y-109689600D03*
D11*
X102770000Y-109689600D03*
%TD*%
D10*
%TO.C,D7*%
X100230000Y-55896500D03*
D11*
X102770000Y-55896500D03*
%TD*%
D10*
%TO.C,D27*%
X100230000Y-145551700D03*
D11*
X102770000Y-145551700D03*
%TD*%
D10*
%TO.C,D11*%
X100230000Y-73827600D03*
D11*
X102770000Y-73827600D03*
%TD*%
D10*
%TO.C,D2*%
X100230000Y-33482800D03*
D11*
X102770000Y-33482800D03*
%TD*%
D10*
%TO.C,D3*%
X100230000Y-37965500D03*
D11*
X102770000Y-37965500D03*
%TD*%
D10*
%TO.C,D10*%
X100230000Y-69344800D03*
D11*
X102770000Y-69344800D03*
%TD*%
D10*
%TO.C,D30*%
X100230000Y-159000000D03*
D11*
X102770000Y-159000000D03*
%TD*%
D10*
%TO.C,D20*%
X100230000Y-114172400D03*
D11*
X102770000Y-114172400D03*
%TD*%
D12*
%TO.C,REF2*%
X92000000Y-155000000D03*
%TD*%
D10*
%TO.C,D14*%
X100230000Y-87275900D03*
D11*
X102770000Y-87275900D03*
%TD*%
D10*
%TO.C,D16*%
X100230000Y-96241400D03*
D11*
X102770000Y-96241400D03*
%TD*%
D10*
%TO.C,D15*%
X100230000Y-91758600D03*
D11*
X102770000Y-91758600D03*
%TD*%
D10*
%TO.C,D9*%
X100230000Y-64862100D03*
D11*
X102770000Y-64862100D03*
%TD*%
D13*
%TO.C,J2*%
X116000000Y-137400000D03*
D14*
X116000000Y-139940000D03*
X116000000Y-142480000D03*
X116000000Y-145020000D03*
%TD*%
D10*
%TO.C,D5*%
X100230000Y-46931000D03*
D11*
X102770000Y-46931000D03*
%TD*%
D10*
%TO.C,D4*%
X100230000Y-42448300D03*
D11*
X102770000Y-42448300D03*
%TD*%
D10*
%TO.C,D13*%
X100230000Y-82793100D03*
D11*
X102770000Y-82793100D03*
%TD*%
D10*
%TO.C,D6*%
X100230000Y-51413800D03*
D11*
X102770000Y-51413800D03*
%TD*%
D10*
%TO.C,D23*%
X100230000Y-127620700D03*
D11*
X102770000Y-127620700D03*
%TD*%
D15*
%TO.C,Y1*%
X114900000Y-111400000D03*
X114900000Y-116300000D03*
%TD*%
D10*
%TO.C,D18*%
X100230000Y-105206900D03*
D11*
X102770000Y-105206900D03*
%TD*%
D10*
%TO.C,D29*%
X100230000Y-154517200D03*
D11*
X102770000Y-154517200D03*
%TD*%
D10*
%TO.C,D22*%
X100230000Y-123137900D03*
D11*
X102770000Y-123137900D03*
%TD*%
D10*
%TO.C,D21*%
X100230000Y-118655200D03*
D11*
X102770000Y-118655200D03*
%TD*%
D16*
%TO.C,SW1*%
X115200000Y-102700000D03*
X108700000Y-102700000D03*
X115200000Y-98200000D03*
X108700000Y-98200000D03*
%TD*%
D17*
%TO.C,U3*%
X110730000Y-69200000D03*
D18*
X112000000Y-69200000D03*
X113270000Y-69200000D03*
%TD*%
D10*
%TO.C,D28*%
X100230000Y-150034500D03*
D11*
X102770000Y-150034500D03*
%TD*%
D12*
%TO.C,REF2*%
X92000000Y-130000000D03*
%TD*%
D19*
%TO.C,J1*%
X112850000Y-157805000D03*
X112850000Y-152805000D03*
D11*
X115600000Y-159180000D03*
D16*
X111800000Y-159030000D03*
X111800000Y-151580000D03*
D11*
X115600000Y-151430000D03*
%TD*%
D10*
%TO.C,D8*%
X100230000Y-60379300D03*
D11*
X102770000Y-60379300D03*
%TD*%
D10*
%TO.C,D17*%
X100230000Y-100724100D03*
D11*
X102770000Y-100724100D03*
%TD*%
D10*
%TO.C,D12*%
X100230000Y-78310300D03*
D11*
X102770000Y-78310300D03*
%TD*%
D10*
%TO.C,D25*%
X100230000Y-136586200D03*
D11*
X102770000Y-136586200D03*
%TD*%
M02*
