%TF.GenerationSoftware,KiCad,Pcbnew,8.0.7*%
%TF.CreationDate,2025-01-01T13:33:22+01:00*%
%TF.ProjectId,termometer_kombo,7465726d-6f6d-4657-9465-725f6b6f6d62,rev?*%
%TF.SameCoordinates,Original*%
%TF.FileFunction,Copper,L2,Bot*%
%TF.FilePolarity,Positive*%
%FSLAX46Y46*%
G04 Gerber Fmt 4.6, Leading zero omitted, Abs format (unit mm)*
G04 Created by KiCad (PCBNEW 8.0.7) date 2025-01-01 13:33:22*
%MOMM*%
%LPD*%
G01*
G04 APERTURE LIST*
%TA.AperFunction,ComponentPad*%
%ADD10R,1.800000X1.800000*%
%TD*%
%TA.AperFunction,ComponentPad*%
%ADD11C,1.800000*%
%TD*%
%TA.AperFunction,WasherPad*%
%ADD12C,4.000000*%
%TD*%
%TA.AperFunction,ComponentPad*%
%ADD13C,1.700000*%
%TD*%
%TA.AperFunction,ComponentPad*%
%ADD14O,1.700000X1.700000*%
%TD*%
%TA.AperFunction,ComponentPad*%
%ADD15C,1.500000*%
%TD*%
%TA.AperFunction,ComponentPad*%
%ADD16C,2.000000*%
%TD*%
%TA.AperFunction,ComponentPad*%
%ADD17R,1.050000X1.500000*%
%TD*%
%TA.AperFunction,ComponentPad*%
%ADD18O,1.050000X1.500000*%
%TD*%
%TA.AperFunction,ViaPad*%
%ADD19C,0.700000*%
%TD*%
%TA.AperFunction,Conductor*%
%ADD20C,0.200000*%
%TD*%
G04 APERTURE END LIST*
D10*
%TO.P,D26,1,K*%
%TO.N,Net-(D11-K)*%
X100230000Y-141068900D03*
D11*
%TO.P,D26,2,A*%
%TO.N,Net-(D10-A)*%
X102770000Y-141068900D03*
%TD*%
D10*
%TO.P,D24,1,K*%
%TO.N,Net-(D1-K)*%
X100230000Y-132103400D03*
D11*
%TO.P,D24,2,A*%
%TO.N,Net-(D13-A)*%
X102770000Y-132103400D03*
%TD*%
D10*
%TO.P,D1,1,K*%
%TO.N,Net-(D1-K)*%
X100230000Y-29000000D03*
D11*
%TO.P,D1,2,A*%
%TO.N,Net-(D1-A)*%
X102770000Y-29000000D03*
%TD*%
D10*
%TO.P,D19,1,K*%
%TO.N,Net-(D10-A)*%
X100230000Y-109689600D03*
D11*
%TO.P,D19,2,A*%
%TO.N,Net-(D13-A)*%
X102770000Y-109689600D03*
%TD*%
D10*
%TO.P,D7,1,K*%
%TO.N,Net-(D11-A)*%
X100230000Y-55896500D03*
D11*
%TO.P,D7,2,A*%
%TO.N,Net-(D1-A)*%
X102770000Y-55896500D03*
%TD*%
D10*
%TO.P,D27,1,K*%
%TO.N,Net-(D11-K)*%
X100230000Y-145551700D03*
D11*
%TO.P,D27,2,A*%
%TO.N,Net-(D13-A)*%
X102770000Y-145551700D03*
%TD*%
D10*
%TO.P,D11,1,K*%
%TO.N,Net-(D11-K)*%
X100230000Y-73827600D03*
D11*
%TO.P,D11,2,A*%
%TO.N,Net-(D11-A)*%
X102770000Y-73827600D03*
%TD*%
D10*
%TO.P,D2,1,K*%
%TO.N,Net-(D1-A)*%
X100230000Y-33482800D03*
D11*
%TO.P,D2,2,A*%
%TO.N,Net-(D1-K)*%
X102770000Y-33482800D03*
%TD*%
D10*
%TO.P,D3,1,K*%
%TO.N,Net-(D11-A)*%
X100230000Y-37965500D03*
D11*
%TO.P,D3,2,A*%
%TO.N,Net-(D1-K)*%
X102770000Y-37965500D03*
%TD*%
D10*
%TO.P,D10,1,K*%
%TO.N,Net-(D1-K)*%
X100230000Y-69344800D03*
D11*
%TO.P,D10,2,A*%
%TO.N,Net-(D10-A)*%
X102770000Y-69344800D03*
%TD*%
D10*
%TO.P,D30,1,K*%
%TO.N,Net-(D1-A)*%
X100230000Y-159000000D03*
D11*
%TO.P,D30,2,A*%
%TO.N,Net-(D13-A)*%
X102770000Y-159000000D03*
%TD*%
D10*
%TO.P,D20,1,K*%
%TO.N,Net-(D13-A)*%
X100230000Y-114172400D03*
D11*
%TO.P,D20,2,A*%
%TO.N,Net-(D10-A)*%
X102770000Y-114172400D03*
%TD*%
D12*
%TO.P,REF2,*%
%TO.N,*%
X92000000Y-155000000D03*
%TD*%
D10*
%TO.P,D14,1,K*%
%TO.N,Net-(D13-A)*%
X100230000Y-87275900D03*
D11*
%TO.P,D14,2,A*%
%TO.N,Net-(D11-A)*%
X102770000Y-87275900D03*
%TD*%
D10*
%TO.P,D16,1,K*%
%TO.N,Net-(D1-A)*%
X100230000Y-96241400D03*
D11*
%TO.P,D16,2,A*%
%TO.N,Net-(D10-A)*%
X102770000Y-96241400D03*
%TD*%
D10*
%TO.P,D15,1,K*%
%TO.N,Net-(D10-A)*%
X100230000Y-91758600D03*
D11*
%TO.P,D15,2,A*%
%TO.N,Net-(D1-A)*%
X102770000Y-91758600D03*
%TD*%
D10*
%TO.P,D9,1,K*%
%TO.N,Net-(D10-A)*%
X100230000Y-64862100D03*
D11*
%TO.P,D9,2,A*%
%TO.N,Net-(D1-K)*%
X102770000Y-64862100D03*
%TD*%
D13*
%TO.P,J2,1,Pin_1*%
%TO.N,+3.3V*%
X116000000Y-137400000D03*
D14*
%TO.P,J2,2,Pin_2*%
%TO.N,B*%
X116000000Y-139940000D03*
%TO.P,J2,3,Pin_3*%
%TO.N,RST*%
X116000000Y-142480000D03*
%TO.P,J2,4,Pin_4*%
%TO.N,GND*%
X116000000Y-145020000D03*
%TD*%
D10*
%TO.P,D5,1,K*%
%TO.N,Net-(D10-A)*%
X100230000Y-46931000D03*
D11*
%TO.P,D5,2,A*%
%TO.N,Net-(D11-A)*%
X102770000Y-46931000D03*
%TD*%
D10*
%TO.P,D4,1,K*%
%TO.N,Net-(D1-K)*%
X100230000Y-42448300D03*
D11*
%TO.P,D4,2,A*%
%TO.N,Net-(D11-A)*%
X102770000Y-42448300D03*
%TD*%
D10*
%TO.P,D13,1,K*%
%TO.N,Net-(D11-A)*%
X100230000Y-82793100D03*
D11*
%TO.P,D13,2,A*%
%TO.N,Net-(D13-A)*%
X102770000Y-82793100D03*
%TD*%
D10*
%TO.P,D6,1,K*%
%TO.N,Net-(D11-A)*%
X100230000Y-51413800D03*
D11*
%TO.P,D6,2,A*%
%TO.N,Net-(D10-A)*%
X102770000Y-51413800D03*
%TD*%
D10*
%TO.P,D23,1,K*%
%TO.N,Net-(D13-A)*%
X100230000Y-127620700D03*
D11*
%TO.P,D23,2,A*%
%TO.N,Net-(D1-K)*%
X102770000Y-127620700D03*
%TD*%
D15*
%TO.P,Y1,1,1*%
%TO.N,Net-(C2-Pad2)*%
X114900000Y-111400000D03*
%TO.P,Y1,2,2*%
%TO.N,Net-(U1-PF0)*%
X114900000Y-116300000D03*
%TD*%
D10*
%TO.P,D18,1,K*%
%TO.N,Net-(D1-K)*%
X100230000Y-105206900D03*
D11*
%TO.P,D18,2,A*%
%TO.N,Net-(D11-K)*%
X102770000Y-105206900D03*
%TD*%
D10*
%TO.P,D29,1,K*%
%TO.N,Net-(D13-A)*%
X100230000Y-154517200D03*
D11*
%TO.P,D29,2,A*%
%TO.N,Net-(D1-A)*%
X102770000Y-154517200D03*
%TD*%
D10*
%TO.P,D22,1,K*%
%TO.N,Net-(D1-A)*%
X100230000Y-123137900D03*
D11*
%TO.P,D22,2,A*%
%TO.N,Net-(D11-K)*%
X102770000Y-123137900D03*
%TD*%
D10*
%TO.P,D21,1,K*%
%TO.N,Net-(D11-K)*%
X100230000Y-118655200D03*
D11*
%TO.P,D21,2,A*%
%TO.N,Net-(D1-A)*%
X102770000Y-118655200D03*
%TD*%
D16*
%TO.P,SW1,1,A*%
%TO.N,GND*%
X115200000Y-102700000D03*
X108700000Y-102700000D03*
%TO.P,SW1,3,B*%
%TO.N,IO13*%
X115200000Y-98200000D03*
X108700000Y-98200000D03*
%TD*%
D17*
%TO.P,U3,1,GND*%
%TO.N,GND*%
X110730000Y-69200000D03*
D18*
%TO.P,U3,2,DQ*%
%TO.N,IO0*%
X112000000Y-69200000D03*
%TO.P,U3,3,V_{DD}*%
%TO.N,+3.3V*%
X113270000Y-69200000D03*
%TD*%
D10*
%TO.P,D28,1,K*%
%TO.N,Net-(D13-A)*%
X100230000Y-150034500D03*
D11*
%TO.P,D28,2,A*%
%TO.N,Net-(D11-K)*%
X102770000Y-150034500D03*
%TD*%
D12*
%TO.P,REF2,*%
%TO.N,*%
X92000000Y-130000000D03*
%TD*%
D11*
%TO.P,J1,6,Shield*%
%TO.N,GND*%
X115600000Y-159180000D03*
D16*
X111800000Y-159030000D03*
X111800000Y-151580000D03*
D11*
X115600000Y-151430000D03*
%TD*%
D10*
%TO.P,D8,1,K*%
%TO.N,Net-(D1-A)*%
X100230000Y-60379300D03*
D11*
%TO.P,D8,2,A*%
%TO.N,Net-(D11-A)*%
X102770000Y-60379300D03*
%TD*%
D10*
%TO.P,D17,1,K*%
%TO.N,Net-(D11-K)*%
X100230000Y-100724100D03*
D11*
%TO.P,D17,2,A*%
%TO.N,Net-(D1-K)*%
X102770000Y-100724100D03*
%TD*%
D10*
%TO.P,D12,1,K*%
%TO.N,Net-(D11-A)*%
X100230000Y-78310300D03*
D11*
%TO.P,D12,2,A*%
%TO.N,Net-(D11-K)*%
X102770000Y-78310300D03*
%TD*%
D10*
%TO.P,D25,1,K*%
%TO.N,Net-(D10-A)*%
X100230000Y-136586200D03*
D11*
%TO.P,D25,2,A*%
%TO.N,Net-(D11-K)*%
X102770000Y-136586200D03*
%TD*%
D19*
%TO.N,GND*%
X109931250Y-143368750D03*
X111475000Y-131500000D03*
X109900000Y-136300000D03*
X112275000Y-123900000D03*
X112540380Y-115959620D03*
X112600000Y-112500000D03*
X116200000Y-123087500D03*
%TO.N,Net-(D1-A)*%
X107600000Y-76500000D03*
%TO.N,IO6*%
X109536325Y-130989546D03*
X109450000Y-92500000D03*
%TO.N,IO5*%
X109400000Y-89000000D03*
X108875000Y-131600000D03*
%TO.N,IO4*%
X108875750Y-128880236D03*
X109850000Y-85500000D03*
%TO.N,IO1*%
X110700000Y-75100000D03*
X110825000Y-128200000D03*
%TO.N,IO2*%
X110650000Y-78600000D03*
X110175000Y-128880236D03*
%TO.N,IO3*%
X110250000Y-82100000D03*
X109525000Y-128200000D03*
%TO.N,IO0*%
X111480566Y-128880236D03*
%TO.N,B*%
X114725000Y-128200000D03*
%TO.N,IO13*%
X113300000Y-130900000D03*
%TD*%
D20*
%TO.N,GND*%
X110730000Y-69200000D02*
X110730000Y-64230000D01*
%TO.N,Net-(D1-A)*%
X102770000Y-91758600D02*
X103970000Y-90558600D01*
X103970000Y-85690157D02*
X101570000Y-83290157D01*
X100230000Y-31540000D02*
X102770000Y-29000000D01*
X100230000Y-33482800D02*
X100230000Y-31540000D01*
X101570000Y-82296043D02*
X102272943Y-81593100D01*
X100230000Y-60379300D02*
X102770000Y-57839300D01*
X102272943Y-81593100D02*
X102506900Y-81593100D01*
X100230000Y-123137900D02*
X102770000Y-120597900D01*
X102770000Y-55896500D02*
X103970000Y-54696500D01*
X100230000Y-159000000D02*
X102770000Y-156460000D01*
X102770000Y-57839300D02*
X102770000Y-55896500D01*
X101570000Y-83290157D02*
X101570000Y-82296043D01*
X102506900Y-81593100D02*
X107600000Y-76500000D01*
X103970000Y-30200000D02*
X102770000Y-29000000D01*
X103970000Y-90558600D02*
X103970000Y-85690157D01*
X102770000Y-156460000D02*
X102770000Y-154517200D01*
X103970000Y-54696500D02*
X103970000Y-30200000D01*
X102770000Y-120597900D02*
X102770000Y-118655200D01*
%TO.N,Net-(D10-A)*%
X100230000Y-46931000D02*
X99000000Y-48161000D01*
X100230000Y-109689600D02*
X102770000Y-112229600D01*
X102770000Y-96241400D02*
X102770000Y-94298600D01*
X98630000Y-66462100D02*
X100230000Y-64862100D01*
X99000000Y-108459600D02*
X100230000Y-109689600D01*
X98630000Y-111289600D02*
X100230000Y-109689600D01*
X102770000Y-49471000D02*
X100230000Y-46931000D01*
X99000000Y-48161000D02*
X99000000Y-63632100D01*
X100230000Y-136586200D02*
X98630000Y-134986200D01*
X99000000Y-63632100D02*
X100230000Y-64862100D01*
X98630000Y-90158600D02*
X98630000Y-66462100D01*
X100230000Y-91758600D02*
X99000000Y-92988600D01*
X98630000Y-134986200D02*
X98630000Y-111289600D01*
X102770000Y-94298600D02*
X100230000Y-91758600D01*
X102770000Y-67402100D02*
X102770000Y-69344800D01*
X102770000Y-51413800D02*
X102770000Y-49471000D01*
X102770000Y-112229600D02*
X102770000Y-114172400D01*
X99000000Y-92988600D02*
X99000000Y-108459600D01*
X100230000Y-64862100D02*
X102770000Y-67402100D01*
X100230000Y-91758600D02*
X98630000Y-90158600D01*
%TO.N,IO6*%
X109150000Y-130950000D02*
X109496779Y-130950000D01*
X107200000Y-129000000D02*
X109150000Y-130950000D01*
X109450000Y-92700000D02*
X107200000Y-94950000D01*
X107200000Y-94950000D02*
X107200000Y-129000000D01*
X109496779Y-130950000D02*
X109536325Y-130989546D01*
X109450000Y-92500000D02*
X109450000Y-92700000D01*
%TO.N,IO5*%
X106800000Y-129200000D02*
X108875000Y-131275000D01*
X108875000Y-131275000D02*
X108875000Y-131600000D01*
X109300000Y-89000000D02*
X106800000Y-91500000D01*
X106800000Y-91500000D02*
X106800000Y-129200000D01*
X109400000Y-89000000D02*
X109300000Y-89000000D01*
%TO.N,IO4*%
X110100000Y-121034314D02*
X110100000Y-85750000D01*
X108875750Y-128823280D02*
X108875000Y-128822530D01*
X110100000Y-85750000D02*
X109850000Y-85500000D01*
X108875000Y-122259314D02*
X110100000Y-121034314D01*
X108875000Y-128822530D02*
X108875000Y-122259314D01*
%TO.N,IO1*%
X110825000Y-122040075D02*
X111300000Y-121565075D01*
X111300000Y-121565075D02*
X111300000Y-75700000D01*
X110825000Y-128200000D02*
X110825000Y-122040075D01*
X111300000Y-75700000D02*
X110700000Y-75100000D01*
%TO.N,IO2*%
X110175000Y-128886346D02*
X110175000Y-122125000D01*
X110900000Y-78850000D02*
X110650000Y-78600000D01*
X110175000Y-122125000D02*
X110900000Y-121400000D01*
X110900000Y-121400000D02*
X110900000Y-78850000D01*
%TO.N,IO3*%
X110500000Y-121234314D02*
X110500000Y-82350000D01*
X109525000Y-128200000D02*
X109525000Y-122209314D01*
X109525000Y-122209314D02*
X110500000Y-121234314D01*
X110500000Y-82350000D02*
X110250000Y-82100000D01*
%TO.N,IO0*%
X111700000Y-69500000D02*
X112000000Y-69200000D01*
X111480566Y-128880236D02*
X111480566Y-123775195D01*
X111480566Y-123775195D02*
X111700000Y-123555761D01*
X111700000Y-123555761D02*
X111700000Y-69500000D01*
%TO.N,Net-(D1-K)*%
X102770000Y-129563400D02*
X102770000Y-127620700D01*
X102770000Y-100724100D02*
X102770000Y-102666900D01*
X100230000Y-132103400D02*
X102770000Y-129563400D01*
X102770000Y-102666900D02*
X100230000Y-105206900D01*
%TO.N,Net-(D11-A)*%
X100230000Y-78310300D02*
X102770000Y-75770300D01*
X102770000Y-75770300D02*
X102770000Y-73827600D01*
X102770000Y-42448300D02*
X102770000Y-40505500D01*
X102770000Y-85333100D02*
X100230000Y-82793100D01*
X102770000Y-87275900D02*
X102770000Y-85333100D01*
X102770000Y-40505500D02*
X100230000Y-37965500D01*
%TO.N,Net-(D11-K)*%
X103970000Y-96984100D02*
X100230000Y-100724100D01*
X102770000Y-148091700D02*
X100230000Y-145551700D01*
X101570000Y-90698600D02*
X101570000Y-92470000D01*
X102770000Y-138528900D02*
X102770000Y-136586200D01*
X100371400Y-89500000D02*
X101570000Y-90698600D01*
X99030000Y-73927600D02*
X99030000Y-88730000D01*
X100230000Y-145551700D02*
X100230000Y-141068900D01*
X103970000Y-135386200D02*
X102770000Y-136586200D01*
X102770000Y-150034500D02*
X102770000Y-148091700D01*
X100230000Y-73827600D02*
X99130000Y-73827600D01*
X101570000Y-92470000D02*
X103970000Y-94870000D01*
X103970000Y-94870000D02*
X103970000Y-96984100D01*
X99030000Y-88730000D02*
X99800000Y-89500000D01*
X100230000Y-141068900D02*
X102770000Y-138528900D01*
X99130000Y-73827600D02*
X99030000Y-73927600D01*
X103970000Y-124337900D02*
X103970000Y-135386200D01*
X102770000Y-123137900D02*
X103970000Y-124337900D01*
X99800000Y-89500000D02*
X100371400Y-89500000D01*
%TO.N,Net-(D13-A)*%
X104370000Y-108089600D02*
X102770000Y-109689600D01*
X99030000Y-115372400D02*
X99030000Y-126420700D01*
X100230000Y-114172400D02*
X99030000Y-115372400D01*
X99030000Y-126420700D02*
X100230000Y-127620700D01*
X102770000Y-82793100D02*
X104370000Y-84393100D01*
X104370000Y-84393100D02*
X104370000Y-108089600D01*
%TO.N,B*%
X114725000Y-128200000D02*
X114725000Y-138665000D01*
X114725000Y-138665000D02*
X116000000Y-139940000D01*
%TO.N,IO13*%
X113300000Y-100100000D02*
X115200000Y-98200000D01*
X113300000Y-130900000D02*
X113300000Y-100100000D01*
%TD*%
%TA.AperFunction,Conductor*%
%TO.N,GND*%
G36*
X107678502Y-98839403D02*
G01*
X107809019Y-99012236D01*
X107973438Y-99162124D01*
X108162599Y-99279247D01*
X108370060Y-99359618D01*
X108588757Y-99400500D01*
X108811243Y-99400500D01*
X109029940Y-99359618D01*
X109237401Y-99279247D01*
X109426562Y-99162124D01*
X109590981Y-99012236D01*
X109621498Y-98971824D01*
X109671652Y-98936783D01*
X109732827Y-98937914D01*
X109781654Y-98974786D01*
X109799500Y-99031487D01*
X109799500Y-101944872D01*
X109780593Y-102003063D01*
X109731093Y-102039027D01*
X109712201Y-102041351D01*
X109223787Y-102529764D01*
X109212518Y-102487708D01*
X109140110Y-102362292D01*
X109037708Y-102259890D01*
X108912292Y-102187482D01*
X108870232Y-102176211D01*
X109353326Y-101693118D01*
X109237186Y-101621206D01*
X109237180Y-101621203D01*
X109029799Y-101540863D01*
X108811196Y-101500000D01*
X108588804Y-101500000D01*
X108370200Y-101540863D01*
X108162821Y-101621202D01*
X108162816Y-101621205D01*
X108046672Y-101693118D01*
X108529766Y-102176212D01*
X108487708Y-102187482D01*
X108362292Y-102259890D01*
X108259890Y-102362292D01*
X108187482Y-102487708D01*
X108176212Y-102529766D01*
X107691137Y-102044691D01*
X107678505Y-102061420D01*
X107628350Y-102096464D01*
X107567175Y-102095335D01*
X107518347Y-102058463D01*
X107500500Y-102001761D01*
X107500500Y-98899066D01*
X107519407Y-98840875D01*
X107568907Y-98804911D01*
X107630093Y-98804911D01*
X107678502Y-98839403D01*
G37*
%TD.AperFunction*%
%TA.AperFunction,Conductor*%
G36*
X116109869Y-26519407D02*
G01*
X116121682Y-26529496D01*
X117470504Y-27878318D01*
X117498281Y-27932835D01*
X117499500Y-27948322D01*
X117499500Y-162051678D01*
X117480593Y-162109869D01*
X117470504Y-162121682D01*
X116121682Y-163470504D01*
X116067165Y-163498281D01*
X116051678Y-163499500D01*
X86948322Y-163499500D01*
X86890131Y-163480593D01*
X86878318Y-163470504D01*
X85529496Y-162121682D01*
X85501719Y-162067165D01*
X85500500Y-162051678D01*
X85500500Y-158080253D01*
X99129500Y-158080253D01*
X99129500Y-159919746D01*
X99129501Y-159919758D01*
X99141132Y-159978227D01*
X99141134Y-159978233D01*
X99185445Y-160044548D01*
X99185448Y-160044552D01*
X99251769Y-160088867D01*
X99296231Y-160097711D01*
X99310241Y-160100498D01*
X99310246Y-160100498D01*
X99310252Y-160100500D01*
X99310253Y-160100500D01*
X101149747Y-160100500D01*
X101149748Y-160100500D01*
X101208231Y-160088867D01*
X101274552Y-160044552D01*
X101318867Y-159978231D01*
X101330500Y-159919748D01*
X101330500Y-159000000D01*
X101664785Y-159000000D01*
X101683603Y-159203083D01*
X101739418Y-159399250D01*
X101830327Y-159581821D01*
X101953236Y-159744579D01*
X102103959Y-159881981D01*
X102277363Y-159989348D01*
X102467544Y-160063024D01*
X102668024Y-160100500D01*
X102871976Y-160100500D01*
X103072456Y-160063024D01*
X103262637Y-159989348D01*
X103436041Y-159881981D01*
X103586764Y-159744579D01*
X103709673Y-159581821D01*
X103800582Y-159399250D01*
X103856397Y-159203083D01*
X103872435Y-159030000D01*
X110594859Y-159030000D01*
X110615379Y-159251445D01*
X110676239Y-159465347D01*
X110775364Y-159664417D01*
X110775369Y-159664426D01*
X110791138Y-159685306D01*
X111160689Y-159315754D01*
X111179668Y-159361574D01*
X111256274Y-159476224D01*
X111353776Y-159573726D01*
X111468426Y-159650332D01*
X111514242Y-159669309D01*
X111146672Y-160036880D01*
X111262813Y-160108793D01*
X111262819Y-160108796D01*
X111470200Y-160189136D01*
X111688804Y-160230000D01*
X111911196Y-160230000D01*
X112129799Y-160189136D01*
X112337180Y-160108796D01*
X112337181Y-160108796D01*
X112453326Y-160036880D01*
X112085756Y-159669310D01*
X112131574Y-159650332D01*
X112246224Y-159573726D01*
X112343726Y-159476224D01*
X112420332Y-159361574D01*
X112439310Y-159315756D01*
X112808861Y-159685307D01*
X112824629Y-159664428D01*
X112824635Y-159664418D01*
X112923760Y-159465347D01*
X112984620Y-159251445D01*
X112991240Y-159180000D01*
X114495287Y-159180000D01*
X114514097Y-159382989D01*
X114569887Y-159579070D01*
X114660751Y-159761551D01*
X114662532Y-159763911D01*
X115035386Y-159391056D01*
X115040889Y-159411591D01*
X115119881Y-159548408D01*
X115231592Y-159660119D01*
X115368409Y-159739111D01*
X115388940Y-159744612D01*
X115019312Y-160114241D01*
X115107581Y-160168895D01*
X115107586Y-160168898D01*
X115297683Y-160242541D01*
X115498070Y-160280000D01*
X115701930Y-160280000D01*
X115902316Y-160242541D01*
X116092415Y-160168897D01*
X116092416Y-160168897D01*
X116180686Y-160114241D01*
X115811057Y-159744612D01*
X115831591Y-159739111D01*
X115968408Y-159660119D01*
X116080119Y-159548408D01*
X116159111Y-159411591D01*
X116164612Y-159391057D01*
X116537466Y-159763911D01*
X116539245Y-159761556D01*
X116539249Y-159761549D01*
X116630112Y-159579070D01*
X116685902Y-159382989D01*
X116704712Y-159180000D01*
X116685902Y-158977010D01*
X116630112Y-158780929D01*
X116539249Y-158598450D01*
X116539244Y-158598441D01*
X116537466Y-158596087D01*
X116164612Y-158968940D01*
X116159111Y-158948409D01*
X116080119Y-158811592D01*
X115968408Y-158699881D01*
X115831591Y-158620889D01*
X115811056Y-158615386D01*
X116180686Y-158245757D01*
X116092418Y-158191104D01*
X116092413Y-158191101D01*
X115902316Y-158117458D01*
X115701930Y-158080000D01*
X115498070Y-158080000D01*
X115297683Y-158117458D01*
X115107586Y-158191101D01*
X115107584Y-158191102D01*
X115019312Y-158245757D01*
X115388942Y-158615387D01*
X115368409Y-158620889D01*
X115231592Y-158699881D01*
X115119881Y-158811592D01*
X115040889Y-158948409D01*
X115035387Y-158968941D01*
X114662533Y-158596087D01*
X114660753Y-158598445D01*
X114660750Y-158598449D01*
X114569887Y-158780929D01*
X114514097Y-158977010D01*
X114495287Y-159180000D01*
X112991240Y-159180000D01*
X113005140Y-159030000D01*
X112984620Y-158808554D01*
X112923760Y-158594652D01*
X112917581Y-158582243D01*
X112908567Y-158521726D01*
X112936846Y-158467467D01*
X112986886Y-158441015D01*
X113039744Y-158430501D01*
X113158127Y-158381465D01*
X113264669Y-158310276D01*
X113355276Y-158219669D01*
X113426465Y-158113127D01*
X113475501Y-157994744D01*
X113500500Y-157869069D01*
X113500500Y-157740931D01*
X113475501Y-157615256D01*
X113426465Y-157496873D01*
X113426463Y-157496870D01*
X113426461Y-157496866D01*
X113397717Y-157453848D01*
X113355276Y-157390331D01*
X113264669Y-157299724D01*
X113222226Y-157271365D01*
X113158133Y-157228538D01*
X113158125Y-157228534D01*
X113039747Y-157179500D01*
X113039745Y-157179499D01*
X113039744Y-157179499D01*
X112914069Y-157154500D01*
X112785931Y-157154500D01*
X112785930Y-157154500D01*
X112723093Y-157166999D01*
X112660256Y-157179499D01*
X112660255Y-157179499D01*
X112660252Y-157179500D01*
X112541874Y-157228534D01*
X112541866Y-157228538D01*
X112435331Y-157299724D01*
X112435327Y-157299727D01*
X112344727Y-157390327D01*
X112344724Y-157390331D01*
X112273538Y-157496866D01*
X112273534Y-157496874D01*
X112224500Y-157615252D01*
X112224499Y-157615257D01*
X112199500Y-157740930D01*
X112199500Y-157764672D01*
X112180593Y-157822863D01*
X112131093Y-157858827D01*
X112082309Y-157861986D01*
X111911196Y-157830000D01*
X111688804Y-157830000D01*
X111470200Y-157870863D01*
X111262821Y-157951202D01*
X111262816Y-157951205D01*
X111146672Y-158023118D01*
X111514243Y-158390689D01*
X111468426Y-158409668D01*
X111353776Y-158486274D01*
X111256274Y-158583776D01*
X111179668Y-158698426D01*
X111160689Y-158744243D01*
X110791137Y-158374691D01*
X110775368Y-158395574D01*
X110676239Y-158594652D01*
X110615379Y-158808554D01*
X110594859Y-159030000D01*
X103872435Y-159030000D01*
X103875215Y-159000000D01*
X103856397Y-158796917D01*
X103800582Y-158600750D01*
X103709673Y-158418179D01*
X103586764Y-158255421D01*
X103436041Y-158118019D01*
X103262637Y-158010652D01*
X103072456Y-157936976D01*
X103072455Y-157936975D01*
X103072453Y-157936975D01*
X102871976Y-157899500D01*
X102668024Y-157899500D01*
X102467546Y-157936975D01*
X102419862Y-157955448D01*
X102277363Y-158010652D01*
X102111863Y-158113125D01*
X102103959Y-158118019D01*
X101953237Y-158255420D01*
X101830328Y-158418177D01*
X101830323Y-158418186D01*
X101740563Y-158598450D01*
X101739418Y-158600750D01*
X101683603Y-158796917D01*
X101664785Y-159000000D01*
X101330500Y-159000000D01*
X101330500Y-158365478D01*
X101349407Y-158307287D01*
X101359490Y-158295480D01*
X103010460Y-156644511D01*
X103050021Y-156575989D01*
X103070500Y-156499562D01*
X103070500Y-155648798D01*
X103089407Y-155590607D01*
X103133734Y-155556484D01*
X103262637Y-155506548D01*
X103436041Y-155399181D01*
X103586764Y-155261779D01*
X103709673Y-155099021D01*
X103800582Y-154916450D01*
X103856397Y-154720283D01*
X103875215Y-154517200D01*
X103856397Y-154314117D01*
X103800582Y-154117950D01*
X103709673Y-153935379D01*
X103586764Y-153772621D01*
X103436041Y-153635219D01*
X103262637Y-153527852D01*
X103072456Y-153454176D01*
X103072455Y-153454175D01*
X103072453Y-153454175D01*
X102871976Y-153416700D01*
X102668024Y-153416700D01*
X102467546Y-153454175D01*
X102419862Y-153472648D01*
X102277363Y-153527852D01*
X102103959Y-153635219D01*
X101953237Y-153772620D01*
X101830328Y-153935377D01*
X101830323Y-153935386D01*
X101739419Y-154117947D01*
X101739418Y-154117950D01*
X101683603Y-154314117D01*
X101664785Y-154517200D01*
X101683603Y-154720283D01*
X101739418Y-154916450D01*
X101830327Y-155099021D01*
X101953236Y-155261779D01*
X102103959Y-155399181D01*
X102277363Y-155506548D01*
X102406264Y-155556484D01*
X102453694Y-155595134D01*
X102469500Y-155648798D01*
X102469500Y-156294521D01*
X102450593Y-156352712D01*
X102440504Y-156364525D01*
X100934525Y-157870504D01*
X100880008Y-157898281D01*
X100864521Y-157899500D01*
X99310252Y-157899500D01*
X99310251Y-157899500D01*
X99310241Y-157899501D01*
X99251772Y-157911132D01*
X99251766Y-157911134D01*
X99185451Y-157955445D01*
X99185445Y-157955451D01*
X99141134Y-158021766D01*
X99141132Y-158021772D01*
X99129501Y-158080241D01*
X99129500Y-158080253D01*
X85500500Y-158080253D01*
X85500500Y-154999999D01*
X89794778Y-154999999D01*
X89794778Y-155000000D01*
X89813643Y-155287836D01*
X89869920Y-155570759D01*
X89962640Y-155843900D01*
X89962645Y-155843911D01*
X90090222Y-156102611D01*
X90250477Y-156342450D01*
X90250487Y-156342463D01*
X90388260Y-156499562D01*
X90440673Y-156559327D01*
X90440681Y-156559334D01*
X90440682Y-156559335D01*
X90657536Y-156749512D01*
X90657543Y-156749517D01*
X90657546Y-156749520D01*
X90897389Y-156909778D01*
X91156098Y-157037359D01*
X91285659Y-157081339D01*
X91429240Y-157130079D01*
X91429242Y-157130079D01*
X91429247Y-157130081D01*
X91712161Y-157186356D01*
X92000000Y-157205222D01*
X92287839Y-157186356D01*
X92570753Y-157130081D01*
X92843902Y-157037359D01*
X93102611Y-156909778D01*
X93342454Y-156749520D01*
X93559327Y-156559327D01*
X93749520Y-156342454D01*
X93909778Y-156102611D01*
X94037359Y-155843902D01*
X94130081Y-155570753D01*
X94186356Y-155287839D01*
X94205222Y-155000000D01*
X94186356Y-154712161D01*
X94130081Y-154429247D01*
X94090999Y-154314117D01*
X94037359Y-154156099D01*
X94037354Y-154156088D01*
X93909778Y-153897389D01*
X93749520Y-153657546D01*
X93749517Y-153657543D01*
X93749512Y-153657536D01*
X93696820Y-153597453D01*
X99129500Y-153597453D01*
X99129500Y-155436946D01*
X99129501Y-155436958D01*
X99141132Y-155495427D01*
X99141134Y-155495433D01*
X99148561Y-155506548D01*
X99185448Y-155561752D01*
X99251769Y-155606067D01*
X99296231Y-155614911D01*
X99310241Y-155617698D01*
X99310246Y-155617698D01*
X99310252Y-155617700D01*
X99310253Y-155617700D01*
X101149747Y-155617700D01*
X101149748Y-155617700D01*
X101208231Y-155606067D01*
X101274552Y-155561752D01*
X101318867Y-155495431D01*
X101330500Y-155436948D01*
X101330500Y-153597452D01*
X101318867Y-153538969D01*
X101274552Y-153472648D01*
X101248889Y-153455500D01*
X101208233Y-153428334D01*
X101208231Y-153428333D01*
X101208228Y-153428332D01*
X101208227Y-153428332D01*
X101149758Y-153416701D01*
X101149748Y-153416700D01*
X99310252Y-153416700D01*
X99310251Y-153416700D01*
X99310241Y-153416701D01*
X99251772Y-153428332D01*
X99251766Y-153428334D01*
X99185451Y-153472645D01*
X99185445Y-153472651D01*
X99141134Y-153538966D01*
X99141132Y-153538972D01*
X99129501Y-153597441D01*
X99129500Y-153597453D01*
X93696820Y-153597453D01*
X93559335Y-153440682D01*
X93559334Y-153440681D01*
X93559327Y-153440673D01*
X93545255Y-153428332D01*
X93342463Y-153250487D01*
X93342450Y-153250477D01*
X93102611Y-153090222D01*
X92843911Y-152962645D01*
X92843900Y-152962640D01*
X92570759Y-152869920D01*
X92287836Y-152813643D01*
X92000000Y-152794778D01*
X91712163Y-152813643D01*
X91429240Y-152869920D01*
X91156099Y-152962640D01*
X91156088Y-152962645D01*
X90897388Y-153090222D01*
X90657549Y-153250477D01*
X90657536Y-153250487D01*
X90440682Y-153440664D01*
X90440664Y-153440682D01*
X90250487Y-153657536D01*
X90250477Y-153657549D01*
X90090222Y-153897388D01*
X89962645Y-154156088D01*
X89962640Y-154156099D01*
X89869920Y-154429240D01*
X89813643Y-154712163D01*
X89794778Y-154999999D01*
X85500500Y-154999999D01*
X85500500Y-151580000D01*
X110594859Y-151580000D01*
X110615379Y-151801445D01*
X110676239Y-152015347D01*
X110775364Y-152214417D01*
X110775369Y-152214426D01*
X110791138Y-152235306D01*
X111160689Y-151865754D01*
X111179668Y-151911574D01*
X111256274Y-152026224D01*
X111353776Y-152123726D01*
X111468426Y-152200332D01*
X111514242Y-152219309D01*
X111146671Y-152586880D01*
X111262813Y-152658793D01*
X111262819Y-152658796D01*
X111470200Y-152739136D01*
X111688804Y-152780000D01*
X111911196Y-152780000D01*
X112082309Y-152748013D01*
X112142983Y-152755905D01*
X112187430Y-152797954D01*
X112199500Y-152845327D01*
X112199500Y-152869069D01*
X112224499Y-152994742D01*
X112224500Y-152994747D01*
X112273534Y-153113125D01*
X112273538Y-153113133D01*
X112316365Y-153177226D01*
X112344724Y-153219669D01*
X112435331Y-153310276D01*
X112498848Y-153352717D01*
X112541866Y-153381461D01*
X112541870Y-153381463D01*
X112541873Y-153381465D01*
X112660256Y-153430501D01*
X112785931Y-153455500D01*
X112785932Y-153455500D01*
X112914068Y-153455500D01*
X112914069Y-153455500D01*
X113039744Y-153430501D01*
X113158127Y-153381465D01*
X113264669Y-153310276D01*
X113355276Y-153219669D01*
X113426465Y-153113127D01*
X113475501Y-152994744D01*
X113500500Y-152869069D01*
X113500500Y-152740931D01*
X113475501Y-152615256D01*
X113426465Y-152496873D01*
X113426463Y-152496870D01*
X113426461Y-152496866D01*
X113397717Y-152453848D01*
X113355276Y-152390331D01*
X113264669Y-152299724D01*
X113194890Y-152253099D01*
X113158133Y-152228538D01*
X113158125Y-152228534D01*
X113039747Y-152179500D01*
X113039734Y-152179496D01*
X112986885Y-152168983D01*
X112933502Y-152139086D01*
X112907887Y-152083520D01*
X112917582Y-152027754D01*
X112923760Y-152015346D01*
X112984620Y-151801445D01*
X113005140Y-151580000D01*
X112991240Y-151430000D01*
X114495287Y-151430000D01*
X114514097Y-151632989D01*
X114569887Y-151829070D01*
X114660751Y-152011551D01*
X114662532Y-152013911D01*
X115035386Y-151641056D01*
X115040889Y-151661591D01*
X115119881Y-151798408D01*
X115231592Y-151910119D01*
X115368409Y-151989111D01*
X115388940Y-151994612D01*
X115019312Y-152364241D01*
X115107581Y-152418895D01*
X115107586Y-152418898D01*
X115297683Y-152492541D01*
X115498070Y-152530000D01*
X115701930Y-152530000D01*
X115902316Y-152492541D01*
X116092415Y-152418897D01*
X116092416Y-152418897D01*
X116180686Y-152364241D01*
X115811057Y-151994612D01*
X115831591Y-151989111D01*
X115968408Y-151910119D01*
X116080119Y-151798408D01*
X116159111Y-151661591D01*
X116164612Y-151641057D01*
X116537466Y-152013911D01*
X116539245Y-152011556D01*
X116539249Y-152011549D01*
X116630112Y-151829070D01*
X116685902Y-151632989D01*
X116704712Y-151430000D01*
X116685902Y-151227010D01*
X116630112Y-151030929D01*
X116539249Y-150848450D01*
X116539244Y-150848441D01*
X116537466Y-150846087D01*
X116164612Y-151218940D01*
X116159111Y-151198409D01*
X116080119Y-151061592D01*
X115968408Y-150949881D01*
X115831591Y-150870889D01*
X115811056Y-150865386D01*
X116180686Y-150495757D01*
X116092418Y-150441104D01*
X116092413Y-150441101D01*
X115902316Y-150367458D01*
X115701930Y-150330000D01*
X115498070Y-150330000D01*
X115297683Y-150367458D01*
X115107586Y-150441101D01*
X115107584Y-150441102D01*
X115019312Y-150495757D01*
X115388942Y-150865387D01*
X115368409Y-150870889D01*
X115231592Y-150949881D01*
X115119881Y-151061592D01*
X115040889Y-151198409D01*
X115035387Y-151218941D01*
X114662533Y-150846087D01*
X114660753Y-150848445D01*
X114660750Y-150848449D01*
X114569887Y-151030929D01*
X114514097Y-151227010D01*
X114495287Y-151430000D01*
X112991240Y-151430000D01*
X112984620Y-151358554D01*
X112923760Y-151144652D01*
X112824633Y-150945578D01*
X112824624Y-150945563D01*
X112808861Y-150924690D01*
X112439309Y-151294242D01*
X112420332Y-151248426D01*
X112343726Y-151133776D01*
X112246224Y-151036274D01*
X112131574Y-150959668D01*
X112085754Y-150940689D01*
X112453326Y-150573118D01*
X112337186Y-150501206D01*
X112337180Y-150501203D01*
X112129799Y-150420863D01*
X111911196Y-150380000D01*
X111688804Y-150380000D01*
X111470200Y-150420863D01*
X111262821Y-150501202D01*
X111262816Y-150501205D01*
X111146672Y-150573118D01*
X111514243Y-150940689D01*
X111468426Y-150959668D01*
X111353776Y-151036274D01*
X111256274Y-151133776D01*
X111179668Y-151248426D01*
X111160689Y-151294243D01*
X110791137Y-150924691D01*
X110775368Y-150945574D01*
X110676239Y-151144652D01*
X110615379Y-151358554D01*
X110594859Y-151580000D01*
X85500500Y-151580000D01*
X85500500Y-149114753D01*
X99129500Y-149114753D01*
X99129500Y-150954246D01*
X99129501Y-150954258D01*
X99141132Y-151012727D01*
X99141134Y-151012733D01*
X99156864Y-151036274D01*
X99185448Y-151079052D01*
X99251769Y-151123367D01*
X99296231Y-151132211D01*
X99310241Y-151134998D01*
X99310246Y-151134998D01*
X99310252Y-151135000D01*
X99310253Y-151135000D01*
X101149747Y-151135000D01*
X101149748Y-151135000D01*
X101208231Y-151123367D01*
X101274552Y-151079052D01*
X101318867Y-151012731D01*
X101330500Y-150954248D01*
X101330500Y-149114752D01*
X101318867Y-149056269D01*
X101274552Y-148989948D01*
X101274548Y-148989945D01*
X101208233Y-148945634D01*
X101208231Y-148945633D01*
X101208228Y-148945632D01*
X101208227Y-148945632D01*
X101149758Y-148934001D01*
X101149748Y-148934000D01*
X99310252Y-148934000D01*
X99310251Y-148934000D01*
X99310241Y-148934001D01*
X99251772Y-148945632D01*
X99251766Y-148945634D01*
X99185451Y-148989945D01*
X99185445Y-148989951D01*
X99141134Y-149056266D01*
X99141132Y-149056272D01*
X99129501Y-149114741D01*
X99129500Y-149114753D01*
X85500500Y-149114753D01*
X85500500Y-129999999D01*
X89794778Y-129999999D01*
X89794778Y-130000000D01*
X89813643Y-130287836D01*
X89869920Y-130570759D01*
X89962640Y-130843900D01*
X89962645Y-130843911D01*
X90090222Y-131102611D01*
X90250477Y-131342450D01*
X90250487Y-131342463D01*
X90428221Y-131545128D01*
X90440673Y-131559327D01*
X90440681Y-131559334D01*
X90440682Y-131559335D01*
X90657536Y-131749512D01*
X90657543Y-131749517D01*
X90657546Y-131749520D01*
X90897389Y-131909778D01*
X91156098Y-132037359D01*
X91284247Y-132080860D01*
X91429240Y-132130079D01*
X91429242Y-132130079D01*
X91429247Y-132130081D01*
X91712161Y-132186356D01*
X92000000Y-132205222D01*
X92287839Y-132186356D01*
X92570753Y-132130081D01*
X92843902Y-132037359D01*
X93102611Y-131909778D01*
X93342454Y-131749520D01*
X93559327Y-131559327D01*
X93749520Y-131342454D01*
X93909778Y-131102611D01*
X94037359Y-130843902D01*
X94130081Y-130570753D01*
X94186356Y-130287839D01*
X94205222Y-130000000D01*
X94186356Y-129712161D01*
X94130081Y-129429247D01*
X94125776Y-129416566D01*
X94076994Y-129272858D01*
X94037359Y-129156098D01*
X93909778Y-128897389D01*
X93749520Y-128657546D01*
X93749517Y-128657543D01*
X93749512Y-128657536D01*
X93559335Y-128440682D01*
X93559334Y-128440681D01*
X93559327Y-128440673D01*
X93532250Y-128416927D01*
X93342463Y-128250487D01*
X93342450Y-128250477D01*
X93102611Y-128090222D01*
X92843911Y-127962645D01*
X92843900Y-127962640D01*
X92570759Y-127869920D01*
X92287836Y-127813643D01*
X92000000Y-127794778D01*
X91712163Y-127813643D01*
X91429240Y-127869920D01*
X91156099Y-127962640D01*
X91156088Y-127962645D01*
X90897388Y-128090222D01*
X90657549Y-128250477D01*
X90657536Y-128250487D01*
X90440682Y-128440664D01*
X90440664Y-128440682D01*
X90250487Y-128657536D01*
X90250477Y-128657549D01*
X90090222Y-128897388D01*
X89962645Y-129156088D01*
X89962640Y-129156099D01*
X89869920Y-129429240D01*
X89813643Y-129712163D01*
X89794778Y-129999999D01*
X85500500Y-129999999D01*
X85500500Y-66422535D01*
X98329500Y-66422535D01*
X98329500Y-90198161D01*
X98349979Y-90274589D01*
X98349979Y-90274591D01*
X98352282Y-90278578D01*
X98352283Y-90278579D01*
X98389540Y-90343111D01*
X99100505Y-91054076D01*
X99128281Y-91108591D01*
X99129500Y-91124078D01*
X99129500Y-92393121D01*
X99110593Y-92451312D01*
X99100504Y-92463125D01*
X98815489Y-92748140D01*
X98815488Y-92748139D01*
X98759539Y-92804089D01*
X98719980Y-92872607D01*
X98719978Y-92872611D01*
X98699500Y-92949035D01*
X98699500Y-92949038D01*
X98699500Y-108499162D01*
X98719979Y-108575589D01*
X98727780Y-108589100D01*
X98759540Y-108644111D01*
X99100505Y-108985076D01*
X99128281Y-109039591D01*
X99129500Y-109055078D01*
X99129500Y-110324121D01*
X99110593Y-110382312D01*
X99100504Y-110394125D01*
X98445489Y-111049140D01*
X98445488Y-111049139D01*
X98389539Y-111105089D01*
X98349980Y-111173607D01*
X98349978Y-111173611D01*
X98329500Y-111250035D01*
X98329500Y-135025761D01*
X98349979Y-135102189D01*
X98349979Y-135102191D01*
X98352282Y-135106178D01*
X98352283Y-135106179D01*
X98389540Y-135170711D01*
X99100505Y-135881676D01*
X99128281Y-135936191D01*
X99129500Y-135951678D01*
X99129500Y-137505946D01*
X99129501Y-137505958D01*
X99141132Y-137564427D01*
X99141134Y-137564433D01*
X99168865Y-137605934D01*
X99185448Y-137630752D01*
X99251769Y-137675067D01*
X99296231Y-137683911D01*
X99310241Y-137686698D01*
X99310246Y-137686698D01*
X99310252Y-137686700D01*
X99310253Y-137686700D01*
X101149747Y-137686700D01*
X101149748Y-137686700D01*
X101208231Y-137675067D01*
X101274552Y-137630752D01*
X101318867Y-137564431D01*
X101330500Y-137505948D01*
X101330500Y-135666452D01*
X101318867Y-135607969D01*
X101274552Y-135541648D01*
X101246957Y-135523209D01*
X101208233Y-135497334D01*
X101208231Y-135497333D01*
X101208228Y-135497332D01*
X101208227Y-135497332D01*
X101149758Y-135485701D01*
X101149748Y-135485700D01*
X101149747Y-135485700D01*
X99595479Y-135485700D01*
X99537288Y-135466793D01*
X99525475Y-135456704D01*
X98959496Y-134890725D01*
X98931719Y-134836208D01*
X98930500Y-134820721D01*
X98930500Y-131183653D01*
X99129500Y-131183653D01*
X99129500Y-133023146D01*
X99129501Y-133023158D01*
X99141132Y-133081627D01*
X99141134Y-133081633D01*
X99148561Y-133092748D01*
X99185448Y-133147952D01*
X99251769Y-133192267D01*
X99296231Y-133201111D01*
X99310241Y-133203898D01*
X99310246Y-133203898D01*
X99310252Y-133203900D01*
X99310253Y-133203900D01*
X101149747Y-133203900D01*
X101149748Y-133203900D01*
X101208231Y-133192267D01*
X101274552Y-133147952D01*
X101318867Y-133081631D01*
X101330500Y-133023148D01*
X101330500Y-131468878D01*
X101349407Y-131410687D01*
X101359490Y-131398880D01*
X103010460Y-129747911D01*
X103031100Y-129712161D01*
X103050021Y-129679389D01*
X103070500Y-129602962D01*
X103070500Y-128752298D01*
X103089407Y-128694107D01*
X103133734Y-128659984D01*
X103262637Y-128610048D01*
X103436041Y-128502681D01*
X103503806Y-128440905D01*
X103559545Y-128415675D01*
X103619470Y-128428027D01*
X103660691Y-128473243D01*
X103669500Y-128514067D01*
X103669500Y-131210032D01*
X103650593Y-131268223D01*
X103601093Y-131304187D01*
X103539907Y-131304187D01*
X103503806Y-131283195D01*
X103436041Y-131221419D01*
X103262637Y-131114052D01*
X103072456Y-131040376D01*
X103072455Y-131040375D01*
X103072453Y-131040375D01*
X102871976Y-131002900D01*
X102668024Y-131002900D01*
X102467546Y-131040375D01*
X102419862Y-131058848D01*
X102277363Y-131114052D01*
X102103959Y-131221419D01*
X101953236Y-131358821D01*
X101935608Y-131382164D01*
X101830328Y-131521577D01*
X101830323Y-131521586D01*
X101791278Y-131600000D01*
X101739418Y-131704150D01*
X101683603Y-131900317D01*
X101664785Y-132103400D01*
X101683603Y-132306483D01*
X101739418Y-132502650D01*
X101830327Y-132685221D01*
X101953236Y-132847979D01*
X102103959Y-132985381D01*
X102277363Y-133092748D01*
X102467544Y-133166424D01*
X102668024Y-133203900D01*
X102871976Y-133203900D01*
X103072456Y-133166424D01*
X103262637Y-133092748D01*
X103436041Y-132985381D01*
X103503806Y-132923605D01*
X103559545Y-132898375D01*
X103619470Y-132910727D01*
X103660691Y-132955943D01*
X103669500Y-132996767D01*
X103669500Y-135220721D01*
X103650593Y-135278912D01*
X103640504Y-135290724D01*
X103359957Y-135571270D01*
X103305442Y-135599047D01*
X103254194Y-135593581D01*
X103072456Y-135523176D01*
X103072455Y-135523175D01*
X103072453Y-135523175D01*
X102871976Y-135485700D01*
X102668024Y-135485700D01*
X102467546Y-135523175D01*
X102419862Y-135541648D01*
X102277363Y-135596852D01*
X102103959Y-135704219D01*
X101953237Y-135841620D01*
X101830328Y-136004377D01*
X101830323Y-136004386D01*
X101739419Y-136186947D01*
X101739418Y-136186950D01*
X101683603Y-136383117D01*
X101664785Y-136586200D01*
X101683603Y-136789283D01*
X101739418Y-136985450D01*
X101830327Y-137168021D01*
X101953236Y-137330779D01*
X102103959Y-137468181D01*
X102277363Y-137575548D01*
X102406264Y-137625484D01*
X102453694Y-137664134D01*
X102469500Y-137717798D01*
X102469500Y-138363421D01*
X102450593Y-138421612D01*
X102440504Y-138433425D01*
X100934525Y-139939404D01*
X100880008Y-139967181D01*
X100864521Y-139968400D01*
X99310252Y-139968400D01*
X99310251Y-139968400D01*
X99310241Y-139968401D01*
X99251772Y-139980032D01*
X99251766Y-139980034D01*
X99185451Y-140024345D01*
X99185445Y-140024351D01*
X99141134Y-140090666D01*
X99141132Y-140090672D01*
X99129501Y-140149141D01*
X99129500Y-140149153D01*
X99129500Y-141988646D01*
X99129501Y-141988658D01*
X99141132Y-142047127D01*
X99141134Y-142047133D01*
X99185445Y-142113448D01*
X99185448Y-142113452D01*
X99251769Y-142157767D01*
X99296231Y-142166611D01*
X99310241Y-142169398D01*
X99310246Y-142169398D01*
X99310252Y-142169400D01*
X99830500Y-142169400D01*
X99888691Y-142188307D01*
X99924655Y-142237807D01*
X99929500Y-142268400D01*
X99929500Y-144352200D01*
X99910593Y-144410391D01*
X99861093Y-144446355D01*
X99830500Y-144451200D01*
X99310252Y-144451200D01*
X99310251Y-144451200D01*
X99310241Y-144451201D01*
X99251772Y-144462832D01*
X99251766Y-144462834D01*
X99185451Y-144507145D01*
X99185445Y-144507151D01*
X99141134Y-144573466D01*
X99141132Y-144573472D01*
X99129501Y-144631941D01*
X99129500Y-144631953D01*
X99129500Y-146471446D01*
X99129501Y-146471458D01*
X99141132Y-146529927D01*
X99141134Y-146529933D01*
X99148561Y-146541048D01*
X99185448Y-146596252D01*
X99251769Y-146640567D01*
X99296231Y-146649411D01*
X99310241Y-146652198D01*
X99310246Y-146652198D01*
X99310252Y-146652200D01*
X100864521Y-146652200D01*
X100922712Y-146671107D01*
X100934525Y-146681196D01*
X102440504Y-148187175D01*
X102468281Y-148241692D01*
X102469500Y-148257179D01*
X102469500Y-148902901D01*
X102450593Y-148961092D01*
X102406263Y-148995216D01*
X102359450Y-149013351D01*
X102277363Y-149045152D01*
X102103959Y-149152519D01*
X101953237Y-149289920D01*
X101830328Y-149452677D01*
X101830323Y-149452686D01*
X101739419Y-149635247D01*
X101739418Y-149635250D01*
X101683603Y-149831417D01*
X101664785Y-150034500D01*
X101683603Y-150237583D01*
X101739418Y-150433750D01*
X101830327Y-150616321D01*
X101953236Y-150779079D01*
X102103959Y-150916481D01*
X102277363Y-151023848D01*
X102467544Y-151097524D01*
X102668024Y-151135000D01*
X102871976Y-151135000D01*
X103072456Y-151097524D01*
X103262637Y-151023848D01*
X103436041Y-150916481D01*
X103586764Y-150779079D01*
X103709673Y-150616321D01*
X103800582Y-150433750D01*
X103856397Y-150237583D01*
X103875215Y-150034500D01*
X103856397Y-149831417D01*
X103800582Y-149635250D01*
X103709673Y-149452679D01*
X103586764Y-149289921D01*
X103436041Y-149152519D01*
X103262637Y-149045152D01*
X103162336Y-149006295D01*
X103133737Y-148995216D01*
X103086306Y-148956564D01*
X103070500Y-148902901D01*
X103070500Y-148052137D01*
X103070499Y-148052135D01*
X103050021Y-147975711D01*
X103050019Y-147975707D01*
X103010460Y-147907189D01*
X102954511Y-147851239D01*
X102954511Y-147851240D01*
X101359496Y-146256225D01*
X101331719Y-146201708D01*
X101330500Y-146186221D01*
X101330500Y-145551700D01*
X101664785Y-145551700D01*
X101683603Y-145754783D01*
X101739418Y-145950950D01*
X101830327Y-146133521D01*
X101953236Y-146296279D01*
X102103959Y-146433681D01*
X102277363Y-146541048D01*
X102467544Y-146614724D01*
X102668024Y-146652200D01*
X102871976Y-146652200D01*
X103072456Y-146614724D01*
X103262637Y-146541048D01*
X103436041Y-146433681D01*
X103586764Y-146296279D01*
X103709673Y-146133521D01*
X103800582Y-145950950D01*
X103856397Y-145754783D01*
X103875215Y-145551700D01*
X103856397Y-145348617D01*
X103800582Y-145152450D01*
X103709673Y-144969879D01*
X103586764Y-144807121D01*
X103546043Y-144769999D01*
X114978588Y-144769999D01*
X114978589Y-144770000D01*
X115566988Y-144770000D01*
X115534075Y-144827007D01*
X115500000Y-144954174D01*
X115500000Y-145085826D01*
X115534075Y-145212993D01*
X115566988Y-145270000D01*
X114978589Y-145270000D01*
X115025232Y-145423762D01*
X115025234Y-145423767D01*
X115122724Y-145606160D01*
X115122731Y-145606170D01*
X115253940Y-145766050D01*
X115253949Y-145766059D01*
X115413829Y-145897268D01*
X115413839Y-145897275D01*
X115596232Y-145994765D01*
X115596237Y-145994767D01*
X115749999Y-146041411D01*
X115750000Y-146041411D01*
X115750000Y-145453012D01*
X115807007Y-145485925D01*
X115934174Y-145520000D01*
X116065826Y-145520000D01*
X116192993Y-145485925D01*
X116250000Y-145453012D01*
X116250000Y-146041411D01*
X116403762Y-145994767D01*
X116403767Y-145994765D01*
X116586160Y-145897275D01*
X116586170Y-145897268D01*
X116746050Y-145766059D01*
X116746059Y-145766050D01*
X116877268Y-145606170D01*
X116877275Y-145606160D01*
X116974765Y-145423767D01*
X116974767Y-145423762D01*
X117021411Y-145270000D01*
X116433012Y-145270000D01*
X116465925Y-145212993D01*
X116500000Y-145085826D01*
X116500000Y-144954174D01*
X116465925Y-144827007D01*
X116433012Y-144770000D01*
X117021411Y-144770000D01*
X117021411Y-144769999D01*
X116974767Y-144616237D01*
X116974765Y-144616232D01*
X116877275Y-144433839D01*
X116877268Y-144433829D01*
X116746059Y-144273949D01*
X116746050Y-144273940D01*
X116586170Y-144142731D01*
X116586160Y-144142724D01*
X116403771Y-144045236D01*
X116403758Y-144045231D01*
X116250000Y-143998588D01*
X116250000Y-144586988D01*
X116192993Y-144554075D01*
X116065826Y-144520000D01*
X115934174Y-144520000D01*
X115807007Y-144554075D01*
X115750000Y-144586988D01*
X115750000Y-143998588D01*
X115596241Y-144045231D01*
X115596228Y-144045236D01*
X115413839Y-144142724D01*
X115413829Y-144142731D01*
X115253949Y-144273940D01*
X115253940Y-144273949D01*
X115122731Y-144433829D01*
X115122724Y-144433839D01*
X115025234Y-144616232D01*
X115025232Y-144616237D01*
X114978588Y-144769999D01*
X103546043Y-144769999D01*
X103436041Y-144669719D01*
X103262637Y-144562352D01*
X103072456Y-144488676D01*
X103072455Y-144488675D01*
X103072453Y-144488675D01*
X102871976Y-144451200D01*
X102668024Y-144451200D01*
X102467546Y-144488675D01*
X102419862Y-144507148D01*
X102277363Y-144562352D01*
X102103959Y-144669719D01*
X101953237Y-144807120D01*
X101830328Y-144969877D01*
X101830323Y-144969886D01*
X101739419Y-145152447D01*
X101739418Y-145152450D01*
X101683603Y-145348617D01*
X101664785Y-145551700D01*
X101330500Y-145551700D01*
X101330500Y-144631953D01*
X101330498Y-144631941D01*
X101327373Y-144616232D01*
X101318867Y-144573469D01*
X101274552Y-144507148D01*
X101274548Y-144507145D01*
X101208233Y-144462834D01*
X101208231Y-144462833D01*
X101208228Y-144462832D01*
X101208227Y-144462832D01*
X101149758Y-144451201D01*
X101149748Y-144451200D01*
X101149747Y-144451200D01*
X100629500Y-144451200D01*
X100571309Y-144432293D01*
X100535345Y-144382793D01*
X100530500Y-144352200D01*
X100530500Y-142479996D01*
X114944417Y-142479996D01*
X114944417Y-142480003D01*
X114964698Y-142685929D01*
X114964699Y-142685934D01*
X115024768Y-142883954D01*
X115122316Y-143066452D01*
X115253585Y-143226404D01*
X115253590Y-143226410D01*
X115253595Y-143226414D01*
X115413547Y-143357683D01*
X115413548Y-143357683D01*
X115413550Y-143357685D01*
X115596046Y-143455232D01*
X115733997Y-143497078D01*
X115794065Y-143515300D01*
X115794070Y-143515301D01*
X115999997Y-143535583D01*
X116000000Y-143535583D01*
X116000003Y-143535583D01*
X116205929Y-143515301D01*
X116205934Y-143515300D01*
X116403954Y-143455232D01*
X116586450Y-143357685D01*
X116746410Y-143226410D01*
X116877685Y-143066450D01*
X116975232Y-142883954D01*
X117035300Y-142685934D01*
X117035301Y-142685929D01*
X117055583Y-142480003D01*
X117055583Y-142479996D01*
X117035301Y-142274070D01*
X117035300Y-142274065D01*
X117015929Y-142210209D01*
X116975232Y-142076046D01*
X116877685Y-141893550D01*
X116746410Y-141733590D01*
X116746404Y-141733585D01*
X116586452Y-141602316D01*
X116403954Y-141504768D01*
X116205934Y-141444699D01*
X116205929Y-141444698D01*
X116000003Y-141424417D01*
X115999997Y-141424417D01*
X115794070Y-141444698D01*
X115794065Y-141444699D01*
X115596045Y-141504768D01*
X115413547Y-141602316D01*
X115253595Y-141733585D01*
X115253585Y-141733595D01*
X115122316Y-141893547D01*
X115024768Y-142076045D01*
X114964699Y-142274065D01*
X114964698Y-142274070D01*
X114944417Y-142479996D01*
X100530500Y-142479996D01*
X100530500Y-142268400D01*
X100549407Y-142210209D01*
X100598907Y-142174245D01*
X100629500Y-142169400D01*
X101149747Y-142169400D01*
X101149748Y-142169400D01*
X101208231Y-142157767D01*
X101274552Y-142113452D01*
X101318867Y-142047131D01*
X101330500Y-141988648D01*
X101330500Y-141068900D01*
X101664785Y-141068900D01*
X101683603Y-141271983D01*
X101739418Y-141468150D01*
X101830327Y-141650721D01*
X101953236Y-141813479D01*
X102103959Y-141950881D01*
X102277363Y-142058248D01*
X102467544Y-142131924D01*
X102668024Y-142169400D01*
X102871976Y-142169400D01*
X103072456Y-142131924D01*
X103262637Y-142058248D01*
X103436041Y-141950881D01*
X103586764Y-141813479D01*
X103709673Y-141650721D01*
X103800582Y-141468150D01*
X103856397Y-141271983D01*
X103875215Y-141068900D01*
X103856397Y-140865817D01*
X103800582Y-140669650D01*
X103709673Y-140487079D01*
X103586764Y-140324321D01*
X103436041Y-140186919D01*
X103262637Y-140079552D01*
X103072456Y-140005876D01*
X103072455Y-140005875D01*
X103072453Y-140005875D01*
X102871976Y-139968400D01*
X102668024Y-139968400D01*
X102467546Y-140005875D01*
X102419862Y-140024348D01*
X102277363Y-140079552D01*
X102103959Y-140186919D01*
X101953237Y-140324320D01*
X101830328Y-140487077D01*
X101830323Y-140487086D01*
X101739419Y-140669647D01*
X101739418Y-140669650D01*
X101683603Y-140865817D01*
X101664785Y-141068900D01*
X101330500Y-141068900D01*
X101330500Y-140434378D01*
X101349407Y-140376187D01*
X101359490Y-140364380D01*
X103010460Y-138713411D01*
X103013700Y-138707799D01*
X103015570Y-138704561D01*
X103025804Y-138686833D01*
X103050021Y-138644889D01*
X103070500Y-138568462D01*
X103070500Y-137717798D01*
X103089407Y-137659607D01*
X103133734Y-137625484D01*
X103262637Y-137575548D01*
X103436041Y-137468181D01*
X103586764Y-137330779D01*
X103709673Y-137168021D01*
X103800582Y-136985450D01*
X103856397Y-136789283D01*
X103875215Y-136586200D01*
X103856397Y-136383117D01*
X103800582Y-136186950D01*
X103763733Y-136112948D01*
X103754721Y-136052431D01*
X103782350Y-135998819D01*
X104210460Y-135570711D01*
X104237904Y-135523176D01*
X104250021Y-135502189D01*
X104270500Y-135425762D01*
X104270500Y-124298338D01*
X104250021Y-124221911D01*
X104227239Y-124182452D01*
X104210460Y-124153389D01*
X104154511Y-124097439D01*
X104154511Y-124097440D01*
X103782351Y-123725280D01*
X103754574Y-123670763D01*
X103763733Y-123611152D01*
X103800582Y-123537150D01*
X103856397Y-123340983D01*
X103875215Y-123137900D01*
X103856397Y-122934817D01*
X103800582Y-122738650D01*
X103709673Y-122556079D01*
X103586764Y-122393321D01*
X103436041Y-122255919D01*
X103262637Y-122148552D01*
X103072456Y-122074876D01*
X103072455Y-122074875D01*
X103072453Y-122074875D01*
X102871976Y-122037400D01*
X102668024Y-122037400D01*
X102467546Y-122074875D01*
X102442420Y-122084609D01*
X102277363Y-122148552D01*
X102162376Y-122219749D01*
X102103959Y-122255919D01*
X101953237Y-122393320D01*
X101830328Y-122556077D01*
X101830323Y-122556086D01*
X101739419Y-122738647D01*
X101739418Y-122738650D01*
X101683603Y-122934817D01*
X101664785Y-123137900D01*
X101683603Y-123340983D01*
X101739418Y-123537150D01*
X101830327Y-123719721D01*
X101953236Y-123882479D01*
X102103959Y-124019881D01*
X102277363Y-124127248D01*
X102467544Y-124200924D01*
X102668024Y-124238400D01*
X102871976Y-124238400D01*
X103072456Y-124200924D01*
X103254193Y-124130518D01*
X103315284Y-124127129D01*
X103359959Y-124152830D01*
X103640504Y-124433375D01*
X103668281Y-124487892D01*
X103669500Y-124503379D01*
X103669500Y-126727332D01*
X103650593Y-126785523D01*
X103601093Y-126821487D01*
X103539907Y-126821487D01*
X103503806Y-126800495D01*
X103436041Y-126738719D01*
X103262637Y-126631352D01*
X103072456Y-126557676D01*
X103072455Y-126557675D01*
X103072453Y-126557675D01*
X102871976Y-126520200D01*
X102668024Y-126520200D01*
X102467546Y-126557675D01*
X102419862Y-126576148D01*
X102277363Y-126631352D01*
X102122350Y-126727332D01*
X102103959Y-126738719D01*
X101953237Y-126876120D01*
X101830328Y-127038877D01*
X101830323Y-127038886D01*
X101739419Y-127221447D01*
X101739418Y-127221450D01*
X101683603Y-127417617D01*
X101664785Y-127620700D01*
X101683603Y-127823783D01*
X101739418Y-128019950D01*
X101830327Y-128202521D01*
X101953236Y-128365279D01*
X102103959Y-128502681D01*
X102277363Y-128610048D01*
X102406264Y-128659984D01*
X102453694Y-128698634D01*
X102469500Y-128752298D01*
X102469500Y-129397921D01*
X102450593Y-129456112D01*
X102440504Y-129467925D01*
X100934525Y-130973904D01*
X100880008Y-131001681D01*
X100864521Y-131002900D01*
X99310252Y-131002900D01*
X99310251Y-131002900D01*
X99310241Y-131002901D01*
X99251772Y-131014532D01*
X99251766Y-131014534D01*
X99185451Y-131058845D01*
X99185445Y-131058851D01*
X99141134Y-131125166D01*
X99141132Y-131125172D01*
X99129501Y-131183641D01*
X99129500Y-131183653D01*
X98930500Y-131183653D01*
X98930500Y-126985179D01*
X98949407Y-126926988D01*
X98998907Y-126891024D01*
X99060093Y-126891024D01*
X99099504Y-126915175D01*
X99100504Y-126916175D01*
X99128281Y-126970692D01*
X99129500Y-126986179D01*
X99129500Y-128540446D01*
X99129501Y-128540458D01*
X99141132Y-128598927D01*
X99141134Y-128598933D01*
X99177888Y-128653938D01*
X99185448Y-128665252D01*
X99251769Y-128709567D01*
X99296231Y-128718411D01*
X99310241Y-128721198D01*
X99310246Y-128721198D01*
X99310252Y-128721200D01*
X99310253Y-128721200D01*
X101149747Y-128721200D01*
X101149748Y-128721200D01*
X101208231Y-128709567D01*
X101274552Y-128665252D01*
X101318867Y-128598931D01*
X101330500Y-128540448D01*
X101330500Y-126700952D01*
X101318867Y-126642469D01*
X101274552Y-126576148D01*
X101274548Y-126576145D01*
X101208233Y-126531834D01*
X101208231Y-126531833D01*
X101208228Y-126531832D01*
X101208227Y-126531832D01*
X101149758Y-126520201D01*
X101149748Y-126520200D01*
X101149747Y-126520200D01*
X99595479Y-126520200D01*
X99537288Y-126501293D01*
X99525475Y-126491204D01*
X99359496Y-126325225D01*
X99331719Y-126270708D01*
X99330500Y-126255221D01*
X99330500Y-124337400D01*
X99349407Y-124279209D01*
X99398907Y-124243245D01*
X99429500Y-124238400D01*
X101149747Y-124238400D01*
X101149748Y-124238400D01*
X101208231Y-124226767D01*
X101274552Y-124182452D01*
X101318867Y-124116131D01*
X101330500Y-124057648D01*
X101330500Y-122503378D01*
X101349407Y-122445187D01*
X101359490Y-122433380D01*
X103010460Y-120782411D01*
X103038517Y-120733814D01*
X103050021Y-120713889D01*
X103070500Y-120637462D01*
X103070500Y-119786798D01*
X103089407Y-119728607D01*
X103133734Y-119694484D01*
X103262637Y-119644548D01*
X103436041Y-119537181D01*
X103586764Y-119399779D01*
X103709673Y-119237021D01*
X103800582Y-119054450D01*
X103856397Y-118858283D01*
X103875215Y-118655200D01*
X103856397Y-118452117D01*
X103800582Y-118255950D01*
X103709673Y-118073379D01*
X103586764Y-117910621D01*
X103436041Y-117773219D01*
X103262637Y-117665852D01*
X103072456Y-117592176D01*
X103072455Y-117592175D01*
X103072453Y-117592175D01*
X102871976Y-117554700D01*
X102668024Y-117554700D01*
X102467546Y-117592175D01*
X102419862Y-117610648D01*
X102277363Y-117665852D01*
X102103959Y-117773219D01*
X101953237Y-117910620D01*
X101830328Y-118073377D01*
X101830323Y-118073386D01*
X101739419Y-118255947D01*
X101739418Y-118255950D01*
X101683603Y-118452117D01*
X101664785Y-118655200D01*
X101683603Y-118858283D01*
X101739418Y-119054450D01*
X101830327Y-119237021D01*
X101953236Y-119399779D01*
X102103959Y-119537181D01*
X102277363Y-119644548D01*
X102406264Y-119694484D01*
X102453694Y-119733134D01*
X102469500Y-119786798D01*
X102469500Y-120432421D01*
X102450593Y-120490612D01*
X102440504Y-120502425D01*
X100934525Y-122008404D01*
X100880008Y-122036181D01*
X100864521Y-122037400D01*
X99429500Y-122037400D01*
X99371309Y-122018493D01*
X99335345Y-121968993D01*
X99330500Y-121938400D01*
X99330500Y-119854700D01*
X99349407Y-119796509D01*
X99398907Y-119760545D01*
X99429500Y-119755700D01*
X101149747Y-119755700D01*
X101149748Y-119755700D01*
X101208231Y-119744067D01*
X101274552Y-119699752D01*
X101318867Y-119633431D01*
X101330500Y-119574948D01*
X101330500Y-117735452D01*
X101318867Y-117676969D01*
X101274552Y-117610648D01*
X101274548Y-117610645D01*
X101208233Y-117566334D01*
X101208231Y-117566333D01*
X101208228Y-117566332D01*
X101208227Y-117566332D01*
X101149758Y-117554701D01*
X101149748Y-117554700D01*
X101149747Y-117554700D01*
X99429500Y-117554700D01*
X99371309Y-117535793D01*
X99335345Y-117486293D01*
X99330500Y-117455700D01*
X99330500Y-115537879D01*
X99349407Y-115479688D01*
X99359496Y-115467875D01*
X99525475Y-115301896D01*
X99579992Y-115274119D01*
X99595479Y-115272900D01*
X101149747Y-115272900D01*
X101149748Y-115272900D01*
X101208231Y-115261267D01*
X101274552Y-115216952D01*
X101318867Y-115150631D01*
X101330500Y-115092148D01*
X101330500Y-113252652D01*
X101318867Y-113194169D01*
X101274552Y-113127848D01*
X101274548Y-113127845D01*
X101208233Y-113083534D01*
X101208231Y-113083533D01*
X101208228Y-113083532D01*
X101208227Y-113083532D01*
X101149758Y-113071901D01*
X101149748Y-113071900D01*
X99310252Y-113071900D01*
X99310251Y-113071900D01*
X99310241Y-113071901D01*
X99251772Y-113083532D01*
X99251766Y-113083534D01*
X99185451Y-113127845D01*
X99185445Y-113127851D01*
X99141134Y-113194166D01*
X99141132Y-113194172D01*
X99129501Y-113252641D01*
X99129500Y-113252653D01*
X99129500Y-114806921D01*
X99110593Y-114865112D01*
X99100504Y-114876925D01*
X99099504Y-114877925D01*
X99044987Y-114905702D01*
X98984555Y-114896131D01*
X98941290Y-114852866D01*
X98930500Y-114807921D01*
X98930500Y-111455079D01*
X98949407Y-111396888D01*
X98959496Y-111385075D01*
X99525475Y-110819096D01*
X99579992Y-110791319D01*
X99595479Y-110790100D01*
X100864521Y-110790100D01*
X100922712Y-110809007D01*
X100934525Y-110819096D01*
X102440504Y-112325075D01*
X102468281Y-112379592D01*
X102469500Y-112395079D01*
X102469500Y-113040801D01*
X102450593Y-113098992D01*
X102406263Y-113133116D01*
X102359450Y-113151251D01*
X102277363Y-113183052D01*
X102103959Y-113290419D01*
X101953237Y-113427820D01*
X101830328Y-113590577D01*
X101830323Y-113590586D01*
X101739419Y-113773147D01*
X101739418Y-113773150D01*
X101683603Y-113969317D01*
X101664785Y-114172400D01*
X101683603Y-114375483D01*
X101739418Y-114571650D01*
X101830327Y-114754221D01*
X101953236Y-114916979D01*
X102103959Y-115054381D01*
X102277363Y-115161748D01*
X102467544Y-115235424D01*
X102668024Y-115272900D01*
X102871976Y-115272900D01*
X103072456Y-115235424D01*
X103262637Y-115161748D01*
X103436041Y-115054381D01*
X103586764Y-114916979D01*
X103709673Y-114754221D01*
X103800582Y-114571650D01*
X103856397Y-114375483D01*
X103875215Y-114172400D01*
X103856397Y-113969317D01*
X103800582Y-113773150D01*
X103709673Y-113590579D01*
X103586764Y-113427821D01*
X103436041Y-113290419D01*
X103262637Y-113183052D01*
X103162336Y-113144195D01*
X103133737Y-113133116D01*
X103086306Y-113094464D01*
X103070500Y-113040801D01*
X103070500Y-112190037D01*
X103070499Y-112190035D01*
X103050021Y-112113611D01*
X103050019Y-112113607D01*
X103010460Y-112045089D01*
X102954511Y-111989139D01*
X102954511Y-111989140D01*
X101359496Y-110394125D01*
X101331719Y-110339608D01*
X101330500Y-110324121D01*
X101330500Y-108769853D01*
X101330498Y-108769841D01*
X101322112Y-108727685D01*
X101318867Y-108711369D01*
X101274552Y-108645048D01*
X101273150Y-108644111D01*
X101208233Y-108600734D01*
X101208231Y-108600733D01*
X101208228Y-108600732D01*
X101208227Y-108600732D01*
X101149758Y-108589101D01*
X101149748Y-108589100D01*
X101149747Y-108589100D01*
X99595479Y-108589100D01*
X99537288Y-108570193D01*
X99525475Y-108560104D01*
X99329496Y-108364125D01*
X99301719Y-108309608D01*
X99300500Y-108294121D01*
X99300500Y-106406400D01*
X99319407Y-106348209D01*
X99368907Y-106312245D01*
X99399500Y-106307400D01*
X101149747Y-106307400D01*
X101149748Y-106307400D01*
X101208231Y-106295767D01*
X101274552Y-106251452D01*
X101318867Y-106185131D01*
X101330500Y-106126648D01*
X101330500Y-105206900D01*
X101664785Y-105206900D01*
X101683603Y-105409983D01*
X101739418Y-105606150D01*
X101830327Y-105788721D01*
X101953236Y-105951479D01*
X102103959Y-106088881D01*
X102277363Y-106196248D01*
X102467544Y-106269924D01*
X102668024Y-106307400D01*
X102871976Y-106307400D01*
X103072456Y-106269924D01*
X103262637Y-106196248D01*
X103436041Y-106088881D01*
X103586764Y-105951479D01*
X103709673Y-105788721D01*
X103800582Y-105606150D01*
X103856397Y-105409983D01*
X103871922Y-105242431D01*
X103886202Y-105209264D01*
X103871922Y-105171366D01*
X103871076Y-105162231D01*
X103856397Y-105003817D01*
X103800582Y-104807650D01*
X103709673Y-104625079D01*
X103586764Y-104462321D01*
X103436041Y-104324919D01*
X103262637Y-104217552D01*
X103072456Y-104143876D01*
X103072455Y-104143875D01*
X103072453Y-104143875D01*
X102871976Y-104106400D01*
X102668024Y-104106400D01*
X102467546Y-104143875D01*
X102397632Y-104170959D01*
X102277363Y-104217552D01*
X102103959Y-104324919D01*
X101953237Y-104462320D01*
X101830328Y-104625077D01*
X101830323Y-104625086D01*
X101739419Y-104807647D01*
X101739418Y-104807650D01*
X101683603Y-105003817D01*
X101664785Y-105206900D01*
X101330500Y-105206900D01*
X101330500Y-104572378D01*
X101349407Y-104514187D01*
X101359490Y-104502380D01*
X103010460Y-102851411D01*
X103050021Y-102782889D01*
X103070500Y-102706462D01*
X103070500Y-101855698D01*
X103089407Y-101797507D01*
X103133734Y-101763384D01*
X103262637Y-101713448D01*
X103436041Y-101606081D01*
X103586764Y-101468679D01*
X103709673Y-101305921D01*
X103800582Y-101123350D01*
X103856397Y-100927183D01*
X103871922Y-100759631D01*
X103886202Y-100726464D01*
X103871922Y-100688566D01*
X103871076Y-100679431D01*
X103856397Y-100521017D01*
X103800582Y-100324850D01*
X103709673Y-100142279D01*
X103586764Y-99979521D01*
X103436041Y-99842119D01*
X103262637Y-99734752D01*
X103072456Y-99661076D01*
X103072455Y-99661075D01*
X103072453Y-99661075D01*
X102871976Y-99623600D01*
X102668024Y-99623600D01*
X102467546Y-99661075D01*
X102397632Y-99688159D01*
X102277363Y-99734752D01*
X102103959Y-99842119D01*
X101953236Y-99979521D01*
X101922989Y-100019575D01*
X101830328Y-100142277D01*
X101830323Y-100142286D01*
X101739419Y-100324847D01*
X101739418Y-100324850D01*
X101683603Y-100521017D01*
X101664785Y-100724100D01*
X101683603Y-100927183D01*
X101739418Y-101123350D01*
X101830327Y-101305921D01*
X101953236Y-101468679D01*
X102103959Y-101606081D01*
X102277363Y-101713448D01*
X102406264Y-101763384D01*
X102453694Y-101802034D01*
X102469500Y-101855698D01*
X102469500Y-102501421D01*
X102450593Y-102559612D01*
X102440504Y-102571425D01*
X100934525Y-104077404D01*
X100880008Y-104105181D01*
X100864521Y-104106400D01*
X99399500Y-104106400D01*
X99341309Y-104087493D01*
X99305345Y-104037993D01*
X99300500Y-104007400D01*
X99300500Y-101923600D01*
X99319407Y-101865409D01*
X99368907Y-101829445D01*
X99399500Y-101824600D01*
X101149747Y-101824600D01*
X101149748Y-101824600D01*
X101208231Y-101812967D01*
X101274552Y-101768652D01*
X101318867Y-101702331D01*
X101330500Y-101643848D01*
X101330500Y-100089579D01*
X101349407Y-100031388D01*
X101359496Y-100019575D01*
X103900496Y-97478575D01*
X103955013Y-97450798D01*
X104015445Y-97460369D01*
X104058710Y-97503634D01*
X104069500Y-97548579D01*
X104069500Y-100679431D01*
X104056205Y-100720347D01*
X104069500Y-100768768D01*
X104069500Y-105162231D01*
X104056205Y-105203147D01*
X104069500Y-105251568D01*
X104069500Y-107924120D01*
X104050593Y-107982311D01*
X104040504Y-107994124D01*
X103359958Y-108674669D01*
X103305441Y-108702446D01*
X103254191Y-108696980D01*
X103117719Y-108644111D01*
X103072456Y-108626576D01*
X103072455Y-108626575D01*
X103072453Y-108626575D01*
X102871976Y-108589100D01*
X102668024Y-108589100D01*
X102467546Y-108626575D01*
X102419862Y-108645048D01*
X102277363Y-108700252D01*
X102103959Y-108807619D01*
X101953237Y-108945020D01*
X101830328Y-109107777D01*
X101830323Y-109107786D01*
X101776265Y-109216350D01*
X101739418Y-109290350D01*
X101683603Y-109486517D01*
X101664785Y-109689600D01*
X101683603Y-109892683D01*
X101739418Y-110088850D01*
X101830327Y-110271421D01*
X101953236Y-110434179D01*
X102103959Y-110571581D01*
X102277363Y-110678948D01*
X102467544Y-110752624D01*
X102668024Y-110790100D01*
X102871976Y-110790100D01*
X103072456Y-110752624D01*
X103262637Y-110678948D01*
X103436041Y-110571581D01*
X103586764Y-110434179D01*
X103709673Y-110271421D01*
X103800582Y-110088850D01*
X103856397Y-109892683D01*
X103875215Y-109689600D01*
X103856397Y-109486517D01*
X103800582Y-109290350D01*
X103763733Y-109216348D01*
X103754721Y-109155832D01*
X103782349Y-109102220D01*
X104610460Y-108274111D01*
X104650022Y-108205588D01*
X104670500Y-108129162D01*
X104670500Y-108050038D01*
X104670500Y-91460435D01*
X106499500Y-91460435D01*
X106499500Y-129239564D01*
X106519978Y-129315987D01*
X106519979Y-129315989D01*
X106546022Y-129361097D01*
X106559540Y-129384511D01*
X107562898Y-130387869D01*
X108378221Y-131203192D01*
X108405998Y-131257709D01*
X108396427Y-131318141D01*
X108394174Y-131322287D01*
X108338670Y-131456290D01*
X108338669Y-131456291D01*
X108319750Y-131599999D01*
X108319750Y-131600000D01*
X108338669Y-131743708D01*
X108338670Y-131743709D01*
X108394139Y-131877625D01*
X108482379Y-131992621D01*
X108597375Y-132080861D01*
X108731291Y-132136330D01*
X108875000Y-132155250D01*
X109018709Y-132136330D01*
X109152625Y-132080861D01*
X109267621Y-131992621D01*
X109355861Y-131877625D01*
X109411330Y-131743709D01*
X109426279Y-131630159D01*
X109452619Y-131574937D01*
X109506389Y-131545742D01*
X109529836Y-131545128D01*
X109529836Y-131544796D01*
X109536325Y-131544796D01*
X109680034Y-131525876D01*
X109813950Y-131470407D01*
X109928946Y-131382167D01*
X110017186Y-131267171D01*
X110072655Y-131133255D01*
X110091575Y-130989546D01*
X110079786Y-130899999D01*
X112744750Y-130899999D01*
X112744750Y-130900000D01*
X112763669Y-131043708D01*
X112763670Y-131043709D01*
X112800760Y-131133255D01*
X112819139Y-131177625D01*
X112907379Y-131292621D01*
X113022375Y-131380861D01*
X113156291Y-131436330D01*
X113300000Y-131455250D01*
X113443709Y-131436330D01*
X113577625Y-131380861D01*
X113692621Y-131292621D01*
X113780861Y-131177625D01*
X113836330Y-131043709D01*
X113855250Y-130900000D01*
X113847864Y-130843902D01*
X113836330Y-130756291D01*
X113780861Y-130622375D01*
X113692621Y-130507379D01*
X113692620Y-130507378D01*
X113692617Y-130507374D01*
X113639232Y-130466410D01*
X113604577Y-130415986D01*
X113600500Y-130387869D01*
X113600500Y-128199999D01*
X114169750Y-128199999D01*
X114169750Y-128200000D01*
X114188669Y-128343708D01*
X114188670Y-128343709D01*
X114228929Y-128440906D01*
X114244139Y-128477625D01*
X114332379Y-128592621D01*
X114332383Y-128592624D01*
X114332384Y-128592625D01*
X114385767Y-128633587D01*
X114420423Y-128684011D01*
X114424500Y-128712129D01*
X114424500Y-138704563D01*
X114444978Y-138780987D01*
X114472929Y-138829400D01*
X114472928Y-138829400D01*
X114484538Y-138849508D01*
X114484540Y-138849511D01*
X114828614Y-139193585D01*
X115023812Y-139388783D01*
X115051589Y-139443300D01*
X115042018Y-139503732D01*
X115041120Y-139505453D01*
X115024769Y-139536044D01*
X115024766Y-139536052D01*
X114964699Y-139734065D01*
X114964698Y-139734070D01*
X114944417Y-139939996D01*
X114944417Y-139940003D01*
X114964698Y-140145929D01*
X114964699Y-140145934D01*
X115024768Y-140343954D01*
X115122316Y-140526452D01*
X115253585Y-140686404D01*
X115253590Y-140686410D01*
X115253595Y-140686414D01*
X115413547Y-140817683D01*
X115413548Y-140817683D01*
X115413550Y-140817685D01*
X115596046Y-140915232D01*
X115733997Y-140957078D01*
X115794065Y-140975300D01*
X115794070Y-140975301D01*
X115999997Y-140995583D01*
X116000000Y-140995583D01*
X116000003Y-140995583D01*
X116205929Y-140975301D01*
X116205934Y-140975300D01*
X116403954Y-140915232D01*
X116586450Y-140817685D01*
X116746410Y-140686410D01*
X116877685Y-140526450D01*
X116975232Y-140343954D01*
X117035300Y-140145934D01*
X117035301Y-140145929D01*
X117055583Y-139940003D01*
X117055583Y-139939996D01*
X117035301Y-139734070D01*
X117035300Y-139734065D01*
X117017078Y-139673997D01*
X116975232Y-139536046D01*
X116877685Y-139353550D01*
X116746410Y-139193590D01*
X116746404Y-139193585D01*
X116586452Y-139062316D01*
X116403954Y-138964768D01*
X116205934Y-138904699D01*
X116205929Y-138904698D01*
X116000003Y-138884417D01*
X115999997Y-138884417D01*
X115794070Y-138904698D01*
X115794065Y-138904699D01*
X115596052Y-138964766D01*
X115596049Y-138964766D01*
X115596046Y-138964768D01*
X115596044Y-138964768D01*
X115596044Y-138964769D01*
X115565453Y-138981120D01*
X115505220Y-138991874D01*
X115450169Y-138965171D01*
X115448783Y-138963812D01*
X115054496Y-138569525D01*
X115026719Y-138515008D01*
X115025500Y-138499521D01*
X115025500Y-138145167D01*
X115044407Y-138086976D01*
X115093907Y-138051012D01*
X115155093Y-138051012D01*
X115201028Y-138082363D01*
X115253581Y-138146400D01*
X115253585Y-138146404D01*
X115253590Y-138146410D01*
X115253595Y-138146414D01*
X115413547Y-138277683D01*
X115413548Y-138277683D01*
X115413550Y-138277685D01*
X115596046Y-138375232D01*
X115692297Y-138404429D01*
X115794065Y-138435300D01*
X115794070Y-138435301D01*
X115999997Y-138455583D01*
X116000000Y-138455583D01*
X116000003Y-138455583D01*
X116205929Y-138435301D01*
X116205934Y-138435300D01*
X116212115Y-138433425D01*
X116403954Y-138375232D01*
X116586450Y-138277685D01*
X116746410Y-138146410D01*
X116877685Y-137986450D01*
X116975232Y-137803954D01*
X117035300Y-137605934D01*
X117035301Y-137605929D01*
X117055583Y-137400003D01*
X117055583Y-137399996D01*
X117035301Y-137194070D01*
X117035300Y-137194065D01*
X117017078Y-137133997D01*
X116975232Y-136996046D01*
X116877685Y-136813550D01*
X116826043Y-136750624D01*
X116746414Y-136653595D01*
X116746410Y-136653590D01*
X116664295Y-136586200D01*
X116586452Y-136522316D01*
X116403954Y-136424768D01*
X116205934Y-136364699D01*
X116205929Y-136364698D01*
X116000003Y-136344417D01*
X115999997Y-136344417D01*
X115794070Y-136364698D01*
X115794065Y-136364699D01*
X115596045Y-136424768D01*
X115413547Y-136522316D01*
X115253595Y-136653585D01*
X115253585Y-136653595D01*
X115201028Y-136717637D01*
X115149497Y-136750624D01*
X115088417Y-136747022D01*
X115041120Y-136708207D01*
X115025500Y-136654832D01*
X115025500Y-128712129D01*
X115044407Y-128653938D01*
X115064233Y-128633587D01*
X115117621Y-128592621D01*
X115205861Y-128477625D01*
X115261330Y-128343709D01*
X115280250Y-128200000D01*
X115261330Y-128056291D01*
X115205861Y-127922375D01*
X115117621Y-127807379D01*
X115002625Y-127719139D01*
X115002621Y-127719137D01*
X114868709Y-127663670D01*
X114868708Y-127663669D01*
X114725000Y-127644750D01*
X114581291Y-127663669D01*
X114581290Y-127663670D01*
X114447378Y-127719137D01*
X114447374Y-127719139D01*
X114332381Y-127807377D01*
X114332377Y-127807381D01*
X114244139Y-127922374D01*
X114244137Y-127922378D01*
X114188670Y-128056290D01*
X114188669Y-128056291D01*
X114169750Y-128199999D01*
X113600500Y-128199999D01*
X113600500Y-116299995D01*
X113944901Y-116299995D01*
X113944901Y-116300004D01*
X113963251Y-116486325D01*
X113963252Y-116486328D01*
X114017605Y-116665504D01*
X114017606Y-116665506D01*
X114105859Y-116830617D01*
X114105862Y-116830622D01*
X114105864Y-116830625D01*
X114155395Y-116890978D01*
X114224638Y-116975352D01*
X114224647Y-116975361D01*
X114292145Y-117030755D01*
X114369375Y-117094136D01*
X114534499Y-117182396D01*
X114713669Y-117236747D01*
X114713671Y-117236747D01*
X114713674Y-117236748D01*
X114899996Y-117255099D01*
X114900000Y-117255099D01*
X114900004Y-117255099D01*
X115086325Y-117236748D01*
X115086326Y-117236747D01*
X115086331Y-117236747D01*
X115265501Y-117182396D01*
X115430625Y-117094136D01*
X115575357Y-116975357D01*
X115694136Y-116830625D01*
X115782396Y-116665501D01*
X115836747Y-116486331D01*
X115855099Y-116300000D01*
X115855099Y-116299995D01*
X115836748Y-116113674D01*
X115836747Y-116113671D01*
X115836747Y-116113669D01*
X115782396Y-115934499D01*
X115694136Y-115769375D01*
X115630755Y-115692145D01*
X115575361Y-115624647D01*
X115575352Y-115624638D01*
X115469635Y-115537879D01*
X115430625Y-115505864D01*
X115430622Y-115505862D01*
X115430617Y-115505859D01*
X115265506Y-115417606D01*
X115265504Y-115417605D01*
X115086328Y-115363252D01*
X115086325Y-115363251D01*
X114900004Y-115344901D01*
X114899996Y-115344901D01*
X114713674Y-115363251D01*
X114713671Y-115363252D01*
X114534495Y-115417605D01*
X114534493Y-115417606D01*
X114369382Y-115505859D01*
X114369376Y-115505863D01*
X114224647Y-115624638D01*
X114224638Y-115624647D01*
X114105863Y-115769376D01*
X114105859Y-115769382D01*
X114017606Y-115934493D01*
X114017605Y-115934495D01*
X113963252Y-116113671D01*
X113963251Y-116113674D01*
X113944901Y-116299995D01*
X113600500Y-116299995D01*
X113600500Y-111399995D01*
X113944901Y-111399995D01*
X113944901Y-111400004D01*
X113963251Y-111586325D01*
X113963252Y-111586328D01*
X114017605Y-111765504D01*
X114017606Y-111765506D01*
X114105859Y-111930617D01*
X114105862Y-111930622D01*
X114105864Y-111930625D01*
X114153885Y-111989139D01*
X114224638Y-112075352D01*
X114224647Y-112075361D01*
X114271255Y-112113611D01*
X114369375Y-112194136D01*
X114534499Y-112282396D01*
X114713669Y-112336747D01*
X114713671Y-112336747D01*
X114713674Y-112336748D01*
X114899996Y-112355099D01*
X114900000Y-112355099D01*
X114900004Y-112355099D01*
X115086325Y-112336748D01*
X115086326Y-112336747D01*
X115086331Y-112336747D01*
X115265501Y-112282396D01*
X115430625Y-112194136D01*
X115575357Y-112075357D01*
X115694136Y-111930625D01*
X115782396Y-111765501D01*
X115836747Y-111586331D01*
X115849675Y-111455079D01*
X115855099Y-111400004D01*
X115855099Y-111399995D01*
X115836748Y-111213674D01*
X115836747Y-111213671D01*
X115836747Y-111213669D01*
X115782396Y-111034499D01*
X115694136Y-110869375D01*
X115598321Y-110752624D01*
X115575361Y-110724647D01*
X115575352Y-110724638D01*
X115490978Y-110655395D01*
X115430625Y-110605864D01*
X115430622Y-110605862D01*
X115430617Y-110605859D01*
X115265506Y-110517606D01*
X115265504Y-110517605D01*
X115086328Y-110463252D01*
X115086325Y-110463251D01*
X114900004Y-110444901D01*
X114899996Y-110444901D01*
X114713674Y-110463251D01*
X114713671Y-110463252D01*
X114534495Y-110517605D01*
X114534493Y-110517606D01*
X114369382Y-110605859D01*
X114369376Y-110605863D01*
X114224647Y-110724638D01*
X114224638Y-110724647D01*
X114105863Y-110869376D01*
X114105859Y-110869382D01*
X114017606Y-111034493D01*
X114017605Y-111034495D01*
X113963252Y-111213671D01*
X113963251Y-111213674D01*
X113944901Y-111399995D01*
X113600500Y-111399995D01*
X113600500Y-102700000D01*
X113994859Y-102700000D01*
X114015379Y-102921445D01*
X114076239Y-103135347D01*
X114175364Y-103334417D01*
X114175369Y-103334426D01*
X114191138Y-103355306D01*
X114676211Y-102870232D01*
X114687482Y-102912292D01*
X114759890Y-103037708D01*
X114862292Y-103140110D01*
X114987708Y-103212518D01*
X115029764Y-103223787D01*
X114546672Y-103706880D01*
X114662813Y-103778793D01*
X114662819Y-103778796D01*
X114870200Y-103859136D01*
X115088804Y-103900000D01*
X115311196Y-103900000D01*
X115529799Y-103859136D01*
X115737180Y-103778796D01*
X115737181Y-103778796D01*
X115853326Y-103706880D01*
X115370233Y-103223787D01*
X115412292Y-103212518D01*
X115537708Y-103140110D01*
X115640110Y-103037708D01*
X115712518Y-102912292D01*
X115723787Y-102870233D01*
X116208861Y-103355307D01*
X116224629Y-103334428D01*
X116224635Y-103334418D01*
X116323760Y-103135347D01*
X116384620Y-102921445D01*
X116405140Y-102700000D01*
X116384620Y-102478554D01*
X116323760Y-102264652D01*
X116224633Y-102065578D01*
X116224624Y-102065563D01*
X116208861Y-102044690D01*
X115723787Y-102529764D01*
X115712518Y-102487708D01*
X115640110Y-102362292D01*
X115537708Y-102259890D01*
X115412292Y-102187482D01*
X115370232Y-102176211D01*
X115853326Y-101693118D01*
X115737186Y-101621206D01*
X115737180Y-101621203D01*
X115529799Y-101540863D01*
X115311196Y-101500000D01*
X115088804Y-101500000D01*
X114870200Y-101540863D01*
X114662821Y-101621202D01*
X114662816Y-101621205D01*
X114546672Y-101693118D01*
X115029766Y-102176212D01*
X114987708Y-102187482D01*
X114862292Y-102259890D01*
X114759890Y-102362292D01*
X114687482Y-102487708D01*
X114676212Y-102529766D01*
X114191137Y-102044691D01*
X114175368Y-102065574D01*
X114076239Y-102264652D01*
X114015379Y-102478554D01*
X113994859Y-102700000D01*
X113600500Y-102700000D01*
X113600500Y-100265478D01*
X113619407Y-100207287D01*
X113629490Y-100195480D01*
X114534969Y-99290000D01*
X114589484Y-99262225D01*
X114649916Y-99271796D01*
X114657083Y-99275832D01*
X114662599Y-99279247D01*
X114870060Y-99359618D01*
X115088757Y-99400500D01*
X115311243Y-99400500D01*
X115529940Y-99359618D01*
X115737401Y-99279247D01*
X115926562Y-99162124D01*
X116090981Y-99012236D01*
X116225058Y-98834689D01*
X116324229Y-98635528D01*
X116385115Y-98421536D01*
X116405643Y-98200000D01*
X116385115Y-97978464D01*
X116324229Y-97764472D01*
X116225058Y-97565311D01*
X116090981Y-97387764D01*
X115926562Y-97237876D01*
X115737401Y-97120753D01*
X115529940Y-97040382D01*
X115529939Y-97040381D01*
X115529937Y-97040381D01*
X115311243Y-96999500D01*
X115088757Y-96999500D01*
X114870062Y-97040381D01*
X114793797Y-97069926D01*
X114662599Y-97120753D01*
X114578810Y-97172633D01*
X114473438Y-97237876D01*
X114359332Y-97341898D01*
X114309019Y-97387764D01*
X114279614Y-97426703D01*
X114174943Y-97565309D01*
X114174938Y-97565318D01*
X114075772Y-97764469D01*
X114014885Y-97978464D01*
X113994357Y-98200000D01*
X114014885Y-98421535D01*
X114075772Y-98635530D01*
X114131688Y-98747824D01*
X114140701Y-98808342D01*
X114113071Y-98861956D01*
X113115489Y-99859540D01*
X113115488Y-99859539D01*
X113059539Y-99915489D01*
X113019980Y-99984007D01*
X113019978Y-99984011D01*
X112999500Y-100060435D01*
X112999500Y-130387869D01*
X112980593Y-130446060D01*
X112960768Y-130466410D01*
X112907382Y-130507374D01*
X112819139Y-130622374D01*
X112819137Y-130622378D01*
X112763670Y-130756290D01*
X112763669Y-130756291D01*
X112744750Y-130899999D01*
X110079786Y-130899999D01*
X110072655Y-130845837D01*
X110017186Y-130711921D01*
X109928946Y-130596925D01*
X109813950Y-130508685D01*
X109813946Y-130508683D01*
X109680034Y-130453216D01*
X109680033Y-130453215D01*
X109536325Y-130434296D01*
X109392616Y-130453215D01*
X109392615Y-130453216D01*
X109258698Y-130508685D01*
X109256825Y-130510123D01*
X109255228Y-130510688D01*
X109253076Y-130511931D01*
X109252845Y-130511532D01*
X109199149Y-130530546D01*
X109140484Y-130513168D01*
X109126555Y-130501584D01*
X107529496Y-128904525D01*
X107501719Y-128850008D01*
X107500500Y-128834521D01*
X107500500Y-103398237D01*
X107519407Y-103340046D01*
X107568907Y-103304082D01*
X107630093Y-103304082D01*
X107678504Y-103338577D01*
X107691137Y-103355307D01*
X108176211Y-102870232D01*
X108187482Y-102912292D01*
X108259890Y-103037708D01*
X108362292Y-103140110D01*
X108487708Y-103212518D01*
X108529764Y-103223787D01*
X108046672Y-103706880D01*
X108162813Y-103778793D01*
X108162819Y-103778796D01*
X108370200Y-103859136D01*
X108588804Y-103900000D01*
X108811196Y-103900000D01*
X109029799Y-103859136D01*
X109237180Y-103778796D01*
X109237181Y-103778796D01*
X109353326Y-103706880D01*
X108870233Y-103223787D01*
X108912292Y-103212518D01*
X109037708Y-103140110D01*
X109140110Y-103037708D01*
X109212518Y-102912292D01*
X109223787Y-102870233D01*
X109715338Y-103361784D01*
X109753005Y-103371196D01*
X109792310Y-103418086D01*
X109799500Y-103455126D01*
X109799500Y-120868835D01*
X109780593Y-120927026D01*
X109770504Y-120938839D01*
X108690489Y-122018854D01*
X108690488Y-122018853D01*
X108634539Y-122074803D01*
X108594980Y-122143321D01*
X108594978Y-122143325D01*
X108574500Y-122219749D01*
X108574500Y-128368681D01*
X108555593Y-128426872D01*
X108535768Y-128447222D01*
X108483135Y-128487609D01*
X108483127Y-128487617D01*
X108394889Y-128602610D01*
X108394887Y-128602614D01*
X108339420Y-128736526D01*
X108339419Y-128736527D01*
X108320500Y-128880235D01*
X108320500Y-128880236D01*
X108339419Y-129023944D01*
X108339420Y-129023945D01*
X108394158Y-129156098D01*
X108394889Y-129157861D01*
X108483129Y-129272857D01*
X108598125Y-129361097D01*
X108732041Y-129416566D01*
X108875750Y-129435486D01*
X109019459Y-129416566D01*
X109153375Y-129361097D01*
X109268371Y-129272857D01*
X109356611Y-129157861D01*
X109412080Y-129023945D01*
X109427222Y-128908931D01*
X109453563Y-128853707D01*
X109507334Y-128824512D01*
X109567996Y-128832498D01*
X109612378Y-128874616D01*
X109623528Y-128908932D01*
X109638669Y-129023944D01*
X109638670Y-129023945D01*
X109693408Y-129156098D01*
X109694139Y-129157861D01*
X109782379Y-129272857D01*
X109897375Y-129361097D01*
X110031291Y-129416566D01*
X110175000Y-129435486D01*
X110318709Y-129416566D01*
X110452625Y-129361097D01*
X110567621Y-129272857D01*
X110655861Y-129157861D01*
X110711330Y-129023945D01*
X110729630Y-128884944D01*
X110755971Y-128829720D01*
X110809742Y-128800525D01*
X110870404Y-128808511D01*
X110914786Y-128850629D01*
X110925936Y-128884945D01*
X110944235Y-129023944D01*
X110944236Y-129023945D01*
X110998974Y-129156098D01*
X110999705Y-129157861D01*
X111087945Y-129272857D01*
X111202941Y-129361097D01*
X111336857Y-129416566D01*
X111480566Y-129435486D01*
X111624275Y-129416566D01*
X111758191Y-129361097D01*
X111873187Y-129272857D01*
X111961427Y-129157861D01*
X112016896Y-129023945D01*
X112035816Y-128880236D01*
X112016896Y-128736527D01*
X111961427Y-128602611D01*
X111873187Y-128487615D01*
X111873186Y-128487614D01*
X111873183Y-128487610D01*
X111819798Y-128446646D01*
X111785143Y-128396222D01*
X111781066Y-128368105D01*
X111781066Y-123940673D01*
X111799973Y-123882482D01*
X111810056Y-123870675D01*
X111940460Y-123740272D01*
X111952330Y-123719713D01*
X111980020Y-123671753D01*
X111980020Y-123671751D01*
X111980022Y-123671749D01*
X112000500Y-123595323D01*
X112000500Y-123516199D01*
X112000500Y-73519872D01*
X112019407Y-73461681D01*
X112068907Y-73425717D01*
X112094923Y-73420978D01*
X112276201Y-73412598D01*
X112423073Y-73405809D01*
X112423076Y-73405808D01*
X112423084Y-73405808D01*
X112842559Y-73347293D01*
X113179490Y-73268048D01*
X113254838Y-73250327D01*
X113254839Y-73250326D01*
X113254846Y-73250325D01*
X113656426Y-73115728D01*
X114043874Y-72944653D01*
X114413885Y-72738558D01*
X114763302Y-72499203D01*
X115089142Y-72228628D01*
X115388628Y-71929142D01*
X115659203Y-71603302D01*
X115898558Y-71253885D01*
X116104653Y-70883874D01*
X116275728Y-70496426D01*
X116410325Y-70094846D01*
X116507293Y-69682559D01*
X116565808Y-69263084D01*
X116566443Y-69249370D01*
X116585368Y-68840007D01*
X116585368Y-68839992D01*
X116565809Y-68416926D01*
X116565808Y-68416921D01*
X116565808Y-68416916D01*
X116507293Y-67997441D01*
X116410325Y-67585154D01*
X116275728Y-67183574D01*
X116104653Y-66796126D01*
X115898558Y-66426115D01*
X115659203Y-66076698D01*
X115472157Y-65851448D01*
X115388635Y-65750866D01*
X115388632Y-65750863D01*
X115388628Y-65750858D01*
X115089142Y-65451372D01*
X115089136Y-65451367D01*
X115089133Y-65451364D01*
X114763301Y-65180796D01*
X114413881Y-64941439D01*
X114043873Y-64735346D01*
X113871003Y-64659017D01*
X113656426Y-64564272D01*
X113448923Y-64494723D01*
X113254838Y-64429672D01*
X112842561Y-64332707D01*
X112423078Y-64274191D01*
X112423073Y-64274190D01*
X112000008Y-64254632D01*
X111999992Y-64254632D01*
X111576926Y-64274190D01*
X111576921Y-64274191D01*
X111157438Y-64332707D01*
X110745161Y-64429672D01*
X110346930Y-64563147D01*
X110343574Y-64564272D01*
X110248623Y-64606196D01*
X109956126Y-64735346D01*
X109586118Y-64941439D01*
X109236698Y-65180796D01*
X108910866Y-65451364D01*
X108611364Y-65750866D01*
X108340796Y-66076698D01*
X108101439Y-66426118D01*
X107895346Y-66796126D01*
X107724271Y-67183577D01*
X107589672Y-67585161D01*
X107492707Y-67997438D01*
X107434191Y-68416921D01*
X107434190Y-68416926D01*
X107414632Y-68839992D01*
X107414632Y-68840007D01*
X107434190Y-69263073D01*
X107434191Y-69263078D01*
X107492707Y-69682561D01*
X107589672Y-70094838D01*
X107589675Y-70094846D01*
X107724272Y-70496426D01*
X107823221Y-70720525D01*
X107895346Y-70883873D01*
X108101439Y-71253881D01*
X108340796Y-71603301D01*
X108611364Y-71929133D01*
X108611367Y-71929136D01*
X108611372Y-71929142D01*
X108910858Y-72228628D01*
X108910863Y-72228632D01*
X108910866Y-72228635D01*
X109236698Y-72499203D01*
X109586118Y-72738560D01*
X109785064Y-72849372D01*
X109956126Y-72944653D01*
X110343574Y-73115728D01*
X110745154Y-73250325D01*
X110745157Y-73250325D01*
X110745161Y-73250327D01*
X110910228Y-73289149D01*
X111157441Y-73347293D01*
X111314179Y-73369157D01*
X111369198Y-73395921D01*
X111397978Y-73449915D01*
X111399500Y-73467207D01*
X111399500Y-74852511D01*
X111380593Y-74910702D01*
X111331093Y-74946666D01*
X111269907Y-74946666D01*
X111220407Y-74910702D01*
X111209036Y-74890396D01*
X111180862Y-74822378D01*
X111180861Y-74822375D01*
X111092621Y-74707379D01*
X110977625Y-74619139D01*
X110977621Y-74619137D01*
X110843709Y-74563670D01*
X110843708Y-74563669D01*
X110700000Y-74544750D01*
X110556291Y-74563669D01*
X110556290Y-74563670D01*
X110422378Y-74619137D01*
X110422374Y-74619139D01*
X110307381Y-74707377D01*
X110307377Y-74707381D01*
X110219139Y-74822374D01*
X110219137Y-74822378D01*
X110163670Y-74956290D01*
X110163669Y-74956291D01*
X110144750Y-75099999D01*
X110144750Y-75100000D01*
X110163669Y-75243708D01*
X110163670Y-75243709D01*
X110217856Y-75374529D01*
X110219139Y-75377625D01*
X110307379Y-75492621D01*
X110422375Y-75580861D01*
X110556291Y-75636330D01*
X110700000Y-75655250D01*
X110766719Y-75646465D01*
X110826876Y-75657614D01*
X110849643Y-75674614D01*
X110970504Y-75795475D01*
X110998281Y-75849992D01*
X110999500Y-75865479D01*
X110999500Y-78000747D01*
X110980593Y-78058938D01*
X110931093Y-78094902D01*
X110869907Y-78094902D01*
X110862628Y-78092217D01*
X110793709Y-78063670D01*
X110793706Y-78063669D01*
X110793705Y-78063669D01*
X110650000Y-78044750D01*
X110506291Y-78063669D01*
X110506290Y-78063670D01*
X110372378Y-78119137D01*
X110372374Y-78119139D01*
X110257381Y-78207377D01*
X110257377Y-78207381D01*
X110169139Y-78322374D01*
X110169137Y-78322378D01*
X110113670Y-78456290D01*
X110113669Y-78456291D01*
X110094750Y-78599999D01*
X110094750Y-78600000D01*
X110113669Y-78743708D01*
X110113670Y-78743709D01*
X110169139Y-78877625D01*
X110257379Y-78992621D01*
X110372375Y-79080861D01*
X110506291Y-79136330D01*
X110513420Y-79137268D01*
X110568643Y-79163605D01*
X110597841Y-79217375D01*
X110599500Y-79235421D01*
X110599500Y-81500747D01*
X110580593Y-81558938D01*
X110531093Y-81594902D01*
X110469907Y-81594902D01*
X110462628Y-81592217D01*
X110393709Y-81563670D01*
X110393706Y-81563669D01*
X110393705Y-81563669D01*
X110250000Y-81544750D01*
X110106291Y-81563669D01*
X110106290Y-81563670D01*
X109972378Y-81619137D01*
X109972374Y-81619139D01*
X109857381Y-81707377D01*
X109857377Y-81707381D01*
X109769139Y-81822374D01*
X109769137Y-81822378D01*
X109713670Y-81956290D01*
X109713669Y-81956291D01*
X109694750Y-82099999D01*
X109694750Y-82100000D01*
X109713669Y-82243708D01*
X109713670Y-82243709D01*
X109769139Y-82377625D01*
X109857379Y-82492621D01*
X109972375Y-82580861D01*
X110106291Y-82636330D01*
X110113420Y-82637268D01*
X110168643Y-82663605D01*
X110197841Y-82717375D01*
X110199500Y-82735421D01*
X110199500Y-84900747D01*
X110180593Y-84958938D01*
X110131093Y-84994902D01*
X110069907Y-84994902D01*
X110062628Y-84992217D01*
X109993709Y-84963670D01*
X109993706Y-84963669D01*
X109993705Y-84963669D01*
X109850000Y-84944750D01*
X109706291Y-84963669D01*
X109706290Y-84963670D01*
X109572378Y-85019137D01*
X109572374Y-85019139D01*
X109457381Y-85107377D01*
X109457377Y-85107381D01*
X109369139Y-85222374D01*
X109369137Y-85222378D01*
X109313670Y-85356290D01*
X109313669Y-85356291D01*
X109294750Y-85499999D01*
X109294750Y-85500000D01*
X109313669Y-85643708D01*
X109313670Y-85643709D01*
X109369139Y-85777625D01*
X109457379Y-85892621D01*
X109572375Y-85980861D01*
X109706291Y-86036330D01*
X109713420Y-86037268D01*
X109768643Y-86063605D01*
X109797841Y-86117375D01*
X109799500Y-86135421D01*
X109799500Y-88421457D01*
X109780593Y-88479648D01*
X109731093Y-88515612D01*
X109669907Y-88515612D01*
X109662620Y-88512924D01*
X109543709Y-88463670D01*
X109543706Y-88463669D01*
X109543705Y-88463669D01*
X109400000Y-88444750D01*
X109256291Y-88463669D01*
X109256290Y-88463670D01*
X109122378Y-88519137D01*
X109122374Y-88519139D01*
X109007381Y-88607377D01*
X109007377Y-88607381D01*
X108919139Y-88722374D01*
X108919137Y-88722378D01*
X108863670Y-88856290D01*
X108863669Y-88856291D01*
X108844546Y-89001549D01*
X108818205Y-89056774D01*
X108816397Y-89058631D01*
X106615489Y-91259540D01*
X106615488Y-91259539D01*
X106559539Y-91315489D01*
X106519980Y-91384007D01*
X106519978Y-91384011D01*
X106499500Y-91460435D01*
X104670500Y-91460435D01*
X104670500Y-84353538D01*
X104650022Y-84277112D01*
X104650020Y-84277109D01*
X104650020Y-84277107D01*
X104610463Y-84208593D01*
X104610462Y-84208592D01*
X104610461Y-84208591D01*
X104610460Y-84208589D01*
X103782351Y-83380480D01*
X103754574Y-83325963D01*
X103763733Y-83266352D01*
X103800582Y-83192350D01*
X103856397Y-82996183D01*
X103875215Y-82793100D01*
X103856397Y-82590017D01*
X103800582Y-82393850D01*
X103709673Y-82211279D01*
X103586764Y-82048521D01*
X103436041Y-81911119D01*
X103262637Y-81803752D01*
X103115283Y-81746667D01*
X103072454Y-81730075D01*
X103023227Y-81720873D01*
X102969501Y-81691595D01*
X102943246Y-81636329D01*
X102954490Y-81576185D01*
X102971412Y-81553558D01*
X107450357Y-77074612D01*
X107504872Y-77046837D01*
X107533275Y-77046465D01*
X107600000Y-77055250D01*
X107743709Y-77036330D01*
X107877625Y-76980861D01*
X107992621Y-76892621D01*
X108080861Y-76777625D01*
X108136330Y-76643709D01*
X108155250Y-76500000D01*
X108136330Y-76356291D01*
X108080861Y-76222375D01*
X107992621Y-76107379D01*
X107877625Y-76019139D01*
X107877621Y-76019137D01*
X107743709Y-75963670D01*
X107743708Y-75963669D01*
X107600000Y-75944750D01*
X107456291Y-75963669D01*
X107456290Y-75963670D01*
X107322378Y-76019137D01*
X107322374Y-76019139D01*
X107207381Y-76107377D01*
X107207377Y-76107381D01*
X107119139Y-76222374D01*
X107119137Y-76222378D01*
X107063670Y-76356290D01*
X107063669Y-76356291D01*
X107044750Y-76499999D01*
X107044750Y-76500000D01*
X107053533Y-76566717D01*
X107042383Y-76626878D01*
X107025384Y-76649643D01*
X102411425Y-81263604D01*
X102356908Y-81291381D01*
X102341421Y-81292600D01*
X102312505Y-81292600D01*
X102233381Y-81292600D01*
X102186604Y-81305133D01*
X102156950Y-81313079D01*
X102088436Y-81352636D01*
X101499504Y-81941568D01*
X101444987Y-81969345D01*
X101384555Y-81959774D01*
X101341290Y-81916509D01*
X101332064Y-81878080D01*
X101330976Y-81878188D01*
X101330500Y-81873361D01*
X101330500Y-81873352D01*
X101318867Y-81814869D01*
X101274552Y-81748548D01*
X101274548Y-81748545D01*
X101208233Y-81704234D01*
X101208231Y-81704233D01*
X101208228Y-81704232D01*
X101208227Y-81704232D01*
X101149758Y-81692601D01*
X101149748Y-81692600D01*
X101149747Y-81692600D01*
X99429500Y-81692600D01*
X99371309Y-81673693D01*
X99335345Y-81624193D01*
X99330500Y-81593600D01*
X99330500Y-79509800D01*
X99349407Y-79451609D01*
X99398907Y-79415645D01*
X99429500Y-79410800D01*
X101149747Y-79410800D01*
X101149748Y-79410800D01*
X101208231Y-79399167D01*
X101274552Y-79354852D01*
X101318867Y-79288531D01*
X101330500Y-79230048D01*
X101330500Y-78310300D01*
X101664785Y-78310300D01*
X101683603Y-78513383D01*
X101739418Y-78709550D01*
X101830327Y-78892121D01*
X101953236Y-79054879D01*
X102103959Y-79192281D01*
X102277363Y-79299648D01*
X102467544Y-79373324D01*
X102668024Y-79410800D01*
X102871976Y-79410800D01*
X103072456Y-79373324D01*
X103262637Y-79299648D01*
X103436041Y-79192281D01*
X103586764Y-79054879D01*
X103709673Y-78892121D01*
X103800582Y-78709550D01*
X103856397Y-78513383D01*
X103875215Y-78310300D01*
X103856397Y-78107217D01*
X103800582Y-77911050D01*
X103709673Y-77728479D01*
X103586764Y-77565721D01*
X103436041Y-77428319D01*
X103262637Y-77320952D01*
X103072456Y-77247276D01*
X103072455Y-77247275D01*
X103072453Y-77247275D01*
X102871976Y-77209800D01*
X102668024Y-77209800D01*
X102467546Y-77247275D01*
X102397632Y-77274359D01*
X102277363Y-77320952D01*
X102103959Y-77428319D01*
X101953237Y-77565720D01*
X101830328Y-77728477D01*
X101830323Y-77728486D01*
X101739419Y-77911047D01*
X101739418Y-77911050D01*
X101683603Y-78107217D01*
X101664785Y-78310300D01*
X101330500Y-78310300D01*
X101330500Y-77675778D01*
X101349407Y-77617587D01*
X101359490Y-77605780D01*
X103010460Y-75954811D01*
X103016269Y-75944750D01*
X103050021Y-75886289D01*
X103070500Y-75809862D01*
X103070500Y-74959198D01*
X103089407Y-74901007D01*
X103133734Y-74866884D01*
X103262637Y-74816948D01*
X103436041Y-74709581D01*
X103586764Y-74572179D01*
X103709673Y-74409421D01*
X103800582Y-74226850D01*
X103856397Y-74030683D01*
X103875215Y-73827600D01*
X103856397Y-73624517D01*
X103800582Y-73428350D01*
X103709673Y-73245779D01*
X103586764Y-73083021D01*
X103436041Y-72945619D01*
X103262637Y-72838252D01*
X103072456Y-72764576D01*
X103072455Y-72764575D01*
X103072453Y-72764575D01*
X102871976Y-72727100D01*
X102668024Y-72727100D01*
X102467546Y-72764575D01*
X102419862Y-72783048D01*
X102277363Y-72838252D01*
X102105519Y-72944653D01*
X102103959Y-72945619D01*
X101953237Y-73083020D01*
X101830328Y-73245777D01*
X101830323Y-73245786D01*
X101740729Y-73425717D01*
X101739418Y-73428350D01*
X101683603Y-73624517D01*
X101664785Y-73827600D01*
X101683603Y-74030683D01*
X101739418Y-74226850D01*
X101830327Y-74409421D01*
X101953236Y-74572179D01*
X102103959Y-74709581D01*
X102277363Y-74816948D01*
X102406264Y-74866884D01*
X102453694Y-74905534D01*
X102469500Y-74959198D01*
X102469500Y-75604821D01*
X102450593Y-75663012D01*
X102440504Y-75674825D01*
X100934525Y-77180804D01*
X100880008Y-77208581D01*
X100864521Y-77209800D01*
X99429500Y-77209800D01*
X99371309Y-77190893D01*
X99335345Y-77141393D01*
X99330500Y-77110800D01*
X99330500Y-75027100D01*
X99349407Y-74968909D01*
X99398907Y-74932945D01*
X99429500Y-74928100D01*
X101149747Y-74928100D01*
X101149748Y-74928100D01*
X101208231Y-74916467D01*
X101274552Y-74872152D01*
X101318867Y-74805831D01*
X101330500Y-74747348D01*
X101330500Y-72907852D01*
X101318867Y-72849369D01*
X101274552Y-72783048D01*
X101274548Y-72783045D01*
X101208233Y-72738734D01*
X101208231Y-72738733D01*
X101208228Y-72738732D01*
X101208227Y-72738732D01*
X101149758Y-72727101D01*
X101149748Y-72727100D01*
X99310252Y-72727100D01*
X99310251Y-72727100D01*
X99310241Y-72727101D01*
X99251772Y-72738732D01*
X99251766Y-72738734D01*
X99185451Y-72783045D01*
X99185445Y-72783051D01*
X99141134Y-72849366D01*
X99141132Y-72849372D01*
X99129501Y-72907841D01*
X99129500Y-72907853D01*
X99129500Y-73440668D01*
X99110593Y-73498859D01*
X99061093Y-73534823D01*
X99056128Y-73536293D01*
X99055128Y-73536561D01*
X98994026Y-73533362D01*
X98946474Y-73494859D01*
X98930500Y-73440936D01*
X98930500Y-68425053D01*
X99129500Y-68425053D01*
X99129500Y-70264546D01*
X99129501Y-70264558D01*
X99141132Y-70323027D01*
X99141134Y-70323033D01*
X99148561Y-70334148D01*
X99185448Y-70389352D01*
X99251769Y-70433667D01*
X99296231Y-70442511D01*
X99310241Y-70445298D01*
X99310246Y-70445298D01*
X99310252Y-70445300D01*
X99310253Y-70445300D01*
X101149747Y-70445300D01*
X101149748Y-70445300D01*
X101208231Y-70433667D01*
X101274552Y-70389352D01*
X101318867Y-70323031D01*
X101330500Y-70264548D01*
X101330500Y-68425052D01*
X101318867Y-68366569D01*
X101274552Y-68300248D01*
X101274548Y-68300245D01*
X101208233Y-68255934D01*
X101208231Y-68255933D01*
X101208228Y-68255932D01*
X101208227Y-68255932D01*
X101149758Y-68244301D01*
X101149748Y-68244300D01*
X99310252Y-68244300D01*
X99310251Y-68244300D01*
X99310241Y-68244301D01*
X99251772Y-68255932D01*
X99251766Y-68255934D01*
X99185451Y-68300245D01*
X99185445Y-68300251D01*
X99141134Y-68366566D01*
X99141132Y-68366572D01*
X99129501Y-68425041D01*
X99129500Y-68425053D01*
X98930500Y-68425053D01*
X98930500Y-66627579D01*
X98949407Y-66569388D01*
X98959496Y-66557575D01*
X99525475Y-65991596D01*
X99579992Y-65963819D01*
X99595479Y-65962600D01*
X100864521Y-65962600D01*
X100922712Y-65981507D01*
X100934525Y-65991596D01*
X102440504Y-67497575D01*
X102468281Y-67552092D01*
X102469500Y-67567579D01*
X102469500Y-68213201D01*
X102450593Y-68271392D01*
X102406263Y-68305516D01*
X102359450Y-68323651D01*
X102277363Y-68355452D01*
X102103959Y-68462819D01*
X101953237Y-68600220D01*
X101830328Y-68762977D01*
X101830323Y-68762986D01*
X101786719Y-68850556D01*
X101739418Y-68945550D01*
X101683603Y-69141717D01*
X101664785Y-69344800D01*
X101683603Y-69547883D01*
X101739418Y-69744050D01*
X101830327Y-69926621D01*
X101953236Y-70089379D01*
X102103959Y-70226781D01*
X102277363Y-70334148D01*
X102467544Y-70407824D01*
X102668024Y-70445300D01*
X102871976Y-70445300D01*
X103072456Y-70407824D01*
X103262637Y-70334148D01*
X103436041Y-70226781D01*
X103586764Y-70089379D01*
X103709673Y-69926621D01*
X103800582Y-69744050D01*
X103856397Y-69547883D01*
X103875215Y-69344800D01*
X103856397Y-69141717D01*
X103800582Y-68945550D01*
X103709673Y-68762979D01*
X103586764Y-68600221D01*
X103436041Y-68462819D01*
X103262637Y-68355452D01*
X103162336Y-68316595D01*
X103133737Y-68305516D01*
X103086306Y-68266864D01*
X103070500Y-68213201D01*
X103070500Y-67362537D01*
X103070499Y-67362535D01*
X103050021Y-67286111D01*
X103050019Y-67286107D01*
X103010460Y-67217589D01*
X102954511Y-67161639D01*
X102954511Y-67161640D01*
X101359496Y-65566625D01*
X101331719Y-65512108D01*
X101330500Y-65496621D01*
X101330500Y-64862100D01*
X101664785Y-64862100D01*
X101683603Y-65065183D01*
X101739418Y-65261350D01*
X101830327Y-65443921D01*
X101953236Y-65606679D01*
X102103959Y-65744081D01*
X102277363Y-65851448D01*
X102467544Y-65925124D01*
X102668024Y-65962600D01*
X102871976Y-65962600D01*
X103072456Y-65925124D01*
X103262637Y-65851448D01*
X103436041Y-65744081D01*
X103586764Y-65606679D01*
X103709673Y-65443921D01*
X103800582Y-65261350D01*
X103856397Y-65065183D01*
X103875215Y-64862100D01*
X103856397Y-64659017D01*
X103800582Y-64462850D01*
X103709673Y-64280279D01*
X103586764Y-64117521D01*
X103436041Y-63980119D01*
X103262637Y-63872752D01*
X103072456Y-63799076D01*
X103072455Y-63799075D01*
X103072453Y-63799075D01*
X102871976Y-63761600D01*
X102668024Y-63761600D01*
X102467546Y-63799075D01*
X102419862Y-63817548D01*
X102277363Y-63872752D01*
X102103959Y-63980119D01*
X101953237Y-64117520D01*
X101830328Y-64280277D01*
X101830323Y-64280286D01*
X101755937Y-64429675D01*
X101739418Y-64462850D01*
X101683603Y-64659017D01*
X101664785Y-64862100D01*
X101330500Y-64862100D01*
X101330500Y-63942353D01*
X101330498Y-63942341D01*
X101327711Y-63928331D01*
X101318867Y-63883869D01*
X101274552Y-63817548D01*
X101273150Y-63816611D01*
X101208233Y-63773234D01*
X101208231Y-63773233D01*
X101208228Y-63773232D01*
X101208227Y-63773232D01*
X101149758Y-63761601D01*
X101149748Y-63761600D01*
X101149747Y-63761600D01*
X99595479Y-63761600D01*
X99537288Y-63742693D01*
X99525475Y-63732604D01*
X99329496Y-63536625D01*
X99301719Y-63482108D01*
X99300500Y-63466621D01*
X99300500Y-61578800D01*
X99319407Y-61520609D01*
X99368907Y-61484645D01*
X99399500Y-61479800D01*
X101149747Y-61479800D01*
X101149748Y-61479800D01*
X101208231Y-61468167D01*
X101274552Y-61423852D01*
X101318867Y-61357531D01*
X101330500Y-61299048D01*
X101330500Y-60379300D01*
X101664785Y-60379300D01*
X101683603Y-60582383D01*
X101739418Y-60778550D01*
X101830327Y-60961121D01*
X101953236Y-61123879D01*
X102103959Y-61261281D01*
X102277363Y-61368648D01*
X102467544Y-61442324D01*
X102668024Y-61479800D01*
X102871976Y-61479800D01*
X103072456Y-61442324D01*
X103262637Y-61368648D01*
X103436041Y-61261281D01*
X103586764Y-61123879D01*
X103709673Y-60961121D01*
X103800582Y-60778550D01*
X103856397Y-60582383D01*
X103875215Y-60379300D01*
X103856397Y-60176217D01*
X103800582Y-59980050D01*
X103709673Y-59797479D01*
X103586764Y-59634721D01*
X103436041Y-59497319D01*
X103262637Y-59389952D01*
X103072456Y-59316276D01*
X103072455Y-59316275D01*
X103072453Y-59316275D01*
X102871976Y-59278800D01*
X102668024Y-59278800D01*
X102467546Y-59316275D01*
X102397632Y-59343359D01*
X102277363Y-59389952D01*
X102103959Y-59497319D01*
X101953237Y-59634720D01*
X101830328Y-59797477D01*
X101830323Y-59797486D01*
X101739419Y-59980047D01*
X101739418Y-59980050D01*
X101683603Y-60176217D01*
X101664785Y-60379300D01*
X101330500Y-60379300D01*
X101330500Y-59744778D01*
X101349407Y-59686587D01*
X101359490Y-59674780D01*
X103010460Y-58023811D01*
X103050021Y-57955289D01*
X103070500Y-57878862D01*
X103070500Y-57028098D01*
X103089407Y-56969907D01*
X103133734Y-56935784D01*
X103262637Y-56885848D01*
X103436041Y-56778481D01*
X103586764Y-56641079D01*
X103709673Y-56478321D01*
X103800582Y-56295750D01*
X103856397Y-56099583D01*
X103875215Y-55896500D01*
X103856397Y-55693417D01*
X103800582Y-55497250D01*
X103763733Y-55423248D01*
X103754721Y-55362731D01*
X103782350Y-55309119D01*
X104210460Y-54881011D01*
X104237904Y-54833476D01*
X104250021Y-54812489D01*
X104270500Y-54736062D01*
X104270500Y-30160438D01*
X104250021Y-30084011D01*
X104227239Y-30044552D01*
X104210460Y-30015489D01*
X104154511Y-29959539D01*
X104154511Y-29959540D01*
X103782351Y-29587380D01*
X103754574Y-29532863D01*
X103763733Y-29473252D01*
X103800582Y-29399250D01*
X103856397Y-29203083D01*
X103875215Y-29000000D01*
X103856397Y-28796917D01*
X103800582Y-28600750D01*
X103709673Y-28418179D01*
X103586764Y-28255421D01*
X103436041Y-28118019D01*
X103262637Y-28010652D01*
X103072456Y-27936976D01*
X103072455Y-27936975D01*
X103072453Y-27936975D01*
X102871976Y-27899500D01*
X102668024Y-27899500D01*
X102467546Y-27936975D01*
X102419862Y-27955448D01*
X102277363Y-28010652D01*
X102103959Y-28118019D01*
X101953237Y-28255420D01*
X101830328Y-28418177D01*
X101830323Y-28418186D01*
X101739419Y-28600747D01*
X101683603Y-28796917D01*
X101664785Y-29000000D01*
X101683603Y-29203082D01*
X101739419Y-29399254D01*
X101776264Y-29473249D01*
X101785277Y-29533767D01*
X101757647Y-29587379D01*
X101499504Y-29845523D01*
X101444987Y-29873301D01*
X101384555Y-29863730D01*
X101341290Y-29820465D01*
X101330500Y-29775520D01*
X101330500Y-28080253D01*
X101330498Y-28080241D01*
X101327711Y-28066231D01*
X101318867Y-28021769D01*
X101274552Y-27955448D01*
X101274548Y-27955445D01*
X101208233Y-27911134D01*
X101208231Y-27911133D01*
X101208228Y-27911132D01*
X101208227Y-27911132D01*
X101149758Y-27899501D01*
X101149748Y-27899500D01*
X99310252Y-27899500D01*
X99310251Y-27899500D01*
X99310241Y-27899501D01*
X99251772Y-27911132D01*
X99251766Y-27911134D01*
X99185451Y-27955445D01*
X99185445Y-27955451D01*
X99141134Y-28021766D01*
X99141132Y-28021772D01*
X99129501Y-28080241D01*
X99129500Y-28080253D01*
X99129500Y-29919746D01*
X99129501Y-29919758D01*
X99141132Y-29978227D01*
X99141134Y-29978233D01*
X99148561Y-29989348D01*
X99185448Y-30044552D01*
X99251769Y-30088867D01*
X99296231Y-30097711D01*
X99310241Y-30100498D01*
X99310246Y-30100498D01*
X99310252Y-30100500D01*
X99310253Y-30100500D01*
X101005520Y-30100500D01*
X101063711Y-30119407D01*
X101099675Y-30168907D01*
X101099675Y-30230093D01*
X101075524Y-30269504D01*
X100045489Y-31299540D01*
X100045488Y-31299539D01*
X99989539Y-31355489D01*
X99949980Y-31424007D01*
X99949978Y-31424011D01*
X99929500Y-31500435D01*
X99929500Y-32283300D01*
X99910593Y-32341491D01*
X99861093Y-32377455D01*
X99830500Y-32382300D01*
X99310252Y-32382300D01*
X99310251Y-32382300D01*
X99310241Y-32382301D01*
X99251772Y-32393932D01*
X99251766Y-32393934D01*
X99185451Y-32438245D01*
X99185445Y-32438251D01*
X99141134Y-32504566D01*
X99141132Y-32504572D01*
X99129501Y-32563041D01*
X99129500Y-32563053D01*
X99129500Y-34402546D01*
X99129501Y-34402558D01*
X99141132Y-34461027D01*
X99141134Y-34461033D01*
X99148561Y-34472148D01*
X99185448Y-34527352D01*
X99251769Y-34571667D01*
X99296231Y-34580511D01*
X99310241Y-34583298D01*
X99310246Y-34583298D01*
X99310252Y-34583300D01*
X99310253Y-34583300D01*
X101149747Y-34583300D01*
X101149748Y-34583300D01*
X101208231Y-34571667D01*
X101274552Y-34527352D01*
X101318867Y-34461031D01*
X101330500Y-34402548D01*
X101330500Y-32563052D01*
X101318867Y-32504569D01*
X101274552Y-32438248D01*
X101274548Y-32438245D01*
X101208233Y-32393934D01*
X101208231Y-32393933D01*
X101208228Y-32393932D01*
X101208227Y-32393932D01*
X101149758Y-32382301D01*
X101149748Y-32382300D01*
X101149747Y-32382300D01*
X100629500Y-32382300D01*
X100571309Y-32363393D01*
X100535345Y-32313893D01*
X100530500Y-32283300D01*
X100530500Y-31705478D01*
X100549407Y-31647287D01*
X100559490Y-31635480D01*
X102180042Y-30014927D01*
X102234557Y-29987152D01*
X102285802Y-29992617D01*
X102467544Y-30063024D01*
X102668024Y-30100500D01*
X102871976Y-30100500D01*
X103072456Y-30063024D01*
X103254193Y-29992618D01*
X103315284Y-29989229D01*
X103359959Y-30014930D01*
X103640504Y-30295475D01*
X103668281Y-30349992D01*
X103669500Y-30365479D01*
X103669500Y-32589432D01*
X103650593Y-32647623D01*
X103601093Y-32683587D01*
X103539907Y-32683587D01*
X103503806Y-32662595D01*
X103436041Y-32600819D01*
X103262637Y-32493452D01*
X103072456Y-32419776D01*
X103072455Y-32419775D01*
X103072453Y-32419775D01*
X102871976Y-32382300D01*
X102668024Y-32382300D01*
X102467546Y-32419775D01*
X102419862Y-32438248D01*
X102277363Y-32493452D01*
X102122350Y-32589432D01*
X102103959Y-32600819D01*
X101953237Y-32738220D01*
X101830328Y-32900977D01*
X101830323Y-32900986D01*
X101739419Y-33083547D01*
X101739418Y-33083550D01*
X101683603Y-33279717D01*
X101664785Y-33482800D01*
X101683603Y-33685883D01*
X101739418Y-33882050D01*
X101830327Y-34064621D01*
X101953236Y-34227379D01*
X102103959Y-34364781D01*
X102277363Y-34472148D01*
X102467544Y-34545824D01*
X102668024Y-34583300D01*
X102871976Y-34583300D01*
X103072456Y-34545824D01*
X103262637Y-34472148D01*
X103436041Y-34364781D01*
X103503806Y-34303005D01*
X103559545Y-34277775D01*
X103619470Y-34290127D01*
X103660691Y-34335343D01*
X103669500Y-34376167D01*
X103669500Y-37072132D01*
X103650593Y-37130323D01*
X103601093Y-37166287D01*
X103539907Y-37166287D01*
X103503806Y-37145295D01*
X103436041Y-37083519D01*
X103262637Y-36976152D01*
X103072456Y-36902476D01*
X103072455Y-36902475D01*
X103072453Y-36902475D01*
X102871976Y-36865000D01*
X102668024Y-36865000D01*
X102467546Y-36902475D01*
X102419862Y-36920948D01*
X102277363Y-36976152D01*
X102122350Y-37072132D01*
X102103959Y-37083519D01*
X101953237Y-37220920D01*
X101830328Y-37383677D01*
X101830323Y-37383686D01*
X101739419Y-37566247D01*
X101739418Y-37566250D01*
X101683603Y-37762417D01*
X101664785Y-37965500D01*
X101683603Y-38168583D01*
X101739418Y-38364750D01*
X101830327Y-38547321D01*
X101953236Y-38710079D01*
X102103959Y-38847481D01*
X102277363Y-38954848D01*
X102467544Y-39028524D01*
X102668024Y-39066000D01*
X102871976Y-39066000D01*
X103072456Y-39028524D01*
X103262637Y-38954848D01*
X103436041Y-38847481D01*
X103503806Y-38785705D01*
X103559545Y-38760475D01*
X103619470Y-38772827D01*
X103660691Y-38818043D01*
X103669500Y-38858867D01*
X103669500Y-41554932D01*
X103650593Y-41613123D01*
X103601093Y-41649087D01*
X103539907Y-41649087D01*
X103503806Y-41628095D01*
X103436041Y-41566319D01*
X103262637Y-41458952D01*
X103162336Y-41420095D01*
X103133737Y-41409016D01*
X103086306Y-41370364D01*
X103070500Y-41316701D01*
X103070500Y-40465937D01*
X103070499Y-40465935D01*
X103050021Y-40389511D01*
X103050019Y-40389507D01*
X103010460Y-40320989D01*
X102954511Y-40265039D01*
X102954511Y-40265040D01*
X101359496Y-38670025D01*
X101331719Y-38615508D01*
X101330500Y-38600021D01*
X101330500Y-37045753D01*
X101330498Y-37045741D01*
X101327711Y-37031731D01*
X101318867Y-36987269D01*
X101274552Y-36920948D01*
X101274548Y-36920945D01*
X101208233Y-36876634D01*
X101208231Y-36876633D01*
X101208228Y-36876632D01*
X101208227Y-36876632D01*
X101149758Y-36865001D01*
X101149748Y-36865000D01*
X99310252Y-36865000D01*
X99310251Y-36865000D01*
X99310241Y-36865001D01*
X99251772Y-36876632D01*
X99251766Y-36876634D01*
X99185451Y-36920945D01*
X99185445Y-36920951D01*
X99141134Y-36987266D01*
X99141132Y-36987272D01*
X99129501Y-37045741D01*
X99129500Y-37045753D01*
X99129500Y-38885246D01*
X99129501Y-38885258D01*
X99141132Y-38943727D01*
X99141134Y-38943733D01*
X99148561Y-38954848D01*
X99185448Y-39010052D01*
X99251769Y-39054367D01*
X99296231Y-39063211D01*
X99310241Y-39065998D01*
X99310246Y-39065998D01*
X99310252Y-39066000D01*
X100864521Y-39066000D01*
X100922712Y-39084907D01*
X100934525Y-39094996D01*
X102440504Y-40600975D01*
X102468281Y-40655492D01*
X102469500Y-40670979D01*
X102469500Y-41316701D01*
X102450593Y-41374892D01*
X102406263Y-41409016D01*
X102359450Y-41427151D01*
X102277363Y-41458952D01*
X102122350Y-41554932D01*
X102103959Y-41566319D01*
X101953237Y-41703720D01*
X101830328Y-41866477D01*
X101830323Y-41866486D01*
X101739419Y-42049047D01*
X101739418Y-42049050D01*
X101683603Y-42245217D01*
X101664785Y-42448300D01*
X101683603Y-42651383D01*
X101739418Y-42847550D01*
X101830327Y-43030121D01*
X101953236Y-43192879D01*
X102103959Y-43330281D01*
X102277363Y-43437648D01*
X102467544Y-43511324D01*
X102668024Y-43548800D01*
X102871976Y-43548800D01*
X103072456Y-43511324D01*
X103262637Y-43437648D01*
X103436041Y-43330281D01*
X103503806Y-43268505D01*
X103559545Y-43243275D01*
X103619470Y-43255627D01*
X103660691Y-43300843D01*
X103669500Y-43341667D01*
X103669500Y-46037632D01*
X103650593Y-46095823D01*
X103601093Y-46131787D01*
X103539907Y-46131787D01*
X103503806Y-46110795D01*
X103436041Y-46049019D01*
X103262637Y-45941652D01*
X103072456Y-45867976D01*
X103072455Y-45867975D01*
X103072453Y-45867975D01*
X102871976Y-45830500D01*
X102668024Y-45830500D01*
X102467546Y-45867975D01*
X102419862Y-45886448D01*
X102277363Y-45941652D01*
X102122350Y-46037632D01*
X102103959Y-46049019D01*
X101953237Y-46186420D01*
X101830328Y-46349177D01*
X101830323Y-46349186D01*
X101739419Y-46531747D01*
X101739418Y-46531750D01*
X101683603Y-46727917D01*
X101664785Y-46931000D01*
X101683603Y-47134083D01*
X101739418Y-47330250D01*
X101830327Y-47512821D01*
X101953236Y-47675579D01*
X102103959Y-47812981D01*
X102277363Y-47920348D01*
X102467544Y-47994024D01*
X102668024Y-48031500D01*
X102871976Y-48031500D01*
X103072456Y-47994024D01*
X103262637Y-47920348D01*
X103436041Y-47812981D01*
X103503806Y-47751205D01*
X103559545Y-47725975D01*
X103619470Y-47738327D01*
X103660691Y-47783543D01*
X103669500Y-47824367D01*
X103669500Y-50520432D01*
X103650593Y-50578623D01*
X103601093Y-50614587D01*
X103539907Y-50614587D01*
X103503806Y-50593595D01*
X103436041Y-50531819D01*
X103262637Y-50424452D01*
X103162336Y-50385595D01*
X103133737Y-50374516D01*
X103086306Y-50335864D01*
X103070500Y-50282201D01*
X103070500Y-49431437D01*
X103070499Y-49431435D01*
X103050021Y-49355011D01*
X103050019Y-49355007D01*
X103010460Y-49286489D01*
X102954511Y-49230539D01*
X102954511Y-49230540D01*
X101359496Y-47635525D01*
X101331719Y-47581008D01*
X101330500Y-47565521D01*
X101330500Y-46011253D01*
X101330498Y-46011241D01*
X101327711Y-45997231D01*
X101318867Y-45952769D01*
X101274552Y-45886448D01*
X101274548Y-45886445D01*
X101208233Y-45842134D01*
X101208231Y-45842133D01*
X101208228Y-45842132D01*
X101208227Y-45842132D01*
X101149758Y-45830501D01*
X101149748Y-45830500D01*
X99310252Y-45830500D01*
X99310251Y-45830500D01*
X99310241Y-45830501D01*
X99251772Y-45842132D01*
X99251766Y-45842134D01*
X99185451Y-45886445D01*
X99185445Y-45886451D01*
X99141134Y-45952766D01*
X99141132Y-45952772D01*
X99129501Y-46011241D01*
X99129500Y-46011253D01*
X99129500Y-47565521D01*
X99110593Y-47623712D01*
X99100504Y-47635525D01*
X98815489Y-47920540D01*
X98815488Y-47920539D01*
X98759539Y-47976489D01*
X98719980Y-48045007D01*
X98719978Y-48045011D01*
X98699500Y-48121435D01*
X98699500Y-48121438D01*
X98699500Y-63671662D01*
X98719979Y-63748089D01*
X98727780Y-63761600D01*
X98759540Y-63816611D01*
X99100505Y-64157576D01*
X99128281Y-64212091D01*
X99129500Y-64227578D01*
X99129500Y-65496621D01*
X99110593Y-65554812D01*
X99100504Y-65566625D01*
X98445489Y-66221640D01*
X98445488Y-66221639D01*
X98389539Y-66277589D01*
X98349980Y-66346107D01*
X98349978Y-66346111D01*
X98329500Y-66422535D01*
X85500500Y-66422535D01*
X85500500Y-41528553D01*
X99129500Y-41528553D01*
X99129500Y-43368046D01*
X99129501Y-43368058D01*
X99141132Y-43426527D01*
X99141134Y-43426533D01*
X99148561Y-43437648D01*
X99185448Y-43492852D01*
X99251769Y-43537167D01*
X99296231Y-43546011D01*
X99310241Y-43548798D01*
X99310246Y-43548798D01*
X99310252Y-43548800D01*
X99310253Y-43548800D01*
X101149747Y-43548800D01*
X101149748Y-43548800D01*
X101208231Y-43537167D01*
X101274552Y-43492852D01*
X101318867Y-43426531D01*
X101330500Y-43368048D01*
X101330500Y-41528552D01*
X101318867Y-41470069D01*
X101274552Y-41403748D01*
X101274548Y-41403745D01*
X101208233Y-41359434D01*
X101208231Y-41359433D01*
X101208228Y-41359432D01*
X101208227Y-41359432D01*
X101149758Y-41347801D01*
X101149748Y-41347800D01*
X99310252Y-41347800D01*
X99310251Y-41347800D01*
X99310241Y-41347801D01*
X99251772Y-41359432D01*
X99251766Y-41359434D01*
X99185451Y-41403745D01*
X99185445Y-41403751D01*
X99141134Y-41470066D01*
X99141132Y-41470072D01*
X99129501Y-41528541D01*
X99129500Y-41528553D01*
X85500500Y-41528553D01*
X85500500Y-27948322D01*
X85519407Y-27890131D01*
X85529496Y-27878318D01*
X86878318Y-26529496D01*
X86932835Y-26501719D01*
X86948322Y-26500500D01*
X116051678Y-26500500D01*
X116109869Y-26519407D01*
G37*
%TD.AperFunction*%
%TD*%
M02*
