%TF.GenerationSoftware,KiCad,Pcbnew,8.0.7*%
%TF.CreationDate,2025-01-01T13:33:22+01:00*%
%TF.ProjectId,termometer_kombo,7465726d-6f6d-4657-9465-725f6b6f6d62,rev?*%
%TF.SameCoordinates,Original*%
%TF.FileFunction,Soldermask,Top*%
%TF.FilePolarity,Negative*%
%FSLAX46Y46*%
G04 Gerber Fmt 4.6, Leading zero omitted, Abs format (unit mm)*
G04 Created by KiCad (PCBNEW 8.0.7) date 2025-01-01 13:33:22*
%MOMM*%
%LPD*%
G01*
G04 APERTURE LIST*
G04 Aperture macros list*
%AMRoundRect*
0 Rectangle with rounded corners*
0 $1 Rounding radius*
0 $2 $3 $4 $5 $6 $7 $8 $9 X,Y pos of 4 corners*
0 Add a 4 corners polygon primitive as box body*
4,1,4,$2,$3,$4,$5,$6,$7,$8,$9,$2,$3,0*
0 Add four circle primitives for the rounded corners*
1,1,$1+$1,$2,$3*
1,1,$1+$1,$4,$5*
1,1,$1+$1,$6,$7*
1,1,$1+$1,$8,$9*
0 Add four rect primitives between the rounded corners*
20,1,$1+$1,$2,$3,$4,$5,0*
20,1,$1+$1,$4,$5,$6,$7,0*
20,1,$1+$1,$6,$7,$8,$9,0*
20,1,$1+$1,$8,$9,$2,$3,0*%
G04 Aperture macros list end*
%ADD10RoundRect,0.250000X0.262500X0.450000X-0.262500X0.450000X-0.262500X-0.450000X0.262500X-0.450000X0*%
%ADD11R,1.800000X1.800000*%
%ADD12C,1.800000*%
%ADD13C,2.000000*%
%ADD14RoundRect,0.250000X0.250000X0.475000X-0.250000X0.475000X-0.250000X-0.475000X0.250000X-0.475000X0*%
%ADD15C,4.000000*%
%ADD16RoundRect,0.250000X0.625000X-0.375000X0.625000X0.375000X-0.625000X0.375000X-0.625000X-0.375000X0*%
%ADD17RoundRect,0.250000X0.475000X-0.250000X0.475000X0.250000X-0.475000X0.250000X-0.475000X-0.250000X0*%
%ADD18C,1.700000*%
%ADD19O,1.700000X1.700000*%
%ADD20RoundRect,0.250000X-0.450000X0.262500X-0.450000X-0.262500X0.450000X-0.262500X0.450000X0.262500X0*%
%ADD21RoundRect,0.100000X-0.100000X0.637500X-0.100000X-0.637500X0.100000X-0.637500X0.100000X0.637500X0*%
%ADD22RoundRect,0.150000X0.150000X-0.512500X0.150000X0.512500X-0.150000X0.512500X-0.150000X-0.512500X0*%
%ADD23C,1.500000*%
%ADD24RoundRect,0.250000X-0.262500X-0.450000X0.262500X-0.450000X0.262500X0.450000X-0.262500X0.450000X0*%
%ADD25R,1.050000X1.500000*%
%ADD26O,1.050000X1.500000*%
%ADD27C,0.800000*%
%ADD28R,1.300000X0.450000*%
G04 APERTURE END LIST*
D10*
%TO.C,R5*%
X110712500Y-90400000D03*
X108887500Y-90400000D03*
%TD*%
D11*
%TO.C,D26*%
X100230000Y-141068900D03*
D12*
X102770000Y-141068900D03*
%TD*%
D11*
%TO.C,D24*%
X100230000Y-132103400D03*
D12*
X102770000Y-132103400D03*
%TD*%
D11*
%TO.C,D1*%
X100230000Y-29000000D03*
D12*
X102770000Y-29000000D03*
%TD*%
D11*
%TO.C,D19*%
X100230000Y-109689600D03*
D12*
X102770000Y-109689600D03*
%TD*%
D10*
%TO.C,R1*%
X110712500Y-76500000D03*
X108887500Y-76500000D03*
%TD*%
D11*
%TO.C,D7*%
X100230000Y-55896500D03*
D12*
X102770000Y-55896500D03*
%TD*%
D11*
%TO.C,D27*%
X100230000Y-145551700D03*
D12*
X102770000Y-145551700D03*
%TD*%
D11*
%TO.C,D11*%
X100230000Y-73827600D03*
D12*
X102770000Y-73827600D03*
%TD*%
D11*
%TO.C,D2*%
X100230000Y-33482800D03*
D12*
X102770000Y-33482800D03*
%TD*%
D13*
%TO.C,FID1*%
X115900000Y-148400000D03*
%TD*%
D11*
%TO.C,D3*%
X100230000Y-37965500D03*
D12*
X102770000Y-37965500D03*
%TD*%
D14*
%TO.C,C7*%
X110875000Y-135137500D03*
X108975000Y-135137500D03*
%TD*%
D10*
%TO.C,R4*%
X110712500Y-86900000D03*
X108887500Y-86900000D03*
%TD*%
D14*
%TO.C,C3*%
X110850000Y-137500000D03*
X108950000Y-137500000D03*
%TD*%
D11*
%TO.C,D10*%
X100230000Y-69344800D03*
D12*
X102770000Y-69344800D03*
%TD*%
D11*
%TO.C,D30*%
X100230000Y-159000000D03*
D12*
X102770000Y-159000000D03*
%TD*%
D14*
%TO.C,C4*%
X110850000Y-144287500D03*
X108950000Y-144287500D03*
%TD*%
D11*
%TO.C,D20*%
X100230000Y-114172400D03*
D12*
X102770000Y-114172400D03*
%TD*%
D15*
%TO.C,REF2*%
X92000000Y-155000000D03*
%TD*%
D16*
%TO.C,F1*%
X107900000Y-159400000D03*
X107900000Y-156600000D03*
%TD*%
D11*
%TO.C,D14*%
X100230000Y-87275900D03*
D12*
X102770000Y-87275900D03*
%TD*%
D11*
%TO.C,D16*%
X100230000Y-96241400D03*
D12*
X102770000Y-96241400D03*
%TD*%
D11*
%TO.C,D15*%
X100230000Y-91758600D03*
D12*
X102770000Y-91758600D03*
%TD*%
D17*
%TO.C,C6*%
X111900000Y-124950000D03*
X111900000Y-123050000D03*
%TD*%
D11*
%TO.C,D9*%
X100230000Y-64862100D03*
D12*
X102770000Y-64862100D03*
%TD*%
D18*
%TO.C,J2*%
X116000000Y-137400000D03*
D19*
X116000000Y-139940000D03*
X116000000Y-142480000D03*
X116000000Y-145020000D03*
%TD*%
D10*
%TO.C,R2*%
X110712500Y-80000000D03*
X108887500Y-80000000D03*
%TD*%
D11*
%TO.C,D5*%
X100230000Y-46931000D03*
D12*
X102770000Y-46931000D03*
%TD*%
D11*
%TO.C,D4*%
X100230000Y-42448300D03*
D12*
X102770000Y-42448300D03*
%TD*%
D20*
%TO.C,R7*%
X111100000Y-117237500D03*
X111100000Y-119062500D03*
%TD*%
D21*
%TO.C,U1*%
X114725000Y-127087500D03*
X114075000Y-127087500D03*
X113425000Y-127087500D03*
X112775000Y-127087500D03*
X112125000Y-127087500D03*
X111475000Y-127087500D03*
X110825000Y-127087500D03*
X110175000Y-127087500D03*
X109525000Y-127087500D03*
X108875000Y-127087500D03*
X108875000Y-132812500D03*
X109525000Y-132812500D03*
X110175000Y-132812500D03*
X110825000Y-132812500D03*
X111475000Y-132812500D03*
X112125000Y-132812500D03*
X112775000Y-132812500D03*
X113425000Y-132812500D03*
X114075000Y-132812500D03*
X114725000Y-132812500D03*
%TD*%
D20*
%TO.C,R9*%
X107700000Y-123087500D03*
X107700000Y-124912500D03*
%TD*%
D10*
%TO.C,R10*%
X114812500Y-76500000D03*
X112987500Y-76500000D03*
%TD*%
D11*
%TO.C,D13*%
X100230000Y-82793100D03*
D12*
X102770000Y-82793100D03*
%TD*%
D22*
%TO.C,U2*%
X108950000Y-142062500D03*
X109900000Y-142062500D03*
X110850000Y-142062500D03*
X110850000Y-139787500D03*
X108950000Y-139787500D03*
%TD*%
D13*
%TO.C,FID1*%
X115300000Y-28700000D03*
%TD*%
D11*
%TO.C,D6*%
X100230000Y-51413800D03*
D12*
X102770000Y-51413800D03*
%TD*%
D11*
%TO.C,D23*%
X100230000Y-127620700D03*
D12*
X102770000Y-127620700D03*
%TD*%
D17*
%TO.C,C1*%
X111100000Y-115600000D03*
X111100000Y-113700000D03*
%TD*%
D23*
%TO.C,Y1*%
X114900000Y-111400000D03*
X114900000Y-116300000D03*
%TD*%
D24*
%TO.C,R8*%
X113287500Y-106600000D03*
X115112500Y-106600000D03*
%TD*%
D11*
%TO.C,D18*%
X100230000Y-105206900D03*
D12*
X102770000Y-105206900D03*
%TD*%
D11*
%TO.C,D29*%
X100230000Y-154517200D03*
D12*
X102770000Y-154517200D03*
%TD*%
D11*
%TO.C,D22*%
X100230000Y-123137900D03*
D12*
X102770000Y-123137900D03*
%TD*%
D13*
%TO.C,FID1*%
X87100000Y-148400000D03*
%TD*%
D11*
%TO.C,D21*%
X100230000Y-118655200D03*
D12*
X102770000Y-118655200D03*
%TD*%
D13*
%TO.C,SW1*%
X115200000Y-102700000D03*
X108700000Y-102700000D03*
X115200000Y-98200000D03*
X108700000Y-98200000D03*
%TD*%
D25*
%TO.C,U3*%
X110730000Y-69200000D03*
D26*
X112000000Y-69200000D03*
X113270000Y-69200000D03*
%TD*%
D11*
%TO.C,D28*%
X100230000Y-150034500D03*
D12*
X102770000Y-150034500D03*
%TD*%
D15*
%TO.C,REF2*%
X92000000Y-130000000D03*
%TD*%
D27*
%TO.C,J1*%
X112850000Y-157805000D03*
X112850000Y-152805000D03*
D28*
X111750000Y-156605000D03*
X111750000Y-155955000D03*
X111750000Y-155305000D03*
X111750000Y-154655000D03*
X111750000Y-154005000D03*
D12*
X115600000Y-159180000D03*
D13*
X111800000Y-159030000D03*
X111800000Y-151580000D03*
D12*
X115600000Y-151430000D03*
%TD*%
D11*
%TO.C,D8*%
X100230000Y-60379300D03*
D12*
X102770000Y-60379300D03*
%TD*%
D11*
%TO.C,D17*%
X100230000Y-100724100D03*
D12*
X102770000Y-100724100D03*
%TD*%
D11*
%TO.C,D12*%
X100230000Y-78310300D03*
D12*
X102770000Y-78310300D03*
%TD*%
D20*
%TO.C,R11*%
X114900000Y-123087500D03*
X114900000Y-124912500D03*
%TD*%
D10*
%TO.C,R6*%
X110712500Y-93900000D03*
X108887500Y-93900000D03*
%TD*%
D17*
%TO.C,C5*%
X109800000Y-124950000D03*
X109800000Y-123050000D03*
%TD*%
D10*
%TO.C,R3*%
X110712500Y-83500000D03*
X108887500Y-83500000D03*
%TD*%
D17*
%TO.C,C2*%
X111100000Y-112100000D03*
X111100000Y-110200000D03*
%TD*%
D11*
%TO.C,D25*%
X100230000Y-136586200D03*
D12*
X102770000Y-136586200D03*
%TD*%
M02*
