M48
; DRILL file {KiCad 8.0.7} date 2025-01-01T13:33:25+0100
; FORMAT={-:-/ absolute / inch / decimal}
; #@! TF.CreationDate,2025-01-01T13:33:25+01:00
; #@! TF.GenerationSoftware,Kicad,Pcbnew,8.0.7
; #@! TF.FileFunction,Plated,1,2,PTH
FMAT,2
INCH
; #@! TA.AperFunction,Plated,PTH,ViaDrill
T1C0.0118
; #@! TA.AperFunction,Plated,PTH,ComponentDrill
T2C0.0295
; #@! TA.AperFunction,Plated,PTH,ComponentDrill
T3C0.0315
; #@! TA.AperFunction,Plated,PTH,ComponentDrill
T4C0.0354
; #@! TA.AperFunction,Plated,PTH,ComponentDrill
T5C0.0394
; #@! TA.AperFunction,Plated,PTH,ComponentDrill
T6C0.0433
; #@! TA.AperFunction,Plated,PTH,ComponentDrill
T7C0.0472
; #@! TA.AperFunction,Plated,PTH,ComponentDrill
T8C0.0551
%
G90
G05
T1
X4.2362Y-3.0118
X4.2864Y-5.1811
X4.2864Y-5.074
X4.3071Y-3.5039
X4.3091Y-3.6417
X4.312Y-5.0472
X4.3125Y-5.1571
X4.3248Y-3.3661
X4.3268Y-5.3661
X4.328Y-5.6444
X4.3376Y-5.074
X4.3406Y-3.2323
X4.3563Y-3.0945
X4.3583Y-2.9567
X4.3632Y-5.0472
X4.3888Y-5.1772
X4.389Y-5.074
X4.4203Y-4.878
X4.4307Y-4.5653
X4.4331Y-4.4291
X4.4606Y-5.1535
X4.5167Y-5.0472
X4.5748Y-4.846
T2
X4.3594Y-2.7244
X4.4094Y-2.7244
X4.4594Y-2.7244
T3
X4.5236Y-4.3858
X4.5236Y-4.5787
T4
X3.9461Y-1.1417
X3.9461Y-1.3182
X3.9461Y-1.4947
X3.9461Y-1.6712
X3.9461Y-1.8477
X3.9461Y-2.0242
X3.9461Y-2.2006
X3.9461Y-2.3771
X3.9461Y-2.5536
X3.9461Y-2.7301
X3.9461Y-2.9066
X3.9461Y-3.0831
X3.9461Y-3.2596
X3.9461Y-3.4361
X3.9461Y-3.6125
X3.9461Y-3.789
X3.9461Y-3.9655
X3.9461Y-4.142
X3.9461Y-4.3185
X3.9461Y-4.495
X3.9461Y-4.6715
X3.9461Y-4.8479
X3.9461Y-5.0244
X3.9461Y-5.2009
X3.9461Y-5.3774
X3.9461Y-5.5539
X3.9461Y-5.7304
X3.9461Y-5.9069
X3.9461Y-6.0834
X3.9461Y-6.2598
X4.0461Y-1.1417
X4.0461Y-1.3182
X4.0461Y-1.4947
X4.0461Y-1.6712
X4.0461Y-1.8477
X4.0461Y-2.0242
X4.0461Y-2.2006
X4.0461Y-2.3771
X4.0461Y-2.5536
X4.0461Y-2.7301
X4.0461Y-2.9066
X4.0461Y-3.0831
X4.0461Y-3.2596
X4.0461Y-3.4361
X4.0461Y-3.6125
X4.0461Y-3.789
X4.0461Y-3.9655
X4.0461Y-4.142
X4.0461Y-4.3185
X4.0461Y-4.495
X4.0461Y-4.6715
X4.0461Y-4.8479
X4.0461Y-5.0244
X4.0461Y-5.2009
X4.0461Y-5.3774
X4.0461Y-5.5539
X4.0461Y-5.7304
X4.0461Y-5.9069
X4.0461Y-6.0834
X4.0461Y-6.2598
T5
X4.5669Y-5.4094
X4.5669Y-5.5094
X4.5669Y-5.6094
X4.5669Y-5.7094
T6
X4.2795Y-3.8661
X4.2795Y-4.0433
X4.5354Y-3.8661
X4.5354Y-4.0433
T7
X4.5512Y-5.9618
X4.5512Y-6.2669
T8
X4.4016Y-5.9677
X4.4016Y-6.261
M30
